<?xml version="1.0"?>
<svg width="640" height="480" xmlns="http://www.w3.org/2000/svg" xmlns:svg="http://www.w3.org/2000/svg">
 <!-- Created with SVG-edit - http://svg-edit.googlecode.com/ -->
 <g>
  <title>Layer 1</title>
  <text xml:space="preserve" text-anchor="middle" font-family="Sans-serif" font-size="24" id="svg_1" y="43" x="423" stroke-width="0" stroke="#000000" fill="#7f007f">this is made on svg-edit.gihub.io</text>
  <path id="svg_3" d="m209.665696,413.579912c-8.954544,-4.038072 2.730449,-12.111551 7.154306,-15.682879c2.979845,-2.750387 -17.077704,0.385819 -8.609582,-9.161877c9.290765,-7.799946 5.781203,-20.995729 -3.505539,-27.129622c-12.780498,-8.629545 -29.178695,-16.015228 -33.90028,-32.128939c-4.774225,-10.036514 6.54793,-20.607011 -0.734418,-29.670246c-5.861634,-11.767653 0.98642,-24.038849 5.24298,-34.939751c1.957487,-15.079184 -10.033723,-27.003952 -16.62815,-39.392337c-8.165399,-11.838621 -12.87231,-25.633339 -13.548682,-40.009072c-1.775758,-6.136172 0.189415,-15.66548 7.280353,-7.392681c14.849483,11.89039 31.15172,23.172936 41.544611,39.448011c1.967268,5.878689 9.844577,22.916811 10.284452,7.48782c0.206017,-21.206071 6.682844,-44.334463 23.279205,-58.54522c11.288556,-10.286094 17.37643,7.724443 17.903146,16.876716c2.9382,18.007831 -1.932219,35.865528 -7.359568,52.87637c-1.992435,7.905485 -7.181242,29.5694 7.617303,21.581548c34.090533,-13.16164 75.393743,0.661622 97.598848,28.93561c10.207491,13.689916 14.677719,31.27827 14.576797,48.166057c-5.256062,9.921496 14.273018,-0.185861 7.196629,11.260555c-4.165795,12.679903 -15.935803,19.560165 -24.180351,29.130882c-8.389502,7.669147 -2.164745,24.066112 -16.038552,26.482188c-20.243569,6.240589 -41.500981,8.974197 -62.575247,10.565343c-11.793097,2.416076 -17.516347,-11.069012 -6.213083,-16.675107c5.419094,-8.353976 20.922967,-8.939408 25.529476,-10.262829c-11.00805,1.077067 -24.583719,-3.415931 -33.859625,3.401533c-5.617602,9.11947 -10.116811,21.122673 -21.896984,23.725642c-5.293985,1.47032 -10.737149,2.649415 -16.158037,1.052277l-0.000008,0.000008z" stroke-width="5" stroke="#5f00bf" fill="#b2b2b2"/>
  <text id="svg_2" xml:space="preserve" text-anchor="middle" font-family="Fantasy" font-size="24" y="296" x="289" stroke-width="0" stroke="#000000" fill="#3f007f">YURT</text>
 </g>
</svg>