<?xml version="1.0" standalone="no"?>
<!DOCTYPE svg PUBLIC "-//W3C//DTD SVG 1.1//EN" "http://www.w3.org/Graphics/SVG/1.1/DTD/svg11.dtd" >
<svg>
<metadata>
Created by FontForge 20090914 at Wed Oct 12 12:53:20 2016
 By www-data
Copyright 2015 The El Messiri Project Authors.
</metadata>
<defs>
<font id="ElMessiri-SemiBold" horiz-adv-x="0" >
  <font-face 
    font-family="El Messiri SemiBold"
    font-weight="600"
    font-stretch="normal"
    units-per-em="1000"
    panose-1="0 0 7 0 0 0 0 0 0 0"
    ascent="800"
    descent="-200"
    x-height="470"
    cap-height="660"
    bbox="-167.005 -498.998 1389 1001"
    underline-thickness="50"
    underline-position="-50"
    unicode-range="U+0020-U+FEFC"
  />
<missing-glyph horiz-adv-x="262" 
 />
    <glyph glyph-name="uniFEF5" unicode="&#xfedf;&#xfe82;" horiz-adv-x="667" arabic-form="isolated" 
d="M61.5 12.5c-7.66699 8.33301 -11.5 19.502 -11.5 33.502c0 13.333 3.83301 24.166 11.5 32.499s17.5 12.5 29.5 12.5h121v281c0 29.333 -4.83301 51 -14.5 65s-21.5 25 -35.5 33c2 10 9.83301 20.667 23.5 32s30.5 17 50.5 17c26 0 47.5 -10 64.5 -30
s25.5 -48.667 25.5 -86v-312h100c20 0 35.333 8.16699 46 24.5s16 37.166 16 62.499v335c0 29.333 -4.83301 51 -14.5 65s-21.5 25 -35.5 33c2 10 9.83301 20.667 23.5 32s30.5 17 50.5 17c26 0 47.5 -10 64.5 -30s25.5 -48.667 25.5 -86v-369
c-0.666992 -53.333 -13.5 -95.833 -38.5 -127.5s-58.833 -47.5 -101.5 -47.5h-372c-11.333 0 -20.833 4.16699 -28.5 12.5zM257 575.502c-12 3.66699 -27.3389 9.50098 -46.0059 17.501c-15.333 6.66699 -27.666 11.667 -36.999 15s-19.333 5 -30 5
c-11.333 0 -21.166 -2.66699 -29.499 -8s-14.5 -8 -18.5 -8c-6 0 -9 4 -9 12s3.33301 17.167 10 27.5s16.5 19.166 29.5 26.499s28.5 11 46.5 11c12.667 0 25.334 -1.66699 38.001 -5s27.334 -8.33301 44.001 -15c16.667 -6 30 -10.5 40 -13.5s20 -4.5 30 -4.5
c8.66699 0 15.834 1.16699 21.501 3.5s11.334 5.5 17.001 9.5s10.5 6 14.5 6c4.66699 0 7 -4.66699 7 -14s-3 -19.5 -9 -30.5s-15.667 -20.5 -29 -28.5s-30 -12 -50 -12c-14.667 0 -28 1.83301 -40 5.5z" />
    <glyph glyph-name="uniFEF6" unicode="&#xfee0;&#xfe82;" horiz-adv-x="706" arabic-form="final" 
d="M706 91v-90.998h-70c-37.333 0 -68.666 8.66699 -93.999 26c-22.667 -17.333 -49.334 -26 -80.001 -26h-372c-11.333 0 -20.833 4.16699 -28.5 12.5s-11.5 19.5 -11.5 33.5c0 13.333 3.83301 24.166 11.5 32.499s17.5 12.5 29.5 12.5h121v281
c0 29.333 -4.83301 51 -14.5 65s-21.5 25 -35.5 33c2 10 9.83301 20.667 23.5 32s30.5 17 50.5 17c26 0 47.5 -10 64.5 -30s25.5 -48.667 25.5 -86v-312h100c20 0 35.333 8.16699 46 24.5s16 37.166 16 62.499v335c0 29.333 -4.83301 51 -14.5 65s-21.5 25 -35.5 33
c2 10 9.83301 20.667 23.5 32s30.5 17 50.5 17c26 0 47.5 -10 64.5 -30s25.5 -48.667 25.5 -86v-369c0 -31.333 -4.66699 -59.333 -14 -84h118zM257 575.502c-12 3.66699 -27.3389 9.50098 -46.0059 17.501c-15.333 6.66699 -27.666 11.667 -36.999 15s-19.333 5 -30 5
c-11.333 0 -21.166 -2.66699 -29.499 -8s-14.5 -8 -18.5 -8c-6 0 -9 4 -9 12s3.33301 17.167 10 27.5s16.5 19.166 29.5 26.499s28.5 11 46.5 11c12.667 0 25.334 -1.66699 38.001 -5s27.334 -8.33301 44.001 -15c16.667 -6 30 -10.5 40 -13.5s20 -4.5 30 -4.5
c8.66699 0 15.834 1.16699 21.501 3.5s11.334 5.5 17.001 9.5s10.5 6 14.5 6c4.66699 0 7 -4.66699 7 -14s-3 -19.5 -9 -30.5s-15.667 -20.5 -29 -28.5s-30 -12 -50 -12c-14.667 0 -28 1.83301 -40 5.5z" />
    <glyph glyph-name="uniFEF7" unicode="&#xfedf;&#xfe84;" horiz-adv-x="667" arabic-form="isolated" 
d="M61.5 12.5c-7.66699 8.33301 -11.5 19.502 -11.5 33.502c0 13.333 3.83301 24.166 11.5 32.499s17.5 12.5 29.5 12.5h121v281c0 29.333 -4.83301 51 -14.5 65s-21.5 25 -35.5 33c2 10 9.83301 20.667 23.5 32s30.5 17 50.5 17c26 0 47.5 -10 64.5 -30
s25.5 -48.667 25.5 -86v-312h100c20 0 35.333 8.16699 46 24.5s16 37.166 16 62.499v335c0 29.333 -4.83301 51 -14.5 65s-21.5 25 -35.5 33c2 10 9.83301 20.667 23.5 32s30.5 17 50.5 17c26 0 47.5 -10 64.5 -30s25.5 -48.667 25.5 -86v-369
c-0.666992 -53.333 -13.5 -95.833 -38.5 -127.5s-58.833 -47.5 -101.5 -47.5h-372c-11.333 0 -20.833 4.16699 -28.5 12.5zM135 593.002c0 10 4.00195 18.001 12.002 24.001s19.667 8.33301 35 7c-10 6 -18.833 15.833 -26.5 29.5s-11.5 28.5 -11.5 44.5
c0 25.333 9.33301 47.666 28 66.999s45 29 79 29c22.667 0 39.167 -4.16699 49.5 -12.5s15.5 -19.833 15.5 -34.5c0 -11.333 -2.83301 -19.666 -8.5 -24.999s-12.834 -8 -21.501 -8c-7.33301 0 -14.333 1.66699 -21 5c0.666992 10 -2 19 -8 27s-14 12.333 -24 13
c-6 -3.33301 -11.5 -9.83301 -16.5 -19.5s-7.5 -20.5 -7.5 -32.5c0 -22 7.16699 -38.833 21.5 -50.5s31.5 -17.5 51.5 -17.5c7.33301 0 14.666 0.666992 21.999 2s12.333 2.33301 15 3c7.33301 0 12.833 -2.33301 16.5 -7s5.5 -10.334 5.5 -17.001
c0 -6 -1.33301 -11.5 -4 -16.5s-6.33398 -7.5 -11.001 -7.5c-48 -4 -88.667 -8.16699 -122 -12.5s-50.666 -10.833 -51.999 -19.5c-11.333 7.33301 -17 17 -17 29z" />
    <glyph glyph-name="uniFEF8" unicode="&#xfee0;&#xfe84;" horiz-adv-x="706" arabic-form="final" 
d="M706 91v-90.998h-70c-37.333 0 -68.666 8.66699 -93.999 26c-22.667 -17.333 -49.334 -26 -80.001 -26h-372c-11.333 0 -20.833 4.16699 -28.5 12.5s-11.5 19.5 -11.5 33.5c0 13.333 3.83301 24.166 11.5 32.499s17.5 12.5 29.5 12.5h121v281
c0 29.333 -4.83301 51 -14.5 65s-21.5 25 -35.5 33c2 10 9.83301 20.667 23.5 32s30.5 17 50.5 17c26 0 47.5 -10 64.5 -30s25.5 -48.667 25.5 -86v-312h100c20 0 35.333 8.16699 46 24.5s16 37.166 16 62.499v335c0 29.333 -4.83301 51 -14.5 65s-21.5 25 -35.5 33
c2 10 9.83301 20.667 23.5 32s30.5 17 50.5 17c26 0 47.5 -10 64.5 -30s25.5 -48.667 25.5 -86v-369c0 -31.333 -4.66699 -59.333 -14 -84h118zM135 593.002c0 10 4.00195 18.001 12.002 24.001s19.667 8.33301 35 7c-10 6 -18.833 15.833 -26.5 29.5s-11.5 28.5 -11.5 44.5
c0 25.333 9.33301 47.666 28 66.999s45 29 79 29c22.667 0 39.167 -4.16699 49.5 -12.5s15.5 -19.833 15.5 -34.5c0 -11.333 -2.83301 -19.666 -8.5 -24.999s-12.834 -8 -21.501 -8c-7.33301 0 -14.333 1.66699 -21 5c0.666992 10 -2 19 -8 27s-14 12.333 -24 13
c-6 -3.33301 -11.5 -9.83301 -16.5 -19.5s-7.5 -20.5 -7.5 -32.5c0 -22 7.16699 -38.833 21.5 -50.5s31.5 -17.5 51.5 -17.5c7.33301 0 14.666 0.666992 21.999 2s12.333 2.33301 15 3c7.33301 0 12.833 -2.33301 16.5 -7s5.5 -10.334 5.5 -17.001
c0 -6 -1.33301 -11.5 -4 -16.5s-6.33398 -7.5 -11.001 -7.5c-48 -4 -88.667 -8.16699 -122 -12.5s-50.666 -10.833 -51.999 -19.5c-11.333 7.33301 -17 17 -17 29z" />
    <glyph glyph-name="uniFEF9" unicode="&#xfedf;&#xfe88;" horiz-adv-x="667" arabic-form="isolated" 
d="M61.5 12.5c-7.66699 8.33301 -11.5 19.502 -11.5 33.502c0 13.333 3.83301 24.166 11.5 32.499s17.5 12.5 29.5 12.5h121v281c0 29.333 -4.83301 51 -14.5 65s-21.5 25 -35.5 33c2 10 9.83301 20.667 23.5 32s30.5 17 50.5 17c26 0 47.5 -10 64.5 -30
s25.5 -48.667 25.5 -86v-312h100c20 0 35.333 8.16699 46 24.5s16 37.166 16 62.499v335c0 29.333 -4.83301 51 -14.5 65s-21.5 25 -35.5 33c2 10 9.83301 20.667 23.5 32s30.5 17 50.5 17c26 0 47.5 -10 64.5 -30s25.5 -48.667 25.5 -86v-369
c-0.666992 -53.333 -13.5 -95.833 -38.5 -127.5s-58.833 -47.5 -101.5 -47.5h-372c-11.333 0 -20.833 4.16699 -28.5 12.5zM147 -249.998c0 9.33301 4 17.001 12 23.001s19.667 8.66699 35 8c-9.33301 6 -17.833 15.667 -25.5 29s-11.5 28 -11.5 44
c0 26 9.33301 48.5 28 67.5s45.334 28.5 80.001 28.5c22 0 38.333 -4.16699 49 -12.5s16 -19.5 16 -33.5c0 -11.333 -3 -19.666 -9 -24.999s-13.333 -8 -22 -8c-7.33301 0 -14.333 1.66699 -21 5c0.666992 10 -2 19 -8 27s-14 12.333 -24 13c-6 -4 -11.5 -10.667 -16.5 -20
s-7.5 -20.333 -7.5 -33c0 -21.333 7.16699 -38 21.5 -50s31.5 -18 51.5 -18c8 0 15.667 0.833008 23 2.5s12 2.5 14 2.5c7.33301 0 12.833 -2.33301 16.5 -7s5.5 -10.334 5.5 -17.001c0 -6 -1.33301 -11.333 -4 -16s-6.33398 -7 -11.001 -7
c-45.333 -3.33301 -85.5 -7.33301 -120.5 -12s-53.167 -11.334 -54.5 -20.001c-11.333 7.33301 -17 17 -17 29z" />
    <glyph glyph-name="uniFEFA" unicode="&#xfee0;&#xfe88;" horiz-adv-x="706" arabic-form="final" 
d="M706 91v-90.998h-70c-37.333 0 -68.666 8.66699 -93.999 26c-22.667 -17.333 -49.334 -26 -80.001 -26h-372c-11.333 0 -20.833 4.16699 -28.5 12.5s-11.5 19.5 -11.5 33.5c0 13.333 3.83301 24.166 11.5 32.499s17.5 12.5 29.5 12.5h121v281
c0 29.333 -4.83301 51 -14.5 65s-21.5 25 -35.5 33c2 10 9.83301 20.667 23.5 32s30.5 17 50.5 17c26 0 47.5 -10 64.5 -30s25.5 -48.667 25.5 -86v-312h100c20 0 35.333 8.16699 46 24.5s16 37.166 16 62.499v335c0 29.333 -4.83301 51 -14.5 65s-21.5 25 -35.5 33
c2 10 9.83301 20.667 23.5 32s30.5 17 50.5 17c26 0 47.5 -10 64.5 -30s25.5 -48.667 25.5 -86v-369c0 -31.333 -4.66699 -59.333 -14 -84h118zM146 -249.998c0 9.33301 4 17.001 12 23.001s19.667 8.66699 35 8c-9.33301 6 -17.833 15.667 -25.5 29s-11.5 28 -11.5 44
c0 26 9.33301 48.5 28 67.5s45.334 28.5 80.001 28.5c22 0 38.333 -4.16699 49 -12.5s16 -19.5 16 -33.5c0 -11.333 -3 -19.666 -9 -24.999s-13.333 -8 -22 -8c-7.33301 0 -14.333 1.66699 -21 5c0.666992 10 -2 19 -8 27s-14 12.333 -24 13c-6 -4 -11.5 -10.667 -16.5 -20
s-7.5 -20.333 -7.5 -33c0 -21.333 7.16699 -38 21.5 -50s31.5 -18 51.5 -18c8 0 15.667 0.833008 23 2.5s12 2.5 14 2.5c7.33301 0 12.833 -2.33301 16.5 -7s5.5 -10.334 5.5 -17.001c0 -6 -1.33301 -11.333 -4 -16s-6.33398 -7 -11.001 -7
c-45.333 -3.33301 -85.5 -7.33301 -120.5 -12s-53.167 -11.334 -54.5 -20.001c-11.333 7.33301 -17 17 -17 29z" />
    <glyph glyph-name="uniFEFB" unicode="&#xfedf;&#xfe8e;" horiz-adv-x="667" arabic-form="isolated" 
d="M61.5 12.5c-7.66699 8.33301 -11.5 19.502 -11.5 33.502c0 13.333 3.83301 24.166 11.5 32.499s17.5 12.5 29.5 12.5h121v281c0 29.333 -4.83301 51 -14.5 65s-21.5 25 -35.5 33c2 10 9.83301 20.667 23.5 32s30.5 17 50.5 17c26 0 47.5 -10 64.5 -30
s25.5 -48.667 25.5 -86v-312h100c20 0 35.333 8.16699 46 24.5s16 37.166 16 62.499v335c0 29.333 -4.83301 51 -14.5 65s-21.5 25 -35.5 33c2 10 9.83301 20.667 23.5 32s30.5 17 50.5 17c26 0 47.5 -10 64.5 -30s25.5 -48.667 25.5 -86v-369
c-0.666992 -53.333 -13.5 -95.833 -38.5 -127.5s-58.833 -47.5 -101.5 -47.5h-372c-11.333 0 -20.833 4.16699 -28.5 12.5z" />
    <glyph glyph-name="uniFEFC" unicode="&#xfee0;&#xfe8e;" horiz-adv-x="706" arabic-form="final" 
d="M706 91v-90.998h-70c-37.333 0 -68.666 8.66699 -93.999 26c-22.667 -17.333 -49.334 -26 -80.001 -26h-372c-11.333 0 -20.833 4.16699 -28.5 12.5s-11.5 19.5 -11.5 33.5c0 13.333 3.83301 24.166 11.5 32.499s17.5 12.5 29.5 12.5h121v281
c0 29.333 -4.83301 51 -14.5 65s-21.5 25 -35.5 33c2 10 9.83301 20.667 23.5 32s30.5 17 50.5 17c26 0 47.5 -10 64.5 -30s25.5 -48.667 25.5 -86v-312h100c20 0 35.333 8.16699 46 24.5s16 37.166 16 62.499v335c0 29.333 -4.83301 51 -14.5 65s-21.5 25 -35.5 33
c2 10 9.83301 20.667 23.5 32s30.5 17 50.5 17c26 0 47.5 -10 64.5 -30s25.5 -48.667 25.5 -86v-369c0 -31.333 -4.66699 -59.333 -14 -84h118z" />
    <glyph glyph-name="uni06440671" unicode="&#xfedf;&#xfb51;" horiz-adv-x="667" 
d="M61.5 12.5c-7.66699 8.33301 -11.5 19.502 -11.5 33.502c0 13.333 3.83301 24.166 11.5 32.499s17.5 12.5 29.5 12.5h121v281c0 29.333 -4.83301 51 -14.5 65s-21.5 25 -35.5 33c2 10 9.83301 20.667 23.5 32s30.5 17 50.5 17c26 0 47.5 -10 64.5 -30
s25.5 -48.667 25.5 -86v-312h100c20 0 35.333 8.16699 46 24.5s16 37.166 16 62.499v335c0 29.333 -4.83301 51 -14.5 65s-21.5 25 -35.5 33c2 10 9.83301 20.667 23.5 32s30.5 17 50.5 17c26 0 47.5 -10 64.5 -30s25.5 -48.667 25.5 -86v-369
c-0.666992 -53.333 -13.5 -95.833 -38.5 -127.5s-58.833 -47.5 -101.5 -47.5h-372c-11.333 0 -20.833 4.16699 -28.5 12.5zM129.5 575.502c-1.66699 4.33301 -2.50098 9.50195 -2.50098 15.502c0 5.33301 0.833008 10.166 2.5 14.499s3.83398 6.5 6.50098 6.5h23
c0 5.33301 4 16 12 32s20.167 30.667 36.5 44s36.5 20 60.5 20c22.667 0 41.334 -6.5 56.001 -19.5s22 -31.833 22 -56.5c0 -20.667 -5.33301 -36.334 -16 -47.001s-24 -16 -40 -16h-154c-2.66699 0 -4.83398 2.16699 -6.50098 6.5zM271.999 612.004
c7.33301 0 12.667 2.5 16 7.5s5 11.5 5 19.5c0 10.667 -3.33301 19.167 -10 25.5s-16 9.5 -28 9.5c-12.667 0 -24.667 -3.5 -36 -10.5s-20.5 -15.5 -27.5 -25.5s-10.5 -18.667 -10.5 -26h91z" />
    <glyph glyph-name="uni06440671.fina" unicode="&#xfee0;&#xfb51;" horiz-adv-x="706" 
d="M706 91v-90.998h-70c-37.333 0 -68.666 8.66699 -93.999 26c-22.667 -17.333 -49.334 -26 -80.001 -26h-372c-11.333 0 -20.833 4.16699 -28.5 12.5s-11.5 19.5 -11.5 33.5c0 13.333 3.83301 24.166 11.5 32.499s17.5 12.5 29.5 12.5h121v281
c0 29.333 -4.83301 51 -14.5 65s-21.5 25 -35.5 33c2 10 9.83301 20.667 23.5 32s30.5 17 50.5 17c26 0 47.5 -10 64.5 -30s25.5 -48.667 25.5 -86v-312h100c20 0 35.333 8.16699 46 24.5s16 37.166 16 62.499v335c0 29.333 -4.83301 51 -14.5 65s-21.5 25 -35.5 33
c2 10 9.83301 20.667 23.5 32s30.5 17 50.5 17c26 0 47.5 -10 64.5 -30s25.5 -48.667 25.5 -86v-369c0 -31.333 -4.66699 -59.333 -14 -84h118zM128.5 575.502c-1.66699 4.33301 -2.50098 9.50195 -2.50098 15.502c0 5.33301 0.833008 10.166 2.5 14.499
s3.83398 6.5 6.50098 6.5h23c0 5.33301 4 16 12 32s20.167 30.667 36.5 44s36.5 20 60.5 20c22.667 0 41.334 -6.5 56.001 -19.5s22 -31.833 22 -56.5c0 -20.667 -5.33301 -36.334 -16 -47.001s-24 -16 -40 -16h-154c-2.66699 0 -4.83398 2.16699 -6.50098 6.5z
M270.999 612.004c7.33301 0 12.667 2.5 16 7.5s5 11.5 5 19.5c0 10.667 -3.33301 19.167 -10 25.5s-16 9.5 -28 9.5c-12.667 0 -24.667 -3.5 -36 -10.5s-20.5 -15.5 -27.5 -25.5s-10.5 -18.667 -10.5 -26h91z" />
    <glyph glyph-name="uni066E.init" unicode="&#x66e;" horiz-adv-x="346" 
d="M0 91l81.9961 -0.000976562c30 0 51.833 15.667 65.5 47s20.5 69 20.5 113s-5.66699 80.167 -17 108.5s-30.666 53.833 -57.999 76.5c2.66699 10.667 9.83398 20.667 21.501 30s27.834 14 48.501 14c40 0 69.667 -18.667 89 -56s29 -85.666 29 -144.999
c0 -48 -6.66699 -93.167 -20 -135.5s-35.166 -76.833 -65.499 -103.5s-68.833 -40 -115.5 -40h-80v91z" />
    <glyph glyph-name="uni066E.medi" unicode="&#x66e;" horiz-adv-x="350" 
d="M350 91l0.000976562 -91.001h-124c-36 0 -68 10.333 -96 31c-14 -10 -27.667 -17.5 -41 -22.5s-28.666 -7.83301 -45.999 -8.5h-43v91h43c25.333 0.666992 49.666 8 72.999 22v309c0 17.333 4.66699 31.333 14 42s23.666 16 42.999 16c18.667 0 32.667 -5.33301 42 -16
s14 -25 14 -43v-258c0 -21.333 3 -38.666 9 -51.999s15 -20 27 -20h85z" />
    <glyph glyph-name="uni066E.fina" unicode="&#x66e;" horiz-adv-x="835" 
d="M835 91l-0.00292969 -91.001h-104c-39.333 0 -73 10 -101 30c-28.667 -20 -63 -30 -103 -30h-332c-44 0 -76.667 12.667 -98 38s-32 59.333 -32 102v234c0 16.667 4.83301 30.334 14.5 41.001s23.834 16 42.501 16s32.834 -5.5 42.501 -16.5s14.5 -25.167 14.5 -42.5
v-202c0 -28 4.5 -48.167 13.5 -60.5s24.167 -18.5 45.5 -18.5h291c30 0 51.833 16 65.5 48s20.5 69.333 20.5 112c0 44 -5.66699 80.167 -17 108.5s-30.666 53.833 -57.999 76.5c2.66699 10.667 10 20.667 22 30s28 14 48 14c40 0 69.833 -18.667 89.5 -56
s29.5 -85.666 29.5 -144.999c0 -34.667 -3.66699 -68.334 -11 -101.001s-18.333 -61.667 -33 -87h150z" />
    <glyph glyph-name="uni066F.init" unicode="&#x66f;" horiz-adv-x="540" 
d="M385.5 464c28.333 -10.667 50.335 -31 66.002 -61s23.5 -73 23.5 -129v-134c0 -42.667 -10.667 -76.667 -32 -102s-54 -38 -98 -38h-345v91h111c-24 38.667 -36 91.667 -36 159c0 65.333 9.16699 114.833 27.5 148.5s41.666 55.667 69.999 66s62.5 15.5 102.5 15.5
c45.333 0 82.166 -5.33301 110.499 -16zM361.002 309c0 29.333 -7.33301 50.167 -22 62.5s-32.667 18.5 -54 18.5c-30 0 -53.5 -12.5 -70.5 -37.5s-25.5 -59.5 -25.5 -103.5c0 -36.667 6.83301 -72.167 20.5 -106.5s37.5 -51.5 71.5 -51.5h21
c21.333 0 36.5 6.16699 45.5 18.5s13.5 32.5 13.5 60.5v139z" />
    <glyph glyph-name="uni066F.medi" unicode="&#x66f;" horiz-adv-x="563" 
d="M563 91l0.00195312 -91.001h-100c-23.333 0 -44 3 -62 9c-16 -6 -34.667 -9 -56 -9h-345v91h111c-24 38.667 -36 91.667 -36 159c0 65.333 9.16699 114.833 27.5 148.5s41.666 55.667 69.999 66s62.5 15.5 102.5 15.5c45.333 0 82.166 -5.33301 110.499 -16
s50.333 -31 66 -61s23.5 -73 23.5 -129v-134c0 -17.333 -2 -33.666 -6 -48.999h94zM361.002 308.999c0 29.333 -7.33301 50.167 -22 62.5s-32.667 18.5 -54 18.5c-30 0 -53.5 -12.5 -70.5 -37.5s-25.5 -59.5 -25.5 -103.5c0 -36.667 6.83301 -72.167 20.5 -106.5
s37.5 -51.5 71.5 -51.5h21c21.333 0 36.5 6.16699 45.5 18.5s13.5 32.5 13.5 60.5v139z" />
    <glyph glyph-name="uni066F.fina" unicode="&#x66f;" horiz-adv-x="925" 
d="M925 0l-98.001 -0.000976562c-13.333 -82 -51.166 -141.833 -113.499 -179.5s-148.166 -56.5 -257.499 -56.5c-146.667 0 -248.5 28.167 -305.5 84.5s-85.5 125.5 -85.5 207.5c0 56.667 10 104.667 30 144s49 59 87 59c15.333 0 28.166 -3.33301 38.499 -10
s16.833 -14 19.5 -22c-16.667 -14.667 -31 -38.667 -43 -72s-18 -70.333 -18 -111c0 -59.333 20.167 -105.666 60.5 -138.999s110.5 -50 210.5 -50c88 0 151.667 13 191 39s61.666 61.333 66.999 106h-97c-64.667 0 -110.5 23.167 -137.5 69.5s-40.5 107.166 -40.5 182.499
c0 61.333 8.16699 108.5 24.5 141.5s39.333 55.667 69 68s67.834 18.5 114.501 18.5c44.667 0 80.667 -5.83301 108 -17.5s48 -33.167 62 -64.5s21 -76.666 21 -135.999v-171h93v-91zM568.999 139.499c14.667 -32.333 41.6689 -48.5 81.002 -48.5h68v218
c0 28.667 -7.33301 49.167 -22 61.5s-32.334 18.5 -53.001 18.5c-30.667 0 -54.334 -12.667 -71.001 -38s-25 -60.333 -25 -105c0 -38.667 7.33301 -74.167 22 -106.5z" />
    <glyph glyph-name="uni06A1.init" unicode="&#x6a1;" horiz-adv-x="540" 
d="M385.5 464c28.333 -10.667 50.335 -31 66.002 -61s23.5 -73 23.5 -129v-134c0 -42.667 -10.667 -76.667 -32 -102s-54 -38 -98 -38h-345v91h111c-24 38.667 -36 91.667 -36 159c0 65.333 9.16699 114.833 27.5 148.5s41.666 55.667 69.999 66s62.5 15.5 102.5 15.5
c45.333 0 82.166 -5.33301 110.499 -16zM361.002 309c0 29.333 -7.33301 50.167 -22 62.5s-32.667 18.5 -54 18.5c-30 0 -53.5 -12.5 -70.5 -37.5s-25.5 -59.5 -25.5 -103.5c0 -36.667 6.83301 -72.167 20.5 -106.5s37.5 -51.5 71.5 -51.5h21
c21.333 0 36.5 6.16699 45.5 18.5s13.5 32.5 13.5 60.5v139z" />
    <glyph glyph-name="uni06A1.medi" unicode="&#x6a1;" horiz-adv-x="563" 
d="M563 91l0.00195312 -91.001h-100c-23.333 0 -44 3 -62 9c-16 -6 -34.667 -9 -56 -9h-345v91h111c-24 38.667 -36 91.667 -36 159c0 65.333 9.16699 114.833 27.5 148.5s41.666 55.667 69.999 66s62.5 15.5 102.5 15.5c45.333 0 82.166 -5.33301 110.499 -16
s50.333 -31 66 -61s23.5 -73 23.5 -129v-134c0 -17.333 -2 -33.666 -6 -48.999h94zM361.002 308.999c0 29.333 -7.33301 50.167 -22 62.5s-32.667 18.5 -54 18.5c-30 0 -53.5 -12.5 -70.5 -37.5s-25.5 -59.5 -25.5 -103.5c0 -36.667 6.83301 -72.167 20.5 -106.5
s37.5 -51.5 71.5 -51.5h21c21.333 0 36.5 6.16699 45.5 18.5s13.5 32.5 13.5 60.5v139z" />
    <glyph glyph-name="uni06A1.fina" unicode="&#x6a1;" horiz-adv-x="997" 
d="M997 91l-0.000976562 -91.001h-99c-23.333 0 -44 3 -62 9c-16 -6 -35 -9 -57 -9h-515c-65.333 0 -114.833 19 -148.5 57s-50.5 90 -50.5 156c0 56 11 99.333 33 130s49.333 46 82 46c17.333 0 31.5 -4 42.5 -12s18.5 -17.667 22.5 -29
c-17.333 -10.667 -32.666 -29.167 -45.999 -55.5s-20 -58.5 -20 -96.5c0 -41.333 9 -69.166 27 -83.499s40.333 -21.5 67 -21.5h272c-12 19.333 -21 42.833 -27 70.5s-9 57.167 -9 88.5c0 65.333 9.16699 114.833 27.5 148.5s41.833 55.667 70.5 66s63 15.5 103 15.5
c44.667 0 81.167 -5.33301 109.5 -16s50.333 -31 66 -61s23.5 -73 23.5 -129v-134c0 -16 -1.66699 -32.333 -5 -49h93zM795.999 308.999c0 29.333 -7.49902 50.167 -22.499 62.5s-32.833 18.5 -53.5 18.5c-30.667 0 -54.5 -12.5 -71.5 -37.5s-25.5 -59.5 -25.5 -103.5
c0 -35.333 7 -70.5 21 -105.5s37.667 -52.5 71 -52.5h21c21.333 0 36.666 6.16699 45.999 18.5s14 32.5 14 60.5v139z" />
    <glyph glyph-name="uni06BA.init" unicode="&#x6ba;" horiz-adv-x="346" 
d="M0 91l81.9961 -0.000976562c30 0 51.833 15.667 65.5 47s20.5 69 20.5 113s-5.66699 80.167 -17 108.5s-30.666 53.833 -57.999 76.5c2.66699 10.667 9.83398 20.667 21.501 30s27.834 14 48.501 14c40 0 69.667 -18.667 89 -56s29 -85.666 29 -144.999
c0 -48 -6.66699 -93.167 -20 -135.5s-35.166 -76.833 -65.499 -103.5s-68.833 -40 -115.5 -40h-80v91z" />
    <glyph glyph-name="uni06BA.medi" unicode="&#x6ba;" horiz-adv-x="350" 
d="M350 91l0.000976562 -91.001h-124c-36 0 -68 10.333 -96 31c-14 -10 -27.667 -17.5 -41 -22.5s-28.666 -7.83301 -45.999 -8.5h-43v91h43c25.333 0.666992 49.666 8 72.999 22v309c0 17.333 4.66699 31.333 14 42s23.666 16 42.999 16c18.667 0 32.667 -5.33301 42 -16
s14 -25 14 -43v-258c0 -21.333 3 -38.666 9 -51.999s15 -20 27 -20h85z" />
    <glyph glyph-name="uni06C2.init" unicode="&#x6c2;" horiz-adv-x="346" 
d="M0 91l81.9961 -0.000976562c30 0 51.833 15.667 65.5 47s20.5 69 20.5 113s-5.66699 80.167 -17 108.5s-30.666 53.833 -57.999 76.5c2.66699 10.667 9.83398 20.667 21.501 30s27.834 14 48.501 14c40 0 69.667 -18.667 89 -56s29 -85.666 29 -144.999
c0 -48 -6.66699 -93.167 -20 -135.5s-35.166 -76.833 -65.499 -103.5s-68.833 -40 -115.5 -40h-80v91zM98.4961 -277.001c-11.667 14 -17.499 32 -17.499 54c0 40 9 75.167 27 105.5s46.667 57.833 86 82.5l15 -21c-54 -36.667 -81 -79.667 -81 -129l21 6
c18 0 32.333 -5.33301 43 -16s16 -24.667 16 -42c0 -18 -5.5 -32.667 -16.5 -44s-25.833 -17 -44.5 -17c-20.667 0 -36.834 7 -48.501 21zM38.9971 597.999c0 10 4.00195 18.001 12.002 24.001s19.667 8.33301 35 7c-10 6 -18.833 15.833 -26.5 29.5s-11.5 28.5 -11.5 44.5
c0 25.333 9.33301 47.666 28 66.999s45 29 79 29c22.667 0 39.167 -4.16699 49.5 -12.5s15.5 -19.833 15.5 -34.5c0 -11.333 -2.83301 -19.666 -8.5 -24.999s-12.834 -8 -21.501 -8c-7.33301 0 -14.333 1.66699 -21 5c0.666992 10 -2 19 -8 27s-14 12.333 -24 13
c-6 -3.33301 -11.5 -9.83301 -16.5 -19.5s-7.5 -20.5 -7.5 -32.5c0 -22 7.16699 -38.833 21.5 -50.5s31.5 -17.5 51.5 -17.5c7.33301 0 14.666 0.666992 21.999 2s12.333 2.33301 15 3c7.33301 0 12.833 -2.33301 16.5 -7s5.5 -10.334 5.5 -17.001
c0 -6 -1.33301 -11.5 -4 -16.5s-6.33398 -7.5 -11.001 -7.5c-48 -4 -88.667 -8.16699 -122 -12.5s-50.666 -10.833 -51.999 -19.5c-11.333 7.33301 -17 17 -17 29z" />
    <glyph glyph-name="uni06C2.medi" unicode="&#x6c2;" horiz-adv-x="486" 
d="M486 0h-62.999v-211c0 -10.667 -3.66699 -19.5 -11 -26.5s-16 -10.5 -26 -10.5c-95.333 0 -174.833 19.333 -238.5 58s-95.5 102 -95.5 190h-52v91h107c10.667 0 19.167 -3.5 25.5 -10.5s10.166 -15.833 11.499 -26.5c0 -4.66699 0.666992 -26.5 2 -65.5
s16 -72.5 44 -100.5s68 -42 120 -42v208c0 10.667 3.5 19.5 10.5 26.5s15.5 10.5 25.5 10.5h140v-91zM136.001 381c0 10 4.00195 18.001 12.002 24.001s19.667 8.33301 35 7c-10 6 -18.833 15.833 -26.5 29.5s-11.5 28.5 -11.5 44.5c0 25.333 9.33301 47.666 28 66.999
s45 29 79 29c22.667 0 39.167 -4.16699 49.5 -12.5s15.5 -19.833 15.5 -34.5c0 -11.333 -2.83301 -19.666 -8.5 -24.999s-12.834 -8 -21.501 -8c-7.33301 0 -14.333 1.66699 -21 5c0.666992 10 -2 19 -8 27s-14 12.333 -24 13c-6 -3.33301 -11.5 -9.83301 -16.5 -19.5
s-7.5 -20.5 -7.5 -32.5c0 -22 7.16699 -38.833 21.5 -50.5s31.5 -17.5 51.5 -17.5c7.33301 0 14.666 0.666992 21.999 2s12.333 2.33301 15 3c7.33301 0 12.833 -2.33301 16.5 -7s5.5 -10.334 5.5 -17.001c0 -6 -1.33301 -11.5 -4 -16.5s-6.33398 -7.5 -11.001 -7.5
c-48 -4 -88.667 -8.16699 -122 -12.5s-50.666 -10.833 -51.999 -19.5c-11.333 7.33301 -17 17 -17 29z" />
    <glyph glyph-name="uni06C2.fina" unicode="&#x6c2;" horiz-adv-x="525" 
d="M525 91l0.000976562 -91h-91c-32.667 0 -60.667 6.66699 -84 20c-26.667 -14.667 -59.334 -22 -98.001 -22c-64 0 -111.167 19.167 -141.5 57.5s-45.5 98.5 -45.5 180.5c0 67.333 9.66699 119 29 155s44 59.833 74 71.5s65.667 17.5 107 17.5
c43.333 0 78.333 -5.66699 105 -17s47.167 -32.333 61.5 -63s21.5 -74.667 21.5 -132v-177h62zM196.001 137.5c11.333 -31 35 -46.501 71 -46.501h82v217c0 28.667 -7.5 49.334 -22.5 62.001s-33.833 19 -56.5 19c-32.667 0 -56 -12.333 -70 -37s-21 -62 -21 -112
c0 -37.333 5.66699 -71.5 17 -102.5zM161.001 567.999c0 10 4.00195 18.001 12.002 24.001s19.667 8.33301 35 7c-10 6 -18.833 15.833 -26.5 29.5s-11.5 28.5 -11.5 44.5c0 25.333 9.33301 47.666 28 66.999s45 29 79 29c22.667 0 39.167 -4.16699 49.5 -12.5
s15.5 -19.833 15.5 -34.5c0 -11.333 -2.83301 -19.666 -8.5 -24.999s-12.834 -8 -21.501 -8c-7.33301 0 -14.333 1.66699 -21 5c0.666992 10 -2 19 -8 27s-14 12.333 -24 13c-6 -3.33301 -11.5 -9.83301 -16.5 -19.5s-7.5 -20.5 -7.5 -32.5
c0 -22 7.16699 -38.833 21.5 -50.5s31.5 -17.5 51.5 -17.5c7.33301 0 14.666 0.666992 21.999 2s12.333 2.33301 15 3c7.33301 0 12.833 -2.33301 16.5 -7s5.5 -10.334 5.5 -17.001c0 -6 -1.33301 -11.5 -4 -16.5s-6.33398 -7.5 -11.001 -7.5
c-48 -4 -88.667 -8.16699 -122 -12.5s-50.666 -10.833 -51.999 -19.5c-11.333 7.33301 -17 17 -17 29z" />
    <glyph glyph-name="uni06C3.fina" unicode="&#x6c3;" horiz-adv-x="664" 
d="M664 91v-90.999h-170c-11.333 0 -20.833 3.83301 -28.5 11.5s-11.5 17.167 -11.5 28.5v348c-56 -10 -104.833 -34.667 -146.5 -74s-73.5 -86.833 -95.5 -142.5s-33 -112.834 -33 -171.501h-114c0 92 19.333 174.5 58 247.5s92.167 130 160.5 171s145.5 61.5 231.5 61.5
c18 0 31.167 -3 39.5 -9s12.5 -16.333 12.5 -31v-349h97zM258 566.001c-12 12 -18 26.333 -18 43c0 17.333 6 32.166 18 44.499s26.333 18.5 43 18.5c17.333 0 32 -6.16699 44 -18.5s18 -27.166 18 -44.499s-6 -31.833 -18 -43.5s-26.667 -17.5 -44 -17.5
c-16.667 0 -31 6 -43 18zM413 566.001c-12 12 -18 26.333 -18 43c0 17.333 6 32.166 18 44.499s26.667 18.5 44 18.5s31.833 -6.16699 43.5 -18.5s17.5 -27.166 17.5 -44.499s-5.83301 -31.833 -17.5 -43.5s-26.167 -17.5 -43.5 -17.5s-32 6 -44 18z" />
    <glyph glyph-name="uniFB51" unicode="&#x671;" horiz-adv-x="317" arabic-form="final" 
d="M137.5 47c-25 31.333 -37.5 73.667 -37.5 127v278c0 28.667 -4.83301 50 -14.5 64s-21.5 25.333 -35.5 34c2 9.33301 9.66699 19.833 23 31.5s30.333 17.5 51 17.5c26 0 47.333 -10.167 64 -30.5s25 -48.833 25 -85.5v-306c0 -25.333 5.33301 -46 16 -62s26 -24 46 -24
h42v-91h-78c-42.667 0 -76.5 15.667 -101.5 47zM16.5 645.501c-1.66699 4.33301 -2.50098 9.50195 -2.50098 15.502c0 5.33301 0.833008 10.166 2.5 14.499s3.83398 6.5 6.50098 6.5h23c0 5.33301 4 16 12 32s20.167 30.667 36.5 44s36.5 20 60.5 20
c22.667 0 41.334 -6.5 56.001 -19.5s22 -31.833 22 -56.5c0 -20.667 -5.33301 -36.334 -16 -47.001s-24 -16 -40 -16h-154c-2.66699 0 -4.83398 2.16699 -6.50098 6.5zM158.999 682.003c7.33301 0 12.667 2.5 16 7.5s5 11.5 5 19.5c0 10.667 -3.33301 19.167 -10 25.5
s-16 9.5 -28 9.5c-12.667 0 -24.667 -3.5 -36 -10.5s-20.5 -15.5 -27.5 -25.5s-10.5 -18.667 -10.5 -26h91z" />
    <glyph glyph-name="uniFB57" unicode="&#x67e;" horiz-adv-x="835" arabic-form="final" 
d="M835 91l-0.00292969 -91.001h-104c-39.333 0 -73 10 -101 30c-28.667 -20 -63 -30 -103 -30h-332c-44 0 -76.667 12.667 -98 38s-32 59.333 -32 102v234c0 16.667 4.83301 30.334 14.5 41.001s23.834 16 42.501 16s32.834 -5.5 42.501 -16.5s14.5 -25.167 14.5 -42.5
v-202c0 -28 4.5 -48.167 13.5 -60.5s24.167 -18.5 45.5 -18.5h291c30 0 51.833 16 65.5 48s20.5 69.333 20.5 112c0 44 -5.66699 80.167 -17 108.5s-30.666 53.833 -57.999 76.5c2.66699 10.667 10 20.667 22 30s28 14 48 14c40 0 69.833 -18.667 89.5 -56
s29.5 -85.666 29.5 -144.999c0 -34.667 -3.66699 -68.334 -11 -101.001s-18.333 -61.667 -33 -87h150zM262.997 -185.501c-12 12.333 -18 26.833 -18 43.5s6 31.167 18 43.5s26.333 18.5 43 18.5c17.333 0 32 -6 44 -18s18 -26.667 18 -44s-6 -32 -18 -44
s-26.667 -18 -44 -18c-16.667 0 -31 6.16699 -43 18.5zM418.497 -186.001c-12.333 12 -18.5 26.667 -18.5 44c0 16.667 6.16699 31.167 18.5 43.5s26.833 18.5 43.5 18.5c17.333 0 31.833 -6 43.5 -18s17.5 -26.667 17.5 -44s-5.83301 -32 -17.5 -44s-26.167 -18 -43.5 -18
c-16.667 0 -31.167 6 -43.5 18zM342.997 -318.501c-10.667 11 -15.999 24.5 -15.999 40.5s5.5 29.667 16.5 41s24.5 17 40.5 17c15.333 0 28.666 -5.66699 39.999 -17s17 -25 17 -41s-5.66699 -29.5 -17 -40.5s-24.666 -16.5 -39.999 -16.5
c-16.667 0 -30.334 5.5 -41.001 16.5z" />
    <glyph glyph-name="uniFB58" unicode="&#x67e;" horiz-adv-x="346" arabic-form="initial" 
d="M0 91l81.9961 -0.000976562c30 0 51.833 15.667 65.5 47s20.5 69 20.5 113s-5.66699 80.167 -17 108.5s-30.666 53.833 -57.999 76.5c2.66699 10.667 9.83398 20.667 21.501 30s27.834 14 48.501 14c40 0 69.667 -18.667 89 -56s29 -85.666 29 -144.999
c0 -48 -6.66699 -93.167 -20 -135.5s-35.166 -76.833 -65.499 -103.5s-68.833 -40 -115.5 -40h-80v91zM39.9961 -185.501c-12 12.333 -18 26.833 -18 43.5s6 31.167 18 43.5s26.333 18.5 43 18.5c17.333 0 32 -6 44 -18s18 -26.667 18 -44s-6 -32 -18 -44
s-26.667 -18 -44 -18c-16.667 0 -31 6.16699 -43 18.5zM195.496 -186.001c-12.333 12 -18.5 26.667 -18.5 44c0 16.667 6.16699 31.167 18.5 43.5s26.833 18.5 43.5 18.5c17.333 0 31.833 -6 43.5 -18s17.5 -26.667 17.5 -44s-5.83301 -32 -17.5 -44s-26.167 -18 -43.5 -18
c-16.667 0 -31.167 6 -43.5 18zM119.996 -318.501c-10.667 11 -15.999 24.5 -15.999 40.5s5.5 29.667 16.5 41s24.5 17 40.5 17c15.333 0 28.666 -5.66699 39.999 -17s17 -25 17 -41s-5.66699 -29.5 -17 -40.5s-24.666 -16.5 -39.999 -16.5
c-16.667 0 -30.334 5.5 -41.001 16.5z" />
    <glyph glyph-name="uniFB59" unicode="&#x67e;" horiz-adv-x="350" arabic-form="medial" 
d="M350 91l0.000976562 -91.001h-124c-36 0 -68 10.333 -96 31c-14 -10 -27.667 -17.5 -41 -22.5s-28.666 -7.83301 -45.999 -8.5h-43v91h43c25.333 0.666992 49.666 8 72.999 22v309c0 17.333 4.66699 31.333 14 42s23.666 16 42.999 16c18.667 0 32.667 -5.33301 42 -16
s14 -25 14 -43v-258c0 -21.333 3 -38.666 9 -51.999s15 -20 27 -20h85zM52.001 -185.501c-12 12.333 -18 26.833 -18 43.5s6 31.167 18 43.5s26.333 18.5 43 18.5c17.333 0 32 -6 44 -18s18 -26.667 18 -44s-6 -32 -18 -44s-26.667 -18 -44 -18
c-16.667 0 -31 6.16699 -43 18.5zM207.501 -186.001c-12.333 12 -18.5 26.667 -18.5 44c0 16.667 6.16699 31.167 18.5 43.5s26.833 18.5 43.5 18.5c17.333 0 31.833 -6 43.5 -18s17.5 -26.667 17.5 -44s-5.83301 -32 -17.5 -44s-26.167 -18 -43.5 -18
c-16.667 0 -31.167 6 -43.5 18zM132.001 -318.501c-10.667 11 -15.999 24.5 -15.999 40.5s5.5 29.667 16.5 41s24.5 17 40.5 17c15.333 0 28.666 -5.66699 39.999 -17s17 -25 17 -41s-5.66699 -29.5 -17 -40.5s-24.666 -16.5 -39.999 -16.5
c-16.667 0 -30.334 5.5 -41.001 16.5z" />
    <glyph glyph-name="uniFB67" unicode="&#x679;" horiz-adv-x="835" arabic-form="final" 
d="M835 91l-0.00292969 -91.001h-104c-39.333 0 -73 10 -101 30c-28.667 -20 -63 -30 -103 -30h-332c-44 0 -76.667 12.667 -98 38s-32 59.333 -32 102v234c0 16.667 4.83301 30.334 14.5 41.001s23.834 16 42.501 16s32.834 -5.5 42.501 -16.5s14.5 -25.167 14.5 -42.5
v-202c0 -28 4.5 -48.167 13.5 -60.5s24.167 -18.5 45.5 -18.5h291c30 0 51.833 16 65.5 48s20.5 69.333 20.5 112c0 44 -5.66699 80.167 -17 108.5s-30.666 53.833 -57.999 76.5c2.66699 10.667 10 20.667 22 30s28 14 48 14c40 0 69.833 -18.667 89.5 -56
s29.5 -85.666 29.5 -144.999c0 -34.667 -3.66699 -68.334 -11 -101.001s-18.333 -61.667 -33 -87h150zM273.997 520.999c0 14 2.66699 21.001 8 21.001h13v127c0 6 -1.5 11.333 -4.5 16s-5.5 7.33398 -7.5 8.00098v1c0 3.33301 1.66699 6.16602 5 8.49902s8 3.5 14 3.5
c16.667 0 25 -10.667 25 -32v-86c22.667 34 52 51 88 51c22 0 40.5 -6.5 55.5 -19.5s22.5 -31.833 22.5 -56.5c0 -20.667 -5.33301 -36.334 -16 -47.001s-24 -16 -40 -16h-155c-5.33301 0 -8 7 -8 21zM418.997 542c7.33301 0 12.668 2.66699 16.001 8s5 12 5 20
c0 10 -3.33301 18.167 -10 24.5s-16 9.5 -28 9.5c-12.667 0 -24.834 -3.5 -36.501 -10.5s-21 -15.333 -28 -25s-10.5 -18.5 -10.5 -26.5h92z" />
    <glyph glyph-name="uniFB68" unicode="&#x679;" horiz-adv-x="346" arabic-form="initial" 
d="M0 91l81.9961 -0.000976562c30 0 51.833 15.667 65.5 47s20.5 69 20.5 113s-5.66699 80.167 -17 108.5s-30.666 53.833 -57.999 76.5c2.66699 10.667 9.83398 20.667 21.501 30s27.834 14 48.501 14c40 0 69.667 -18.667 89 -56s29 -85.666 29 -144.999
c0 -48 -6.66699 -93.167 -20 -135.5s-35.166 -76.833 -65.499 -103.5s-68.833 -40 -115.5 -40h-80v91zM53.9961 565.999c0 14 2.66699 21.001 8 21.001h13v127c0 6 -1.5 11.333 -4.5 16s-5.5 7.33398 -7.5 8.00098v1c0 3.33301 1.66699 6.16602 5 8.49902s8 3.5 14 3.5
c16.667 0 25 -10.667 25 -32v-86c22.667 34 52 51 88 51c22 0 40.5 -6.5 55.5 -19.5s22.5 -31.833 22.5 -56.5c0 -20.667 -5.33301 -36.334 -16 -47.001s-24 -16 -40 -16h-155c-5.33301 0 -8 7 -8 21zM198.996 587c7.33301 0 12.668 2.66699 16.001 8s5 12 5 20
c0 10 -3.33301 18.167 -10 24.5s-16 9.5 -28 9.5c-12.667 0 -24.834 -3.5 -36.501 -10.5s-21 -15.333 -28 -25s-10.5 -18.5 -10.5 -26.5h92z" />
    <glyph glyph-name="uniFB69" unicode="&#x679;" horiz-adv-x="350" arabic-form="medial" 
d="M350 91l0.000976562 -91.001h-124c-36 0 -68 10.333 -96 31c-14 -10 -27.667 -17.5 -41 -22.5s-28.666 -7.83301 -45.999 -8.5h-43v91h43c25.333 0.666992 49.666 8 72.999 22v309c0 17.333 4.66699 31.333 14 42s23.666 16 42.999 16c18.667 0 32.667 -5.33301 42 -16
s14 -25 14 -43v-258c0 -21.333 3 -38.666 9 -51.999s15 -20 27 -20h85zM63.001 565.999c0 14 2.66699 21.001 8 21.001h13v127c0 6 -1.5 11.333 -4.5 16s-5.5 7.33398 -7.5 8.00098v1c0 3.33301 1.66699 6.16602 5 8.49902s8 3.5 14 3.5c16.667 0 25 -10.667 25 -32v-86
c22.667 34 52 51 88 51c22 0 40.5 -6.5 55.5 -19.5s22.5 -31.833 22.5 -56.5c0 -20.667 -5.33301 -36.334 -16 -47.001s-24 -16 -40 -16h-155c-5.33301 0 -8 7 -8 21zM208.001 587c7.33301 0 12.668 2.66699 16.001 8s5 12 5 20c0 10 -3.33301 18.167 -10 24.5
s-16 9.5 -28 9.5c-12.667 0 -24.834 -3.5 -36.501 -10.5s-21 -15.333 -28 -25s-10.5 -18.5 -10.5 -26.5h92z" />
    <glyph glyph-name="uniFB6B" unicode="&#x6a4;" horiz-adv-x="997" arabic-form="final" 
d="M997 91l-0.000976562 -91.001h-99c-23.333 0 -44 3 -62 9c-16 -6 -35 -9 -57 -9h-515c-65.333 0 -114.833 19 -148.5 57s-50.5 90 -50.5 156c0 56 11 99.333 33 130s49.333 46 82 46c17.333 0 31.5 -4 42.5 -12s18.5 -17.667 22.5 -29
c-17.333 -10.667 -32.666 -29.167 -45.999 -55.5s-20 -58.5 -20 -96.5c0 -41.333 9 -69.166 27 -83.499s40.333 -21.5 67 -21.5h272c-12 19.333 -21 42.833 -27 70.5s-9 57.167 -9 88.5c0 65.333 9.16699 114.833 27.5 148.5s41.833 55.667 70.5 66s63 15.5 103 15.5
c44.667 0 81.167 -5.33301 109.5 -16s50.333 -31 66 -61s23.5 -73 23.5 -129v-134c0 -16 -1.66699 -32.333 -5 -49h93zM795.999 308.999c0 29.333 -7.49902 50.167 -22.499 62.5s-32.833 18.5 -53.5 18.5c-30.667 0 -54.5 -12.5 -71.5 -37.5s-25.5 -59.5 -25.5 -103.5
c0 -35.333 7 -70.5 21 -105.5s37.667 -52.5 71 -52.5h21c21.333 0 36.666 6.16699 45.999 18.5s14 32.5 14 60.5v139zM762 783.5c11.333 -11 16.999 -24.5 16.999 -40.5s-5.66699 -29.667 -17 -41s-24.666 -17 -39.999 -17c-16 0 -29.5 5.66699 -40.5 17s-16.5 25 -16.5 41
s5.33301 29.5 16 40.5s24.334 16.5 41.001 16.5c15.333 0 28.666 -5.5 39.999 -16.5zM687.999 651c12 -12 18 -26.667 18 -44s-6 -32 -18 -44s-26.667 -18 -44 -18c-16.667 0 -31 6.16699 -43 18.5s-18 26.833 -18 43.5s6 31.167 18 43.5s26.333 18.5 43 18.5
c17.333 0 32 -6 44 -18zM843.499 651c11.667 -12 17.5 -26.667 17.5 -44s-5.83301 -32 -17.5 -44s-26.167 -18 -43.5 -18c-16.667 0 -31.167 6.16699 -43.5 18.5s-18.5 26.833 -18.5 43.5c0 17.333 6.16699 32 18.5 44s26.833 18 43.5 18c17.333 0 31.833 -6 43.5 -18z" />
    <glyph glyph-name="uniFB6C" unicode="&#x6a4;" horiz-adv-x="540" arabic-form="initial" 
d="M385.5 464c28.333 -10.667 50.335 -31 66.002 -61s23.5 -73 23.5 -129v-134c0 -42.667 -10.667 -76.667 -32 -102s-54 -38 -98 -38h-345v91h111c-24 38.667 -36 91.667 -36 159c0 65.333 9.16699 114.833 27.5 148.5s41.666 55.667 69.999 66s62.5 15.5 102.5 15.5
c45.333 0 82.166 -5.33301 110.499 -16zM361.002 309c0 29.333 -7.33301 50.167 -22 62.5s-32.667 18.5 -54 18.5c-30 0 -53.5 -12.5 -70.5 -37.5s-25.5 -59.5 -25.5 -103.5c0 -36.667 6.83301 -72.167 20.5 -106.5s37.5 -51.5 71.5 -51.5h21
c21.333 0 36.5 6.16699 45.5 18.5s13.5 32.5 13.5 60.5v139zM327.002 783.501c11.333 -11 16.999 -24.5 16.999 -40.5s-5.66699 -29.667 -17 -41s-24.666 -17 -39.999 -17c-16 0 -29.5 5.66699 -40.5 17s-16.5 25 -16.5 41s5.33301 29.5 16 40.5s24.334 16.5 41.001 16.5
c15.333 0 28.666 -5.5 39.999 -16.5zM253.001 651.001c12 -12 18 -26.667 18 -44s-6 -32 -18 -44s-26.667 -18 -44 -18c-16.667 0 -31 6.16699 -43 18.5s-18 26.833 -18 43.5s6 31.167 18 43.5s26.333 18.5 43 18.5c17.333 0 32 -6 44 -18zM408.501 651.001
c11.667 -12 17.5 -26.667 17.5 -44s-5.83301 -32 -17.5 -44s-26.167 -18 -43.5 -18c-16.667 0 -31.167 6.16699 -43.5 18.5s-18.5 26.833 -18.5 43.5c0 17.333 6.16699 32 18.5 44s26.833 18 43.5 18c17.333 0 31.833 -6 43.5 -18z" />
    <glyph glyph-name="uniFB6D" unicode="&#x6a4;" horiz-adv-x="563" arabic-form="medial" 
d="M563 91l0.00195312 -91.001h-100c-23.333 0 -44 3 -62 9c-16 -6 -34.667 -9 -56 -9h-345v91h111c-24 38.667 -36 91.667 -36 159c0 65.333 9.16699 114.833 27.5 148.5s41.666 55.667 69.999 66s62.5 15.5 102.5 15.5c45.333 0 82.166 -5.33301 110.499 -16
s50.333 -31 66 -61s23.5 -73 23.5 -129v-134c0 -17.333 -2 -33.666 -6 -48.999h94zM361.002 308.999c0 29.333 -7.33301 50.167 -22 62.5s-32.667 18.5 -54 18.5c-30 0 -53.5 -12.5 -70.5 -37.5s-25.5 -59.5 -25.5 -103.5c0 -36.667 6.83301 -72.167 20.5 -106.5
s37.5 -51.5 71.5 -51.5h21c21.333 0 36.5 6.16699 45.5 18.5s13.5 32.5 13.5 60.5v139zM329.002 783.5c11.333 -11 16.999 -24.5 16.999 -40.5s-5.66699 -29.667 -17 -41s-24.666 -17 -39.999 -17c-16 0 -29.5 5.66699 -40.5 17s-16.5 25 -16.5 41s5.33301 29.5 16 40.5
s24.334 16.5 41.001 16.5c15.333 0 28.666 -5.5 39.999 -16.5zM255.001 651c12 -12 18 -26.667 18 -44s-6 -32 -18 -44s-26.667 -18 -44 -18c-16.667 0 -31 6.16699 -43 18.5s-18 26.833 -18 43.5s6 31.167 18 43.5s26.333 18.5 43 18.5c17.333 0 32 -6 44 -18zM410.501 651
c11.667 -12 17.5 -26.667 17.5 -44s-5.83301 -32 -17.5 -44s-26.167 -18 -43.5 -18c-16.667 0 -31.167 6.16699 -43.5 18.5s-18.5 26.833 -18.5 43.5c0 17.333 6.16699 32 18.5 44s26.833 18 43.5 18c17.333 0 31.833 -6 43.5 -18z" />
    <glyph glyph-name="uniFB7B" unicode="&#x686;" horiz-adv-x="627" arabic-form="final" 
d="M627 91l-0.000976562 -90.9961h-41c-41.333 0 -74.666 10.333 -99.999 31c-30.667 -20.667 -66.667 -31 -108 -31h-218c0 -57.333 7.16699 -106.333 21.5 -147s33.833 -70 58.5 -88c-3.33301 -8 -10.833 -15.167 -22.5 -21.5s-25.167 -9.5 -40.5 -9.5
c-29.333 0 -52.833 11.167 -70.5 33.5s-30 48.666 -37 78.999s-10.5 59.5 -10.5 87.5c0 49.333 10 87.833 30 115.5s50.333 41.5 91 41.5h165c18 0 36 4.5 54 13.5s33.167 24.167 45.5 45.5s18.5 49.666 18.5 84.999c0 52.667 -16.667 91.667 -50 117s-80.333 38 -141 38
h-81c-27.333 0 -48.166 9.66699 -62.499 29s-21.5 39.333 -21.5 60c0 8 1.33301 14.667 4 20s5.66699 9 9 11c5.33301 -8.66699 16.166 -16.334 32.499 -23.001s36.833 -10 61.5 -10l50 1l56 2c48 0 91.5 -9.5 130.5 -28.5s69.833 -46.833 92.5 -83.5s34 -80 34 -130
c0 -24.667 -3 -49.834 -9 -75.501s-15 -49.5 -27 -71.5h86zM350.999 -160.996c-12 -12 -26.667 -18 -44 -18c-16.667 0 -31.167 6 -43.5 18s-18.5 26.333 -18.5 43c0 17.333 6.16699 32.166 18.5 44.499s26.833 18.5 43.5 18.5c17.333 0 32 -6.16699 44 -18.5
s18 -27.166 18 -44.499c0 -16.667 -6 -31 -18 -43zM505.999 -73.4961c12 -12.333 18 -27.166 18 -44.499s-5.83301 -31.833 -17.5 -43.5s-26.167 -17.5 -43.5 -17.5s-32 6 -44 18s-18 26.333 -18 43c0 17.333 6 32.166 18 44.499s26.667 18.5 44 18.5
c16.667 0 31 -6.16699 43 -18.5zM424.999 -212.996c11.333 -11.333 17.002 -24.668 17.002 -40.001c0 -16 -5.5 -29.5 -16.5 -40.5s-24.5 -16.5 -40.5 -16.5c-16.667 0 -30.334 5.33301 -41.001 16s-16 24.334 -16 41.001c0 16 5.5 29.5 16.5 40.5s24.5 16.5 40.5 16.5
c15.333 0 28.666 -5.66699 39.999 -17z" />
    <glyph glyph-name="uniFB7C" unicode="&#x686;" horiz-adv-x="559" arabic-form="initial" 
d="M0 91l268 -0.00390625c18 0 35.833 4.33301 53.5 13s32.834 23.834 45.501 45.501s19 50.167 19 85.5c0 54.667 -16.5 94.167 -49.5 118.5s-80.167 36.5 -141.5 36.5h-81c-26.667 0 -47 7.83301 -61 23.5s-21.667 35.5 -23 59.5
c-0.666992 10.667 0.333008 19.334 3 26.001s6 10.334 10 11.001c5.33301 -8.66699 16.166 -16.334 32.499 -23.001s36.833 -10 61.5 -10l50 1l56 2c48 0 91.5 -9.5 130.5 -28.5s69.833 -46.833 92.5 -83.5s34 -80 34 -130c0 -37.333 -6.33301 -74.166 -19 -110.499
s-34 -66.666 -64 -90.999s-68.667 -36.5 -116 -36.5h-301v91zM154 -185.504c-12 12.333 -18 26.833 -18 43.5s6 31.167 18 43.5s26.333 18.5 43 18.5c17.333 0 32 -6 44 -18s18 -26.667 18 -44s-6 -32 -18 -44s-26.667 -18 -44 -18c-16.667 0 -31 6.16699 -43 18.5z
M309.5 -186.004c-12.333 12 -18.5 26.667 -18.5 44c0 16.667 6.16699 31.167 18.5 43.5s26.833 18.5 43.5 18.5c17.333 0 31.833 -6 43.5 -18s17.5 -26.667 17.5 -44s-5.83301 -32 -17.5 -44s-26.167 -18 -43.5 -18c-16.667 0 -31.167 6 -43.5 18zM234 -318.504
c-10.667 11 -15.999 24.5 -15.999 40.5s5.5 29.667 16.5 41s24.5 17 40.5 17c15.333 0 28.666 -5.66699 39.999 -17s17 -25 17 -41s-5.66699 -29.5 -17 -40.5s-24.666 -16.5 -39.999 -16.5c-16.667 0 -30.334 5.5 -41.001 16.5z" />
    <glyph glyph-name="uniFB7D" unicode="&#x686;" horiz-adv-x="543" arabic-form="medial" 
d="M543 91l-0.000976562 -91.001h-34c-41.333 0 -74.666 10.333 -99.999 31c-30.667 -20.667 -66.667 -31 -108 -31h-301v91h268c18 0 35.833 4.33301 53.5 13s32.834 23.834 45.501 45.501s19 50.167 19 85.5c0 54.667 -16.5 94.167 -49.5 118.5s-80.167 36.5 -141.5 36.5
h-81c-26.667 0 -47 7.83301 -61 23.5s-21.667 35.5 -23 59.5c-0.666992 10.667 0.333008 19.334 3 26.001s6 10.334 10 11.001c5.33301 -8.66699 16.166 -16.334 32.499 -23.001s36.833 -10 61.5 -10l50 1l56 2c48 0 91.5 -9.5 130.5 -28.5s69.833 -46.833 92.5 -83.5
s34 -80 34 -130c0 -24.667 -3 -49.834 -9 -75.501s-15 -49.5 -27 -71.5h79zM153.999 -185.501c-12 12.333 -18 26.833 -18 43.5s6 31.167 18 43.5s26.333 18.5 43 18.5c17.333 0 32 -6 44 -18s18 -26.667 18 -44s-6 -32 -18 -44s-26.667 -18 -44 -18
c-16.667 0 -31 6.16699 -43 18.5zM309.499 -186.001c-12.333 12 -18.5 26.667 -18.5 44c0 16.667 6.16699 31.167 18.5 43.5s26.833 18.5 43.5 18.5c17.333 0 31.833 -6 43.5 -18s17.5 -26.667 17.5 -44s-5.83301 -32 -17.5 -44s-26.167 -18 -43.5 -18
c-16.667 0 -31.167 6 -43.5 18zM233.999 -318.501c-10.667 11 -15.999 24.5 -15.999 40.5s5.5 29.667 16.5 41s24.5 17 40.5 17c15.333 0 28.666 -5.66699 39.999 -17s17 -25 17 -41s-5.66699 -29.5 -17 -40.5s-24.666 -16.5 -39.999 -16.5
c-16.667 0 -30.334 5.5 -41.001 16.5z" />
    <glyph glyph-name="uniFB89" unicode="&#x688;" horiz-adv-x="544" arabic-form="final" 
d="M544 91l0.000976562 -91.001h-103c-40 0 -72.667 9.33301 -98 28c-28.667 -18.667 -61.334 -28 -98.001 -28h-150c-13.333 0 -22.666 4.83301 -27.999 14.5s-8 19.834 -8 30.501c0 11.333 2.83301 21.833 8.5 31.5s16.167 14.5 31.5 14.5h59
c60 0 103.833 14.5 131.5 43.5s41.5 66.167 41.5 111.5c0 40.667 -9.66699 74.834 -29 102.501s-43 43.167 -71 46.5c-16.667 -4.66699 -30 -14 -40 -28s-15 -34 -15 -60c-13.333 -4 -27.333 -6 -42 -6c-6.66699 0 -11.334 0.333008 -14.001 1
c-15.333 1.33301 -28.333 7.66602 -39 18.999s-16 27 -16 47c0 25.333 8.83301 46.5 26.5 63.5s39.167 29.333 64.5 37s49.333 11.5 72 11.5c36 0 70.667 -10 104 -30s60.5 -47.333 81.5 -82s31.5 -73 31.5 -115c0 -24.667 -3.5 -51.667 -10.5 -81
s-18.167 -56.333 -33.5 -81h143zM252.001 397.999c-4.66699 0 -8 -0.333008 -10 -1zM142.001 565.999c0 14 2.66699 21.001 8 21.001h13v127c0 6 -1.5 11.333 -4.5 16s-5.5 7.33398 -7.5 8.00098v1c0 3.33301 1.66699 6.16602 5 8.49902s8 3.5 14 3.5
c16.667 0 25 -10.667 25 -32v-86c22.667 34 52 51 88 51c22 0 40.5 -6.5 55.5 -19.5s22.5 -31.833 22.5 -56.5c0 -20.667 -5.33301 -36.334 -16 -47.001s-24 -16 -40 -16h-155c-5.33301 0 -8 7 -8 21zM287.001 587c7.33301 0 12.668 2.66699 16.001 8s5 12 5 20
c0 10 -3.33301 18.167 -10 24.5s-16 9.5 -28 9.5c-12.667 0 -24.834 -3.5 -36.501 -10.5s-21 -15.333 -28 -25s-10.5 -18.5 -10.5 -26.5h92z" />
    <glyph glyph-name="uniFB8B" unicode="&#x698;" horiz-adv-x="350" arabic-form="final" 
d="M350 0l-98.001 0.00195312v-58c0 -40.667 -12 -79.334 -36 -116.001s-67 -55 -129 -55c-32 0 -58 5.5 -78 16.5s-34.167 24.333 -42.5 40s-11.833 30.5 -10.5 44.5c11.333 -7.33301 25.333 -13.5 42 -18.5s32.667 -7.5 48 -7.5c28 0 50.5 7.33301 67.5 22
s25.5 33 25.5 55v503c0 17.333 5.33301 30.666 16 39.999s24.334 14 41.001 14s30.167 -4.66699 40.5 -14s15.5 -23 15.5 -41v-334h98v-91zM235.999 783.502c11.333 -11 16.999 -24.5 16.999 -40.5s-5.66699 -29.667 -17 -41s-24.666 -17 -39.999 -17
c-16 0 -29.5 5.66699 -40.5 17s-16.5 25 -16.5 41s5.33301 29.5 16 40.5s24.334 16.5 41.001 16.5c15.333 0 28.666 -5.5 39.999 -16.5zM161.998 651.002c12 -12 18 -26.667 18 -44s-6 -32 -18 -44s-26.667 -18 -44 -18c-16.667 0 -31 6.16699 -43 18.5s-18 26.833 -18 43.5
s6 31.167 18 43.5s26.333 18.5 43 18.5c17.333 0 32 -6 44 -18zM317.498 651.002c11.667 -12 17.5 -26.667 17.5 -44s-5.83301 -32 -17.5 -44s-26.167 -18 -43.5 -18c-16.667 0 -31.167 6.16699 -43.5 18.5s-18.5 26.833 -18.5 43.5c0 17.333 6.16699 32 18.5 44
s26.833 18 43.5 18c17.333 0 31.833 -6 43.5 -18z" />
    <glyph glyph-name="uniFB8D" unicode="&#x691;" horiz-adv-x="350" arabic-form="final" 
d="M350 0l-98.001 0.00195312v-58c0 -40.667 -12 -79.334 -36 -116.001s-67 -55 -129 -55c-32 0 -58 5.5 -78 16.5s-34.167 24.333 -42.5 40s-11.833 30.5 -10.5 44.5c11.333 -7.33301 25.333 -13.5 42 -18.5s32.667 -7.5 48 -7.5c28 0 50.5 7.33301 67.5 22
s25.5 33 25.5 55v503c0 17.333 5.33301 30.666 16 39.999s24.334 14 41.001 14s30.167 -4.66699 40.5 -14s15.5 -23 15.5 -41v-334h98v-91zM85.999 566.002c0 14 2.66699 21.001 8 21.001h13v127c0 6 -1.5 11.333 -4.5 16s-5.5 7.33398 -7.5 8.00098v1
c0 3.33301 1.66699 6.16602 5 8.49902s8 3.5 14 3.5c16.667 0 25 -10.667 25 -32v-86c22.667 34 52 51 88 51c22 0 40.5 -6.5 55.5 -19.5s22.5 -31.833 22.5 -56.5c0 -20.667 -5.33301 -36.334 -16 -47.001s-24 -16 -40 -16h-155c-5.33301 0 -8 7 -8 21zM230.999 587.003
c7.33301 0 12.668 2.66699 16.001 8s5 12 5 20c0 10 -3.33301 18.167 -10 24.5s-16 9.5 -28 9.5c-12.667 0 -24.834 -3.5 -36.501 -10.5s-21 -15.333 -28 -25s-10.5 -18.5 -10.5 -26.5h92z" />
    <glyph glyph-name="uniFB8F" unicode="&#x6a9;" horiz-adv-x="915" arabic-form="final" 
d="M915 91l-0.00195312 -90.999h-123c-35.333 0 -64.666 7.33301 -87.999 22c-22 -14 -49 -21 -81 -21h-428c-43.333 0 -75.833 14.333 -97.5 43s-32.5 65 -32.5 109v108c0 16.667 4.83301 30.167 14.5 40.5s23.834 15.5 42.501 15.5s32.834 -5.33301 42.501 -16
s14.5 -24.667 14.5 -42v-88c0 -28 4.5 -48.167 13.5 -60.5s24.167 -18.5 45.5 -18.5h344c23.333 0 41.166 7.33301 53.499 22s18.5 33.667 18.5 57c0 54 -32.667 81 -98 81h-104c-50.667 0 -89.334 14.833 -116.001 44.5s-40 70.167 -40 121.5
c0 56.667 17.5 100.167 52.5 130.5s90.833 45.5 167.5 45.5l70 -2l52 -1c25.333 0 45.833 3.5 61.5 10.5s26.5 14.5 32.5 22.5c10 -4.66699 14.667 -17.334 14 -38.001c-2 -22 -10.167 -41.333 -24.5 -58s-34.166 -25 -59.499 -25h-140c-75.333 0 -113 -27 -113 -81
c0 -24 7 -43.167 21 -57.5s34 -21.5 60 -21.5h79c132.667 0 199 -58.333 199 -175c0 -28 -4 -53.667 -12 -77h159z" />
    <glyph glyph-name="uniFB90" unicode="&#x6a9;" horiz-adv-x="607" arabic-form="initial" 
d="M0 91l355.999 0.000976562c23.333 0 41.333 7.33301 54 22s19 33.667 19 57c0 25.333 -8 45.166 -24 59.499s-41 21.5 -75 21.5h-103c-50.667 0 -89.5 14.833 -116.5 44.5s-40.5 70.5 -40.5 122.5c0 56.667 17.5 100 52.5 130s90.833 45 167.5 45c39.333 0 80 -1 122 -3
c25.333 0 45.833 3.33301 61.5 10s26.834 14.334 33.501 23.001c3.33301 -1.33301 6.33301 -4.5 9 -9.5s4 -12.167 4 -21.5c0 -22.667 -7.16699 -43.334 -21.5 -62.001s-34.833 -28 -61.5 -28l-140 1c-75.333 0 -113 -27.333 -113 -82c0 -24 6.83301 -43 20.5 -57
s33.5 -21 59.5 -21h79c132.667 0 199 -58.667 199 -176c0 -51.333 -12.5 -92 -37.5 -122s-60.833 -45 -107.5 -45h-397v91z" />
    <glyph glyph-name="uniFB91" unicode="&#x6a9;" horiz-adv-x="769" arabic-form="medial" 
d="M769 91l-0.000976562 -90.999h-230c-27.333 0 -52 4.66699 -74 14c-20 -9.33301 -42.667 -14 -68 -14h-397v91h356c23.333 0 41.333 7.33301 54 22s19 33.667 19 57c0 25.333 -8 45.166 -24 59.499s-41 21.5 -75 21.5h-103c-50.667 0 -89.5 14.833 -116.5 44.5
s-40.5 70.5 -40.5 122.5c0 56.667 17.5 100 52.5 130s90.833 45 167.5 45c39.333 0 80 -1 122 -3c25.333 0 45.833 3.33301 61.5 10s26.834 14.334 33.501 23.001c3.33301 -1.33301 6.33301 -4.5 9 -9.5s4 -12.167 4 -21.5c0 -22.667 -7.16699 -43.334 -21.5 -62.001
s-34.833 -28 -61.5 -28l-140 1c-75.333 0 -113 -27.333 -113 -82c0 -24 6.83301 -43 20.5 -57s33.5 -21 59.5 -21h79c132.667 0 199 -58.667 199 -176c0 -30.667 -3.66699 -56 -11 -76h238z" />
    <glyph glyph-name="uniFB93" unicode="&#x6af;" horiz-adv-x="915" arabic-form="final" 
d="M915 91l-0.00195312 -90.999h-123c-35.333 0 -64.666 7.33301 -87.999 22c-22 -14 -49 -21 -81 -21h-428c-43.333 0 -75.833 14.333 -97.5 43s-32.5 65 -32.5 109v108c0 16.667 4.83301 30.167 14.5 40.5s23.834 15.5 42.501 15.5s32.834 -5.33301 42.501 -16
s14.5 -24.667 14.5 -42v-88c0 -28 4.5 -48.167 13.5 -60.5s24.167 -18.5 45.5 -18.5h344c23.333 0 41.166 7.33301 53.499 22s18.5 33.667 18.5 57c0 54 -32.667 81 -98 81h-104c-50.667 0 -89.334 14.833 -116.001 44.5s-40 70.167 -40 121.5
c0 56.667 17.5 100.167 52.5 130.5s90.833 45.5 167.5 45.5l70 -2l52 -1c25.333 0 45.833 3.5 61.5 10.5s26.5 14.5 32.5 22.5c10 -4.66699 14.667 -17.334 14 -38.001c-2 -22 -10.167 -41.333 -24.5 -58s-34.166 -25 -59.499 -25h-140c-75.333 0 -113 -27 -113 -81
c0 -24 7 -43.167 21 -57.5s34 -21.5 60 -21.5h79c132.667 0 199 -58.333 199 -175c0 -28 -4 -53.667 -12 -77h159zM363.998 651.001c0 22.667 7.16797 43.335 21.501 62.002s34.833 28 61.5 28c69.333 0 128 -0.666992 176 -2c25.333 0 46 3.5 62 10.5s27 14.833 33 23.5
c9.33301 -4.66699 13.666 -17.667 12.999 -39c-2 -22 -10.167 -41.333 -24.5 -58s-34.166 -25 -59.499 -25c-68.667 0 -127 0.666992 -175 2c-25.333 0 -45.833 -3.33301 -61.5 -10s-26.834 -14.334 -33.501 -23.001c-8.66699 3.33301 -13 13.666 -13 30.999z" />
    <glyph glyph-name="uniFB94" unicode="&#x6af;" horiz-adv-x="607" arabic-form="initial" 
d="M0 91l355.999 0.000976562c23.333 0 41.333 7.33301 54 22s19 33.667 19 57c0 25.333 -8 45.166 -24 59.499s-41 21.5 -75 21.5h-103c-50.667 0 -89.5 14.833 -116.5 44.5s-40.5 70.5 -40.5 122.5c0 56.667 17.5 100 52.5 130s90.833 45 167.5 45c39.333 0 80 -1 122 -3
c25.333 0 45.833 3.33301 61.5 10s26.834 14.334 33.501 23.001c3.33301 -1.33301 6.33301 -4.5 9 -9.5s4 -12.167 4 -21.5c0 -22.667 -7.16699 -43.334 -21.5 -62.001s-34.833 -28 -61.5 -28l-140 1c-75.333 0 -113 -27.333 -113 -82c0 -24 6.83301 -43 20.5 -57
s33.5 -21 59.5 -21h79c132.667 0 199 -58.667 199 -176c0 -51.333 -12.5 -92 -37.5 -122s-60.833 -45 -107.5 -45h-397v91zM88.999 651.001c0 22.667 7.16797 43.335 21.501 62.002s34.833 28 61.5 28c69.333 0 128 -0.666992 176 -2c25.333 0 46 3.5 62 10.5
s27 14.833 33 23.5c9.33301 -4.66699 13.666 -17.667 12.999 -39c-2 -22 -10.167 -41.333 -24.5 -58s-34.166 -25 -59.499 -25c-68.667 0 -127 0.666992 -175 2c-25.333 0 -45.833 -3.33301 -61.5 -10s-26.834 -14.334 -33.501 -23.001
c-8.66699 3.33301 -13 13.666 -13 30.999z" />
    <glyph glyph-name="uniFB95" unicode="&#x6af;" horiz-adv-x="769" arabic-form="medial" 
d="M769 91l-0.000976562 -90.999h-230c-27.333 0 -52 4.66699 -74 14c-20 -9.33301 -42.667 -14 -68 -14h-397v91h356c23.333 0 41.333 7.33301 54 22s19 33.667 19 57c0 25.333 -8 45.166 -24 59.499s-41 21.5 -75 21.5h-103c-50.667 0 -89.5 14.833 -116.5 44.5
s-40.5 70.5 -40.5 122.5c0 56.667 17.5 100 52.5 130s90.833 45 167.5 45c39.333 0 80 -1 122 -3c25.333 0 45.833 3.33301 61.5 10s26.834 14.334 33.501 23.001c3.33301 -1.33301 6.33301 -4.5 9 -9.5s4 -12.167 4 -21.5c0 -22.667 -7.16699 -43.334 -21.5 -62.001
s-34.833 -28 -61.5 -28l-140 1c-75.333 0 -113 -27.333 -113 -82c0 -24 6.83301 -43 20.5 -57s33.5 -21 59.5 -21h79c132.667 0 199 -58.667 199 -176c0 -30.667 -3.66699 -56 -11 -76h238zM88.999 651.001c0 22.667 7.16797 43.335 21.501 62.002s34.833 28 61.5 28
c69.333 0 128 -0.666992 176 -2c25.333 0 46 3.5 62 10.5s27 14.833 33 23.5c9.33301 -4.66699 13.666 -17.667 12.999 -39c-2 -22 -10.167 -41.333 -24.5 -58s-34.166 -25 -59.499 -25c-68.667 0 -127 0.666992 -175 2c-25.333 0 -45.833 -3.33301 -61.5 -10
s-26.834 -14.334 -33.501 -23.001c-8.66699 3.33301 -13 13.666 -13 30.999z" />
    <glyph glyph-name="uniFB9F" unicode="&#x6ba;" horiz-adv-x="722" arabic-form="final" 
d="M722 91l0.000976562 -91h-14c-16.667 0 -30.834 1.66699 -42.501 5s-23.167 8.66602 -34.5 15.999c-2 -80 -24.667 -142.833 -68 -188.5s-111.333 -68.5 -204 -68.5c-97.333 0 -170.666 24.833 -219.999 74.5s-74 115.834 -74 198.501c0 52 10 97.833 30 137.5
s50.333 59.5 91 59.5c26 0 48.667 -7.66699 68 -23c-16 -12 -32.167 -34.167 -48.5 -66.5s-24.5 -70.5 -24.5 -114.5c0 -59.333 17.833 -103.333 53.5 -132s78.5 -43 128.5 -43c59.333 0 100 18 122 54s33 78 33 126v390c0 16.667 5.16699 30 15.5 40s23.833 15 40.5 15
c17.333 0 31.166 -5 41.499 -15s15.5 -24 15.5 -42v-332h91z" />
    <glyph glyph-name="uniFBA7" unicode="&#x6c1;" horiz-adv-x="664" arabic-form="final" 
d="M664 91v-90.999h-170c-11.333 0 -20.833 3.83301 -28.5 11.5s-11.5 17.167 -11.5 28.5v348c-56 -10 -104.833 -34.667 -146.5 -74s-73.5 -86.833 -95.5 -142.5s-33 -112.834 -33 -171.501h-114c0 92 19.333 174.5 58 247.5s92.167 130 160.5 171s145.5 61.5 231.5 61.5
c18 0 31.167 -3 39.5 -9s12.5 -16.333 12.5 -31v-349h97z" />
    <glyph glyph-name="uniFBA8" unicode="&#x6c1;" horiz-adv-x="346" arabic-form="initial" 
d="M0 91l81.9961 -0.000976562c30 0 51.833 15.667 65.5 47s20.5 69 20.5 113s-5.66699 80.167 -17 108.5s-30.666 53.833 -57.999 76.5c2.66699 10.667 9.83398 20.667 21.501 30s27.834 14 48.501 14c40 0 69.667 -18.667 89 -56s29 -85.666 29 -144.999
c0 -48 -6.66699 -93.167 -20 -135.5s-35.166 -76.833 -65.499 -103.5s-68.833 -40 -115.5 -40h-80v91zM98.4961 -277.001c-11.667 14 -17.499 32 -17.499 54c0 40 9 75.167 27 105.5s46.667 57.833 86 82.5l15 -21c-54 -36.667 -81 -79.667 -81 -129l21 6
c18 0 32.333 -5.33301 43 -16s16 -24.667 16 -42c0 -18 -5.5 -32.667 -16.5 -44s-25.833 -17 -44.5 -17c-20.667 0 -36.834 7 -48.501 21z" />
    <glyph glyph-name="uniFBA9" unicode="&#x6c1;" horiz-adv-x="486" arabic-form="medial" 
d="M486 0h-62.999v-211c0 -10.667 -3.66699 -19.5 -11 -26.5s-16 -10.5 -26 -10.5c-95.333 0 -174.833 19.333 -238.5 58s-95.5 102 -95.5 190h-52v91h107c10.667 0 19.167 -3.5 25.5 -10.5s10.166 -15.833 11.499 -26.5c0 -4.66699 0.666992 -26.5 2 -65.5
s16 -72.5 44 -100.5s68 -42 120 -42v208c0 10.667 3.5 19.5 10.5 26.5s15.5 10.5 25.5 10.5h140v-91z" />
    <glyph glyph-name="uniFBAB" unicode="&#x6be;" horiz-adv-x="757" arabic-form="final" 
d="M757 91l-0.000976562 -91.001h-108c-38 0 -71 9.33301 -99 28l3 3c-40 -20.667 -86.667 -31 -140 -31c-27.333 0 -54.666 2.33301 -81.999 7s-49.333 10.334 -66 17.001c-16.667 -8.66699 -37.167 -14.834 -61.5 -18.501s-58.166 -5.5 -101.499 -5.5h-37v91h21
c19.333 -8.66699 39 -13 59 -13c11.333 0 22.333 1.33301 33 4c-14.667 18 -26.334 41.333 -35.001 70s-13 59 -13 91c0 50.667 11.167 93.667 33.5 129s56.166 53 101.499 53c44.667 0 78.5 -17.667 101.5 -53s34.5 -77.666 34.5 -126.999
c0 -34.667 -5.5 -68.834 -16.5 -102.501s-23.167 -56.5 -36.5 -68.5c14.667 -2.66699 28.334 -4 41.001 -4c56.667 0 101.5 17 134.5 51s49.5 85.333 49.5 154c0 53.333 -10.5 96.833 -31.5 130.5s-47.5 58 -79.5 73s-65 22.5 -99 22.5h-106
c-36 0 -62.167 10.167 -78.5 30.5s-24.5 45.833 -24.5 76.5c0 9.33301 0.333008 16.333 1 21c8 -12 22.667 -21.333 44 -28s48.333 -10 81 -10l128 4c40.667 0.666992 82.5 -9.16602 125.5 -29.499s79.333 -53.5 109 -99.5s44.5 -104.667 44.5 -176
c0 -82 -20.333 -148.333 -61 -199h131zM293.999 161.999c8 24 12 48.6699 12 74.0029s-3.83301 48 -11.5 68s-17.5 30 -29.5 30s-21.667 -9.83301 -29 -29.5s-11 -42.834 -11 -69.501s3.83301 -51.334 11.5 -74.001s17.167 -40.334 28.5 -53.001c11.333 12 21 30 29 54z
M202.999 99.002l-4 -6c2.66699 2.66699 4 4.66699 4 6z" />
    <glyph glyph-name="uniFBAC" unicode="&#x6be;" horiz-adv-x="687" arabic-form="initial" 
d="M468.5 565.5c43 -20.333 79.332 -53.501 108.999 -99.501s44.5 -104.667 44.5 -176c0 -89.333 -23.833 -160 -71.5 -212s-115.167 -78 -202.5 -78c-27.333 0 -54.666 2.33301 -81.999 7s-49.333 10.334 -66 17.001c-16.667 -8.66699 -37.167 -14.834 -61.5 -18.501
s-58.166 -5.5 -101.499 -5.5h-37v91h21c19.333 -8.66699 39 -13 59 -13c11.333 0 22.333 1.33301 33 4c-14.667 18 -26.334 41.333 -35.001 70s-13 59 -13 91c0 50.667 11.167 93.667 33.5 129s56.166 53 101.499 53c44.667 0 78.5 -17.667 101.5 -53
s34.5 -77.666 34.5 -126.999c0 -34.667 -5.5 -68.834 -16.5 -102.501s-23.167 -56.5 -36.5 -68.5c14.667 -2.66699 28.334 -4 41.001 -4c56.667 0 101.5 17 134.5 51s49.5 85.333 49.5 154c0 53.333 -10.5 96.833 -31.5 130.5s-47.5 58 -79.5 73s-65 22.5 -99 22.5h-106
c-36 0 -62.167 10.167 -78.5 30.5s-24.5 45.833 -24.5 76.5c0 9.33301 0.333008 16.333 1 21c8 -12 22.667 -21.333 44 -28s48.333 -10 81 -10l128 4c40.667 0.666992 82.5 -9.16602 125.5 -29.499zM228.999 161.999c8 24 12 48.6699 12 74.0029s-3.83301 48 -11.5 68
s-17.5 30 -29.5 30s-21.667 -9.83301 -29 -29.5s-11 -42.834 -11 -69.501s3.83301 -51.334 11.5 -74.001s17.167 -40.334 28.5 -53.001c11.333 12 21 30 29 54zM137.999 99.002l-4 -6c2.66699 2.66699 4 4.66699 4 6z" />
    <glyph glyph-name="uniFBAD" unicode="&#x6be;" horiz-adv-x="683" arabic-form="medial" 
d="M683 91l-0.000976562 -91.001h-99c-39.333 0 -72.333 9.33301 -99 28l3 3c-40 -20.667 -86.667 -31 -140 -31c-27.333 0 -54.666 2.33301 -81.999 7s-49.333 10.334 -66 17.001c-16.667 -8.66699 -37.167 -14.834 -61.5 -18.501s-58.166 -5.5 -101.499 -5.5h-37v91h21
c19.333 -8.66699 39 -13 59 -13c11.333 0 22.333 1.33301 33 4c-14.667 18 -26.334 41.333 -35.001 70s-13 59 -13 91c0 50.667 11.167 93.667 33.5 129s56.166 53 101.499 53c44.667 0 78.5 -17.667 101.5 -53s34.5 -77.666 34.5 -126.999
c0 -34.667 -5.5 -68.834 -16.5 -102.501s-23.167 -56.5 -36.5 -68.5c14.667 -2.66699 28.334 -4 41.001 -4c56.667 0 101.5 17 134.5 51s49.5 85.333 49.5 154c0 53.333 -10.5 96.833 -31.5 130.5s-47.5 58 -79.5 73s-65 22.5 -99 22.5h-106
c-36 0 -62.167 10.167 -78.5 30.5s-24.5 45.833 -24.5 76.5c0 9.33301 0.333008 16.333 1 21c8 -12 22.667 -21.333 44 -28s48.333 -10 81 -10l128 4c40.667 0.666992 82.5 -9.16602 125.5 -29.499s79.333 -53.5 109 -99.5s44.5 -104.667 44.5 -176
c0 -82 -20.333 -148.333 -61 -199h122zM228.999 161.999c8 24 12 48.6699 12 74.0029s-3.83301 48 -11.5 68s-17.5 30 -29.5 30s-21.667 -9.83301 -29 -29.5s-11 -42.834 -11 -69.501s3.83301 -51.334 11.5 -74.001s17.167 -40.334 28.5 -53.001c11.333 12 21 30 29 54z
M137.999 99.002l-4 -6c2.66699 2.66699 4 4.66699 4 6z" />
    <glyph glyph-name="uniFBAF" unicode="&#x6d2;" horiz-adv-x="456" arabic-form="final" 
d="M132 -203c-44.667 22 -66.999 65.333 -66.999 130c0 67.333 22.5 111.5 67.5 132.5s90.833 31.5 137.5 31.5h186v-91h-180c-18 0 -34.333 -1 -49 -3s-28.667 -8.33301 -42 -19s-20 -27.667 -20 -51c0 -28 10.5 -47 31.5 -57s49.5 -15 85.5 -15h303v-91h-301
c-56.667 0 -107.334 11 -152.001 33z" />
    <glyph glyph-name="uniFBB1" unicode="&#x6d3;" horiz-adv-x="456" arabic-form="final" 
d="M132 -203c-44.667 22 -66.999 65.333 -66.999 130c0 67.333 22.5 111.5 67.5 132.5s90.833 31.5 137.5 31.5h186v-91h-180c-18 0 -34.333 -1 -49 -3s-28.667 -8.33301 -42 -19s-20 -27.667 -20 -51c0 -28 10.5 -47 31.5 -57s49.5 -15 85.5 -15h303v-91h-301
c-56.667 0 -107.334 11 -152.001 33zM93.001 181c0 10 4.00195 18.001 12.002 24.001s19.667 8.33301 35 7c-10 6 -18.833 15.833 -26.5 29.5s-11.5 28.5 -11.5 44.5c0 25.333 9.33301 47.666 28 66.999s45 29 79 29c22.667 0 39.167 -4.16699 49.5 -12.5
s15.5 -19.833 15.5 -34.5c0 -11.333 -2.83301 -19.666 -8.5 -24.999s-12.834 -8 -21.501 -8c-7.33301 0 -14.333 1.66699 -21 5c0.666992 10 -2 19 -8 27s-14 12.333 -24 13c-6 -3.33301 -11.5 -9.83301 -16.5 -19.5s-7.5 -20.5 -7.5 -32.5
c0 -22 7.16699 -38.833 21.5 -50.5s31.5 -17.5 51.5 -17.5c7.33301 0 14.666 0.666992 21.999 2s12.333 2.33301 15 3c7.33301 0 12.833 -2.33301 16.5 -7s5.5 -10.334 5.5 -17.001c0 -6 -1.33301 -11.5 -4 -16.5s-6.33398 -7.5 -11.001 -7.5
c-48 -4 -88.667 -8.16699 -122 -12.5s-50.666 -10.833 -51.999 -19.5c-11.333 7.33301 -17 17 -17 29z" />
    <glyph glyph-name="uniFBE8" unicode="&#x649;" horiz-adv-x="346" arabic-form="initial" 
d="M0 91l81.9961 -0.000976562c30 0 51.833 15.667 65.5 47s20.5 69 20.5 113s-5.66699 80.167 -17 108.5s-30.666 53.833 -57.999 76.5c2.66699 10.667 9.83398 20.667 21.501 30s27.834 14 48.501 14c40 0 69.667 -18.667 89 -56s29 -85.666 29 -144.999
c0 -48 -6.66699 -93.167 -20 -135.5s-35.166 -76.833 -65.499 -103.5s-68.833 -40 -115.5 -40h-80v91z" />
    <glyph glyph-name="uniFBE9" unicode="&#x649;" horiz-adv-x="350" arabic-form="medial" 
d="M350 91l0.000976562 -91.001h-124c-36 0 -68 10.333 -96 31c-14 -10 -27.667 -17.5 -41 -22.5s-28.666 -7.83301 -45.999 -8.5h-43v91h43c25.333 0.666992 49.666 8 72.999 22v309c0 17.333 4.66699 31.333 14 42s23.666 16 42.999 16c18.667 0 32.667 -5.33301 42 -16
s14 -25 14 -43v-258c0 -21.333 3 -38.666 9 -51.999s15 -20 27 -20h85z" />
    <glyph glyph-name="uniFBFD" unicode="&#x6cc;" horiz-adv-x="930" arabic-form="final" 
d="M144 -149.5c-47.333 57.667 -71 122.5 -71 194.5c0 43.333 6 79 18 107s27 48.167 45 60.5s36.667 18.5 56 18.5c17.333 0 31.166 -4.5 41.499 -13.5s16.833 -18.833 19.5 -29.5c-17.333 -14 -32.666 -35.833 -45.999 -65.5s-20 -61.5 -20 -95.5
c0 -48 18 -88.667 54 -122s100.667 -50 194 -50c81.333 0 142.333 13.667 183 41s61 62 61 104h-24c-36 0 -62.167 7.5 -78.5 22.5s-24.5 33.833 -24.5 56.5c0 14 3.33301 28.333 10 43c8.66699 -8 21.167 -15.167 37.5 -21.5s34.5 -9.5 54.5 -9.5h276v-91h-138
c0 -39.333 -11.333 -76.833 -34 -112.5s-59.834 -65.167 -111.501 -88.5s-118.5 -35 -200.5 -35h-22c-139.333 0 -232.666 28.833 -279.999 86.5z" />
    <glyph glyph-name="uniFBFE" unicode="&#x6cc;" horiz-adv-x="346" arabic-form="initial" 
d="M0 91l81.9961 -0.000976562c30 0 51.833 15.667 65.5 47s20.5 69 20.5 113s-5.66699 80.167 -17 108.5s-30.666 53.833 -57.999 76.5c2.66699 10.667 9.83398 20.667 21.501 30s27.834 14 48.501 14c40 0 69.667 -18.667 89 -56s29 -85.666 29 -144.999
c0 -48 -6.66699 -93.167 -20 -135.5s-35.166 -76.833 -65.499 -103.5s-68.833 -40 -115.5 -40h-80v91zM39.9961 -188.501c-12 12.333 -18 26.833 -18 43.5s6 31.167 18 43.5s26.333 18.5 43 18.5c17.333 0 32 -6 44 -18s18 -26.667 18 -44s-6 -32 -18 -44
s-26.667 -18 -44 -18c-16.667 0 -31 6.16699 -43 18.5zM195.496 -189.001c-12.333 12 -18.5 26.667 -18.5 44c0 16.667 6.16699 31.167 18.5 43.5s26.833 18.5 43.5 18.5c17.333 0 31.833 -6 43.5 -18s17.5 -26.667 17.5 -44s-5.83301 -32 -17.5 -44s-26.167 -18 -43.5 -18
c-16.667 0 -31.167 6 -43.5 18z" />
    <glyph glyph-name="uniFBFF" unicode="&#x6cc;" horiz-adv-x="350" arabic-form="medial" 
d="M350 91l0.000976562 -91.001h-124c-36 0 -68 10.333 -96 31c-14 -10 -27.667 -17.5 -41 -22.5s-28.666 -7.83301 -45.999 -8.5h-43v91h43c25.333 0.666992 49.666 8 72.999 22v309c0 17.333 4.66699 31.333 14 42s23.666 16 42.999 16c18.667 0 32.667 -5.33301 42 -16
s14 -25 14 -43v-258c0 -21.333 3 -38.666 9 -51.999s15 -20 27 -20h85zM52.001 -188.501c-12 12.333 -18 26.833 -18 43.5s6 31.167 18 43.5s26.333 18.5 43 18.5c17.333 0 32 -6 44 -18s18 -26.667 18 -44s-6 -32 -18 -44s-26.667 -18 -44 -18
c-16.667 0 -31 6.16699 -43 18.5zM207.501 -189.001c-12.333 12 -18.5 26.667 -18.5 44c0 16.667 6.16699 31.167 18.5 43.5s26.833 18.5 43.5 18.5c17.333 0 31.833 -6 43.5 -18s17.5 -26.667 17.5 -44s-5.83301 -32 -17.5 -44s-26.167 -18 -43.5 -18
c-16.667 0 -31.167 6 -43.5 18z" />
    <glyph glyph-name="uniFC64" unicode="&#xfc64;" horiz-adv-x="685" arabic-form="final" 
d="M685 91l0.000976562 -90.9971h-81c-42.667 0 -76.5 15.667 -101.5 47s-37.5 73.666 -37.5 126.999v215c-48 -0.666992 -89.667 -6.33398 -125 -17.001s-64.666 -23.667 -87.999 -39v-391c0 -40.667 -12 -79.334 -36 -116.001s-67 -55 -129 -55c-32 0 -58 5.5 -78 16.5
s-34.167 24.333 -42.5 40s-11.833 30.5 -10.5 44.5c11.333 -7.33301 25.333 -13.5 42 -18.5s32.667 -7.5 48 -7.5c28 0 50.5 7.33301 67.5 22s25.5 33 25.5 55v425c10.667 20.667 29.667 41.167 57 61.5s62.666 37.166 105.999 50.499s92.666 20 147.999 20
c27.333 0 50 -2.5 68 -7.5s32.667 -15.667 44 -32s17 -40.166 17 -71.499v-192c0 -25.333 5.33301 -46 16 -62s26 -24 46 -24h44zM420.001 568.003c0 10 4.00195 18.001 12.002 24.001s19.667 8.33301 35 7c-10 6 -18.833 15.833 -26.5 29.5s-11.5 28.5 -11.5 44.5
c0 25.333 9.33301 47.666 28 66.999s45 29 79 29c22.667 0 39.167 -4.16699 49.5 -12.5s15.5 -19.833 15.5 -34.5c0 -11.333 -2.83301 -19.666 -8.5 -24.999s-12.834 -8 -21.501 -8c-7.33301 0 -14.333 1.66699 -21 5c0.666992 10 -2 19 -8 27s-14 12.333 -24 13
c-6 -3.33301 -11.5 -9.83301 -16.5 -19.5s-7.5 -20.5 -7.5 -32.5c0 -22 7.16699 -38.833 21.5 -50.5s31.5 -17.5 51.5 -17.5c7.33301 0 14.666 0.666992 21.999 2s12.333 2.33301 15 3c7.33301 0 12.833 -2.33301 16.5 -7s5.5 -10.334 5.5 -17.001
c0 -6 -1.33301 -11.5 -4 -16.5s-6.33398 -7.5 -11.001 -7.5c-48 -4 -88.667 -8.16699 -122 -12.5s-50.666 -10.833 -51.999 -19.5c-11.333 7.33301 -17 17 -17 29z" />
    <glyph glyph-name="uniFC65" unicode="&#xfc65;" horiz-adv-x="685" arabic-form="final" 
d="M685 91l0.000976562 -90.9971h-81c-42.667 0 -76.5 15.667 -101.5 47s-37.5 73.666 -37.5 126.999v215c-48 -0.666992 -89.667 -6.33398 -125 -17.001s-64.666 -23.667 -87.999 -39v-391c0 -40.667 -12 -79.334 -36 -116.001s-67 -55 -129 -55c-32 0 -58 5.5 -78 16.5
s-34.167 24.333 -42.5 40s-11.833 30.5 -10.5 44.5c11.333 -7.33301 25.333 -13.5 42 -18.5s32.667 -7.5 48 -7.5c28 0 50.5 7.33301 67.5 22s25.5 33 25.5 55v425c10.667 20.667 29.667 41.167 57 61.5s62.666 37.166 105.999 50.499s92.666 20 147.999 20
c27.333 0 50 -2.5 68 -7.5s32.667 -15.667 44 -32s17 -40.166 17 -71.499v-192c0 -25.333 5.33301 -46 16 -62s26 -24 46 -24h44zM420.001 568.003c0 10 4.00195 18.001 12.002 24.001s19.667 8.33301 35 7c-10 6 -18.833 15.833 -26.5 29.5s-11.5 28.5 -11.5 44.5
c0 25.333 9.33301 47.666 28 66.999s45 29 79 29c22.667 0 39.167 -4.16699 49.5 -12.5s15.5 -19.833 15.5 -34.5c0 -11.333 -2.83301 -19.666 -8.5 -24.999s-12.834 -8 -21.501 -8c-7.33301 0 -14.333 1.66699 -21 5c0.666992 10 -2 19 -8 27s-14 12.333 -24 13
c-6 -3.33301 -11.5 -9.83301 -16.5 -19.5s-7.5 -20.5 -7.5 -32.5c0 -22 7.16699 -38.833 21.5 -50.5s31.5 -17.5 51.5 -17.5c7.33301 0 14.666 0.666992 21.999 2s12.333 2.33301 15 3c7.33301 0 12.833 -2.33301 16.5 -7s5.5 -10.334 5.5 -17.001
c0 -6 -1.33301 -11.5 -4 -16.5s-6.33398 -7.5 -11.001 -7.5c-48 -4 -88.667 -8.16699 -122 -12.5s-50.666 -10.833 -51.999 -19.5c-11.333 7.33301 -17 17 -17 29zM148.503 564.504c-13 13 -19.5 28.5 -19.5 46.5c0 18.667 6.5 34.334 19.5 47.001s28.833 19 47.5 19
c18 0 33.5 -6.33301 46.5 -19s19.5 -28.334 19.5 -47.001c0 -18 -6.5 -33.5 -19.5 -46.5s-28.5 -19.5 -46.5 -19.5c-18.667 0 -34.5 6.5 -47.5 19.5z" />
    <glyph glyph-name="uniFC6A" unicode="&#xfc6a;" horiz-adv-x="685" arabic-form="final" 
d="M685 91l0.000976562 -90.9971h-81c-42.667 0 -76.5 15.667 -101.5 47s-37.5 73.666 -37.5 126.999v215c-48 -0.666992 -89.667 -6.33398 -125 -17.001s-64.666 -23.667 -87.999 -39v-391c0 -40.667 -12 -79.334 -36 -116.001s-67 -55 -129 -55c-32 0 -58 5.5 -78 16.5
s-34.167 24.333 -42.5 40s-11.833 30.5 -10.5 44.5c11.333 -7.33301 25.333 -13.5 42 -18.5s32.667 -7.5 48 -7.5c28 0 50.5 7.33301 67.5 22s25.5 33 25.5 55v425c10.667 20.667 29.667 41.167 57 61.5s62.666 37.166 105.999 50.499s92.666 20 147.999 20
c27.333 0 50 -2.5 68 -7.5s32.667 -15.667 44 -32s17 -40.166 17 -71.499v-192c0 -25.333 5.33301 -46 16 -62s26 -24 46 -24h44zM475.501 -192.497c-13 13 -19.5 28.5 -19.5 46.5s6.5 33.5 19.5 46.5s28.833 19.5 47.5 19.5c18 0 33.5 -6.5 46.5 -19.5
s19.5 -28.5 19.5 -46.5s-6.5 -33.5 -19.5 -46.5s-28.5 -19.5 -46.5 -19.5c-18.667 0 -34.5 6.5 -47.5 19.5z" />
    <glyph glyph-name="uniFC6B" unicode="&#xfc6b;" horiz-adv-x="685" arabic-form="final" 
d="M685 91l0.000976562 -90.9971h-81c-42.667 0 -76.5 15.667 -101.5 47s-37.5 73.666 -37.5 126.999v215c-48 -0.666992 -89.667 -6.33398 -125 -17.001s-64.666 -23.667 -87.999 -39v-391c0 -40.667 -12 -79.334 -36 -116.001s-67 -55 -129 -55c-32 0 -58 5.5 -78 16.5
s-34.167 24.333 -42.5 40s-11.833 30.5 -10.5 44.5c11.333 -7.33301 25.333 -13.5 42 -18.5s32.667 -7.5 48 -7.5c28 0 50.5 7.33301 67.5 22s25.5 33 25.5 55v425c10.667 20.667 29.667 41.167 57 61.5s62.666 37.166 105.999 50.499s92.666 20 147.999 20
c27.333 0 50 -2.5 68 -7.5s32.667 -15.667 44 -32s17 -40.166 17 -71.499v-192c0 -25.333 5.33301 -46 16 -62s26 -24 46 -24h44zM475.501 -192.497c-13 13 -19.5 28.5 -19.5 46.5s6.5 33.5 19.5 46.5s28.833 19.5 47.5 19.5c18 0 33.5 -6.5 46.5 -19.5
s19.5 -28.5 19.5 -46.5s-6.5 -33.5 -19.5 -46.5s-28.5 -19.5 -46.5 -19.5c-18.667 0 -34.5 6.5 -47.5 19.5zM148.501 564.503c-13 13 -19.5 28.5 -19.5 46.5c0 18.667 6.5 34.334 19.5 47.001s28.833 19 47.5 19c18 0 33.5 -6.33301 46.5 -19s19.5 -28.334 19.5 -47.001
c0 -18 -6.5 -33.5 -19.5 -46.5s-28.5 -19.5 -46.5 -19.5c-18.667 0 -34.5 6.5 -47.5 19.5z" />
    <glyph glyph-name="uniFC70" unicode="&#xfc70;" horiz-adv-x="685" arabic-form="final" 
d="M685 91l0.000976562 -90.9971h-81c-42.667 0 -76.5 15.667 -101.5 47s-37.5 73.666 -37.5 126.999v215c-48 -0.666992 -89.667 -6.33398 -125 -17.001s-64.666 -23.667 -87.999 -39v-391c0 -40.667 -12 -79.334 -36 -116.001s-67 -55 -129 -55c-32 0 -58 5.5 -78 16.5
s-34.167 24.333 -42.5 40s-11.833 30.5 -10.5 44.5c11.333 -7.33301 25.333 -13.5 42 -18.5s32.667 -7.5 48 -7.5c28 0 50.5 7.33301 67.5 22s25.5 33 25.5 55v425c10.667 20.667 29.667 41.167 57 61.5s62.666 37.166 105.999 50.499s92.666 20 147.999 20
c27.333 0 50 -2.5 68 -7.5s32.667 -15.667 44 -32s17 -40.166 17 -71.499v-192c0 -25.333 5.33301 -46 16 -62s26 -24 46 -24h44zM401.001 566.003c-12 12 -18 26.333 -18 43c0 17.333 6 32.166 18 44.499s26.333 18.5 43 18.5c17.333 0 32 -6.16699 44 -18.5
s18 -27.166 18 -44.499s-6 -31.833 -18 -43.5s-26.667 -17.5 -44 -17.5c-16.667 0 -31 6 -43 18zM556.001 566.003c-12 12 -18 26.333 -18 43c0 17.333 6 32.166 18 44.499s26.667 18.5 44 18.5s31.833 -6.16699 43.5 -18.5s17.5 -27.166 17.5 -44.499
s-5.83301 -31.833 -17.5 -43.5s-26.167 -17.5 -43.5 -17.5s-32 6 -44 18z" />
    <glyph glyph-name="uniFC71" unicode="&#xfc71;" horiz-adv-x="685" arabic-form="final" 
d="M685 91l0.000976562 -90.9971h-81c-42.667 0 -76.5 15.667 -101.5 47s-37.5 73.666 -37.5 126.999v215c-48 -0.666992 -89.667 -6.33398 -125 -17.001s-64.666 -23.667 -87.999 -39v-391c0 -40.667 -12 -79.334 -36 -116.001s-67 -55 -129 -55c-32 0 -58 5.5 -78 16.5
s-34.167 24.333 -42.5 40s-11.833 30.5 -10.5 44.5c11.333 -7.33301 25.333 -13.5 42 -18.5s32.667 -7.5 48 -7.5c28 0 50.5 7.33301 67.5 22s25.5 33 25.5 55v425c10.667 20.667 29.667 41.167 57 61.5s62.666 37.166 105.999 50.499s92.666 20 147.999 20
c27.333 0 50 -2.5 68 -7.5s32.667 -15.667 44 -32s17 -40.166 17 -71.499v-192c0 -25.333 5.33301 -46 16 -62s26 -24 46 -24h44zM401.001 566.003c-12 12 -18 26.333 -18 43c0 17.333 6 32.166 18 44.499s26.333 18.5 43 18.5c17.333 0 32 -6.16699 44 -18.5
s18 -27.166 18 -44.499s-6 -31.833 -18 -43.5s-26.667 -17.5 -44 -17.5c-16.667 0 -31 6 -43 18zM556.001 566.003c-12 12 -18 26.333 -18 43c0 17.333 6 32.166 18 44.499s26.667 18.5 44 18.5s31.833 -6.16699 43.5 -18.5s17.5 -27.166 17.5 -44.499
s-5.83301 -31.833 -17.5 -43.5s-26.167 -17.5 -43.5 -17.5s-32 6 -44 18zM148.501 564.503c-13 13 -19.5 28.5 -19.5 46.5c0 18.667 6.5 34.334 19.5 47.001s28.833 19 47.5 19c18 0 33.5 -6.33301 46.5 -19s19.5 -28.334 19.5 -47.001c0 -18 -6.5 -33.5 -19.5 -46.5
s-28.5 -19.5 -46.5 -19.5c-18.667 0 -34.5 6.5 -47.5 19.5z" />
    <glyph glyph-name="uniFC76" unicode="&#xfc76;" horiz-adv-x="685" arabic-form="final" 
d="M685 91l0.000976562 -90.9971h-81c-42.667 0 -76.5 15.667 -101.5 47s-37.5 73.666 -37.5 126.999v215c-48 -0.666992 -89.667 -6.33398 -125 -17.001s-64.666 -23.667 -87.999 -39v-391c0 -40.667 -12 -79.334 -36 -116.001s-67 -55 -129 -55c-32 0 -58 5.5 -78 16.5
s-34.167 24.333 -42.5 40s-11.833 30.5 -10.5 44.5c11.333 -7.33301 25.333 -13.5 42 -18.5s32.667 -7.5 48 -7.5c28 0 50.5 7.33301 67.5 22s25.5 33 25.5 55v425c10.667 20.667 29.667 41.167 57 61.5s62.666 37.166 105.999 50.499s92.666 20 147.999 20
c27.333 0 50 -2.5 68 -7.5s32.667 -15.667 44 -32s17 -40.166 17 -71.499v-192c0 -25.333 5.33301 -46 16 -62s26 -24 46 -24h44zM562.001 783.503c11.333 -11 16.999 -24.5 16.999 -40.5s-5.66699 -29.667 -17 -41s-24.666 -17 -39.999 -17c-16 0 -29.5 5.66699 -40.5 17
s-16.5 25 -16.5 41s5.33301 29.5 16 40.5s24.334 16.5 41.001 16.5c15.333 0 28.666 -5.5 39.999 -16.5zM488 651.003c12 -12 18 -26.667 18 -44s-6 -32 -18 -44s-26.667 -18 -44 -18c-16.667 0 -31 6.16699 -43 18.5s-18 26.833 -18 43.5s6 31.167 18 43.5
s26.333 18.5 43 18.5c17.333 0 32 -6 44 -18zM643.5 651.003c11.667 -12 17.5 -26.667 17.5 -44s-5.83301 -32 -17.5 -44s-26.167 -18 -43.5 -18c-16.667 0 -31.167 6.16699 -43.5 18.5s-18.5 26.833 -18.5 43.5c0 17.333 6.16699 32 18.5 44s26.833 18 43.5 18
c17.333 0 31.833 -6 43.5 -18z" />
    <glyph glyph-name="uniFC77" unicode="&#xfc77;" horiz-adv-x="685" arabic-form="final" 
d="M685 91l0.000976562 -90.9971h-81c-42.667 0 -76.5 15.667 -101.5 47s-37.5 73.666 -37.5 126.999v215c-48 -0.666992 -89.667 -6.33398 -125 -17.001s-64.666 -23.667 -87.999 -39v-391c0 -40.667 -12 -79.334 -36 -116.001s-67 -55 -129 -55c-32 0 -58 5.5 -78 16.5
s-34.167 24.333 -42.5 40s-11.833 30.5 -10.5 44.5c11.333 -7.33301 25.333 -13.5 42 -18.5s32.667 -7.5 48 -7.5c28 0 50.5 7.33301 67.5 22s25.5 33 25.5 55v425c10.667 20.667 29.667 41.167 57 61.5s62.666 37.166 105.999 50.499s92.666 20 147.999 20
c27.333 0 50 -2.5 68 -7.5s32.667 -15.667 44 -32s17 -40.166 17 -71.499v-192c0 -25.333 5.33301 -46 16 -62s26 -24 46 -24h44zM562.001 783.503c11.333 -11 16.999 -24.5 16.999 -40.5s-5.66699 -29.667 -17 -41s-24.666 -17 -39.999 -17c-16 0 -29.5 5.66699 -40.5 17
s-16.5 25 -16.5 41s5.33301 29.5 16 40.5s24.334 16.5 41.001 16.5c15.333 0 28.666 -5.5 39.999 -16.5zM488 651.003c12 -12 18 -26.667 18 -44s-6 -32 -18 -44s-26.667 -18 -44 -18c-16.667 0 -31 6.16699 -43 18.5s-18 26.833 -18 43.5s6 31.167 18 43.5
s26.333 18.5 43 18.5c17.333 0 32 -6 44 -18zM643.5 651.003c11.667 -12 17.5 -26.667 17.5 -44s-5.83301 -32 -17.5 -44s-26.167 -18 -43.5 -18c-16.667 0 -31.167 6.16699 -43.5 18.5s-18.5 26.833 -18.5 43.5c0 17.333 6.16699 32 18.5 44s26.833 18 43.5 18
c17.333 0 31.833 -6 43.5 -18zM148.5 564.503c-13 13 -19.5 28.5 -19.5 46.5c0 18.667 6.5 34.334 19.5 47.001s28.833 19 47.5 19c18 0 33.5 -6.33301 46.5 -19s19.5 -28.334 19.5 -47.001c0 -18 -6.5 -33.5 -19.5 -46.5s-28.5 -19.5 -46.5 -19.5
c-18.667 0 -34.5 6.5 -47.5 19.5z" />
    <glyph glyph-name="uniFC8A" unicode="&#xfc8a;" horiz-adv-x="685" arabic-form="final" 
d="M685 91l0.000976562 -90.9971h-81c-42.667 0 -76.5 15.667 -101.5 47s-37.5 73.666 -37.5 126.999v215c-48 -0.666992 -89.667 -6.33398 -125 -17.001s-64.666 -23.667 -87.999 -39v-391c0 -40.667 -12 -79.334 -36 -116.001s-67 -55 -129 -55c-32 0 -58 5.5 -78 16.5
s-34.167 24.333 -42.5 40s-11.833 30.5 -10.5 44.5c11.333 -7.33301 25.333 -13.5 42 -18.5s32.667 -7.5 48 -7.5c28 0 50.5 7.33301 67.5 22s25.5 33 25.5 55v425c10.667 20.667 29.667 41.167 57 61.5s62.666 37.166 105.999 50.499s92.666 20 147.999 20
c27.333 0 50 -2.5 68 -7.5s32.667 -15.667 44 -32s17 -40.166 17 -71.499v-192c0 -25.333 5.33301 -46 16 -62s26 -24 46 -24h44zM475.501 564.503c-13 13 -19.5 28.5 -19.5 46.5c0 18.667 6.5 34.334 19.5 47.001s28.833 19 47.5 19c18 0 33.5 -6.33301 46.5 -19
s19.5 -28.334 19.5 -47.001c0 -18 -6.5 -33.5 -19.5 -46.5s-28.5 -19.5 -46.5 -19.5c-18.667 0 -34.5 6.5 -47.5 19.5z" />
    <glyph glyph-name="uniFC8B" unicode="&#xfc8b;" horiz-adv-x="685" arabic-form="final" 
d="M685 91l0.000976562 -90.9971h-81c-42.667 0 -76.5 15.667 -101.5 47s-37.5 73.666 -37.5 126.999v215c-48 -0.666992 -89.667 -6.33398 -125 -17.001s-64.666 -23.667 -87.999 -39v-391c0 -40.667 -12 -79.334 -36 -116.001s-67 -55 -129 -55c-32 0 -58 5.5 -78 16.5
s-34.167 24.333 -42.5 40s-11.833 30.5 -10.5 44.5c11.333 -7.33301 25.333 -13.5 42 -18.5s32.667 -7.5 48 -7.5c28 0 50.5 7.33301 67.5 22s25.5 33 25.5 55v425c10.667 20.667 29.667 41.167 57 61.5s62.666 37.166 105.999 50.499s92.666 20 147.999 20
c27.333 0 50 -2.5 68 -7.5s32.667 -15.667 44 -32s17 -40.166 17 -71.499v-192c0 -25.333 5.33301 -46 16 -62s26 -24 46 -24h44zM475.501 564.503c-13 13 -19.5 28.5 -19.5 46.5c0 18.667 6.5 34.334 19.5 47.001s28.833 19 47.5 19c18 0 33.5 -6.33301 46.5 -19
s19.5 -28.334 19.5 -47.001c0 -18 -6.5 -33.5 -19.5 -46.5s-28.5 -19.5 -46.5 -19.5c-18.667 0 -34.5 6.5 -47.5 19.5zM148.501 564.503c-13 13 -19.5 28.5 -19.5 46.5c0 18.667 6.5 34.334 19.5 47.001s28.833 19 47.5 19c18 0 33.5 -6.33301 46.5 -19
s19.5 -28.334 19.5 -47.001c0 -18 -6.5 -33.5 -19.5 -46.5s-28.5 -19.5 -46.5 -19.5c-18.667 0 -34.5 6.5 -47.5 19.5z" />
    <glyph glyph-name="uniFC91" unicode="&#xfc91;" horiz-adv-x="685" arabic-form="final" 
d="M685 91l0.000976562 -90.9971h-81c-42.667 0 -76.5 15.667 -101.5 47s-37.5 73.666 -37.5 126.999v215c-48 -0.666992 -89.667 -6.33398 -125 -17.001s-64.666 -23.667 -87.999 -39v-391c0 -40.667 -12 -79.334 -36 -116.001s-67 -55 -129 -55c-32 0 -58 5.5 -78 16.5
s-34.167 24.333 -42.5 40s-11.833 30.5 -10.5 44.5c11.333 -7.33301 25.333 -13.5 42 -18.5s32.667 -7.5 48 -7.5c28 0 50.5 7.33301 67.5 22s25.5 33 25.5 55v425c10.667 20.667 29.667 41.167 57 61.5s62.666 37.166 105.999 50.499s92.666 20 147.999 20
c27.333 0 50 -2.5 68 -7.5s32.667 -15.667 44 -32s17 -40.166 17 -71.499v-192c0 -25.333 5.33301 -46 16 -62s26 -24 46 -24h44zM401.001 -188.497c-12 12.333 -18 26.833 -18 43.5s6 31.167 18 43.5s26.333 18.5 43 18.5c17.333 0 32 -6 44 -18s18 -26.667 18 -44
s-6 -32 -18 -44s-26.667 -18 -44 -18c-16.667 0 -31 6.16699 -43 18.5zM556.501 -188.997c-12.333 12 -18.5 26.667 -18.5 44c0 16.667 6.16699 31.167 18.5 43.5s26.833 18.5 43.5 18.5c17.333 0 31.833 -6 43.5 -18s17.5 -26.667 17.5 -44s-5.83301 -32 -17.5 -44
s-26.167 -18 -43.5 -18c-16.667 0 -31.167 6 -43.5 18z" />
    <glyph glyph-name="uniFC92" unicode="&#xfc92;" horiz-adv-x="685" arabic-form="final" 
d="M685 91l0.000976562 -90.9971h-81c-42.667 0 -76.5 15.667 -101.5 47s-37.5 73.666 -37.5 126.999v215c-48 -0.666992 -89.667 -6.33398 -125 -17.001s-64.666 -23.667 -87.999 -39v-391c0 -40.667 -12 -79.334 -36 -116.001s-67 -55 -129 -55c-32 0 -58 5.5 -78 16.5
s-34.167 24.333 -42.5 40s-11.833 30.5 -10.5 44.5c11.333 -7.33301 25.333 -13.5 42 -18.5s32.667 -7.5 48 -7.5c28 0 50.5 7.33301 67.5 22s25.5 33 25.5 55v425c10.667 20.667 29.667 41.167 57 61.5s62.666 37.166 105.999 50.499s92.666 20 147.999 20
c27.333 0 50 -2.5 68 -7.5s32.667 -15.667 44 -32s17 -40.166 17 -71.499v-192c0 -25.333 5.33301 -46 16 -62s26 -24 46 -24h44zM401.001 -188.497c-12 12.333 -18 26.833 -18 43.5s6 31.167 18 43.5s26.333 18.5 43 18.5c17.333 0 32 -6 44 -18s18 -26.667 18 -44
s-6 -32 -18 -44s-26.667 -18 -44 -18c-16.667 0 -31 6.16699 -43 18.5zM556.501 -188.997c-12.333 12 -18.5 26.667 -18.5 44c0 16.667 6.16699 31.167 18.5 43.5s26.833 18.5 43.5 18.5c17.333 0 31.833 -6 43.5 -18s17.5 -26.667 17.5 -44s-5.83301 -32 -17.5 -44
s-26.167 -18 -43.5 -18c-16.667 0 -31.167 6 -43.5 18zM148.501 564.503c-13 13 -19.5 28.5 -19.5 46.5c0 18.667 6.5 34.334 19.5 47.001s28.833 19 47.5 19c18 0 33.5 -6.33301 46.5 -19s19.5 -28.334 19.5 -47.001c0 -18 -6.5 -33.5 -19.5 -46.5s-28.5 -19.5 -46.5 -19.5
c-18.667 0 -34.5 6.5 -47.5 19.5z" />
    <glyph glyph-name="uniFD0D" unicode="&#xfd0d;" horiz-adv-x="1291" arabic-form="isolated" 
d="M1195 422c20.667 -38.667 31 -90.6631 31 -155.996c0 -66.667 -14.333 -127.667 -43 -183s-83.334 -83 -164.001 -83h-12c-34 0 -63.167 4.66699 -87.5 14s-46.166 24 -65.499 44c-10.667 -16 -24.834 -29.667 -42.501 -41s-38.167 -17 -61.5 -17h-36h-110
c-42.667 0 -76.5 15.667 -101.5 47s-37.5 73.666 -37.5 126.999v215c-48 -0.666992 -89.667 -6.33398 -125 -17.001s-64.666 -23.667 -87.999 -39v-391c0 -40.667 -12 -79.334 -36 -116.001s-67 -55 -129 -55c-32 0 -58 5.5 -78 16.5s-34.167 24.333 -42.5 40
s-11.833 30.5 -10.5 44.5c11.333 -7.33301 25.333 -13.5 42 -18.5s32.667 -7.5 48 -7.5c28 0 50.5 7.33301 67.5 22s25.5 33 25.5 55v425c10.667 20.667 29.667 41.167 57 61.5s62.666 37.166 105.999 50.499s92.666 20 147.999 20c27.333 0 50 -2.5 68 -7.5
s32.667 -15.667 44 -32s17 -40.166 17 -71.499v-192c0 -25.333 5.33301 -46 16 -62s26 -24 46 -24h73c24 0 40.667 7.5 50 22.5s14 33.167 14 54.5v219c0 21.333 5.5 37 16.5 47s24.833 15 41.5 15c16 0 29.333 -4.83301 40 -14.5s16 -25.5 16 -47.5v-196
c0 -66.667 16.667 -100 50 -100h84c30 0 52 16 66 48s21 66.667 21 104c0 44.667 -6.83301 84.167 -20.5 118.5s-33.167 59.833 -58.5 76.5c2.66699 11.333 9.83398 21.166 21.501 29.499s27.5 12.5 47.5 12.5c40.667 0 71.334 -19.333 92.001 -58zM876 783.504
c11.333 -11 16.999 -24.5 16.999 -40.5s-5.66699 -29.667 -17 -41s-24.666 -17 -39.999 -17c-16 0 -29.5 5.66699 -40.5 17s-16.5 25 -16.5 41s5.33301 29.5 16 40.5s24.334 16.5 41.001 16.5c15.333 0 28.666 -5.5 39.999 -16.5zM801.999 651.004c12 -12 18 -26.667 18 -44
s-6 -32 -18 -44s-26.667 -18 -44 -18c-16.667 0 -31 6.16699 -43 18.5s-18 26.833 -18 43.5s6 31.167 18 43.5s26.333 18.5 43 18.5c17.333 0 32 -6 44 -18zM957.499 651.004c11.667 -12 17.5 -26.667 17.5 -44s-5.83301 -32 -17.5 -44s-26.167 -18 -43.5 -18
c-16.667 0 -31.167 6.16699 -43.5 18.5s-18.5 26.833 -18.5 43.5c0 17.333 6.16699 32 18.5 44s26.833 18 43.5 18c17.333 0 31.833 -6 43.5 -18z" />
    <glyph glyph-name="uniFD0E" unicode="&#xfd0e;" horiz-adv-x="1291" arabic-form="isolated" 
d="M1195 422c20.667 -38.667 31 -90.6631 31 -155.996c0 -66.667 -14.333 -127.667 -43 -183s-83.334 -83 -164.001 -83h-12c-34 0 -63.167 4.66699 -87.5 14s-46.166 24 -65.499 44c-10.667 -16 -24.834 -29.667 -42.501 -41s-38.167 -17 -61.5 -17h-36h-110
c-42.667 0 -76.5 15.667 -101.5 47s-37.5 73.666 -37.5 126.999v215c-48 -0.666992 -89.667 -6.33398 -125 -17.001s-64.666 -23.667 -87.999 -39v-391c0 -40.667 -12 -79.334 -36 -116.001s-67 -55 -129 -55c-32 0 -58 5.5 -78 16.5s-34.167 24.333 -42.5 40
s-11.833 30.5 -10.5 44.5c11.333 -7.33301 25.333 -13.5 42 -18.5s32.667 -7.5 48 -7.5c28 0 50.5 7.33301 67.5 22s25.5 33 25.5 55v425c10.667 20.667 29.667 41.167 57 61.5s62.666 37.166 105.999 50.499s92.666 20 147.999 20c27.333 0 50 -2.5 68 -7.5
s32.667 -15.667 44 -32s17 -40.166 17 -71.499v-192c0 -25.333 5.33301 -46 16 -62s26 -24 46 -24h73c24 0 40.667 7.5 50 22.5s14 33.167 14 54.5v219c0 21.333 5.5 37 16.5 47s24.833 15 41.5 15c16 0 29.333 -4.83301 40 -14.5s16 -25.5 16 -47.5v-196
c0 -66.667 16.667 -100 50 -100h84c30 0 52 16 66 48s21 66.667 21 104c0 44.667 -6.83301 84.167 -20.5 118.5s-33.167 59.833 -58.5 76.5c2.66699 11.333 9.83398 21.166 21.501 29.499s27.5 12.5 47.5 12.5c40.667 0 71.334 -19.333 92.001 -58z" />
    <glyph glyph-name="uniFD0F" unicode="&#xfd0f;" horiz-adv-x="1118" arabic-form="isolated" 
d="M909.5 457c41 -15.333 75.168 -41.3301 102.501 -77.9971s41 -84.667 41 -144c0 -56 -14.167 -109.167 -42.5 -159.5s-82.5 -75.5 -162.5 -75.5h-383v91v298c-48 -0.666992 -89.667 -6.33398 -125 -17.001s-64.666 -23.667 -87.999 -39v-391
c0 -40.667 -12 -79.334 -36 -116.001s-67 -55 -129 -55c-32 0 -58 5.5 -78 16.5s-34.167 24.333 -42.5 40s-11.833 30.5 -10.5 44.5c11.333 -7.33301 25.333 -13.5 42 -18.5s32.667 -7.5 48 -7.5c28 0 50.5 7.33301 67.5 22s25.5 33 25.5 55v425
c10.667 20.667 29.667 41.167 57 61.5s62.666 37.166 105.999 50.499s92.666 20 147.999 20c36 0 64.5 -5 85.5 -15s34.5 -30.333 40.5 -61c20 20.667 48 38.5 84 53.5s76.667 22.5 122 22.5c44 0 86.5 -7.66699 127.5 -23zM913.501 132.503
c17 27.667 25.499 59.166 25.499 94.499c0 38 -8.66699 69.167 -26 93.5s-39.166 41.833 -65.499 52.5s-53.5 16 -81.5 16c-39.333 0 -77 -9.16699 -113 -27.5s-60.667 -40.166 -74 -65.499v-205h257c34.667 0 60.5 13.833 77.5 41.5z" />
    <glyph glyph-name="uniFD10" unicode="&#xfd10;" horiz-adv-x="1118" arabic-form="isolated" 
d="M909.5 457c41 -15.333 75.168 -41.3301 102.501 -77.9971s41 -84.667 41 -144c0 -56 -14.167 -109.167 -42.5 -159.5s-82.5 -75.5 -162.5 -75.5h-383v91v298c-48 -0.666992 -89.667 -6.33398 -125 -17.001s-64.666 -23.667 -87.999 -39v-391
c0 -40.667 -12 -79.334 -36 -116.001s-67 -55 -129 -55c-32 0 -58 5.5 -78 16.5s-34.167 24.333 -42.5 40s-11.833 30.5 -10.5 44.5c11.333 -7.33301 25.333 -13.5 42 -18.5s32.667 -7.5 48 -7.5c28 0 50.5 7.33301 67.5 22s25.5 33 25.5 55v425
c10.667 20.667 29.667 41.167 57 61.5s62.666 37.166 105.999 50.499s92.666 20 147.999 20c36 0 64.5 -5 85.5 -15s34.5 -30.333 40.5 -61c20 20.667 48 38.5 84 53.5s76.667 22.5 122 22.5c44 0 86.5 -7.66699 127.5 -23zM913.501 132.503
c17 27.667 25.499 59.166 25.499 94.499c0 38 -8.66699 69.167 -26 93.5s-39.166 41.833 -65.499 52.5s-53.5 16 -81.5 16c-39.333 0 -77 -9.16699 -113 -27.5s-60.667 -40.166 -74 -65.499v-205h257c34.667 0 60.5 13.833 77.5 41.5zM735.5 564.502
c-13 13 -19.5 28.5 -19.5 46.5c0 18.667 6.5 34.334 19.5 47.001s28.833 19 47.5 19c18 0 33.5 -6.33301 46.5 -19s19.5 -28.334 19.5 -47.001c0 -18 -6.5 -33.5 -19.5 -46.5s-28.5 -19.5 -46.5 -19.5c-18.667 0 -34.5 6.5 -47.5 19.5z" />
    <glyph glyph-name="uniFD29" unicode="&#xfd29;" horiz-adv-x="1325" arabic-form="final" 
d="M1325 91l-0.000976562 -90.9961h-105c-38 0 -69.667 8.66699 -95 26c-30 -17.333 -65.333 -26 -106 -26h-12c-34 0 -63.167 4.66699 -87.5 14s-46.166 24 -65.499 44c-10.667 -16 -24.834 -29.667 -42.501 -41s-38.167 -17 -61.5 -17h-36h-110
c-42.667 0 -76.5 15.667 -101.5 47s-37.5 73.666 -37.5 126.999v215c-48 -0.666992 -89.667 -6.33398 -125 -17.001s-64.666 -23.667 -87.999 -39v-391c0 -40.667 -12 -79.334 -36 -116.001s-67 -55 -129 -55c-32 0 -58 5.5 -78 16.5s-34.167 24.333 -42.5 40
s-11.833 30.5 -10.5 44.5c11.333 -7.33301 25.333 -13.5 42 -18.5s32.667 -7.5 48 -7.5c28 0 50.5 7.33301 67.5 22s25.5 33 25.5 55v425c10.667 20.667 29.667 41.167 57 61.5s62.666 37.166 105.999 50.499s92.666 20 147.999 20c27.333 0 50 -2.5 68 -7.5
s32.667 -15.667 44 -32s17 -40.166 17 -71.499v-192c0 -25.333 5.33301 -46 16 -62s26 -24 46 -24h73c24 0 40.667 7.5 50 22.5s14 33.167 14 54.5v219c0 21.333 5.5 37 16.5 47s24.833 15 41.5 15c16 0 29.333 -4.83301 40 -14.5s16 -25.5 16 -47.5v-196
c0 -66.667 16.667 -100 50 -100h84c30 0 52 16 66 48s21 66.667 21 104c0 44.667 -6.83301 84.167 -20.5 118.5s-33.167 59.833 -58.5 76.5c2.66699 11.333 9.83398 21.166 21.501 29.499s27.5 12.5 47.5 12.5c40.667 0 71.334 -19.333 92.001 -58s31 -90.667 31 -156
c0 -72 -13 -130.333 -39 -175h138zM875.999 783.504c11.333 -11 16.999 -24.5 16.999 -40.5s-5.66699 -29.667 -17 -41s-24.666 -17 -39.999 -17c-16 0 -29.5 5.66699 -40.5 17s-16.5 25 -16.5 41s5.33301 29.5 16 40.5s24.334 16.5 41.001 16.5
c15.333 0 28.666 -5.5 39.999 -16.5zM801.998 651.004c12 -12 18 -26.667 18 -44s-6 -32 -18 -44s-26.667 -18 -44 -18c-16.667 0 -31 6.16699 -43 18.5s-18 26.833 -18 43.5s6 31.167 18 43.5s26.333 18.5 43 18.5c17.333 0 32 -6 44 -18zM957.498 651.004
c11.667 -12 17.5 -26.667 17.5 -44s-5.83301 -32 -17.5 -44s-26.167 -18 -43.5 -18c-16.667 0 -31.167 6.16699 -43.5 18.5s-18.5 26.833 -18.5 43.5c0 17.333 6.16699 32 18.5 44s26.833 18 43.5 18c17.333 0 31.833 -6 43.5 -18z" />
    <glyph glyph-name="uniFD2A" unicode="&#xfd2a;" horiz-adv-x="1325" arabic-form="final" 
d="M1325 91l-0.000976562 -90.9961h-105c-38 0 -69.667 8.66699 -95 26c-30 -17.333 -65.333 -26 -106 -26h-12c-34 0 -63.167 4.66699 -87.5 14s-46.166 24 -65.499 44c-10.667 -16 -24.834 -29.667 -42.501 -41s-38.167 -17 -61.5 -17h-36h-110
c-42.667 0 -76.5 15.667 -101.5 47s-37.5 73.666 -37.5 126.999v215c-48 -0.666992 -89.667 -6.33398 -125 -17.001s-64.666 -23.667 -87.999 -39v-391c0 -40.667 -12 -79.334 -36 -116.001s-67 -55 -129 -55c-32 0 -58 5.5 -78 16.5s-34.167 24.333 -42.5 40
s-11.833 30.5 -10.5 44.5c11.333 -7.33301 25.333 -13.5 42 -18.5s32.667 -7.5 48 -7.5c28 0 50.5 7.33301 67.5 22s25.5 33 25.5 55v425c10.667 20.667 29.667 41.167 57 61.5s62.666 37.166 105.999 50.499s92.666 20 147.999 20c27.333 0 50 -2.5 68 -7.5
s32.667 -15.667 44 -32s17 -40.166 17 -71.499v-192c0 -25.333 5.33301 -46 16 -62s26 -24 46 -24h73c24 0 40.667 7.5 50 22.5s14 33.167 14 54.5v219c0 21.333 5.5 37 16.5 47s24.833 15 41.5 15c16 0 29.333 -4.83301 40 -14.5s16 -25.5 16 -47.5v-196
c0 -66.667 16.667 -100 50 -100h84c30 0 52 16 66 48s21 66.667 21 104c0 44.667 -6.83301 84.167 -20.5 118.5s-33.167 59.833 -58.5 76.5c2.66699 11.333 9.83398 21.166 21.501 29.499s27.5 12.5 47.5 12.5c40.667 0 71.334 -19.333 92.001 -58s31 -90.667 31 -156
c0 -72 -13 -130.333 -39 -175h138z" />
    <glyph glyph-name="uniFD2B" unicode="&#xfd2b;" horiz-adv-x="1131" arabic-form="final" 
d="M1131 91l0.000976562 -90.9971h-85c-36 0 -67 8 -93 24c-28.667 -16 -63.667 -24 -105 -24h-383v91v298c-48 -0.666992 -89.667 -6.33398 -125 -17.001s-64.666 -23.667 -87.999 -39v-391c0 -40.667 -12 -79.334 -36 -116.001s-67 -55 -129 -55c-32 0 -58 5.5 -78 16.5
s-34.167 24.333 -42.5 40s-11.833 30.5 -10.5 44.5c11.333 -7.33301 25.333 -13.5 42 -18.5s32.667 -7.5 48 -7.5c28 0 50.5 7.33301 67.5 22s25.5 33 25.5 55v425c10.667 20.667 29.667 41.167 57 61.5s62.666 37.166 105.999 50.499s92.666 20 147.999 20
c36 0 64.5 -5 85.5 -15s34.5 -30.333 40.5 -61c20 20.667 48 38.5 84 53.5s76.667 22.5 122 22.5c44 0 86.5 -7.66699 127.5 -23s75.167 -41.333 102.5 -78s41 -84.667 41 -144c0 -56.667 -11 -104.667 -33 -144h111zM913.501 132.503
c17 27.667 25.499 59.166 25.499 94.499c0 38 -8.66699 69.167 -26 93.5s-39.166 41.833 -65.499 52.5s-53.5 16 -81.5 16c-39.333 0 -77 -9.16699 -113 -27.5s-60.667 -40.166 -74 -65.499v-205h257c34.667 0 60.5 13.833 77.5 41.5z" />
    <glyph glyph-name="uniFD2C" unicode="&#xfd2c;" horiz-adv-x="1131" arabic-form="final" 
d="M1131 91l0.000976562 -90.9971h-85c-36 0 -67 8 -93 24c-28.667 -16 -63.667 -24 -105 -24h-383v91v298c-48 -0.666992 -89.667 -6.33398 -125 -17.001s-64.666 -23.667 -87.999 -39v-391c0 -40.667 -12 -79.334 -36 -116.001s-67 -55 -129 -55c-32 0 -58 5.5 -78 16.5
s-34.167 24.333 -42.5 40s-11.833 30.5 -10.5 44.5c11.333 -7.33301 25.333 -13.5 42 -18.5s32.667 -7.5 48 -7.5c28 0 50.5 7.33301 67.5 22s25.5 33 25.5 55v425c10.667 20.667 29.667 41.167 57 61.5s62.666 37.166 105.999 50.499s92.666 20 147.999 20
c36 0 64.5 -5 85.5 -15s34.5 -30.333 40.5 -61c20 20.667 48 38.5 84 53.5s76.667 22.5 122 22.5c44 0 86.5 -7.66699 127.5 -23s75.167 -41.333 102.5 -78s41 -84.667 41 -144c0 -56.667 -11 -104.667 -33 -144h111zM913.501 132.503
c17 27.667 25.499 59.166 25.499 94.499c0 38 -8.66699 69.167 -26 93.5s-39.166 41.833 -65.499 52.5s-53.5 16 -81.5 16c-39.333 0 -77 -9.16699 -113 -27.5s-60.667 -40.166 -74 -65.499v-205h257c34.667 0 60.5 13.833 77.5 41.5zM735.5 564.502
c-13 13 -19.5 28.5 -19.5 46.5c0 18.667 6.5 34.334 19.5 47.001s28.833 19 47.5 19c18 0 33.5 -6.33301 46.5 -19s19.5 -28.334 19.5 -47.001c0 -18 -6.5 -33.5 -19.5 -46.5s-28.5 -19.5 -46.5 -19.5c-18.667 0 -34.5 6.5 -47.5 19.5z" />
    <glyph glyph-name="uniFE82" unicode="&#x622;" horiz-adv-x="317" arabic-form="final" 
d="M137.5 47c-25 31.333 -37.5 73.667 -37.5 127v278c0 28.667 -4.83301 50 -14.5 64s-21.5 25.333 -35.5 34c2 9.33301 9.66699 19.833 23 31.5s30.333 17.5 51 17.5c26 0 47.333 -10.167 64 -30.5s25 -48.833 25 -85.5v-306c0 -25.333 5.33301 -46 16 -62s26 -24 46 -24
h42v-91h-78c-42.667 0 -76.5 15.667 -101.5 47zM144 645.501c-12 3.66699 -27.3389 9.50098 -46.0059 17.501c-15.333 6.66699 -27.666 11.667 -36.999 15s-19.333 5 -30 5c-11.333 0 -21.166 -2.66699 -29.499 -8s-14.5 -8 -18.5 -8c-6 0 -9 4 -9 12
s3.33301 17.167 10 27.5s16.5 19.166 29.5 26.499s28.5 11 46.5 11c12.667 0 25.334 -1.66699 38.001 -5s27.334 -8.33301 44.001 -15c16.667 -6 30 -10.5 40 -13.5s20 -4.5 30 -4.5c8.66699 0 15.834 1.16699 21.501 3.5s11.334 5.5 17.001 9.5s10.5 6 14.5 6
c4.66699 0 7 -4.66699 7 -14s-3 -19.5 -9 -30.5s-15.667 -20.5 -29 -28.5s-30 -12 -50 -12c-14.667 0 -28 1.83301 -40 5.5z" />
    <glyph glyph-name="uniFE84" unicode="&#x623;" horiz-adv-x="317" arabic-form="final" 
d="M137.5 47c-25 31.333 -37.5 73.667 -37.5 127v278c0 28.667 -4.83301 50 -14.5 64s-21.5 25.333 -35.5 34c2 9.33301 9.66699 19.833 23 31.5s30.333 17.5 51 17.5c26 0 47.333 -10.167 64 -30.5s25 -48.833 25 -85.5v-306c0 -25.333 5.33301 -46 16 -62s26 -24 46 -24
h42v-91h-78c-42.667 0 -76.5 15.667 -101.5 47zM22 663.001c0 10 4.00195 18.001 12.002 24.001s19.667 8.33301 35 7c-10 6 -18.833 15.833 -26.5 29.5s-11.5 28.5 -11.5 44.5c0 25.333 9.33301 47.666 28 66.999s45 29 79 29c22.667 0 39.167 -4.16699 49.5 -12.5
s15.5 -19.833 15.5 -34.5c0 -11.333 -2.83301 -19.666 -8.5 -24.999s-12.834 -8 -21.501 -8c-7.33301 0 -14.333 1.66699 -21 5c0.666992 10 -2 19 -8 27s-14 12.333 -24 13c-6 -3.33301 -11.5 -9.83301 -16.5 -19.5s-7.5 -20.5 -7.5 -32.5
c0 -22 7.16699 -38.833 21.5 -50.5s31.5 -17.5 51.5 -17.5c7.33301 0 14.666 0.666992 21.999 2s12.333 2.33301 15 3c7.33301 0 12.833 -2.33301 16.5 -7s5.5 -10.334 5.5 -17.001c0 -6 -1.33301 -11.5 -4 -16.5s-6.33398 -7.5 -11.001 -7.5
c-48 -4 -88.667 -8.16699 -122 -12.5s-50.666 -10.833 -51.999 -19.5c-11.333 7.33301 -17 17 -17 29z" />
    <glyph glyph-name="uniFE86" unicode="&#x624;" horiz-adv-x="555" arabic-form="final" 
d="M555 0l-91.998 0.000976562v-56c0 -42 -12 -81.333 -36 -118s-67.333 -55 -130 -55c-44 0 -77.167 10.5 -99.5 31.5s-33.833 44.5 -34.5 70.5c11.333 -6.66699 25.166 -12.834 41.499 -18.501s32.5 -8.5 48.5 -8.5c27.333 0 50.166 7 68.499 21s27.5 33.333 27.5 58l1 75
l-98 -2c-64 0 -111.167 19.167 -141.5 57.5s-45.5 98.5 -45.5 180.5c0 67.333 9.66699 119 29 155s44 59.833 74 71.5s65.667 17.5 107 17.5c43.333 0 78.333 -5.66699 105 -17s47.167 -32.333 61.5 -63s21.5 -74.667 21.5 -132v-177h92v-91zM267.002 91.001
l82 -0.000976562v217c0 28.667 -7.5 49.334 -22.5 62.001s-33.833 19 -56.5 19c-32.667 0 -56 -12.333 -70 -37s-21 -62 -21 -112c0 -99.333 29.333 -149 88 -149zM164.002 568c0 10 4.00195 18.001 12.002 24.001s19.667 8.33301 35 7c-10 6 -18.833 15.833 -26.5 29.5
s-11.5 28.5 -11.5 44.5c0 25.333 9.33301 47.666 28 66.999s45 29 79 29c22.667 0 39.167 -4.16699 49.5 -12.5s15.5 -19.833 15.5 -34.5c0 -11.333 -2.83301 -19.666 -8.5 -24.999s-12.834 -8 -21.501 -8c-7.33301 0 -14.333 1.66699 -21 5c0.666992 10 -2 19 -8 27
s-14 12.333 -24 13c-6 -3.33301 -11.5 -9.83301 -16.5 -19.5s-7.5 -20.5 -7.5 -32.5c0 -22 7.16699 -38.833 21.5 -50.5s31.5 -17.5 51.5 -17.5c7.33301 0 14.666 0.666992 21.999 2s12.333 2.33301 15 3c7.33301 0 12.833 -2.33301 16.5 -7s5.5 -10.334 5.5 -17.001
c0 -6 -1.33301 -11.5 -4 -16.5s-6.33398 -7.5 -11.001 -7.5c-48 -4 -88.667 -8.16699 -122 -12.5s-50.666 -10.833 -51.999 -19.5c-11.333 7.33301 -17 17 -17 29z" />
    <glyph glyph-name="uniFE88" unicode="&#x625;" horiz-adv-x="317" arabic-form="final" 
d="M138 47c-24.667 31.333 -37.332 73.667 -37.999 127v339c0 28.667 -4.83301 50 -14.5 64s-21.5 25.333 -35.5 34c2 9.33301 9.66699 19.833 23 31.5s30.333 17.5 51 17.5c26 0 47.333 -10.167 64 -30.5s25 -48.833 25 -85.5v-367c0 -25.333 5.33301 -46 16 -62
s26 -24 46 -24h42v-91h-78c-42.667 0 -76.334 15.667 -101.001 47zM57.002 -249.999c0 9.33301 4 17.001 12 23.001s19.667 8.66699 35 8c-9.33301 6 -17.833 15.667 -25.5 29s-11.5 28 -11.5 44c0 26 9.33301 48.5 28 67.5s45.334 28.5 80.001 28.5
c22 0 38.333 -4.16699 49 -12.5s16 -19.5 16 -33.5c0 -11.333 -3 -19.666 -9 -24.999s-13.333 -8 -22 -8c-7.33301 0 -14.333 1.66699 -21 5c0.666992 10 -2 19 -8 27s-14 12.333 -24 13c-6 -4 -11.5 -10.667 -16.5 -20s-7.5 -20.333 -7.5 -33
c0 -21.333 7.16699 -38 21.5 -50s31.5 -18 51.5 -18c8 0 15.667 0.833008 23 2.5s12 2.5 14 2.5c7.33301 0 12.833 -2.33301 16.5 -7s5.5 -10.334 5.5 -17.001c0 -6 -1.33301 -11.333 -4 -16s-6.33398 -7 -11.001 -7c-45.333 -3.33301 -85.5 -7.33301 -120.5 -12
s-53.167 -11.334 -54.5 -20.001c-11.333 7.33301 -17 17 -17 29z" />
    <glyph glyph-name="uniFE8A" unicode="&#x626;" horiz-adv-x="930" arabic-form="final" 
d="M144 -149.5c-47.333 57.667 -71 122.5 -71 194.5c0 43.333 6 79 18 107s27 48.167 45 60.5s36.667 18.5 56 18.5c17.333 0 31.166 -4.5 41.499 -13.5s16.833 -18.833 19.5 -29.5c-17.333 -14 -32.666 -35.833 -45.999 -65.5s-20 -61.5 -20 -95.5
c0 -48 18 -88.667 54 -122s100.667 -50 194 -50c81.333 0 142.333 13.667 183 41s61 62 61 104h-24c-36 0 -62.167 7.5 -78.5 22.5s-24.5 33.833 -24.5 56.5c0 14 3.33301 28.333 10 43c8.66699 -8 21.167 -15.167 37.5 -21.5s34.5 -9.5 54.5 -9.5h276v-91h-138
c0 -39.333 -11.333 -76.833 -34 -112.5s-59.834 -65.167 -111.501 -88.5s-118.5 -35 -200.5 -35h-22c-139.333 0 -232.666 28.833 -279.999 86.5zM94 325c0 10 4.00195 18.001 12.002 24.001s19.667 8.33301 35 7c-10 6 -18.833 15.833 -26.5 29.5s-11.5 28.5 -11.5 44.5
c0 25.333 9.33301 47.666 28 66.999s45 29 79 29c22.667 0 39.167 -4.16699 49.5 -12.5s15.5 -19.833 15.5 -34.5c0 -11.333 -2.83301 -19.666 -8.5 -24.999s-12.834 -8 -21.501 -8c-7.33301 0 -14.333 1.66699 -21 5c0.666992 10 -2 19 -8 27s-14 12.333 -24 13
c-6 -3.33301 -11.5 -9.83301 -16.5 -19.5s-7.5 -20.5 -7.5 -32.5c0 -22 7.16699 -38.833 21.5 -50.5s31.5 -17.5 51.5 -17.5c7.33301 0 14.666 0.666992 21.999 2s12.333 2.33301 15 3c7.33301 0 12.833 -2.33301 16.5 -7s5.5 -10.334 5.5 -17.001
c0 -6 -1.33301 -11.5 -4 -16.5s-6.33398 -7.5 -11.001 -7.5c-48 -4 -88.667 -8.16699 -122 -12.5s-50.666 -10.833 -51.999 -19.5c-11.333 7.33301 -17 17 -17 29z" />
    <glyph glyph-name="uniFE8B" unicode="&#x626;" horiz-adv-x="346" arabic-form="initial" 
d="M0 91l81.9961 -0.000976562c30 0 51.833 15.667 65.5 47s20.5 69 20.5 113s-5.66699 80.167 -17 108.5s-30.666 53.833 -57.999 76.5c2.66699 10.667 9.83398 20.667 21.501 30s27.834 14 48.501 14c40 0 69.667 -18.667 89 -56s29 -85.666 29 -144.999
c0 -48 -6.66699 -93.167 -20 -135.5s-35.166 -76.833 -65.499 -103.5s-68.833 -40 -115.5 -40h-80v91zM61.9961 567.999c0 10 4.00195 18.001 12.002 24.001s19.667 8.33301 35 7c-10 6 -18.833 15.833 -26.5 29.5s-11.5 28.5 -11.5 44.5c0 25.333 9.33301 47.666 28 66.999
s45 29 79 29c22.667 0 39.167 -4.16699 49.5 -12.5s15.5 -19.833 15.5 -34.5c0 -11.333 -2.83301 -19.666 -8.5 -24.999s-12.834 -8 -21.501 -8c-7.33301 0 -14.333 1.66699 -21 5c0.666992 10 -2 19 -8 27s-14 12.333 -24 13c-6 -3.33301 -11.5 -9.83301 -16.5 -19.5
s-7.5 -20.5 -7.5 -32.5c0 -22 7.16699 -38.833 21.5 -50.5s31.5 -17.5 51.5 -17.5c7.33301 0 14.666 0.666992 21.999 2s12.333 2.33301 15 3c7.33301 0 12.833 -2.33301 16.5 -7s5.5 -10.334 5.5 -17.001c0 -6 -1.33301 -11.5 -4 -16.5s-6.33398 -7.5 -11.001 -7.5
c-48 -4 -88.667 -8.16699 -122 -12.5s-50.666 -10.833 -51.999 -19.5c-11.333 7.33301 -17 17 -17 29z" />
    <glyph glyph-name="uniFE8C" unicode="&#x626;" horiz-adv-x="350" arabic-form="medial" 
d="M350 91l0.000976562 -91.001h-124c-36 0 -68 10.333 -96 31c-14 -10 -27.667 -17.5 -41 -22.5s-28.666 -7.83301 -45.999 -8.5h-43v91h43c25.333 0.666992 49.666 8 72.999 22v309c0 17.333 4.66699 31.333 14 42s23.666 16 42.999 16c18.667 0 32.667 -5.33301 42 -16
s14 -25 14 -43v-258c0 -21.333 3 -38.666 9 -51.999s15 -20 27 -20h85zM71.001 567.999c0 10 4.00195 18.001 12.002 24.001s19.667 8.33301 35 7c-10 6 -18.833 15.833 -26.5 29.5s-11.5 28.5 -11.5 44.5c0 25.333 9.33301 47.666 28 66.999s45 29 79 29
c22.667 0 39.167 -4.16699 49.5 -12.5s15.5 -19.833 15.5 -34.5c0 -11.333 -2.83301 -19.666 -8.5 -24.999s-12.834 -8 -21.501 -8c-7.33301 0 -14.333 1.66699 -21 5c0.666992 10 -2 19 -8 27s-14 12.333 -24 13c-6 -3.33301 -11.5 -9.83301 -16.5 -19.5
s-7.5 -20.5 -7.5 -32.5c0 -22 7.16699 -38.833 21.5 -50.5s31.5 -17.5 51.5 -17.5c7.33301 0 14.666 0.666992 21.999 2s12.333 2.33301 15 3c7.33301 0 12.833 -2.33301 16.5 -7s5.5 -10.334 5.5 -17.001c0 -6 -1.33301 -11.5 -4 -16.5s-6.33398 -7.5 -11.001 -7.5
c-48 -4 -88.667 -8.16699 -122 -12.5s-50.666 -10.833 -51.999 -19.5c-11.333 7.33301 -17 17 -17 29z" />
    <glyph glyph-name="uniFE8E" unicode="&#x627;" horiz-adv-x="317" arabic-form="final" 
d="M138 47c-24.667 31.333 -37.332 73.667 -37.999 127v339c0 28.667 -4.83301 50 -14.5 64s-21.5 25.333 -35.5 34c2 9.33301 9.66699 19.833 23 31.5s30.333 17.5 51 17.5c26 0 47.333 -10.167 64 -30.5s25 -48.833 25 -85.5v-367c0 -25.333 5.33301 -46 16 -62
s26 -24 46 -24h42v-91h-78c-42.667 0 -76.334 15.667 -101.001 47z" />
    <glyph glyph-name="uniFE90" unicode="&#x628;" horiz-adv-x="835" arabic-form="final" 
d="M835 91l-0.00292969 -91.001h-104c-39.333 0 -73 10 -101 30c-28.667 -20 -63 -30 -103 -30h-332c-44 0 -76.667 12.667 -98 38s-32 59.333 -32 102v234c0 16.667 4.83301 30.334 14.5 41.001s23.834 16 42.501 16s32.834 -5.5 42.501 -16.5s14.5 -25.167 14.5 -42.5
v-202c0 -28 4.5 -48.167 13.5 -60.5s24.167 -18.5 45.5 -18.5h291c30 0 51.833 16 65.5 48s20.5 69.333 20.5 112c0 44 -5.66699 80.167 -17 108.5s-30.666 53.833 -57.999 76.5c2.66699 10.667 10 20.667 22 30s28 14 48 14c40 0 69.833 -18.667 89.5 -56
s29.5 -85.666 29.5 -144.999c0 -34.667 -3.66699 -68.334 -11 -101.001s-18.333 -61.667 -33 -87h150zM336.497 -192.501c-13 13 -19.5 28.5 -19.5 46.5s6.5 33.5 19.5 46.5s28.833 19.5 47.5 19.5c18 0 33.5 -6.5 46.5 -19.5s19.5 -28.5 19.5 -46.5s-6.5 -33.5 -19.5 -46.5
s-28.5 -19.5 -46.5 -19.5c-18.667 0 -34.5 6.5 -47.5 19.5z" />
    <glyph glyph-name="uniFE91" unicode="&#x628;" horiz-adv-x="346" arabic-form="initial" 
d="M0 91l81.9961 -0.000976562c30 0 51.833 15.667 65.5 47s20.5 69 20.5 113s-5.66699 80.167 -17 108.5s-30.666 53.833 -57.999 76.5c2.66699 10.667 9.83398 20.667 21.501 30s27.834 14 48.501 14c40 0 69.667 -18.667 89 -56s29 -85.666 29 -144.999
c0 -48 -6.66699 -93.167 -20 -135.5s-35.166 -76.833 -65.499 -103.5s-68.833 -40 -115.5 -40h-80v91zM114.496 -192.501c-13 13 -19.5 28.5 -19.5 46.5s6.5 33.5 19.5 46.5s28.833 19.5 47.5 19.5c18 0 33.5 -6.5 46.5 -19.5s19.5 -28.5 19.5 -46.5s-6.5 -33.5 -19.5 -46.5
s-28.5 -19.5 -46.5 -19.5c-18.667 0 -34.5 6.5 -47.5 19.5z" />
    <glyph glyph-name="uniFE92" unicode="&#x628;" horiz-adv-x="350" arabic-form="medial" 
d="M350 91l0.000976562 -91.001h-124c-36 0 -68 10.333 -96 31c-14 -10 -27.667 -17.5 -41 -22.5s-28.666 -7.83301 -45.999 -8.5h-43v91h43c25.333 0.666992 49.666 8 72.999 22v309c0 17.333 4.66699 31.333 14 42s23.666 16 42.999 16c18.667 0 32.667 -5.33301 42 -16
s14 -25 14 -43v-258c0 -21.333 3 -38.666 9 -51.999s15 -20 27 -20h85zM126.501 -192.501c-13 13 -19.5 28.5 -19.5 46.5s6.5 33.5 19.5 46.5s28.833 19.5 47.5 19.5c18 0 33.5 -6.5 46.5 -19.5s19.5 -28.5 19.5 -46.5s-6.5 -33.5 -19.5 -46.5s-28.5 -19.5 -46.5 -19.5
c-18.667 0 -34.5 6.5 -47.5 19.5z" />
    <glyph glyph-name="uniFE94" unicode="&#x629;" horiz-adv-x="525" arabic-form="final" 
d="M525 91l0.000976562 -91h-91c-32.667 0 -60.667 6.66699 -84 20c-26.667 -14.667 -59.334 -22 -98.001 -22c-64 0 -111.167 19.167 -141.5 57.5s-45.5 98.5 -45.5 180.5c0 67.333 9.66699 119 29 155s44 59.833 74 71.5s65.667 17.5 107 17.5
c43.333 0 78.333 -5.66699 105 -17s47.167 -32.333 61.5 -63s21.5 -74.667 21.5 -132v-177h62zM196.001 137.5c11.333 -31 35 -46.501 71 -46.501h82v217c0 28.667 -7.5 49.334 -22.5 62.001s-33.833 19 -56.5 19c-32.667 0 -56 -12.333 -70 -37s-21 -62 -21 -112
c0 -37.333 5.66699 -71.5 17 -102.5zM142.001 565.999c-12 12 -18 26.333 -18 43c0 17.333 6 32.166 18 44.499s26.333 18.5 43 18.5c17.333 0 32 -6.16699 44 -18.5s18 -27.166 18 -44.499s-6 -31.833 -18 -43.5s-26.667 -17.5 -44 -17.5c-16.667 0 -31 6 -43 18z
M297.001 565.999c-12 12 -18 26.333 -18 43c0 17.333 6 32.166 18 44.499s26.667 18.5 44 18.5s31.833 -6.16699 43.5 -18.5s17.5 -27.166 17.5 -44.499s-5.83301 -31.833 -17.5 -43.5s-26.167 -17.5 -43.5 -17.5s-32 6 -44 18z" />
    <glyph glyph-name="uniFE96" unicode="&#x62a;" horiz-adv-x="835" arabic-form="final" 
d="M835 91l-0.00292969 -91.001h-104c-39.333 0 -73 10 -101 30c-28.667 -20 -63 -30 -103 -30h-332c-44 0 -76.667 12.667 -98 38s-32 59.333 -32 102v234c0 16.667 4.83301 30.334 14.5 41.001s23.834 16 42.501 16s32.834 -5.5 42.501 -16.5s14.5 -25.167 14.5 -42.5
v-202c0 -28 4.5 -48.167 13.5 -60.5s24.167 -18.5 45.5 -18.5h291c30 0 51.833 16 65.5 48s20.5 69.333 20.5 112c0 44 -5.66699 80.167 -17 108.5s-30.666 53.833 -57.999 76.5c2.66699 10.667 10 20.667 22 30s28 14 48 14c40 0 69.833 -18.667 89.5 -56
s29.5 -85.666 29.5 -144.999c0 -34.667 -3.66699 -68.334 -11 -101.001s-18.333 -61.667 -33 -87h150zM262.997 520.999c-12 12 -18 26.333 -18 43c0 17.333 6 32.166 18 44.499s26.333 18.5 43 18.5c17.333 0 32 -6.16699 44 -18.5s18 -27.166 18 -44.499
s-6 -31.833 -18 -43.5s-26.667 -17.5 -44 -17.5c-16.667 0 -31 6 -43 18zM417.997 520.999c-12 12 -18 26.333 -18 43c0 17.333 6 32.166 18 44.499s26.667 18.5 44 18.5s31.833 -6.16699 43.5 -18.5s17.5 -27.166 17.5 -44.499s-5.83301 -31.833 -17.5 -43.5
s-26.167 -17.5 -43.5 -17.5s-32 6 -44 18z" />
    <glyph glyph-name="uniFE97" unicode="&#x62a;" horiz-adv-x="346" arabic-form="initial" 
d="M0 91l81.9961 -0.000976562c30 0 51.833 15.667 65.5 47s20.5 69 20.5 113s-5.66699 80.167 -17 108.5s-30.666 53.833 -57.999 76.5c2.66699 10.667 9.83398 20.667 21.501 30s27.834 14 48.501 14c40 0 69.667 -18.667 89 -56s29 -85.666 29 -144.999
c0 -48 -6.66699 -93.167 -20 -135.5s-35.166 -76.833 -65.499 -103.5s-68.833 -40 -115.5 -40h-80v91zM42.9961 565.999c-12 12 -18 26.333 -18 43c0 17.333 6 32.166 18 44.499s26.333 18.5 43 18.5c17.333 0 32 -6.16699 44 -18.5s18 -27.166 18 -44.499
s-6 -31.833 -18 -43.5s-26.667 -17.5 -44 -17.5c-16.667 0 -31 6 -43 18zM197.996 565.999c-12 12 -18 26.333 -18 43c0 17.333 6 32.166 18 44.499s26.667 18.5 44 18.5s31.833 -6.16699 43.5 -18.5s17.5 -27.166 17.5 -44.499s-5.83301 -31.833 -17.5 -43.5
s-26.167 -17.5 -43.5 -17.5s-32 6 -44 18z" />
    <glyph glyph-name="uniFE98" unicode="&#x62a;" horiz-adv-x="350" arabic-form="medial" 
d="M350 91l0.000976562 -91.001h-124c-36 0 -68 10.333 -96 31c-14 -10 -27.667 -17.5 -41 -22.5s-28.666 -7.83301 -45.999 -8.5h-43v91h43c25.333 0.666992 49.666 8 72.999 22v309c0 17.333 4.66699 31.333 14 42s23.666 16 42.999 16c18.667 0 32.667 -5.33301 42 -16
s14 -25 14 -43v-258c0 -21.333 3 -38.666 9 -51.999s15 -20 27 -20h85zM52.001 565.999c-12 12 -18 26.333 -18 43c0 17.333 6 32.166 18 44.499s26.333 18.5 43 18.5c17.333 0 32 -6.16699 44 -18.5s18 -27.166 18 -44.499s-6 -31.833 -18 -43.5s-26.667 -17.5 -44 -17.5
c-16.667 0 -31 6 -43 18zM207.001 565.999c-12 12 -18 26.333 -18 43c0 17.333 6 32.166 18 44.499s26.667 18.5 44 18.5s31.833 -6.16699 43.5 -18.5s17.5 -27.166 17.5 -44.499s-5.83301 -31.833 -17.5 -43.5s-26.167 -17.5 -43.5 -17.5s-32 6 -44 18z" />
    <glyph glyph-name="uniFE9A" unicode="&#x62b;" horiz-adv-x="835" arabic-form="final" 
d="M835 91l-0.00292969 -91.001h-104c-39.333 0 -73 10 -101 30c-28.667 -20 -63 -30 -103 -30h-332c-44 0 -76.667 12.667 -98 38s-32 59.333 -32 102v234c0 16.667 4.83301 30.334 14.5 41.001s23.834 16 42.501 16s32.834 -5.5 42.501 -16.5s14.5 -25.167 14.5 -42.5
v-202c0 -28 4.5 -48.167 13.5 -60.5s24.167 -18.5 45.5 -18.5h291c30 0 51.833 16 65.5 48s20.5 69.333 20.5 112c0 44 -5.66699 80.167 -17 108.5s-30.666 53.833 -57.999 76.5c2.66699 10.667 10 20.667 22 30s28 14 48 14c40 0 69.833 -18.667 89.5 -56
s29.5 -85.666 29.5 -144.999c0 -34.667 -3.66699 -68.334 -11 -101.001s-18.333 -61.667 -33 -87h150zM423.997 738.499c11.333 -11 16.999 -24.5 16.999 -40.5s-5.66699 -29.667 -17 -41s-24.666 -17 -39.999 -17c-16 0 -29.5 5.66699 -40.5 17s-16.5 25 -16.5 41
s5.33301 29.5 16 40.5s24.334 16.5 41.001 16.5c15.333 0 28.666 -5.5 39.999 -16.5zM349.996 605.999c12 -12 18 -26.667 18 -44s-6 -32 -18 -44s-26.667 -18 -44 -18c-16.667 0 -31 6.16699 -43 18.5s-18 26.833 -18 43.5s6 31.167 18 43.5s26.333 18.5 43 18.5
c17.333 0 32 -6 44 -18zM505.496 605.999c11.667 -12 17.5 -26.667 17.5 -44s-5.83301 -32 -17.5 -44s-26.167 -18 -43.5 -18c-16.667 0 -31.167 6.16699 -43.5 18.5s-18.5 26.833 -18.5 43.5c0 17.333 6.16699 32 18.5 44s26.833 18 43.5 18c17.333 0 31.833 -6 43.5 -18z
" />
    <glyph glyph-name="uniFE9B" unicode="&#x62b;" horiz-adv-x="346" arabic-form="initial" 
d="M0 91l81.9961 -0.000976562c30 0 51.833 15.667 65.5 47s20.5 69 20.5 113s-5.66699 80.167 -17 108.5s-30.666 53.833 -57.999 76.5c2.66699 10.667 9.83398 20.667 21.501 30s27.834 14 48.501 14c40 0 69.667 -18.667 89 -56s29 -85.666 29 -144.999
c0 -48 -6.66699 -93.167 -20 -135.5s-35.166 -76.833 -65.499 -103.5s-68.833 -40 -115.5 -40h-80v91zM202.996 783.499c11.333 -11 16.999 -24.5 16.999 -40.5s-5.66699 -29.667 -17 -41s-24.666 -17 -39.999 -17c-16 0 -29.5 5.66699 -40.5 17s-16.5 25 -16.5 41
s5.33301 29.5 16 40.5s24.334 16.5 41.001 16.5c15.333 0 28.666 -5.5 39.999 -16.5zM128.995 650.999c12 -12 18 -26.667 18 -44s-6 -32 -18 -44s-26.667 -18 -44 -18c-16.667 0 -31 6.16699 -43 18.5s-18 26.833 -18 43.5s6 31.167 18 43.5s26.333 18.5 43 18.5
c17.333 0 32 -6 44 -18zM284.495 650.999c11.667 -12 17.5 -26.667 17.5 -44s-5.83301 -32 -17.5 -44s-26.167 -18 -43.5 -18c-16.667 0 -31.167 6.16699 -43.5 18.5s-18.5 26.833 -18.5 43.5c0 17.333 6.16699 32 18.5 44s26.833 18 43.5 18c17.333 0 31.833 -6 43.5 -18z
" />
    <glyph glyph-name="uniFE9C" unicode="&#x62b;" horiz-adv-x="350" arabic-form="medial" 
d="M350 91l0.000976562 -91.001h-124c-36 0 -68 10.333 -96 31c-14 -10 -27.667 -17.5 -41 -22.5s-28.666 -7.83301 -45.999 -8.5h-43v91h43c25.333 0.666992 49.666 8 72.999 22v309c0 17.333 4.66699 31.333 14 42s23.666 16 42.999 16c18.667 0 32.667 -5.33301 42 -16
s14 -25 14 -43v-258c0 -21.333 3 -38.666 9 -51.999s15 -20 27 -20h85zM213.001 783.499c11.333 -11 16.999 -24.5 16.999 -40.5s-5.66699 -29.667 -17 -41s-24.666 -17 -39.999 -17c-16 0 -29.5 5.66699 -40.5 17s-16.5 25 -16.5 41s5.33301 29.5 16 40.5
s24.334 16.5 41.001 16.5c15.333 0 28.666 -5.5 39.999 -16.5zM139 650.999c12 -12 18 -26.667 18 -44s-6 -32 -18 -44s-26.667 -18 -44 -18c-16.667 0 -31 6.16699 -43 18.5s-18 26.833 -18 43.5s6 31.167 18 43.5s26.333 18.5 43 18.5c17.333 0 32 -6 44 -18z
M294.5 650.999c11.667 -12 17.5 -26.667 17.5 -44s-5.83301 -32 -17.5 -44s-26.167 -18 -43.5 -18c-16.667 0 -31.167 6.16699 -43.5 18.5s-18.5 26.833 -18.5 43.5c0 17.333 6.16699 32 18.5 44s26.833 18 43.5 18c17.333 0 31.833 -6 43.5 -18z" />
    <glyph glyph-name="uniFE9E" unicode="&#x62c;" horiz-adv-x="627" arabic-form="final" 
d="M627 91l-0.000976562 -90.9961h-41c-41.333 0 -74.666 10.333 -99.999 31c-30.667 -20.667 -66.667 -31 -108 -31h-218c0 -57.333 7.16699 -106.333 21.5 -147s33.833 -70 58.5 -88c-3.33301 -8 -10.833 -15.167 -22.5 -21.5s-25.167 -9.5 -40.5 -9.5
c-29.333 0 -52.833 11.167 -70.5 33.5s-30 48.666 -37 78.999s-10.5 59.5 -10.5 87.5c0 49.333 10 87.833 30 115.5s50.333 41.5 91 41.5h165c18 0 36 4.5 54 13.5s33.167 24.167 45.5 45.5s18.5 49.666 18.5 84.999c0 52.667 -16.667 91.667 -50 117s-80.333 38 -141 38
h-81c-27.333 0 -48.166 9.66699 -62.499 29s-21.5 39.333 -21.5 60c0 8 1.33301 14.667 4 20s5.66699 9 9 11c5.33301 -8.66699 16.166 -16.334 32.499 -23.001s36.833 -10 61.5 -10l50 1l56 2c48 0 91.5 -9.5 130.5 -28.5s69.833 -46.833 92.5 -83.5s34 -80 34 -130
c0 -24.667 -3 -49.834 -9 -75.501s-15 -49.5 -27 -71.5h86zM390.499 -68.9961c13 -12.667 19.5 -28.334 19.5 -47.001c0 -18 -6.5 -33.5 -19.5 -46.5s-28.5 -19.5 -46.5 -19.5c-18.667 0 -34.5 6.5 -47.5 19.5s-19.5 28.5 -19.5 46.5c0 18.667 6.5 34.334 19.5 47.001
s28.833 19 47.5 19c18 0 33.5 -6.33301 46.5 -19z" />
    <glyph glyph-name="uniFE9F" unicode="&#x62c;" horiz-adv-x="559" arabic-form="initial" 
d="M0 91l268 -0.00390625c18 0 35.833 4.33301 53.5 13s32.834 23.834 45.501 45.501s19 50.167 19 85.5c0 54.667 -16.5 94.167 -49.5 118.5s-80.167 36.5 -141.5 36.5h-81c-26.667 0 -47 7.83301 -61 23.5s-21.667 35.5 -23 59.5
c-0.666992 10.667 0.333008 19.334 3 26.001s6 10.334 10 11.001c5.33301 -8.66699 16.166 -16.334 32.499 -23.001s36.833 -10 61.5 -10l50 1l56 2c48 0 91.5 -9.5 130.5 -28.5s69.833 -46.833 92.5 -83.5s34 -80 34 -130c0 -37.333 -6.33301 -74.166 -19 -110.499
s-34 -66.666 -64 -90.999s-68.667 -36.5 -116 -36.5h-301v91zM228.5 -192.504c-13 13 -19.5 28.5 -19.5 46.5s6.5 33.5 19.5 46.5s28.833 19.5 47.5 19.5c18 0 33.5 -6.5 46.5 -19.5s19.5 -28.5 19.5 -46.5s-6.5 -33.5 -19.5 -46.5s-28.5 -19.5 -46.5 -19.5
c-18.667 0 -34.5 6.5 -47.5 19.5z" />
    <glyph glyph-name="uniFEA0" unicode="&#x62c;" horiz-adv-x="543" arabic-form="medial" 
d="M543 91l-0.000976562 -91.001h-34c-41.333 0 -74.666 10.333 -99.999 31c-30.667 -20.667 -66.667 -31 -108 -31h-301v91h268c18 0 35.833 4.33301 53.5 13s32.834 23.834 45.501 45.501s19 50.167 19 85.5c0 54.667 -16.5 94.167 -49.5 118.5s-80.167 36.5 -141.5 36.5
h-81c-26.667 0 -47 7.83301 -61 23.5s-21.667 35.5 -23 59.5c-0.666992 10.667 0.333008 19.334 3 26.001s6 10.334 10 11.001c5.33301 -8.66699 16.166 -16.334 32.499 -23.001s36.833 -10 61.5 -10l50 1l56 2c48 0 91.5 -9.5 130.5 -28.5s69.833 -46.833 92.5 -83.5
s34 -80 34 -130c0 -24.667 -3 -49.834 -9 -75.501s-15 -49.5 -27 -71.5h79zM228.499 -192.501c-13 13 -19.5 28.5 -19.5 46.5s6.5 33.5 19.5 46.5s28.833 19.5 47.5 19.5c18 0 33.5 -6.5 46.5 -19.5s19.5 -28.5 19.5 -46.5s-6.5 -33.5 -19.5 -46.5s-28.5 -19.5 -46.5 -19.5
c-18.667 0 -34.5 6.5 -47.5 19.5z" />
    <glyph glyph-name="uniFEA2" unicode="&#x62d;" horiz-adv-x="627" arabic-form="final" 
d="M627 91l-0.000976562 -90.9961h-41c-41.333 0 -74.666 10.333 -99.999 31c-30.667 -20.667 -66.667 -31 -108 -31h-218c0 -57.333 7.16699 -106.333 21.5 -147s33.833 -70 58.5 -88c-3.33301 -8 -10.833 -15.167 -22.5 -21.5s-25.167 -9.5 -40.5 -9.5
c-29.333 0 -52.833 11.167 -70.5 33.5s-30 48.666 -37 78.999s-10.5 59.5 -10.5 87.5c0 49.333 10 87.833 30 115.5s50.333 41.5 91 41.5h165c18 0 36 4.5 54 13.5s33.167 24.167 45.5 45.5s18.5 49.666 18.5 84.999c0 52.667 -16.667 91.667 -50 117s-80.333 38 -141 38
h-81c-27.333 0 -48.166 9.66699 -62.499 29s-21.5 39.333 -21.5 60c0 8 1.33301 14.667 4 20s5.66699 9 9 11c5.33301 -8.66699 16.166 -16.334 32.499 -23.001s36.833 -10 61.5 -10l50 1l56 2c48 0 91.5 -9.5 130.5 -28.5s69.833 -46.833 92.5 -83.5s34 -80 34 -130
c0 -24.667 -3 -49.834 -9 -75.501s-15 -49.5 -27 -71.5h86z" />
    <glyph glyph-name="uniFEA3" unicode="&#x62d;" horiz-adv-x="559" arabic-form="initial" 
d="M0 91l268 -0.00390625c18 0 35.833 4.33301 53.5 13s32.834 23.834 45.501 45.501s19 50.167 19 85.5c0 54.667 -16.5 94.167 -49.5 118.5s-80.167 36.5 -141.5 36.5h-81c-26.667 0 -47 7.83301 -61 23.5s-21.667 35.5 -23 59.5
c-0.666992 10.667 0.333008 19.334 3 26.001s6 10.334 10 11.001c5.33301 -8.66699 16.166 -16.334 32.499 -23.001s36.833 -10 61.5 -10l50 1l56 2c48 0 91.5 -9.5 130.5 -28.5s69.833 -46.833 92.5 -83.5s34 -80 34 -130c0 -37.333 -6.33301 -74.166 -19 -110.499
s-34 -66.666 -64 -90.999s-68.667 -36.5 -116 -36.5h-301v91z" />
    <glyph glyph-name="uniFEA4" unicode="&#x62d;" horiz-adv-x="543" arabic-form="medial" 
d="M543 91l-0.000976562 -91.001h-34c-41.333 0 -74.666 10.333 -99.999 31c-30.667 -20.667 -66.667 -31 -108 -31h-301v91h268c18 0 35.833 4.33301 53.5 13s32.834 23.834 45.501 45.501s19 50.167 19 85.5c0 54.667 -16.5 94.167 -49.5 118.5s-80.167 36.5 -141.5 36.5
h-81c-26.667 0 -47 7.83301 -61 23.5s-21.667 35.5 -23 59.5c-0.666992 10.667 0.333008 19.334 3 26.001s6 10.334 10 11.001c5.33301 -8.66699 16.166 -16.334 32.499 -23.001s36.833 -10 61.5 -10l50 1l56 2c48 0 91.5 -9.5 130.5 -28.5s69.833 -46.833 92.5 -83.5
s34 -80 34 -130c0 -24.667 -3 -49.834 -9 -75.501s-15 -49.5 -27 -71.5h79z" />
    <glyph glyph-name="uniFEA6" unicode="&#x62e;" horiz-adv-x="627" arabic-form="final" 
d="M627 91l-0.000976562 -90.9961h-41c-41.333 0 -74.666 10.333 -99.999 31c-30.667 -20.667 -66.667 -31 -108 -31h-218c0 -57.333 7.16699 -106.333 21.5 -147s33.833 -70 58.5 -88c-3.33301 -8 -10.833 -15.167 -22.5 -21.5s-25.167 -9.5 -40.5 -9.5
c-29.333 0 -52.833 11.167 -70.5 33.5s-30 48.666 -37 78.999s-10.5 59.5 -10.5 87.5c0 49.333 10 87.833 30 115.5s50.333 41.5 91 41.5h165c18 0 36 4.5 54 13.5s33.167 24.167 45.5 45.5s18.5 49.666 18.5 84.999c0 52.667 -16.667 91.667 -50 117s-80.333 38 -141 38
h-81c-27.333 0 -48.166 9.66699 -62.499 29s-21.5 39.333 -21.5 60c0 8 1.33301 14.667 4 20s5.66699 9 9 11c5.33301 -8.66699 16.166 -16.334 32.499 -23.001s36.833 -10 61.5 -10l50 1l56 2c48 0 91.5 -9.5 130.5 -28.5s69.833 -46.833 92.5 -83.5s34 -80 34 -130
c0 -24.667 -3 -49.834 -9 -75.501s-15 -49.5 -27 -71.5h86zM271.499 564.504c-13 13 -19.5 28.5 -19.5 46.5c0 18.667 6.5 34.334 19.5 47.001s28.833 19 47.5 19c18 0 33.5 -6.33301 46.5 -19s19.5 -28.334 19.5 -47.001c0 -18 -6.5 -33.5 -19.5 -46.5
s-28.5 -19.5 -46.5 -19.5c-18.667 0 -34.5 6.5 -47.5 19.5z" />
    <glyph glyph-name="uniFEA7" unicode="&#x62e;" horiz-adv-x="559" arabic-form="initial" 
d="M0 91l268 -0.00390625c18 0 35.833 4.33301 53.5 13s32.834 23.834 45.501 45.501s19 50.167 19 85.5c0 54.667 -16.5 94.167 -49.5 118.5s-80.167 36.5 -141.5 36.5h-81c-26.667 0 -47 7.83301 -61 23.5s-21.667 35.5 -23 59.5
c-0.666992 10.667 0.333008 19.334 3 26.001s6 10.334 10 11.001c5.33301 -8.66699 16.166 -16.334 32.499 -23.001s36.833 -10 61.5 -10l50 1l56 2c48 0 91.5 -9.5 130.5 -28.5s69.833 -46.833 92.5 -83.5s34 -80 34 -130c0 -37.333 -6.33301 -74.166 -19 -110.499
s-34 -66.666 -64 -90.999s-68.667 -36.5 -116 -36.5h-301v91zM228.5 564.496c-13 13 -19.5 28.5 -19.5 46.5c0 18.667 6.5 34.334 19.5 47.001s28.833 19 47.5 19c18 0 33.5 -6.33301 46.5 -19s19.5 -28.334 19.5 -47.001c0 -18 -6.5 -33.5 -19.5 -46.5
s-28.5 -19.5 -46.5 -19.5c-18.667 0 -34.5 6.5 -47.5 19.5z" />
    <glyph glyph-name="uniFEA8" unicode="&#x62e;" horiz-adv-x="543" arabic-form="medial" 
d="M543 91l-0.000976562 -91.001h-34c-41.333 0 -74.666 10.333 -99.999 31c-30.667 -20.667 -66.667 -31 -108 -31h-301v91h268c18 0 35.833 4.33301 53.5 13s32.834 23.834 45.501 45.501s19 50.167 19 85.5c0 54.667 -16.5 94.167 -49.5 118.5s-80.167 36.5 -141.5 36.5
h-81c-26.667 0 -47 7.83301 -61 23.5s-21.667 35.5 -23 59.5c-0.666992 10.667 0.333008 19.334 3 26.001s6 10.334 10 11.001c5.33301 -8.66699 16.166 -16.334 32.499 -23.001s36.833 -10 61.5 -10l50 1l56 2c48 0 91.5 -9.5 130.5 -28.5s69.833 -46.833 92.5 -83.5
s34 -80 34 -130c0 -24.667 -3 -49.834 -9 -75.501s-15 -49.5 -27 -71.5h79zM228.499 564.499c-13 13 -19.5 28.5 -19.5 46.5c0 18.667 6.5 34.334 19.5 47.001s28.833 19 47.5 19c18 0 33.5 -6.33301 46.5 -19s19.5 -28.334 19.5 -47.001c0 -18 -6.5 -33.5 -19.5 -46.5
s-28.5 -19.5 -46.5 -19.5c-18.667 0 -34.5 6.5 -47.5 19.5z" />
    <glyph glyph-name="uniFEAA" unicode="&#x62f;" horiz-adv-x="544" arabic-form="final" 
d="M544 91l0.000976562 -91.001h-103c-40 0 -72.667 9.33301 -98 28c-28.667 -18.667 -61.334 -28 -98.001 -28h-150c-13.333 0 -22.666 4.83301 -27.999 14.5s-8 19.834 -8 30.501c0 11.333 2.83301 21.833 8.5 31.5s16.167 14.5 31.5 14.5h59
c60 0 103.833 14.5 131.5 43.5s41.5 66.167 41.5 111.5c0 40.667 -9.66699 74.834 -29 102.501s-43 43.167 -71 46.5c-16.667 -4.66699 -30 -14 -40 -28s-15 -34 -15 -60c-13.333 -4 -27.333 -6 -42 -6c-6.66699 0 -11.334 0.333008 -14.001 1
c-15.333 1.33301 -28.333 7.66602 -39 18.999s-16 27 -16 47c0 25.333 8.83301 46.5 26.5 63.5s39.167 29.333 64.5 37s49.333 11.5 72 11.5c36 0 70.667 -10 104 -30s60.5 -47.333 81.5 -82s31.5 -73 31.5 -115c0 -24.667 -3.5 -51.667 -10.5 -81
s-18.167 -56.333 -33.5 -81h143zM252.001 397.999c-4.66699 0 -8 -0.333008 -10 -1z" />
    <glyph glyph-name="uniFEAC" unicode="&#x630;" horiz-adv-x="544" arabic-form="final" 
d="M544 91l0.000976562 -91.001h-103c-40 0 -72.667 9.33301 -98 28c-28.667 -18.667 -61.334 -28 -98.001 -28h-150c-13.333 0 -22.666 4.83301 -27.999 14.5s-8 19.834 -8 30.501c0 11.333 2.83301 21.833 8.5 31.5s16.167 14.5 31.5 14.5h59
c60 0 103.833 14.5 131.5 43.5s41.5 66.167 41.5 111.5c0 40.667 -9.66699 74.834 -29 102.501s-43 43.167 -71 46.5c-16.667 -4.66699 -30 -14 -40 -28s-15 -34 -15 -60c-13.333 -4 -27.333 -6 -42 -6c-6.66699 0 -11.334 0.333008 -14.001 1
c-15.333 1.33301 -28.333 7.66602 -39 18.999s-16 27 -16 47c0 25.333 8.83301 46.5 26.5 63.5s39.167 29.333 64.5 37s49.333 11.5 72 11.5c36 0 70.667 -10 104 -30s60.5 -47.333 81.5 -82s31.5 -73 31.5 -115c0 -24.667 -3.5 -51.667 -10.5 -81
s-18.167 -56.333 -33.5 -81h143zM252.001 397.999c-4.66699 0 -8 -0.333008 -10 -1zM204.501 564.499c-13 13 -19.5 28.5 -19.5 46.5c0 18.667 6.5 34.334 19.5 47.001s28.833 19 47.5 19c18 0 33.5 -6.33301 46.5 -19s19.5 -28.334 19.5 -47.001
c0 -18 -6.5 -33.5 -19.5 -46.5s-28.5 -19.5 -46.5 -19.5c-18.667 0 -34.5 6.5 -47.5 19.5z" />
    <glyph glyph-name="uniFEAE" unicode="&#x631;" horiz-adv-x="350" arabic-form="final" 
d="M350 0l-98.001 0.00195312v-58c0 -40.667 -12 -79.334 -36 -116.001s-67 -55 -129 -55c-32 0 -58 5.5 -78 16.5s-34.167 24.333 -42.5 40s-11.833 30.5 -10.5 44.5c11.333 -7.33301 25.333 -13.5 42 -18.5s32.667 -7.5 48 -7.5c28 0 50.5 7.33301 67.5 22
s25.5 33 25.5 55v503c0 17.333 5.33301 30.666 16 39.999s24.334 14 41.001 14s30.167 -4.66699 40.5 -14s15.5 -23 15.5 -41v-334h98v-91z" />
    <glyph glyph-name="uniFEB0" unicode="&#x632;" horiz-adv-x="350" arabic-form="final" 
d="M350 0l-98.001 0.00195312v-58c0 -40.667 -12 -79.334 -36 -116.001s-67 -55 -129 -55c-32 0 -58 5.5 -78 16.5s-34.167 24.333 -42.5 40s-11.833 30.5 -10.5 44.5c11.333 -7.33301 25.333 -13.5 42 -18.5s32.667 -7.5 48 -7.5c28 0 50.5 7.33301 67.5 22
s25.5 33 25.5 55v503c0 17.333 5.33301 30.666 16 39.999s24.334 14 41.001 14s30.167 -4.66699 40.5 -14s15.5 -23 15.5 -41v-334h98v-91zM149.499 564.502c-13 13 -19.5 28.5 -19.5 46.5c0 18.667 6.5 34.334 19.5 47.001s28.833 19 47.5 19c18 0 33.5 -6.33301 46.5 -19
s19.5 -28.334 19.5 -47.001c0 -18 -6.5 -33.5 -19.5 -46.5s-28.5 -19.5 -46.5 -19.5c-18.667 0 -34.5 6.5 -47.5 19.5z" />
    <glyph glyph-name="uniFEB2" unicode="&#x633;" horiz-adv-x="1389" arabic-form="final" 
d="M1389 91l0.00195312 -91.002h-137c-40 0 -73 9.66699 -99 29c-30 -19.333 -66.333 -29 -109 -29h-13c-34 0 -63.167 4.66699 -87.5 14s-46.166 24 -65.499 44c-10.667 -16 -24.834 -29.667 -42.501 -41s-38.167 -17 -61.5 -17h-89c-30 0.666992 -57 10 -81 28
c-1.33301 -65.333 -10.666 -118.5 -27.999 -159.5s-45.333 -71.667 -84 -92s-90.667 -30.5 -156 -30.5c-92.667 0 -161 22.5 -205 67.5s-66 117.167 -66 216.5c0 88 12.667 149.667 38 185s56 53 92 53c17.333 0 32.166 -3.66699 44.499 -11s20.5 -15.333 24.5 -24
c-22 -18.667 -42 -49 -60 -91s-27 -89.333 -27 -142c0 -47.333 7.33301 -83.666 22 -108.999s33.334 -42.166 56.001 -50.499s49.667 -12.833 81 -13.5c37.333 0 67.166 6.66699 89.499 20s38.666 35.333 48.999 66s15.5 72 15.5 124v327c0 19.333 4 34.333 12 45
s23 16 45 16s37 -5.33301 45 -16s12 -25.667 12 -45v-190c0 -27.333 3 -47.833 9 -61.5s17 -20.834 33 -21.501h92c24.667 0 41.667 7.5 51 22.5s14 33.167 14 54.5v219c0 21.333 5.33301 37 16 47s24 15 40 15s29.5 -5 40.5 -15s16.5 -25.667 16.5 -47v-196
c0 -66.667 16.667 -100 50 -100h85c30 0 51.833 16.167 65.5 48.5s20.5 67.5 20.5 105.5c0 44.667 -7 83.834 -21 117.501s-33.333 58.834 -58 75.501c3.33301 11.333 10.666 21.166 21.999 29.499s27 12.5 47 12.5c41.333 0 72.333 -19.333 93 -58s31 -90.667 31 -156
c0 -70.667 -13 -129 -39 -175h177z" />
    <glyph glyph-name="uniFEB3" unicode="&#x633;" horiz-adv-x="938" arabic-form="initial" 
d="M842 422c20.667 -38.667 31 -90.665 31 -155.998c0 -66.667 -14.333 -127.667 -43 -183s-83.334 -83 -164.001 -83h-12c-34 0 -63.167 4.66699 -87.5 14s-46.166 24 -65.499 44c-11.333 -16 -25.5 -29.667 -42.5 -41s-37.167 -17 -60.5 -17h-127
c-38 0 -72 11.667 -102 35c-15.333 -12 -30.166 -20.833 -44.499 -26.5s-30.833 -8.5 -49.5 -8.5h-75v91h50c42 0 63 26.667 63 80v193c0 19.333 3.83301 34.333 11.5 45s22.5 16 44.5 16s37 -5.33301 45 -16s12 -25.667 12 -45v-190c0 -27.333 3.16699 -47.833 9.5 -61.5
s17.166 -20.834 32.499 -21.501h93c24 0 40.667 7.5 50 22.5s14 33.167 14 54.5v219c0 21.333 5.5 37 16.5 47s24.833 15 41.5 15c16 0 29.333 -4.83301 40 -14.5s16 -25.5 16 -47.5v-196c0 -66.667 16.667 -100 50 -100h84c30 0 52 16 66 48s21 66.667 21 104
c0 44.667 -6.83301 84.167 -20.5 118.5s-33.167 59.833 -58.5 76.5c3.33301 11.333 10.666 21.166 21.999 29.499s27 12.5 47 12.5c40.667 0 71.334 -19.333 92.001 -58z" />
    <glyph glyph-name="uniFEB4" unicode="&#x633;" horiz-adv-x="1014" arabic-form="medial" 
d="M1014 91l-0.000976562 -90.998h-139c-40.667 0 -73.667 9.66699 -99 29c-30 -19.333 -66.667 -29 -110 -29h-12c-34 0 -63.167 4.66699 -87.5 14s-46.166 24 -65.499 44c-11.333 -16 -25.5 -29.667 -42.5 -41s-37.167 -17 -60.5 -17h-127c-38 0 -72 11.667 -102 35
c-15.333 -12 -30.166 -20.833 -44.499 -26.5s-30.833 -8.5 -49.5 -8.5h-75v91h50c42 0 63 26.667 63 80v193c0 19.333 3.83301 34.333 11.5 45s22.5 16 44.5 16s37 -5.33301 45 -16s12 -25.667 12 -45v-190c0 -27.333 3.16699 -47.833 9.5 -61.5
s17.166 -20.834 32.499 -21.501h93c24 0 40.667 7.5 50 22.5s14 33.167 14 54.5v219c0 21.333 5.5 37 16.5 47s24.833 15 41.5 15c16 0 29.333 -4.83301 40 -14.5s16 -25.5 16 -47.5v-196c0 -66.667 16.667 -100 50 -100h84c30 0 52 16 66 48s21 66.667 21 104
c0 44.667 -6.83301 84.167 -20.5 118.5s-33.167 59.833 -58.5 76.5c3.33301 11.333 10.666 21.166 21.999 29.499s27 12.5 47 12.5c40.667 0 71.334 -19.333 92.001 -58s31 -90.667 31 -156c0 -72 -13 -130.333 -39 -175h180z" />
    <glyph glyph-name="uniFEB6" unicode="&#x634;" horiz-adv-x="1389" arabic-form="final" 
d="M1389 91l0.00195312 -91.002h-137c-40 0 -73 9.66699 -99 29c-30 -19.333 -66.333 -29 -109 -29h-13c-34 0 -63.167 4.66699 -87.5 14s-46.166 24 -65.499 44c-10.667 -16 -24.834 -29.667 -42.501 -41s-38.167 -17 -61.5 -17h-89c-30 0.666992 -57 10 -81 28
c-1.33301 -65.333 -10.666 -118.5 -27.999 -159.5s-45.333 -71.667 -84 -92s-90.667 -30.5 -156 -30.5c-92.667 0 -161 22.5 -205 67.5s-66 117.167 -66 216.5c0 88 12.667 149.667 38 185s56 53 92 53c17.333 0 32.166 -3.66699 44.499 -11s20.5 -15.333 24.5 -24
c-22 -18.667 -42 -49 -60 -91s-27 -89.333 -27 -142c0 -47.333 7.33301 -83.666 22 -108.999s33.334 -42.166 56.001 -50.499s49.667 -12.833 81 -13.5c37.333 0 67.166 6.66699 89.499 20s38.666 35.333 48.999 66s15.5 72 15.5 124v327c0 19.333 4 34.333 12 45
s23 16 45 16s37 -5.33301 45 -16s12 -25.667 12 -45v-190c0 -27.333 3 -47.833 9 -61.5s17 -20.834 33 -21.501h92c24.667 0 41.667 7.5 51 22.5s14 33.167 14 54.5v219c0 21.333 5.33301 37 16 47s24 15 40 15s29.5 -5 40.5 -15s16.5 -25.667 16.5 -47v-196
c0 -66.667 16.667 -100 50 -100h85c30 0 51.833 16.167 65.5 48.5s20.5 67.5 20.5 105.5c0 44.667 -7 83.834 -21 117.501s-33.333 58.834 -58 75.501c3.33301 11.333 10.666 21.166 21.999 29.499s27 12.5 47 12.5c41.333 0 72.333 -19.333 93 -58s31 -90.667 31 -156
c0 -70.667 -13 -129 -39 -175h177zM898.002 783.498c11.333 -11 16.999 -24.5 16.999 -40.5s-5.66699 -29.667 -17 -41s-24.666 -17 -39.999 -17c-16 0 -29.5 5.66699 -40.5 17s-16.5 25 -16.5 41s5.33301 29.5 16 40.5s24.334 16.5 41.001 16.5
c15.333 0 28.666 -5.5 39.999 -16.5zM824.001 650.998c12 -12 18 -26.667 18 -44s-6 -32 -18 -44s-26.667 -18 -44 -18c-16.667 0 -31 6.16699 -43 18.5s-18 26.833 -18 43.5s6 31.167 18 43.5s26.333 18.5 43 18.5c17.333 0 32 -6 44 -18zM979.501 650.998
c11.667 -12 17.5 -26.667 17.5 -44s-5.83301 -32 -17.5 -44s-26.167 -18 -43.5 -18c-16.667 0 -31.167 6.16699 -43.5 18.5s-18.5 26.833 -18.5 43.5c0 17.333 6.16699 32 18.5 44s26.833 18 43.5 18c17.333 0 31.833 -6 43.5 -18z" />
    <glyph glyph-name="uniFEB7" unicode="&#x634;" horiz-adv-x="938" arabic-form="initial" 
d="M842 422c20.667 -38.667 31 -90.665 31 -155.998c0 -66.667 -14.333 -127.667 -43 -183s-83.334 -83 -164.001 -83h-12c-34 0 -63.167 4.66699 -87.5 14s-46.166 24 -65.499 44c-11.333 -16 -25.5 -29.667 -42.5 -41s-37.167 -17 -60.5 -17h-127
c-38 0 -72 11.667 -102 35c-15.333 -12 -30.166 -20.833 -44.499 -26.5s-30.833 -8.5 -49.5 -8.5h-75v91h50c42 0 63 26.667 63 80v193c0 19.333 3.83301 34.333 11.5 45s22.5 16 44.5 16s37 -5.33301 45 -16s12 -25.667 12 -45v-190c0 -27.333 3.16699 -47.833 9.5 -61.5
s17.166 -20.834 32.499 -21.501h93c24 0 40.667 7.5 50 22.5s14 33.167 14 54.5v219c0 21.333 5.5 37 16.5 47s24.833 15 41.5 15c16 0 29.333 -4.83301 40 -14.5s16 -25.5 16 -47.5v-196c0 -66.667 16.667 -100 50 -100h84c30 0 52 16 66 48s21 66.667 21 104
c0 44.667 -6.83301 84.167 -20.5 118.5s-33.167 59.833 -58.5 76.5c3.33301 11.333 10.666 21.166 21.999 29.499s27 12.5 47 12.5c40.667 0 71.334 -19.333 92.001 -58zM523 783.502c11.333 -11 16.999 -24.5 16.999 -40.5s-5.66699 -29.667 -17 -41
s-24.666 -17 -39.999 -17c-16 0 -29.5 5.66699 -40.5 17s-16.5 25 -16.5 41s5.33301 29.5 16 40.5s24.334 16.5 41.001 16.5c15.333 0 28.666 -5.5 39.999 -16.5zM448.999 651.002c12 -12 18 -26.667 18 -44s-6 -32 -18 -44s-26.667 -18 -44 -18
c-16.667 0 -31 6.16699 -43 18.5s-18 26.833 -18 43.5s6 31.167 18 43.5s26.333 18.5 43 18.5c17.333 0 32 -6 44 -18zM604.499 651.002c11.667 -12 17.5 -26.667 17.5 -44s-5.83301 -32 -17.5 -44s-26.167 -18 -43.5 -18c-16.667 0 -31.167 6.16699 -43.5 18.5
s-18.5 26.833 -18.5 43.5c0 17.333 6.16699 32 18.5 44s26.833 18 43.5 18c17.333 0 31.833 -6 43.5 -18z" />
    <glyph glyph-name="uniFEB8" unicode="&#x634;" horiz-adv-x="1014" arabic-form="medial" 
d="M1014 91l-0.000976562 -90.998h-139c-40.667 0 -73.667 9.66699 -99 29c-30 -19.333 -66.667 -29 -110 -29h-12c-34 0 -63.167 4.66699 -87.5 14s-46.166 24 -65.499 44c-11.333 -16 -25.5 -29.667 -42.5 -41s-37.167 -17 -60.5 -17h-127c-38 0 -72 11.667 -102 35
c-15.333 -12 -30.166 -20.833 -44.499 -26.5s-30.833 -8.5 -49.5 -8.5h-75v91h50c42 0 63 26.667 63 80v193c0 19.333 3.83301 34.333 11.5 45s22.5 16 44.5 16s37 -5.33301 45 -16s12 -25.667 12 -45v-190c0 -27.333 3.16699 -47.833 9.5 -61.5
s17.166 -20.834 32.499 -21.501h93c24 0 40.667 7.5 50 22.5s14 33.167 14 54.5v219c0 21.333 5.5 37 16.5 47s24.833 15 41.5 15c16 0 29.333 -4.83301 40 -14.5s16 -25.5 16 -47.5v-196c0 -66.667 16.667 -100 50 -100h84c30 0 52 16 66 48s21 66.667 21 104
c0 44.667 -6.83301 84.167 -20.5 118.5s-33.167 59.833 -58.5 76.5c3.33301 11.333 10.666 21.166 21.999 29.499s27 12.5 47 12.5c40.667 0 71.334 -19.333 92.001 -58s31 -90.667 31 -156c0 -72 -13 -130.333 -39 -175h180zM517.999 783.502
c11.333 -11 16.999 -24.5 16.999 -40.5s-5.66699 -29.667 -17 -41s-24.666 -17 -39.999 -17c-16 0 -29.5 5.66699 -40.5 17s-16.5 25 -16.5 41s5.33301 29.5 16 40.5s24.334 16.5 41.001 16.5c15.333 0 28.666 -5.5 39.999 -16.5zM443.998 651.002c12 -12 18 -26.667 18 -44
s-6 -32 -18 -44s-26.667 -18 -44 -18c-16.667 0 -31 6.16699 -43 18.5s-18 26.833 -18 43.5s6 31.167 18 43.5s26.333 18.5 43 18.5c17.333 0 32 -6 44 -18zM599.498 651.002c11.667 -12 17.5 -26.667 17.5 -44s-5.83301 -32 -17.5 -44s-26.167 -18 -43.5 -18
c-16.667 0 -31.167 6.16699 -43.5 18.5s-18.5 26.833 -18.5 43.5c0 17.333 6.16699 32 18.5 44s26.833 18 43.5 18c17.333 0 31.833 -6 43.5 -18z" />
    <glyph glyph-name="uniFEBA" unicode="&#x635;" horiz-adv-x="1160" arabic-form="final" 
d="M1160 91l0.00390625 -91.002h-85c-36.667 0 -68.334 8.66699 -95.001 26c-29.333 -17.333 -65 -26 -107 -26h-270c-4.66699 -88 -27.334 -152.333 -68.001 -193s-107 -61 -199 -61c-92.667 0 -161 22.5 -205 67.5s-66 117.167 -66 216.5c0 88 12.667 149.667 38 185
s56 53 92 53c17.333 0 32.166 -3.66699 44.499 -11s20.5 -15.333 24.5 -24c-22 -18.667 -42 -49 -60 -91s-27 -89.333 -27 -142c0 -47.333 7.33301 -83.666 22 -108.999s33.334 -42.166 56.001 -50.499s49.667 -12.833 81 -13.5c37.333 0 67.166 6.66699 89.499 20
s38.666 35.333 48.999 66s15.5 72 15.5 124v275c0 17.333 -4.83301 33 -14.5 47s-20.167 24 -31.5 30c4.66699 10 13.667 19.167 27 27.5s29.666 12.5 48.999 12.5c31.333 0 54.333 -12.667 69 -38c16.667 22.667 44.334 43.167 83.001 61.5s83.667 27.5 135 27.5
c44 0 86.5 -7.66699 127.5 -23s75.167 -41.333 102.5 -78s41 -84.667 41 -144c0 -56.667 -11.333 -104.667 -34 -144h116zM938.004 132.498c17.333 27.667 26 59.168 26 94.501c0 38 -8.83301 69.167 -26.5 93.5s-39.667 41.833 -66 52.5s-53.5 16 -81.5 16
c-38.667 0 -76.167 -9.33301 -112.5 -28s-60.833 -40.334 -73.5 -65.001v-205h256c34.667 0 60.667 13.833 78 41.5z" />
    <glyph glyph-name="uniFEBB" unicode="&#x635;" horiz-adv-x="753" arabic-form="initial" 
d="M544.5 457c41 -15.333 75.1689 -41.333 102.502 -78s41 -84.667 41 -144c0 -56 -14.167 -109.167 -42.5 -159.5s-82.5 -75.5 -162.5 -75.5h-483v91h100v221c0 17.333 -4.83301 33 -14.5 47s-20.167 24 -31.5 30c5.33301 10.667 14.5 20 27.5 28s29.167 12 48.5 12
c32 0 55 -12.667 69 -38c17.333 23.333 45.166 44 83.499 62s83.166 27 134.499 27c44 0 86.5 -7.66699 127.5 -23zM548.502 132.5c17 27.667 25.499 59.166 25.499 94.499c0 38 -8.66699 69.167 -26 93.5s-39.166 41.833 -65.499 52.5s-53.5 16 -81.5 16
c-39.333 0 -77 -9.16699 -113 -27.5s-60.667 -40.166 -74 -65.499v-205h257c34.667 0 60.5 13.833 77.5 41.5z" />
    <glyph glyph-name="uniFEBC" unicode="&#x635;" horiz-adv-x="791" arabic-form="medial" 
d="M791 91l0.00292969 -91h-99c-38.667 -0 -71.334 9.33301 -98.001 28c-30.667 -18.667 -67.667 -28 -111 -28h-483v91h100v221c0 17.333 -4.83301 33 -14.5 47s-20.167 24 -31.5 30c5.33301 10.667 14.5 20 27.5 28s29.167 12 48.5 12c32 0 55 -12.667 69 -38
c17.333 23.333 45.166 44 83.499 62s83.166 27 134.499 27c44 0 86.5 -7.66699 127.5 -23s75.167 -41.333 102.5 -78s41 -84.667 41 -144c0 -56.667 -11 -104.667 -33 -144h136zM548.503 132.5c17 27.667 25.499 59.166 25.499 94.499c0 38 -8.66699 69.167 -26 93.5
s-39.166 41.833 -65.499 52.5s-53.5 16 -81.5 16c-39.333 0 -77 -9.16699 -113 -27.5s-60.667 -40.166 -74 -65.499v-205h257c34.667 0 60.5 13.833 77.5 41.5z" />
    <glyph glyph-name="uniFEBE" unicode="&#x636;" horiz-adv-x="1160" arabic-form="final" 
d="M1160 91l0.00390625 -91.002h-85c-36.667 0 -68.334 8.66699 -95.001 26c-29.333 -17.333 -65 -26 -107 -26h-270c-4.66699 -88 -27.334 -152.333 -68.001 -193s-107 -61 -199 -61c-92.667 0 -161 22.5 -205 67.5s-66 117.167 -66 216.5c0 88 12.667 149.667 38 185
s56 53 92 53c17.333 0 32.166 -3.66699 44.499 -11s20.5 -15.333 24.5 -24c-22 -18.667 -42 -49 -60 -91s-27 -89.333 -27 -142c0 -47.333 7.33301 -83.666 22 -108.999s33.334 -42.166 56.001 -50.499s49.667 -12.833 81 -13.5c37.333 0 67.166 6.66699 89.499 20
s38.666 35.333 48.999 66s15.5 72 15.5 124v275c0 17.333 -4.83301 33 -14.5 47s-20.167 24 -31.5 30c4.66699 10 13.667 19.167 27 27.5s29.666 12.5 48.999 12.5c31.333 0 54.333 -12.667 69 -38c16.667 22.667 44.334 43.167 83.001 61.5s83.667 27.5 135 27.5
c44 0 86.5 -7.66699 127.5 -23s75.167 -41.333 102.5 -78s41 -84.667 41 -144c0 -56.667 -11.333 -104.667 -34 -144h116zM938.004 132.498c17.333 27.667 26 59.168 26 94.501c0 38 -8.83301 69.167 -26.5 93.5s-39.667 41.833 -66 52.5s-53.5 16 -81.5 16
c-38.667 0 -76.167 -9.33301 -112.5 -28s-60.833 -40.334 -73.5 -65.001v-205h256c34.667 0 60.667 13.833 78 41.5zM734.504 564.499c-13 13 -19.5 28.5 -19.5 46.5c0 18.667 6.5 34.334 19.5 47.001s28.833 19 47.5 19c18 0 33.5 -6.33301 46.5 -19
s19.5 -28.334 19.5 -47.001c0 -18 -6.5 -33.5 -19.5 -46.5s-28.5 -19.5 -46.5 -19.5c-18.667 0 -34.5 6.5 -47.5 19.5z" />
    <glyph glyph-name="uniFEBF" unicode="&#x636;" horiz-adv-x="753" arabic-form="initial" 
d="M544.5 457c41 -15.333 75.1689 -41.333 102.502 -78s41 -84.667 41 -144c0 -56 -14.167 -109.167 -42.5 -159.5s-82.5 -75.5 -162.5 -75.5h-483v91h100v221c0 17.333 -4.83301 33 -14.5 47s-20.167 24 -31.5 30c5.33301 10.667 14.5 20 27.5 28s29.167 12 48.5 12
c32 0 55 -12.667 69 -38c17.333 23.333 45.166 44 83.499 62s83.166 27 134.499 27c44 0 86.5 -7.66699 127.5 -23zM548.502 132.5c17 27.667 25.499 59.166 25.499 94.499c0 38 -8.66699 69.167 -26 93.5s-39.166 41.833 -65.499 52.5s-53.5 16 -81.5 16
c-39.333 0 -77 -9.16699 -113 -27.5s-60.667 -40.166 -74 -65.499v-205h257c34.667 0 60.5 13.833 77.5 41.5zM363.501 564.499c-13 13 -19.5 28.5 -19.5 46.5c0 18.667 6.5 34.334 19.5 47.001s28.833 19 47.5 19c18 0 33.5 -6.33301 46.5 -19s19.5 -28.334 19.5 -47.001
c0 -18 -6.5 -33.5 -19.5 -46.5s-28.5 -19.5 -46.5 -19.5c-18.667 0 -34.5 6.5 -47.5 19.5z" />
    <glyph glyph-name="uniFEC0" unicode="&#x636;" horiz-adv-x="791" arabic-form="medial" 
d="M791 91l0.00292969 -91h-99c-38.667 -0 -71.334 9.33301 -98.001 28c-30.667 -18.667 -67.667 -28 -111 -28h-483v91h100v221c0 17.333 -4.83301 33 -14.5 47s-20.167 24 -31.5 30c5.33301 10.667 14.5 20 27.5 28s29.167 12 48.5 12c32 0 55 -12.667 69 -38
c17.333 23.333 45.166 44 83.499 62s83.166 27 134.499 27c44 0 86.5 -7.66699 127.5 -23s75.167 -41.333 102.5 -78s41 -84.667 41 -144c0 -56.667 -11 -104.667 -33 -144h136zM548.503 132.5c17 27.667 25.499 59.166 25.499 94.499c0 38 -8.66699 69.167 -26 93.5
s-39.166 41.833 -65.499 52.5s-53.5 16 -81.5 16c-39.333 0 -77 -9.16699 -113 -27.5s-60.667 -40.166 -74 -65.499v-205h257c34.667 0 60.5 13.833 77.5 41.5zM363.502 564.499c-13 13 -19.5 28.5 -19.5 46.5c0 18.667 6.5 34.334 19.5 47.001s28.833 19 47.5 19
c18 0 33.5 -6.33301 46.5 -19s19.5 -28.334 19.5 -47.001c0 -18 -6.5 -33.5 -19.5 -46.5s-28.5 -19.5 -46.5 -19.5c-18.667 0 -34.5 6.5 -47.5 19.5z" />
    <glyph glyph-name="uniFEC2" unicode="&#x637;" horiz-adv-x="870" arabic-form="final" 
d="M870 91l-0.000976562 -90.999h-102c-38 0 -70.333 9.66699 -97 29c-33.333 -19.333 -73.333 -29 -120 -29h-500c-10.667 0 -18.5 5.16699 -23.5 15.5s-7.5 20.5 -7.5 30.5c0 9.33301 2.5 19.166 7.5 29.499s12.833 15.5 23.5 15.5h60v422c0 28.667 -4.83301 50 -14.5 64
s-21.5 25.333 -35.5 34c2 10 9.66699 20.667 23 32s30.333 17 51 17c26 0 47.333 -10 64 -30s25 -48.667 25 -86v-247c12.667 29.333 31.667 58 57 86s56.333 51.167 93 69.5s77.334 27.5 122.001 27.5c44 0 86.167 -9.5 126.5 -28.5s73.5 -48.167 99.5 -87.5
s39 -87.666 39 -144.999c0 -50.667 -10 -93.334 -30 -128.001h139zM612.999 129.001c23.333 25.333 35 57.6689 35 97.002c0 35.333 -8.5 65.166 -25.5 89.499s-39 42.666 -66 54.999s-55.833 18.5 -86.5 18.5c-42.667 0 -80.834 -11.5 -114.501 -34.5
s-61.167 -50 -82.5 -81s-37.666 -60.5 -48.999 -88.5v-94h287c44.667 0 78.667 12.667 102 38z" />
    <glyph glyph-name="uniFEC3" unicode="&#x637;" horiz-adv-x="829" arabic-form="initial" 
d="M625.5 451.5c40.333 -19 73.5 -48.1689 99.5 -87.502s39 -87.666 39 -144.999c0 -62 -16.333 -114 -49 -156s-86.334 -63 -161.001 -63h-554v91h113v422c0 29.333 -4.83301 50.833 -14.5 64.5s-21.167 24.834 -34.5 33.501c2 10 9.66699 20.667 23 32s30 17 50 17
c26.667 0 48.334 -10 65.001 -30s25 -48.667 25 -86v-247c12.667 29.333 31.5 58 56.5 86s56 51.167 93 69.5s77.833 27.5 122.5 27.5c44 0 86.167 -9.5 126.5 -28.5zM616 128.998c23.333 25.333 35 57.6689 35 97.002c0 35.333 -8.5 65.166 -25.5 89.499
s-39 42.666 -66 54.999s-55.833 18.5 -86.5 18.5c-42.667 0 -80.834 -11.5 -114.501 -34.5s-61.167 -50 -82.5 -81s-37.666 -60.5 -48.999 -88.5v-94h287c44.667 0 78.667 12.667 102 38z" />
    <glyph glyph-name="uniFEC4" unicode="&#x637;" horiz-adv-x="876" arabic-form="medial" 
d="M876 91l-0.00195312 -91.001h-102c-38.667 0 -71.667 10 -99 30c-31.333 -20 -71.666 -30 -120.999 -30h-554v91h113v422c0 29.333 -4.83301 50.833 -14.5 64.5s-21.167 24.834 -34.5 33.501c2 10 9.66699 20.667 23 32s30 17 50 17c26.667 0 48.334 -10 65.001 -30
s25 -48.667 25 -86v-247c12.667 29.333 31.5 58 56.5 86s56 51.167 93 69.5s77.833 27.5 122.5 27.5c44 0 86.167 -9.5 126.5 -28.5s73.5 -48.167 99.5 -87.5s39 -87.666 39 -144.999c0 -50.667 -10 -93.334 -30 -128.001h142zM615.998 128.999
c23.333 25.333 35 57.6689 35 97.002c0 35.333 -8.5 65.166 -25.5 89.499s-39 42.666 -66 54.999s-55.833 18.5 -86.5 18.5c-42.667 0 -80.834 -11.5 -114.501 -34.5s-61.167 -50 -82.5 -81s-37.666 -60.5 -48.999 -88.5v-94h287c44.667 0 78.667 12.667 102 38z" />
    <glyph glyph-name="uniFEC6" unicode="&#x638;" horiz-adv-x="870" arabic-form="final" 
d="M870 91l-0.000976562 -90.999h-102c-38 0 -70.333 9.66699 -97 29c-33.333 -19.333 -73.333 -29 -120 -29h-500c-10.667 0 -18.5 5.16699 -23.5 15.5s-7.5 20.5 -7.5 30.5c0 9.33301 2.5 19.166 7.5 29.499s12.833 15.5 23.5 15.5h60v422c0 28.667 -4.83301 50 -14.5 64
s-21.5 25.333 -35.5 34c2 10 9.66699 20.667 23 32s30.333 17 51 17c26 0 47.333 -10 64 -30s25 -48.667 25 -86v-247c12.667 29.333 31.667 58 57 86s56.333 51.167 93 69.5s77.334 27.5 122.001 27.5c44 0 86.167 -9.5 126.5 -28.5s73.5 -48.167 99.5 -87.5
s39 -87.666 39 -144.999c0 -50.667 -10 -93.334 -30 -128.001h139zM612.999 129.001c23.333 25.333 35 57.6689 35 97.002c0 35.333 -8.5 65.166 -25.5 89.499s-39 42.666 -66 54.999s-55.833 18.5 -86.5 18.5c-42.667 0 -80.834 -11.5 -114.501 -34.5
s-61.167 -50 -82.5 -81s-37.666 -60.5 -48.999 -88.5v-94h287c44.667 0 78.667 12.667 102 38zM369.499 564.504c-13 13 -19.5 28.5 -19.5 46.5c0 18.667 6.5 34.334 19.5 47.001s28.833 19 47.5 19c18 0 33.5 -6.33301 46.5 -19s19.5 -28.334 19.5 -47.001
c0 -18 -6.5 -33.5 -19.5 -46.5s-28.5 -19.5 -46.5 -19.5c-18.667 0 -34.5 6.5 -47.5 19.5z" />
    <glyph glyph-name="uniFEC7" unicode="&#x638;" horiz-adv-x="829" arabic-form="initial" 
d="M625.5 451.5c40.333 -19 73.5 -48.1689 99.5 -87.502s39 -87.666 39 -144.999c0 -62 -16.333 -114 -49 -156s-86.334 -63 -161.001 -63h-554v91h113v422c0 29.333 -4.83301 50.833 -14.5 64.5s-21.167 24.834 -34.5 33.501c2 10 9.66699 20.667 23 32s30 17 50 17
c26.667 0 48.334 -10 65.001 -30s25 -48.667 25 -86v-247c12.667 29.333 31.5 58 56.5 86s56 51.167 93 69.5s77.833 27.5 122.5 27.5c44 0 86.167 -9.5 126.5 -28.5zM616 128.998c23.333 25.333 35 57.6689 35 97.002c0 35.333 -8.5 65.166 -25.5 89.499
s-39 42.666 -66 54.999s-55.833 18.5 -86.5 18.5c-42.667 0 -80.834 -11.5 -114.501 -34.5s-61.167 -50 -82.5 -81s-37.666 -60.5 -48.999 -88.5v-94h287c44.667 0 78.667 12.667 102 38zM359.5 564.501c-13 13 -19.5 28.5 -19.5 46.5c0 18.667 6.5 34.334 19.5 47.001
s28.833 19 47.5 19c18 0 33.5 -6.33301 46.5 -19s19.5 -28.334 19.5 -47.001c0 -18 -6.5 -33.5 -19.5 -46.5s-28.5 -19.5 -46.5 -19.5c-18.667 0 -34.5 6.5 -47.5 19.5z" />
    <glyph glyph-name="uniFEC8" unicode="&#x638;" horiz-adv-x="876" arabic-form="medial" 
d="M876 91l-0.00195312 -91.001h-102c-38.667 0 -71.667 10 -99 30c-31.333 -20 -71.666 -30 -120.999 -30h-554v91h113v422c0 29.333 -4.83301 50.833 -14.5 64.5s-21.167 24.834 -34.5 33.501c2 10 9.66699 20.667 23 32s30 17 50 17c26.667 0 48.334 -10 65.001 -30
s25 -48.667 25 -86v-247c12.667 29.333 31.5 58 56.5 86s56 51.167 93 69.5s77.833 27.5 122.5 27.5c44 0 86.167 -9.5 126.5 -28.5s73.5 -48.167 99.5 -87.5s39 -87.666 39 -144.999c0 -50.667 -10 -93.334 -30 -128.001h142zM615.998 128.999
c23.333 25.333 35 57.6689 35 97.002c0 35.333 -8.5 65.166 -25.5 89.499s-39 42.666 -66 54.999s-55.833 18.5 -86.5 18.5c-42.667 0 -80.834 -11.5 -114.501 -34.5s-61.167 -50 -82.5 -81s-37.666 -60.5 -48.999 -88.5v-94h287c44.667 0 78.667 12.667 102 38z
M359.498 564.502c-13 13 -19.5 28.5 -19.5 46.5c0 18.667 6.5 34.334 19.5 47.001s28.833 19 47.5 19c18 0 33.5 -6.33301 46.5 -19s19.5 -28.334 19.5 -47.001c0 -18 -6.5 -33.5 -19.5 -46.5s-28.5 -19.5 -46.5 -19.5c-18.667 0 -34.5 6.5 -47.5 19.5z" />
    <glyph glyph-name="uniFECA" unicode="&#x639;" horiz-adv-x="610" arabic-form="final" 
d="M610 91l0.00292969 -91.001h-82c-28.667 0 -53.334 5.33301 -74.001 16c-22.667 -10.667 -47.667 -16 -75 -16h-115h-61c0 -57.333 7.16699 -106.333 21.5 -147s33.833 -70 58.5 -88c-3.33301 -8 -10.833 -15.167 -22.5 -21.5s-25.5 -9.5 -41.5 -9.5
c-28.667 0 -51.834 11.167 -69.501 33.5s-30 49 -37 80s-10.5 60.833 -10.5 89.5c0 47.333 10.167 84.833 30.5 112.5s51.166 41.5 92.499 41.5h44l-201 273c6 18 18.333 35.833 37 53.5s44 32.5 76 44.5s69.667 18 113 18c54 0 101.833 -9.16699 143.5 -27.5
s74.167 -44.5 97.5 -78.5s35 -74.333 35 -121c0 -24 -3 -50.667 -9 -80s-16 -56.666 -30 -81.999h79zM440.003 163.999c11.333 28.667 17.001 56.666 17.001 83.999c0 43.333 -15.167 77.5 -45.5 102.5s-68.833 37.5 -115.5 37.5c-41.333 0 -75 -11.333 -101 -34l187 -252
c27.333 12.667 46.666 33.334 57.999 62.001z" />
    <glyph glyph-name="uniFECB" unicode="&#x639;" horiz-adv-x="505" arabic-form="initial" 
d="M432 76.5c5.33301 -9.66699 7.99805 -19.833 7.99805 -30.5c0 -11.333 -2.66699 -21.833 -8 -31.5s-14.666 -14.5 -27.999 -14.5h-149c-37.333 -0 -69.666 9.33301 -96.999 28c-24.667 -17.333 -55.667 -26.666 -93 -27.999h-65v92h103c-32.667 52 -49 104.667 -49 158
c0 44.667 10.333 84.5 31 119.5s48 62.167 82 81.5s69.667 29 107 29c22 0 45.333 -3.5 70 -10.5s45.667 -18.667 63 -35s26 -37.833 26 -64.5c0 -22.667 -6.16699 -39.667 -18.5 -51s-27.166 -17 -44.499 -17c-14.667 0 -30.667 3.33301 -48 10c0 52 -21 80 -63 84
c-24.667 -6.66699 -46.167 -23.334 -64.5 -50.001s-27.5 -59 -27.5 -97c0 -47.333 14 -85.5 42 -114.5s72 -43.5 132 -43.5h63c13.333 0 22.666 -4.83301 27.999 -14.5zM277.998 398.001c-5.33301 0 -9.33301 -0.333008 -12 -1l17 1h-5zM240.998 396.001h1h-1z" />
    <glyph glyph-name="uniFECC" unicode="&#x639;" horiz-adv-x="569" arabic-form="medial" 
d="M569 91v-91h-81c-29.333 -0 -54.333 5.33301 -75 16c-22.667 -10.667 -47.667 -16 -75 -16h-338v91h228l-201 273c6 18 18.333 35.833 37 53.5s44.167 32.5 76.5 44.5s69.833 18 112.5 18c54 0 101.833 -9.16699 143.5 -27.5s74.167 -44.5 97.5 -78.5s35 -74.333 35 -121
c0 -23.333 -3.16699 -49.833 -9.5 -79.5s-16.5 -57.167 -30.5 -82.5h80zM399 165.5c11.333 29.667 17.001 57.832 17.001 84.499c0 42 -15.167 75.5 -45.5 100.5s-68.833 37.5 -115.5 37.5c-41.333 0 -75 -11.333 -101 -34l187 -252
c27.333 12.667 46.666 33.834 57.999 63.501z" />
    <glyph glyph-name="uniFECE" unicode="&#x63a;" horiz-adv-x="610" arabic-form="final" 
d="M610 91l0.00292969 -91.001h-82c-28.667 0 -53.334 5.33301 -74.001 16c-22.667 -10.667 -47.667 -16 -75 -16h-115h-61c0 -57.333 7.16699 -106.333 21.5 -147s33.833 -70 58.5 -88c-3.33301 -8 -10.833 -15.167 -22.5 -21.5s-25.5 -9.5 -41.5 -9.5
c-28.667 0 -51.834 11.167 -69.501 33.5s-30 49 -37 80s-10.5 60.833 -10.5 89.5c0 47.333 10.167 84.833 30.5 112.5s51.166 41.5 92.499 41.5h44l-201 273c6 18 18.333 35.833 37 53.5s44 32.5 76 44.5s69.667 18 113 18c54 0 101.833 -9.16699 143.5 -27.5
s74.167 -44.5 97.5 -78.5s35 -74.333 35 -121c0 -24 -3 -50.667 -9 -80s-16 -56.666 -30 -81.999h79zM440.003 163.999c11.333 28.667 17.001 56.666 17.001 83.999c0 43.333 -15.167 77.5 -45.5 102.5s-68.833 37.5 -115.5 37.5c-41.333 0 -75 -11.333 -101 -34l187 -252
c27.333 12.667 46.666 33.334 57.999 62.001zM273.504 564.498c-13 13 -19.5 28.5 -19.5 46.5c0 18.667 6.5 34.334 19.5 47.001s28.833 19 47.5 19c18 0 33.5 -6.33301 46.5 -19s19.5 -28.334 19.5 -47.001c0 -18 -6.5 -33.5 -19.5 -46.5s-28.5 -19.5 -46.5 -19.5
c-18.667 0 -34.5 6.5 -47.5 19.5z" />
    <glyph glyph-name="uniFECF" unicode="&#x63a;" horiz-adv-x="505" arabic-form="initial" 
d="M432 76.5c5.33301 -9.66699 7.99805 -19.833 7.99805 -30.5c0 -11.333 -2.66699 -21.833 -8 -31.5s-14.666 -14.5 -27.999 -14.5h-149c-37.333 -0 -69.666 9.33301 -96.999 28c-24.667 -17.333 -55.667 -26.666 -93 -27.999h-65v92h103c-32.667 52 -49 104.667 -49 158
c0 44.667 10.333 84.5 31 119.5s48 62.167 82 81.5s69.667 29 107 29c22 0 45.333 -3.5 70 -10.5s45.667 -18.667 63 -35s26 -37.833 26 -64.5c0 -22.667 -6.16699 -39.667 -18.5 -51s-27.166 -17 -44.499 -17c-14.667 0 -30.667 3.33301 -48 10c0 52 -21 80 -63 84
c-24.667 -6.66699 -46.167 -23.334 -64.5 -50.001s-27.5 -59 -27.5 -97c0 -47.333 14 -85.5 42 -114.5s72 -43.5 132 -43.5h63c13.333 0 22.666 -4.83301 27.999 -14.5zM277.998 398.001c-5.33301 0 -9.33301 -0.333008 -12 -1l17 1h-5zM240.998 396.001h1h-1z
M205.498 564.501c-13 13 -19.5 28.5 -19.5 46.5c0 18.667 6.5 34.334 19.5 47.001s28.833 19 47.5 19c18 0 33.5 -6.33301 46.5 -19s19.5 -28.334 19.5 -47.001c0 -18 -6.5 -33.5 -19.5 -46.5s-28.5 -19.5 -46.5 -19.5c-18.667 0 -34.5 6.5 -47.5 19.5z" />
    <glyph glyph-name="uniFED0" unicode="&#x63a;" horiz-adv-x="569" arabic-form="medial" 
d="M569 91v-91h-81c-29.333 -0 -54.333 5.33301 -75 16c-22.667 -10.667 -47.667 -16 -75 -16h-338v91h228l-201 273c6 18 18.333 35.833 37 53.5s44.167 32.5 76.5 44.5s69.833 18 112.5 18c54 0 101.833 -9.16699 143.5 -27.5s74.167 -44.5 97.5 -78.5s35 -74.333 35 -121
c0 -23.333 -3.16699 -49.833 -9.5 -79.5s-16.5 -57.167 -30.5 -82.5h80zM399 165.5c11.333 29.667 17.001 57.832 17.001 84.499c0 42 -15.167 75.5 -45.5 100.5s-68.833 37.5 -115.5 37.5c-41.333 0 -75 -11.333 -101 -34l187 -252
c27.333 12.667 46.666 33.834 57.999 63.501zM238.501 564.498c-13 13 -19.5 28.5 -19.5 46.5c0 18.667 6.5 34.334 19.5 47.001s28.833 19 47.5 19c18 0 33.5 -6.33301 46.5 -19s19.5 -28.334 19.5 -47.001c0 -18 -6.5 -33.5 -19.5 -46.5s-28.5 -19.5 -46.5 -19.5
c-18.667 0 -34.5 6.5 -47.5 19.5z" />
    <glyph glyph-name="uniFED2" unicode="&#x641;" horiz-adv-x="997" arabic-form="final" 
d="M997 91l-0.000976562 -91.001h-99c-23.333 0 -44 3 -62 9c-16 -6 -35 -9 -57 -9h-515c-65.333 0 -114.833 19 -148.5 57s-50.5 90 -50.5 156c0 56 11 99.333 33 130s49.333 46 82 46c17.333 0 31.5 -4 42.5 -12s18.5 -17.667 22.5 -29
c-17.333 -10.667 -32.666 -29.167 -45.999 -55.5s-20 -58.5 -20 -96.5c0 -41.333 9 -69.166 27 -83.499s40.333 -21.5 67 -21.5h272c-12 19.333 -21 42.833 -27 70.5s-9 57.167 -9 88.5c0 65.333 9.16699 114.833 27.5 148.5s41.833 55.667 70.5 66s63 15.5 103 15.5
c44.667 0 81.167 -5.33301 109.5 -16s50.333 -31 66 -61s23.5 -73 23.5 -129v-134c0 -16 -1.66699 -32.333 -5 -49h93zM795.999 308.999c0 29.333 -7.49902 50.167 -22.499 62.5s-32.833 18.5 -53.5 18.5c-30.667 0 -54.5 -12.5 -71.5 -37.5s-25.5 -59.5 -25.5 -103.5
c0 -35.333 7 -70.5 21 -105.5s37.667 -52.5 71 -52.5h21c21.333 0 36.666 6.16699 45.999 18.5s14 32.5 14 60.5v139zM674.5 564.5c-13 13 -19.5 28.5 -19.5 46.5c0 18.667 6.5 34.334 19.5 47.001s28.833 19 47.5 19c18 0 33.5 -6.33301 46.5 -19
s19.5 -28.334 19.5 -47.001c0 -18 -6.5 -33.5 -19.5 -46.5s-28.5 -19.5 -46.5 -19.5c-18.667 0 -34.5 6.5 -47.5 19.5z" />
    <glyph glyph-name="uniFED3" unicode="&#x641;" horiz-adv-x="540" arabic-form="initial" 
d="M385.5 464c28.333 -10.667 50.335 -31 66.002 -61s23.5 -73 23.5 -129v-134c0 -42.667 -10.667 -76.667 -32 -102s-54 -38 -98 -38h-345v91h111c-24 38.667 -36 91.667 -36 159c0 65.333 9.16699 114.833 27.5 148.5s41.666 55.667 69.999 66s62.5 15.5 102.5 15.5
c45.333 0 82.166 -5.33301 110.499 -16zM361.002 309c0 29.333 -7.33301 50.167 -22 62.5s-32.667 18.5 -54 18.5c-30 0 -53.5 -12.5 -70.5 -37.5s-25.5 -59.5 -25.5 -103.5c0 -36.667 6.83301 -72.167 20.5 -106.5s37.5 -51.5 71.5 -51.5h21
c21.333 0 36.5 6.16699 45.5 18.5s13.5 32.5 13.5 60.5v139zM240.502 564.501c-13 13 -19.5 28.5 -19.5 46.5c0 18.667 6.5 34.334 19.5 47.001s28.833 19 47.5 19c18 0 33.5 -6.33301 46.5 -19s19.5 -28.334 19.5 -47.001c0 -18 -6.5 -33.5 -19.5 -46.5
s-28.5 -19.5 -46.5 -19.5c-18.667 0 -34.5 6.5 -47.5 19.5z" />
    <glyph glyph-name="uniFED4" unicode="&#x641;" horiz-adv-x="563" arabic-form="medial" 
d="M563 91l0.00195312 -91.001h-100c-23.333 0 -44 3 -62 9c-16 -6 -34.667 -9 -56 -9h-345v91h111c-24 38.667 -36 91.667 -36 159c0 65.333 9.16699 114.833 27.5 148.5s41.666 55.667 69.999 66s62.5 15.5 102.5 15.5c45.333 0 82.166 -5.33301 110.499 -16
s50.333 -31 66 -61s23.5 -73 23.5 -129v-134c0 -17.333 -2 -33.666 -6 -48.999h94zM361.002 308.999c0 29.333 -7.33301 50.167 -22 62.5s-32.667 18.5 -54 18.5c-30 0 -53.5 -12.5 -70.5 -37.5s-25.5 -59.5 -25.5 -103.5c0 -36.667 6.83301 -72.167 20.5 -106.5
s37.5 -51.5 71.5 -51.5h21c21.333 0 36.5 6.16699 45.5 18.5s13.5 32.5 13.5 60.5v139zM241.502 564.5c-13 13 -19.5 28.5 -19.5 46.5c0 18.667 6.5 34.334 19.5 47.001s28.833 19 47.5 19c18 0 33.5 -6.33301 46.5 -19s19.5 -28.334 19.5 -47.001
c0 -18 -6.5 -33.5 -19.5 -46.5s-28.5 -19.5 -46.5 -19.5c-18.667 0 -34.5 6.5 -47.5 19.5z" />
    <glyph glyph-name="uniFED6" unicode="&#x642;" horiz-adv-x="925" arabic-form="final" 
d="M925 0l-98.001 -0.000976562c-13.333 -82 -51.166 -141.833 -113.499 -179.5s-148.166 -56.5 -257.499 -56.5c-146.667 0 -248.5 28.167 -305.5 84.5s-85.5 125.5 -85.5 207.5c0 56.667 10 104.667 30 144s49 59 87 59c15.333 0 28.166 -3.33301 38.499 -10
s16.833 -14 19.5 -22c-16.667 -14.667 -31 -38.667 -43 -72s-18 -70.333 -18 -111c0 -59.333 20.167 -105.666 60.5 -138.999s110.5 -50 210.5 -50c88 0 151.667 13 191 39s61.666 61.333 66.999 106h-97c-64.667 0 -110.5 23.167 -137.5 69.5s-40.5 107.166 -40.5 182.499
c0 61.333 8.16699 108.5 24.5 141.5s39.333 55.667 69 68s67.834 18.5 114.501 18.5c44.667 0 80.667 -5.83301 108 -17.5s48 -33.167 62 -64.5s21 -76.666 21 -135.999v-171h93v-91zM568.999 139.499c14.667 -32.333 41.6689 -48.5 81.002 -48.5h68v218
c0 28.667 -7.33301 49.167 -22 61.5s-32.334 18.5 -53.001 18.5c-30.667 0 -54.334 -12.667 -71.001 -38s-25 -60.333 -25 -105c0 -38.667 7.33301 -74.167 22 -106.5zM524.001 565.999c-12 12 -18 26.333 -18 43c0 17.333 6 32.166 18 44.499s26.333 18.5 43 18.5
c17.333 0 32 -6.16699 44 -18.5s18 -27.166 18 -44.499s-6 -31.833 -18 -43.5s-26.667 -17.5 -44 -17.5c-16.667 0 -31 6 -43 18zM679.001 565.999c-12 12 -18 26.333 -18 43c0 17.333 6 32.166 18 44.499s26.667 18.5 44 18.5s31.833 -6.16699 43.5 -18.5
s17.5 -27.166 17.5 -44.499s-5.83301 -31.833 -17.5 -43.5s-26.167 -17.5 -43.5 -17.5s-32 6 -44 18z" />
    <glyph glyph-name="uniFED7" unicode="&#x642;" horiz-adv-x="540" arabic-form="initial" 
d="M385.5 464c28.333 -10.667 50.335 -31 66.002 -61s23.5 -73 23.5 -129v-134c0 -42.667 -10.667 -76.667 -32 -102s-54 -38 -98 -38h-345v91h111c-24 38.667 -36 91.667 -36 159c0 65.333 9.16699 114.833 27.5 148.5s41.666 55.667 69.999 66s62.5 15.5 102.5 15.5
c45.333 0 82.166 -5.33301 110.499 -16zM361.002 309c0 29.333 -7.33301 50.167 -22 62.5s-32.667 18.5 -54 18.5c-30 0 -53.5 -12.5 -70.5 -37.5s-25.5 -59.5 -25.5 -103.5c0 -36.667 6.83301 -72.167 20.5 -106.5s37.5 -51.5 71.5 -51.5h21
c21.333 0 36.5 6.16699 45.5 18.5s13.5 32.5 13.5 60.5v139zM167.002 566.001c-12 12 -18 26.333 -18 43c0 17.333 6 32.166 18 44.499s26.333 18.5 43 18.5c17.333 0 32 -6.16699 44 -18.5s18 -27.166 18 -44.499s-6 -31.833 -18 -43.5s-26.667 -17.5 -44 -17.5
c-16.667 0 -31 6 -43 18zM322.002 566.001c-12 12 -18 26.333 -18 43c0 17.333 6 32.166 18 44.499s26.667 18.5 44 18.5s31.833 -6.16699 43.5 -18.5s17.5 -27.166 17.5 -44.499s-5.83301 -31.833 -17.5 -43.5s-26.167 -17.5 -43.5 -17.5s-32 6 -44 18z" />
    <glyph glyph-name="uniFED8" unicode="&#x642;" horiz-adv-x="563" arabic-form="medial" 
d="M563 91l0.00195312 -91.001h-100c-23.333 0 -44 3 -62 9c-16 -6 -34.667 -9 -56 -9h-345v91h111c-24 38.667 -36 91.667 -36 159c0 65.333 9.16699 114.833 27.5 148.5s41.666 55.667 69.999 66s62.5 15.5 102.5 15.5c45.333 0 82.166 -5.33301 110.499 -16
s50.333 -31 66 -61s23.5 -73 23.5 -129v-134c0 -17.333 -2 -33.666 -6 -48.999h94zM361.002 308.999c0 29.333 -7.33301 50.167 -22 62.5s-32.667 18.5 -54 18.5c-30 0 -53.5 -12.5 -70.5 -37.5s-25.5 -59.5 -25.5 -103.5c0 -36.667 6.83301 -72.167 20.5 -106.5
s37.5 -51.5 71.5 -51.5h21c21.333 0 36.5 6.16699 45.5 18.5s13.5 32.5 13.5 60.5v139zM168.002 566c-12 12 -18 26.333 -18 43c0 17.333 6 32.166 18 44.499s26.333 18.5 43 18.5c17.333 0 32 -6.16699 44 -18.5s18 -27.166 18 -44.499s-6 -31.833 -18 -43.5
s-26.667 -17.5 -44 -17.5c-16.667 0 -31 6 -43 18zM323.002 566c-12 12 -18 26.333 -18 43c0 17.333 6 32.166 18 44.499s26.667 18.5 44 18.5s31.833 -6.16699 43.5 -18.5s17.5 -27.166 17.5 -44.499s-5.83301 -31.833 -17.5 -43.5s-26.167 -17.5 -43.5 -17.5s-32 6 -44 18
z" />
    <glyph glyph-name="uniFEDA" unicode="&#x643;" horiz-adv-x="874" arabic-form="final" 
d="M874 91l-0.00390625 -91.001h-91c-32 0 -60 6.33301 -84 19c-21.333 -12.667 -44.666 -19 -69.999 -19h-434c-43.333 0 -75.833 14.333 -97.5 43s-32.5 65 -32.5 109v108c0 16.667 4.83301 30.334 14.5 41.001s23.834 16 42.501 16s32.834 -5.5 42.501 -16.5
s14.5 -25.167 14.5 -42.5v-88c0 -28 4.5 -48.167 13.5 -60.5s24.167 -18.5 45.5 -18.5h354c20 0 35.333 8.16699 46 24.5s16 37.166 16 62.499v335c0 29.333 -4.83301 50.833 -14.5 64.5s-21.167 24.834 -34.5 33.501c2 10 9.66699 20.667 23 32s30 17 50 17
c26.667 0 48.334 -10 65.001 -30s25 -48.667 25 -86v-369c0 -31.333 -4.66699 -59.333 -14 -84h120zM315.996 342.999c0 10 4.00195 18.001 12.002 24.001s19.667 8.33301 35 7c-10 6 -18.833 15.833 -26.5 29.5s-11.5 28.5 -11.5 44.5c0 25.333 9.33301 47.666 28 66.999
s45 29 79 29c22.667 0 39.167 -4.16699 49.5 -12.5s15.5 -19.833 15.5 -34.5c0 -11.333 -2.83301 -19.666 -8.5 -24.999s-12.834 -8 -21.501 -8c-7.33301 0 -14.333 1.66699 -21 5c0.666992 10 -2 19 -8 27s-14 12.333 -24 13c-6 -3.33301 -11.5 -9.83301 -16.5 -19.5
s-7.5 -20.5 -7.5 -32.5c0 -22 7.16699 -38.833 21.5 -50.5s31.5 -17.5 51.5 -17.5c7.33301 0 14.666 0.666992 21.999 2s12.333 2.33301 15 3c7.33301 0 12.833 -2.33301 16.5 -7s5.5 -10.334 5.5 -17.001c0 -6 -1.33301 -11.5 -4 -16.5s-6.33398 -7.5 -11.001 -7.5
c-48 -4 -88.667 -8.16699 -122 -12.5s-50.666 -10.833 -51.999 -19.5c-11.333 7.33301 -17 17 -17 29z" />
    <glyph glyph-name="uniFEDB" unicode="&#x643;" horiz-adv-x="607" arabic-form="initial" 
d="M0 91l355.999 0.000976562c23.333 0 41.333 7.33301 54 22s19 33.667 19 57c0 25.333 -8 45.166 -24 59.499s-41 21.5 -75 21.5h-103c-50.667 0 -89.5 14.833 -116.5 44.5s-40.5 70.5 -40.5 122.5c0 56.667 17.5 100 52.5 130s90.833 45 167.5 45c39.333 0 80 -1 122 -3
c25.333 0 45.833 3.33301 61.5 10s26.834 14.334 33.501 23.001c3.33301 -1.33301 6.33301 -4.5 9 -9.5s4 -12.167 4 -21.5c0 -22.667 -7.16699 -43.334 -21.5 -62.001s-34.833 -28 -61.5 -28l-140 1c-75.333 0 -113 -27.333 -113 -82c0 -24 6.83301 -43 20.5 -57
s33.5 -21 59.5 -21h79c132.667 0 199 -58.667 199 -176c0 -51.333 -12.5 -92 -37.5 -122s-60.833 -45 -107.5 -45h-397v91z" />
    <glyph glyph-name="uniFEDC" unicode="&#x643;" horiz-adv-x="769" arabic-form="medial" 
d="M769 91l-0.000976562 -90.999h-230c-27.333 0 -52 4.66699 -74 14c-20 -9.33301 -42.667 -14 -68 -14h-397v91h356c23.333 0 41.333 7.33301 54 22s19 33.667 19 57c0 25.333 -8 45.166 -24 59.499s-41 21.5 -75 21.5h-103c-50.667 0 -89.5 14.833 -116.5 44.5
s-40.5 70.5 -40.5 122.5c0 56.667 17.5 100 52.5 130s90.833 45 167.5 45c39.333 0 80 -1 122 -3c25.333 0 45.833 3.33301 61.5 10s26.834 14.334 33.501 23.001c3.33301 -1.33301 6.33301 -4.5 9 -9.5s4 -12.167 4 -21.5c0 -22.667 -7.16699 -43.334 -21.5 -62.001
s-34.833 -28 -61.5 -28l-140 1c-75.333 0 -113 -27.333 -113 -82c0 -24 6.83301 -43 20.5 -57s33.5 -21 59.5 -21h79c132.667 0 199 -58.667 199 -176c0 -30.667 -3.66699 -56 -11 -76h238z" />
    <glyph glyph-name="uniFEDE" unicode="&#x644;" horiz-adv-x="730" arabic-form="final" 
d="M730 91l-0.00292969 -91.001h-15c-17.333 0 -32.5 1.83301 -45.5 5.5s-25.833 9.5 -38.5 17.5c-1.33301 -80.667 -23.666 -144 -66.999 -190s-111.666 -69 -204.999 -69c-97.333 0 -170.666 24.833 -219.999 74.5s-74 115.834 -74 198.501c0 52 10 97.833 30 137.5
s50.333 59.5 91 59.5c26 0 48.667 -7.66699 68 -23c-16 -12 -32.167 -34.167 -48.5 -66.5s-24.5 -70.5 -24.5 -114.5c0 -59.333 17.833 -103.333 53.5 -132s78.5 -43 128.5 -43c59.333 0 100 18 122 54s33 78 33 126v478c0 28.667 -4.83301 50 -14.5 64
s-21.5 25.333 -35.5 34c2 10 9.66699 20.667 23 32s30 17 50 17c26 0 47.5 -10 64.5 -30s25.5 -48.667 25.5 -86v-453h99z" />
    <glyph glyph-name="uniFEDF" unicode="&#x644;" horiz-adv-x="293" arabic-form="initial" 
d="M0 91l66 0.000976562c18 0 30.5 7.66699 37.5 23s10.5 36.666 10.5 63.999v335c0 29.333 -4.83301 51 -14.5 65s-21.5 25 -35.5 33c2 10 9.83301 20.667 23.5 32s30.5 17 50.5 17c26 0 47.5 -10 64.5 -30s25.5 -48.667 25.5 -86v-369
c-0.666992 -53.333 -13.5 -95.833 -38.5 -127.5s-58.833 -47.5 -101.5 -47.5h-88v91z" />
    <glyph glyph-name="uniFEE0" unicode="&#x644;" horiz-adv-x="333" arabic-form="medial" 
d="M333 91v-90.999h-71c-36 0 -67.333 8.66699 -94 26c-21.333 -17.333 -48 -26 -80 -26h-88v91h66c18 0 30.5 7.66699 37.5 23s10.5 36.666 10.5 63.999v335c0 29.333 -4.83301 51 -14.5 65s-21.5 25 -35.5 33c2 10 9.83301 20.667 23.5 32s30.5 17 50.5 17
c26 0 47.5 -10 64.5 -30s25.5 -48.667 25.5 -86v-369c0 -31.333 -4.66699 -59.333 -14 -84h119z" />
    <glyph glyph-name="uniFEE2" unicode="&#x645;" horiz-adv-x="689" arabic-form="final" 
d="M689 91v-91.001h-99c-38.667 0 -71.667 9.66699 -99 29c-28 -19.333 -65.333 -29 -112 -29h-82c-32 0 -55.667 -7.66699 -71 -23s-23 -34 -23 -56v-83c0 -36.667 -8.33301 -65.167 -25 -85.5s-38 -30.5 -64 -30.5c-20.667 0 -37.667 5.83301 -51 17.5
s-21 22.167 -23 31.5c14 8.66699 25.833 20 35.5 34s14.5 35.333 14.5 64v51c0 26 5.83301 53.833 17.5 83.5s32.167 52.5 61.5 68.5v197c0 56.667 7.16699 100.334 21.5 131.001s34.833 51.667 61.5 63s61.667 17 105 17c41.333 0 77 -5.83301 107 -17.5
s54.667 -35.5 74 -71.5s29 -87.667 29 -155c0 -60.667 -8.33301 -109 -25 -145h147zM436 137.499c11.333 31 17 65.501 17 103.501c0 50 -7 87.167 -21 111.5s-37.333 36.5 -70 36.5c-22.667 0 -41.667 -6.33301 -57 -19s-23 -33.334 -23 -62.001v-217h83
c36 0 59.667 15.5 71 46.5z" />
    <glyph glyph-name="uniFEE3" unicode="&#x645;" horiz-adv-x="525" arabic-form="initial" 
d="M357 462.5c30 -11.667 54.666 -35.5 73.999 -71.5s29 -87.667 29 -155c0 -81.333 -15.167 -141.333 -45.5 -180s-77.166 -58 -140.499 -58c-39.333 0 -72.333 7.33301 -99 22c-23.333 -13.333 -51.333 -20 -84 -20h-91v91h62v177c0 57.333 7.16699 101.333 21.5 132
s34.833 51.667 61.5 63s61.667 17 105 17c41.333 0 77 -5.83301 107 -17.5zM329.499 138c11.667 31.333 17.5 65.334 17.5 102.001c0 50 -7.16699 87.333 -21.5 112s-37.833 37 -70.5 37c-22.667 0 -41.5 -6.33301 -56.5 -19s-22.5 -33.334 -22.5 -62.001v-217h82
c36 0 59.833 15.667 71.5 47z" />
    <glyph glyph-name="uniFEE4" unicode="&#x645;" horiz-adv-x="528" arabic-form="medial" 
d="M528 91v-91.001h-44c-37.333 0 -70 9.33301 -98 28c-28.667 -20 -66 -30 -112 -30c-39.333 0 -72.333 7.33301 -99 22c-23.333 -13.333 -51.333 -20 -84 -20h-91v91h62v177c0 57.333 7.16699 101.333 21.5 132s34.833 51.667 61.5 63s61.667 17 105 17
c41.333 0 77 -5.83301 107 -17.5s54.667 -35.5 74 -71.5s29 -87.667 29 -155c0 -59.333 -8 -107.666 -24 -144.999h92zM329.5 137.999c11.667 31.333 17.5 65.334 17.5 102.001c0 50 -7.16699 87.333 -21.5 112s-37.833 37 -70.5 37c-22.667 0 -41.5 -6.33301 -56.5 -19
s-22.5 -33.334 -22.5 -62.001v-217h82c36 0 59.833 15.667 71.5 47z" />
    <glyph glyph-name="uniFEE6" unicode="&#x646;" horiz-adv-x="722" arabic-form="final" 
d="M722 91l0.000976562 -91h-14c-16.667 0 -30.834 1.66699 -42.501 5s-23.167 8.66602 -34.5 15.999c-2 -80 -24.667 -142.833 -68 -188.5s-111.333 -68.5 -204 -68.5c-97.333 0 -170.666 24.833 -219.999 74.5s-74 115.834 -74 198.501c0 52 10 97.833 30 137.5
s50.333 59.5 91 59.5c26 0 48.667 -7.66699 68 -23c-16 -12 -32.167 -34.167 -48.5 -66.5s-24.5 -70.5 -24.5 -114.5c0 -59.333 17.833 -103.333 53.5 -132s78.5 -43 128.5 -43c59.333 0 100 18 122 54s33 78 33 126v390c0 16.667 5.16699 30 15.5 40s23.833 15 40.5 15
c17.333 0 31.166 -5 41.499 -15s15.5 -24 15.5 -42v-332h91zM301.501 499.5c-13 13 -19.5 28.5 -19.5 46.5c0 18.667 6.5 34.334 19.5 47.001s28.833 19 47.5 19c18 0 33.5 -6.33301 46.5 -19s19.5 -28.334 19.5 -47.001c0 -18 -6.5 -33.5 -19.5 -46.5
s-28.5 -19.5 -46.5 -19.5c-18.667 0 -34.5 6.5 -47.5 19.5z" />
    <glyph glyph-name="uniFEE7" unicode="&#x646;" horiz-adv-x="346" arabic-form="initial" 
d="M0 91l81.9961 -0.000976562c30 0 51.833 15.667 65.5 47s20.5 69 20.5 113s-5.66699 80.167 -17 108.5s-30.666 53.833 -57.999 76.5c2.66699 10.667 9.83398 20.667 21.501 30s27.834 14 48.501 14c40 0 69.667 -18.667 89 -56s29 -85.666 29 -144.999
c0 -48 -6.66699 -93.167 -20 -135.5s-35.166 -76.833 -65.499 -103.5s-68.833 -40 -115.5 -40h-80v91zM116.496 564.499c-13 13 -19.5 28.5 -19.5 46.5c0 18.667 6.5 34.334 19.5 47.001s28.833 19 47.5 19c18 0 33.5 -6.33301 46.5 -19s19.5 -28.334 19.5 -47.001
c0 -18 -6.5 -33.5 -19.5 -46.5s-28.5 -19.5 -46.5 -19.5c-18.667 0 -34.5 6.5 -47.5 19.5z" />
    <glyph glyph-name="uniFEE8" unicode="&#x646;" horiz-adv-x="350" arabic-form="medial" 
d="M350 91l0.000976562 -91.001h-124c-36 0 -68 10.333 -96 31c-14 -10 -27.667 -17.5 -41 -22.5s-28.666 -7.83301 -45.999 -8.5h-43v91h43c25.333 0.666992 49.666 8 72.999 22v309c0 17.333 4.66699 31.333 14 42s23.666 16 42.999 16c18.667 0 32.667 -5.33301 42 -16
s14 -25 14 -43v-258c0 -21.333 3 -38.666 9 -51.999s15 -20 27 -20h85zM126.501 564.499c-13 13 -19.5 28.5 -19.5 46.5c0 18.667 6.5 34.334 19.5 47.001s28.833 19 47.5 19c18 0 33.5 -6.33301 46.5 -19s19.5 -28.334 19.5 -47.001c0 -18 -6.5 -33.5 -19.5 -46.5
s-28.5 -19.5 -46.5 -19.5c-18.667 0 -34.5 6.5 -47.5 19.5z" />
    <glyph glyph-name="uniFEEA" unicode="&#x647;" horiz-adv-x="525" arabic-form="final" 
d="M525 91l0.000976562 -91h-91c-32.667 0 -60.667 6.66699 -84 20c-26.667 -14.667 -59.334 -22 -98.001 -22c-64 0 -111.167 19.167 -141.5 57.5s-45.5 98.5 -45.5 180.5c0 67.333 9.66699 119 29 155s44 59.833 74 71.5s65.667 17.5 107 17.5
c43.333 0 78.333 -5.66699 105 -17s47.167 -32.333 61.5 -63s21.5 -74.667 21.5 -132v-177h62zM196.001 137.5c11.333 -31 35 -46.501 71 -46.501h82v217c0 28.667 -7.5 49.334 -22.5 62.001s-33.833 19 -56.5 19c-32.667 0 -56 -12.333 -70 -37s-21 -62 -21 -112
c0 -37.333 5.66699 -71.5 17 -102.5z" />
    <glyph glyph-name="uniFEEB" unicode="&#x647;" horiz-adv-x="687" arabic-form="initial" 
d="M468.5 565.5c43 -20.333 79.332 -53.501 108.999 -99.501s44.5 -104.667 44.5 -176c0 -89.333 -23.833 -160 -71.5 -212s-115.167 -78 -202.5 -78c-27.333 0 -54.666 2.33301 -81.999 7s-49.333 10.334 -66 17.001c-16.667 -8.66699 -37.167 -14.834 -61.5 -18.501
s-58.166 -5.5 -101.499 -5.5h-37v91h21c19.333 -8.66699 39 -13 59 -13c11.333 0 22.333 1.33301 33 4c-14.667 18 -26.334 41.333 -35.001 70s-13 59 -13 91c0 50.667 11.167 93.667 33.5 129s56.166 53 101.499 53c44.667 0 78.5 -17.667 101.5 -53
s34.5 -77.666 34.5 -126.999c0 -34.667 -5.5 -68.834 -16.5 -102.501s-23.167 -56.5 -36.5 -68.5c14.667 -2.66699 28.334 -4 41.001 -4c56.667 0 101.5 17 134.5 51s49.5 85.333 49.5 154c0 53.333 -10.5 96.833 -31.5 130.5s-47.5 58 -79.5 73s-65 22.5 -99 22.5h-106
c-36 0 -62.167 10.167 -78.5 30.5s-24.5 45.833 -24.5 76.5c0 9.33301 0.333008 16.333 1 21c8 -12 22.667 -21.333 44 -28s48.333 -10 81 -10l128 4c40.667 0.666992 82.5 -9.16602 125.5 -29.499zM228.999 161.999c8 24 12 48.6699 12 74.0029s-3.83301 48 -11.5 68
s-17.5 30 -29.5 30s-21.667 -9.83301 -29 -29.5s-11 -42.834 -11 -69.501s3.83301 -51.334 11.5 -74.001s17.167 -40.334 28.5 -53.001c11.333 12 21 30 29 54zM137.999 99.002l-4 -6c2.66699 2.66699 4 4.66699 4 6z" />
    <glyph glyph-name="uniFEEC" unicode="&#x647;" horiz-adv-x="531" arabic-form="medial" 
d="M531 0l-87.002 0.00195312c-2 -24 -9.33301 -50.667 -22 -80s-32.5 -55 -59.5 -77s-60.833 -33 -101.5 -33c-50 0 -92.333 17.5 -127 52.5s-55.334 80.833 -62.001 137.5h-72v91h70v115c0 76 9.83301 134.333 29.5 175s41.334 67.334 65.001 80.001s44.834 19 63.501 19
s39.667 -6.5 63 -19.5s43.833 -36.5 61.5 -70.5s26.5 -79.667 26.5 -137c0 -92.667 -20.5 -156.834 -61.5 -192.501s-84.5 -55.5 -130.5 -59.5c4 -32 13.333 -56.667 28 -74s30.334 -26 47.001 -26c20 0 37.5 11.167 52.5 33.5s26.667 48.666 35 78.999
s12.5 56.166 12.5 77.499h169v-91zM196.998 324.502c-8.66699 -33 -12.999 -77.502 -12.999 -133.502v-98c30 4.66699 51.167 17.834 63.5 39.501s18.5 53.834 18.5 96.501c0 38.667 -4.16699 71.667 -12.5 99s-17.5 45.333 -27.5 54
c-10.667 -5.33301 -20.334 -24.5 -29.001 -57.5z" />
    <glyph glyph-name="uniFEEE" unicode="&#x648;" horiz-adv-x="555" arabic-form="final" 
d="M555 0l-91.998 0.000976562v-56c0 -42 -12 -81.333 -36 -118s-67.333 -55 -130 -55c-44 0 -77.167 10.5 -99.5 31.5s-33.833 44.5 -34.5 70.5c11.333 -6.66699 25.166 -12.834 41.499 -18.501s32.5 -8.5 48.5 -8.5c27.333 0 50.166 7 68.499 21s27.5 33.333 27.5 58l1 75
l-98 -2c-64 0 -111.167 19.167 -141.5 57.5s-45.5 98.5 -45.5 180.5c0 67.333 9.66699 119 29 155s44 59.833 74 71.5s65.667 17.5 107 17.5c43.333 0 78.333 -5.66699 105 -17s47.167 -32.333 61.5 -63s21.5 -74.667 21.5 -132v-177h92v-91zM267.002 91.001
l82 -0.000976562v217c0 28.667 -7.5 49.334 -22.5 62.001s-33.833 19 -56.5 19c-32.667 0 -56 -12.333 -70 -37s-21 -62 -21 -112c0 -99.333 29.333 -149 88 -149z" />
    <glyph glyph-name="uniFEF0" unicode="&#x649;" horiz-adv-x="930" arabic-form="final" 
d="M144 -149.5c-47.333 57.667 -71 122.5 -71 194.5c0 43.333 6 79 18 107s27 48.167 45 60.5s36.667 18.5 56 18.5c17.333 0 31.166 -4.5 41.499 -13.5s16.833 -18.833 19.5 -29.5c-17.333 -14 -32.666 -35.833 -45.999 -65.5s-20 -61.5 -20 -95.5
c0 -48 18 -88.667 54 -122s100.667 -50 194 -50c81.333 0 142.333 13.667 183 41s61 62 61 104h-24c-36 0 -62.167 7.5 -78.5 22.5s-24.5 33.833 -24.5 56.5c0 14 3.33301 28.333 10 43c8.66699 -8 21.167 -15.167 37.5 -21.5s34.5 -9.5 54.5 -9.5h276v-91h-138
c0 -39.333 -11.333 -76.833 -34 -112.5s-59.834 -65.167 -111.501 -88.5s-118.5 -35 -200.5 -35h-22c-139.333 0 -232.666 28.833 -279.999 86.5z" />
    <glyph glyph-name="uniFEF2" unicode="&#x64a;" horiz-adv-x="930" arabic-form="final" 
d="M144 -149.5c-47.333 57.667 -71 122.5 -71 194.5c0 43.333 6 79 18 107s27 48.167 45 60.5s36.667 18.5 56 18.5c17.333 0 31.166 -4.5 41.499 -13.5s16.833 -18.833 19.5 -29.5c-17.333 -14 -32.666 -35.833 -45.999 -65.5s-20 -61.5 -20 -95.5
c0 -48 18 -88.667 54 -122s100.667 -50 194 -50c81.333 0 142.333 13.667 183 41s61 62 61 104h-24c-36 0 -62.167 7.5 -78.5 22.5s-24.5 33.833 -24.5 56.5c0 14 3.33301 28.333 10 43c8.66699 -8 21.167 -15.167 37.5 -21.5s34.5 -9.5 54.5 -9.5h276v-91h-138
c0 -39.333 -11.333 -76.833 -34 -112.5s-59.834 -65.167 -111.501 -88.5s-118.5 -35 -200.5 -35h-22c-139.333 0 -232.666 28.833 -279.999 86.5zM307 -404.5c-12 12.333 -18 26.833 -18 43.5s6 31.167 18 43.5s26.333 18.5 43 18.5c17.333 0 32 -6 44 -18
s18 -26.667 18 -44s-6 -32 -18 -44s-26.667 -18 -44 -18c-16.667 0 -31 6.16699 -43 18.5zM462.5 -405c-12.333 12 -18.5 26.667 -18.5 44c0 16.667 6.16699 31.167 18.5 43.5s26.833 18.5 43.5 18.5c17.333 0 31.833 -6 43.5 -18s17.5 -26.667 17.5 -44
s-5.83301 -32 -17.5 -44s-26.167 -18 -43.5 -18c-16.667 0 -31.167 6 -43.5 18z" />
    <glyph glyph-name="uniFEF3" unicode="&#x64a;" horiz-adv-x="346" arabic-form="initial" 
d="M0 91l81.9961 -0.000976562c30 0 51.833 15.667 65.5 47s20.5 69 20.5 113s-5.66699 80.167 -17 108.5s-30.666 53.833 -57.999 76.5c2.66699 10.667 9.83398 20.667 21.501 30s27.834 14 48.501 14c40 0 69.667 -18.667 89 -56s29 -85.666 29 -144.999
c0 -48 -6.66699 -93.167 -20 -135.5s-35.166 -76.833 -65.499 -103.5s-68.833 -40 -115.5 -40h-80v91zM39.9961 -188.501c-12 12.333 -18 26.833 -18 43.5s6 31.167 18 43.5s26.333 18.5 43 18.5c17.333 0 32 -6 44 -18s18 -26.667 18 -44s-6 -32 -18 -44
s-26.667 -18 -44 -18c-16.667 0 -31 6.16699 -43 18.5zM195.496 -189.001c-12.333 12 -18.5 26.667 -18.5 44c0 16.667 6.16699 31.167 18.5 43.5s26.833 18.5 43.5 18.5c17.333 0 31.833 -6 43.5 -18s17.5 -26.667 17.5 -44s-5.83301 -32 -17.5 -44s-26.167 -18 -43.5 -18
c-16.667 0 -31.167 6 -43.5 18z" />
    <glyph glyph-name="uniFEF4" unicode="&#x64a;" horiz-adv-x="350" arabic-form="medial" 
d="M350 91l0.000976562 -91.001h-124c-36 0 -68 10.333 -96 31c-14 -10 -27.667 -17.5 -41 -22.5s-28.666 -7.83301 -45.999 -8.5h-43v91h43c25.333 0.666992 49.666 8 72.999 22v309c0 17.333 4.66699 31.333 14 42s23.666 16 42.999 16c18.667 0 32.667 -5.33301 42 -16
s14 -25 14 -43v-258c0 -21.333 3 -38.666 9 -51.999s15 -20 27 -20h85zM52.001 -188.501c-12 12.333 -18 26.833 -18 43.5s6 31.167 18 43.5s26.333 18.5 43 18.5c17.333 0 32 -6 44 -18s18 -26.667 18 -44s-6 -32 -18 -44s-26.667 -18 -44 -18
c-16.667 0 -31 6.16699 -43 18.5zM207.501 -189.001c-12.333 12 -18.5 26.667 -18.5 44c0 16.667 6.16699 31.167 18.5 43.5s26.833 18.5 43.5 18.5c17.333 0 31.833 -6 43.5 -18s17.5 -26.667 17.5 -44s-5.83301 -32 -17.5 -44s-26.167 -18 -43.5 -18
c-16.667 0 -31.167 6 -43.5 18z" />
    <glyph glyph-name=".notdef" horiz-adv-x="262" 
 />
    <glyph glyph-name="space" unicode=" " horiz-adv-x="250" 
 />
    <glyph glyph-name="exclam" unicode="!" horiz-adv-x="240" 
d="M62 660h117l-19 -505h-80zM78 2.5c-10.667 11 -16 25.167 -16 42.5c0 16.667 5.33301 30.334 16 41.001s24.667 16 42 16s31.333 -5.33301 42 -16s16 -24.334 16 -41.001c0 -17.333 -5.33301 -31.5 -16 -42.5s-24.667 -16.5 -42 -16.5s-31.333 5.5 -42 16.5z" />
    <glyph glyph-name="quotedbl" unicode="&#x22;" horiz-adv-x="380" 
d="M48 660h118l-30 -270h-58zM214 660h118l-30 -270h-58z" />
    <glyph glyph-name="numbersign" unicode="#" horiz-adv-x="686" 
d="M156 173h-126v63h139l37 178h-116v63h129l42 198h85l-42 -198h135l41 198h85l-41 -198h131v-63h-145l-36 -178h121v-63h-135l-35 -173h-85l35 173h-134l-36 -173h-85zM389 236l36 178h-134l-37 -178h135z" />
    <glyph glyph-name="dollar" unicode="$" horiz-adv-x="540" 
d="M235 -15c-52.667 4.66699 -97.501 17.666 -134.501 38.999s-55.5 48 -55.5 80v113h24c10 -60.667 28.5 -106.167 55.5 -136.5s63.833 -48.166 110.5 -53.499v263l-68 41c-44 26 -75.333 52.667 -94 80s-28 59.333 -28 96c0 48.667 17.167 88.334 51.5 119.001
s80.5 47.667 138.5 51v58h58v-59c50 -4 93.5 -16.833 130.5 -38.5s55.5 -48.167 55.5 -79.5v-113h-24c-10 61.333 -28.167 106.666 -54.5 135.999s-62.166 46.666 -107.499 51.999v-246l84 -49c45.333 -26.667 78 -52.667 98 -78s30 -55.666 30 -90.999
c0 -54.667 -18.5 -98.5 -55.5 -131.5s-89.167 -50.833 -156.5 -53.5v-64h-58v65zM234.999 631.999c-26 -4.66699 -47.167 -15.5 -63.5 -32.5s-24.5 -38.167 -24.5 -63.5c0 -24 6.66699 -44 20 -60s36 -34 68 -54v210zM366.999 58.499c18.667 17 27.999 39.167 27.999 66.5
c0 26.667 -8 49.5 -24 68.5s-42 39.5 -78 61.5v-227c30.667 3.33301 55.334 13.5 74.001 30.5z" />
    <glyph glyph-name="percent" unicode="%" horiz-adv-x="722" 
d="M71.5 427c-27 24 -40.5 57.667 -40.5 101s13.5 77 40.5 101s64.833 36 113.5 36c47.333 0 84.5 -12 111.5 -36s40.5 -57.667 40.5 -101s-13.5 -77 -40.5 -101s-64.167 -36 -111.5 -36c-48.667 0 -86.5 12 -113.5 36zM551 660h93l-472 -660h-94zM245 454
c14 16.667 21 41.333 21 74c0 66 -27.667 99 -83 99c-53.333 0 -80 -33 -80 -99s27 -99 81 -99c26.667 0 47 8.33301 61 25zM426 30.999c-27.333 24 -41 57.667 -41 101s13.667 77 41 101s65 36 113 36c47.333 0 84.666 -12 111.999 -36s41 -57.667 41 -101
s-13.667 -77 -41 -101s-64.666 -36 -111.999 -36c-48 0 -85.667 12 -113 36zM599 57.999c14 16.667 21 41.332 21 73.999s-7 57.334 -21 74.001s-34.333 25 -61 25c-54 0 -81 -33 -81 -99s27 -99 81 -99c26.667 0 47 8.33301 61 25z" />
    <glyph glyph-name="ampersand" unicode="&#x26;" horiz-adv-x="628" 
d="M93 23.5c-38 29 -57 66.8301 -57 113.497c0 39.333 13.167 73.333 39.5 102s63.833 57.667 112.5 87c-26 23.333 -50.5 52.333 -73.5 87s-34.5 71.667 -34.5 111c0 48.667 17 86.834 51 114.501s81 41.5 141 41.5c56 0 99.5 -12.833 130.5 -38.5s46.5 -59.5 46.5 -101.5
c0 -39.333 -13.333 -74.666 -40 -105.999s-63.667 -62.666 -111 -93.999l191 -208c16 17.333 37 44.666 63 81.999c10 16 18 29.333 24 40l30 -20c-6.66699 -14.667 -14 -29 -22 -43c-20 -34 -42 -64 -66 -90l93 -101h-125l-39 40
c-16.667 -13.333 -40.667 -26.666 -72 -39.999s-67 -20 -107 -20c-78.667 0 -137 14.5 -175 43.5zM322 447.997c14 24 21 51.333 21 82c0 38 -7.16699 66.167 -21.5 84.5s-30.833 27.5 -49.5 27.5c-50.667 0 -76 -39.333 -76 -118c0 -32 7.33301 -60.5 22 -85.5
s29.667 -44.833 45 -59.5c25.333 22 45 45 59 69zM358 32.4971c24 9.66699 44.999 22.166 62.999 37.499l-197 213c-48 -42 -72 -87.333 -72 -136c0 -41.333 10.833 -73.166 32.5 -95.499s53.834 -33.5 96.501 -33.5c27.333 0 53 4.83301 77 14.5z" />
    <glyph glyph-name="quotesingle" unicode="'" horiz-adv-x="214" 
d="M48 660h118l-30 -270h-58z" />
    <glyph glyph-name="parenleft" unicode="(" horiz-adv-x="315" 
d="M93.5 -13c-43.667 73.333 -65.5 157.668 -65.5 253.001s21.833 179.666 65.5 252.999s109.834 141 198.501 203l12 -18c-108 -95.333 -162 -241.333 -162 -438s54 -342.667 162 -438l-12 -18c-88.667 62 -154.834 129.667 -198.501 203z" />
    <glyph glyph-name="parenright" unicode=")" horiz-adv-x="316" 
d="M12 -198c108 95.333 162 241.331 162 437.998s-54 342.667 -162 438l12 18c88.667 -62 154.834 -129.667 198.501 -203s65.5 -157.666 65.5 -252.999s-21.833 -179.666 -65.5 -252.999s-109.834 -141 -198.501 -203z" />
    <glyph glyph-name="asterisk" unicode="*" horiz-adv-x="430" 
d="M192 459l-105 -95l-45 79l144 50l-144 50l45 80l105 -96l-26 133h98l-26 -133l105 96l45 -80l-144 -50l144 -50l-45 -79l-106 96l27 -134h-98z" />
    <glyph glyph-name="plus" unicode="+" horiz-adv-x="539" 
d="M231 297h-198v66h198v197h78v-197h198v-66h-198v-197h-78v197z" />
    <glyph glyph-name="comma" unicode="," horiz-adv-x="232" 
d="M52 -138c54 38 81 81 81 129c-8 -3.33301 -15 -5 -21 -5c-18 0 -32.333 5.33301 -43 16s-16 24.667 -16 42c0 18 5.5 32.667 16.5 44s25.833 17 44.5 17c20.667 0 36.667 -7 48 -21s17 -32 17 -54c0 -40.667 -9 -76.167 -27 -106.5s-46.667 -57.5 -86 -81.5z" />
    <glyph glyph-name="hyphen" unicode="-" horiz-adv-x="392" 
d="M61 307h269v-85h-269v85z" />
    <glyph glyph-name="period" unicode="." horiz-adv-x="222" 
d="M69 2.5c-10.667 11 -16 25.167 -16 42.5c0 16.667 5.33301 30.5 16 41.5s24.667 16.5 42 16.5s31.333 -5.5 42 -16.5s16 -24.833 16 -41.5c0 -17.333 -5.33301 -31.5 -16 -42.5s-24.667 -16.5 -42 -16.5s-31.333 5.5 -42 16.5z" />
    <glyph glyph-name="slash" unicode="/" horiz-adv-x="461" 
d="M343 660h96l-321 -660h-96z" />
    <glyph glyph-name="zero" unicode="0" horiz-adv-x="597" 
d="M47 330c0 233.333 83.667 350 251 350c168 0 252 -116.667 252 -350s-84 -350 -252 -350c-167.333 0 -251 116.667 -251 350zM397.5 96c19.667 48.667 29.5 126.667 29.5 234s-9.83301 185.333 -29.5 234s-52.834 73 -99.501 73c-46 0 -78.833 -24.333 -98.5 -73
s-29.5 -126.667 -29.5 -234s9.83301 -185.333 29.5 -234s52.5 -73 98.5 -73c46.667 0 79.834 24.333 99.501 73z" />
    <glyph glyph-name="one" unicode="1" horiz-adv-x="316" 
d="M123 549l-91 -58l-22 27l155 142h72v-660h-114v549z" />
    <glyph glyph-name="two" unicode="2" horiz-adv-x="535" 
d="M41 59l64 61.998c55.333 52.667 99.5 96.834 132.5 132.501s61.167 73.667 84.5 114s35 80.5 35 120.5c0 48.667 -11.5 85.667 -34.5 111s-51.167 38 -84.5 38c-42 0 -77.333 -14.5 -106 -43.5s-48 -72.167 -58 -129.5h-29c0 34.667 1.33301 62.5 4 83.5
s9.33398 38.5 20.001 52.5c18.667 22.667 45.667 41.667 81 57s72.666 23 111.999 23c58 0 108.833 -13.833 152.5 -41.5s65.5 -77.834 65.5 -150.501c0 -43.333 -13 -86.166 -39 -128.499s-57.167 -81.166 -93.5 -116.499s-81.833 -75.666 -136.5 -120.999
c-36 -30 -66 -56.333 -90 -79h214c40 0 70.833 9.16699 92.5 27.5s32.5 45.166 32.5 80.499h26v-71c0 -53.333 -28.333 -80 -85 -80h-360v59z" />
    <glyph glyph-name="three" unicode="3" horiz-adv-x="538" 
d="M133.5 7.5c-37 18.333 -70.834 45.166 -101.501 80.499l23 24c53.333 -59.333 113.666 -89 180.999 -89c42.667 0 77.334 13.5 104.001 40.5s40 67.5 40 121.5c0 50.667 -12.5 89.167 -37.5 115.5s-55.5 39.5 -91.5 39.5c-20 0 -35.833 -0.833008 -47.5 -2.5
s-24 -4.16699 -37 -7.5s-21.833 -5.66602 -26.5 -6.99902l-25 39l272 255h-181c-40 0 -70.833 -9.16699 -92.5 -27.5s-32.5 -45.166 -32.5 -80.499h-26v71c0 53.333 28.333 80 85 80h330v-43l-257 -241c6.66699 2 17.834 3.66699 33.501 5s29.167 2 40.5 2
c30.667 0 62.5 -6.33301 95.5 -19s61.333 -33.667 85 -63s35.5 -68 35.5 -116c0 -52 -13 -93.333 -39 -124s-56.5 -51.834 -91.5 -63.501s-68.5 -17.5 -100.5 -17.5c-55.333 0 -101.5 9.16699 -138.5 27.5z" />
    <glyph glyph-name="four" unicode="4" horiz-adv-x="561" 
d="M333 170h-320v40l339 450h94v-447h90v-43h-90v-170h-113v170zM333 213v339l-255 -339h255z" />
    <glyph glyph-name="five" unicode="5" horiz-adv-x="539" 
d="M136 6.5c-34 17.667 -66.332 44.5 -96.999 80.5l25 22c24.667 -29.333 52.167 -51 82.5 -65s62.166 -21 95.499 -21c42 0 76.333 13.667 103 41s40 68.666 40 123.999c0 51.333 -13.833 89.833 -41.5 115.5s-66.834 38.5 -117.501 38.5
c-17.333 0 -35.166 -1.33301 -53.499 -4s-42.166 -7 -71.499 -13l-40 39l11 296h383v-42h-281l-9 -237l31 2c34 2 54.667 3 62 3c40 0 78.833 -6 116.5 -18s69.5 -32.667 95.5 -62s39 -68.666 39 -117.999c0 -52 -13.333 -93.5 -40 -124.5s-58.834 -52.667 -96.501 -65
s-74.5 -18.5 -110.5 -18.5c-50 0 -92 8.83301 -126 26.5z" />
    <glyph glyph-name="six" unicode="6" horiz-adv-x="551" 
d="M107 67.5c-40 58.333 -60.002 145.832 -60.002 262.499c0 118 22.167 205.833 66.5 263.5s111.5 86.5 201.5 86.5c28.667 0 56.834 -3.16699 84.501 -9.5s52.167 -13.833 73.5 -22.5l-6 -25c-53.333 9.33301 -97.333 14 -132 14c-54 0 -95.667 -21.667 -125 -65
s-44 -105.666 -44 -186.999c17.333 13.333 38.333 24.5 63 33.5s51.667 13.5 81 13.5c71.333 0 123.5 -19.833 156.5 -59.5s49.5 -95.5 49.5 -167.5c0 -40 -8.66699 -77.167 -26 -111.5s-43.166 -61.833 -77.499 -82.5s-75.5 -31 -123.5 -31
c-81.333 0 -142 29.167 -182 87.5zM367.998 75.499c19.333 35 29.001 78.167 29.001 129.5c0 60.667 -9.33301 106.5 -28 137.5s-48.334 46.5 -89.001 46.5c-24.667 0 -47.167 -5.5 -67.5 -16.5s-35.833 -22.5 -46.5 -34.5c0 -108 10.833 -187.5 32.5 -238.5
s51.834 -76.5 90.501 -76.5c33.333 0 59.666 17.5 78.999 52.5z" />
    <glyph glyph-name="seven" unicode="7" horiz-adv-x="473" 
d="M356 617l-182 -0.000976562c-40 0 -70.833 -9.16699 -92.5 -27.5s-32.5 -45.166 -32.5 -80.499h-26v71c0 53.333 28.333 80 85 80h357v-43l-250 -617h-109z" />
    <glyph glyph-name="eight" unicode="8" horiz-adv-x="568" 
d="M110 22.5c-45.333 28.333 -68 71.1689 -68 128.502c0 44 14.833 80.333 44.5 109s69.5 53.667 119.5 75c-45.333 25.333 -79.833 50.833 -103.5 76.5s-35.5 58.167 -35.5 97.5c0 61.333 19.833 105.166 59.5 131.499s92.167 39.5 157.5 39.5s117.833 -12.5 157.5 -37.5
s59.5 -66.167 59.5 -123.5c0 -36.667 -12 -68.334 -36 -95.001s-55.667 -49 -95 -67c50 -28 88.5 -56.333 115.5 -85s40.5 -65.667 40.5 -111c0 -62 -22.333 -107.667 -67 -137s-103 -44 -175 -44c-70.667 0 -128.667 14.167 -174 42.5zM366.5 436.003
c10.333 20.667 15.5 48.333 15.5 83c0 42 -9.83301 72.167 -29.5 90.5s-42.5 27.5 -68.5 27.5s-48.833 -8.5 -68.5 -25.5s-29.5 -44.5 -29.5 -82.5c0 -29.333 12.5 -56.5 37.5 -81.5s57.5 -46.833 97.5 -65.5c20 15.333 35.167 33.333 45.5 54zM372 54.002
c23.333 20.667 35 49.666 35 86.999c0 38 -12.833 69.667 -38.5 95s-63.167 51 -112.5 77c-30.667 -16 -54.167 -36.167 -70.5 -60.5s-24.5 -58.166 -24.5 -101.499c0 -42.667 11.333 -74.667 34 -96s52.334 -32 89.001 -32c35.333 0 64.666 10.333 87.999 31z" />
    <glyph glyph-name="nine" unicode="9" horiz-adv-x="550" 
d="M148.5 -10.5c-28.333 6.33301 -52.167 13.834 -71.5 22.501l6 25c30.667 -5.33301 54.667 -9 72 -11s37.333 -3 60 -3c54 0 95.667 21.667 125 65s44 105.666 44 186.999c-17.333 -13.333 -38.333 -24.5 -63 -33.5s-51.667 -13.5 -81 -13.5
c-71.333 0 -123.5 19.833 -156.5 59.5s-49.5 95.5 -49.5 167.5c0 40 8.66699 77.167 26 111.5s43.166 61.833 77.499 82.5s75.5 31 123.5 31c161.333 0 242 -116.667 242 -350c0 -118.667 -22.167 -206.667 -66.5 -264s-111.5 -86 -201.5 -86
c-29.333 0 -58.166 3.16699 -86.499 9.5zM337.499 288.001c20.333 11.333 35.832 22.667 46.499 34c0 108 -10.833 187.5 -32.5 238.5s-51.834 76.5 -90.501 76.5c-33.333 0 -59.666 -17.667 -78.999 -53s-29 -78.333 -29 -129c0 -60.667 9.33301 -106.5 28 -137.5
s48.334 -46.5 89.001 -46.5c24.667 0 47.167 5.66699 67.5 17z" />
    <glyph glyph-name="colon" unicode=":" horiz-adv-x="239" 
d="M78 361c-10.667 10.667 -16 24.667 -16 42c0 16.667 5.33301 30.5 16 41.5s24.667 16.5 42 16.5s31.333 -5.5 42 -16.5s16 -24.833 16 -41.5c0 -17.333 -5.16699 -31.333 -15.5 -42s-24.5 -16 -42.5 -16c-17.333 0 -31.333 5.33301 -42 16zM77.5 2.5
c-11 11 -16.5 25.167 -16.5 42.5c0 16.667 5.5 30.5 16.5 41.5s24.833 16.5 41.5 16.5c18 0 32.333 -5.5 43 -16.5s16 -24.833 16 -41.5c0 -17.333 -5.33301 -31.5 -16 -42.5s-25 -16.5 -43 -16.5c-16.667 0 -30.5 5.5 -41.5 16.5z" />
    <glyph glyph-name="semicolon" unicode=";" horiz-adv-x="253" 
d="M85 361.5c-10.667 11 -16 25.167 -16 42.5c0 16.667 5.33301 30.5 16 41.5s24.667 16.5 42 16.5s31.333 -5.5 42 -16.5s16 -24.833 16 -41.5c0 -17.333 -5.33301 -31.5 -16 -42.5s-24.667 -16.5 -42 -16.5s-31.333 5.5 -42 16.5zM63 -138c54 38 81 81 81 129
c-8 -3.33301 -15 -5 -21 -5c-18 0 -32.333 5.33301 -43 16s-16 24.667 -16 42c0 18 5.5 32.667 16.5 44s25.833 17 44.5 17c20.667 0 36.667 -7 48 -21s17 -32 17 -54c0 -40.667 -9 -76.167 -27 -106.5s-46.667 -57.5 -86 -81.5z" />
    <glyph glyph-name="less" unicode="&#x3c;" horiz-adv-x="613" 
d="M29 308v54l520 225v-78l-402 -174l402 -174v-78z" />
    <glyph glyph-name="equal" unicode="=" horiz-adv-x="662" 
d="M61 453h539v-66h-539v66zM61 273h539v-66h-539v66z" />
    <glyph glyph-name="greater" unicode="&#x3e;" horiz-adv-x="613" 
d="M64 161l402 174l-402 174v78l520 -225v-54l-520 -225v78z" />
    <glyph glyph-name="question" unicode="?" horiz-adv-x="490" 
d="M223 242.5c11.333 23.667 27.6689 50.834 49.002 81.501c21.333 30 37.333 56.5 48 79.5s16 51.167 16 84.5c0 51.333 -10.5 89 -31.5 113s-48.833 36 -83.5 36c-41.333 0 -76.5 -15 -105.5 -45s-49.167 -75.333 -60.5 -136h-26c0 37.333 1.5 66.833 4.5 88.5
s10.167 39.834 21.5 54.501c19.333 22.667 47.166 41.834 83.499 57.501s73.833 23.5 112.5 23.5c58.667 0 108.167 -15.833 148.5 -47.5s60.5 -79.834 60.5 -144.501c0 -27.333 -4.83301 -52 -14.5 -74s-21.5 -40.833 -35.5 -56.5s-32.667 -33.834 -56 -54.501
c-30.667 -28 -53.5 -52.333 -68.5 -73s-23.5 -45.334 -25.5 -74.001h-56c1.33301 34 7.66602 62.833 18.999 86.5zM189.503 2.5c-10.333 11 -15.5 25.167 -15.5 42.5c0 16.667 5.33301 30.5 16 41.5s24.667 16.5 42 16.5s31.333 -5.5 42 -16.5s16 -24.833 16 -41.5
c0 -17.333 -5.33301 -31.5 -16 -42.5s-24.667 -16.5 -42 -16.5c-18 0 -32.167 5.5 -42.5 16.5z" />
    <glyph glyph-name="at" unicode="@" horiz-adv-x="868" 
d="M227 -130.5c-60 33 -106.832 81.6689 -140.499 146.002s-50.5 142.5 -50.5 234.5s16.833 170.167 50.5 234.5s80.5 113 140.5 146s129.667 49.5 209 49.5c78.667 0 148 -16.167 208 -48.5s106.833 -79.333 140.5 -141s50.5 -135.167 50.5 -220.5
c0 -176.667 -68 -265 -204 -265c-62 0 -101 18.333 -117 55h-5c-10.667 -16 -26.5 -29.167 -47.5 -39.5s-46.833 -15.5 -77.5 -15.5c-46.667 0 -85 11.833 -115 35.5s-45 57.5 -45 101.5c0 49.333 21.333 85.833 64 109.5s109.334 35.5 200.001 35.5h21
c0 62.667 -8.33301 105.834 -25 129.501s-40.667 35.5 -72 35.5c-56 0 -90.667 -29.333 -104 -88h-51c0 22.667 2.33301 42 7 58s13 29.667 25 41c10.667 10.667 29.167 18.667 55.5 24s55.5 8 87.5 8c60.667 0 107.667 -16.333 141 -49s50 -86.334 50 -161.001v-182
c0 -16 3.66699 -29 11 -39s18.333 -15 33 -15c33.333 0 60.166 18 80.499 54s30.5 91.667 30.5 167c0 78 -14.167 144.5 -42.5 199.5s-68.166 96.667 -119.499 125s-111.333 42.5 -180 42.5c-69.333 0 -129.666 -14.5 -180.999 -43.5s-91 -72.333 -119 -130
s-42 -128.834 -42 -213.501s14 -155.834 42 -213.501s67.667 -101 119 -130s111.666 -43.5 180.999 -43.5c63.333 0 120.666 7.66699 171.999 23s98.666 38 141.999 68l24 -36c-93.333 -65.333 -206 -98 -338 -98c-79.333 0 -149 16.5 -209 49.5zM473.001 71.502
c14.667 12.333 26.666 27.167 35.999 44.5v127h-21c-51.333 0 -88.833 -8.33301 -112.5 -25s-35.5 -42 -35.5 -76c0 -29.333 7.16699 -51.5 21.5 -66.5s33.833 -22.5 58.5 -22.5c20.667 0 38.334 6.16699 53.001 18.5z" />
    <glyph glyph-name="A" unicode="A" horiz-adv-x="642" 
d="M520 22.5c-32.667 17.667 -59.333 52.167 -80 103.5l-24 59h-272l-81 -185h-49l289 660h38l223 -534c14 -33.333 29.167 -58 45.5 -74s36.5 -25.333 60.5 -28v-23c-12 -3.33301 -26.667 -5 -44 -5c-38 0 -73.333 8.83301 -106 26.5zM396.001 228l-114 273l-119 -273h233z
" />
    <glyph glyph-name="B" unicode="B" horiz-adv-x="635" 
d="M100 534c0 34 -4.66602 59.168 -13.999 75.501s-28 24.5 -56 24.5h-15v26h266c79.333 0 146.666 -11.833 201.999 -35.5s83 -70.167 83 -139.5c0 -30.667 -11.5 -59.167 -34.5 -85.5s-56.5 -45.833 -100.5 -58.5c60.667 -8 103.667 -25.833 129 -53.5
s38 -62.834 38 -105.501c0 -121.333 -95.667 -182 -287 -182h-211v534zM296.001 359.001c43.333 0 79 10.834 107 32.501s42 54.5 42 98.5c0 45.333 -16.5 78.666 -49.5 99.999s-71.833 32 -116.5 32c-17.333 0 -39.333 -2.66699 -66 -8v-255h83zM428.501 74.002
c31 24 46.5 58.333 46.5 103c0 45.333 -15.167 79.833 -45.5 103.5s-74.833 35.5 -133.5 35.5h-83v-266c28 -8 55.667 -12 83 -12c57.333 0 101.5 12 132.5 36z" />
    <glyph glyph-name="C" unicode="C" horiz-adv-x="673" 
d="M190 24.5c-48.667 29.667 -85.8311 70.333 -111.498 122s-38.5 109.5 -38.5 173.5c0 66 14.167 126.5 42.5 181.5s67.166 98.5 116.499 130.5s103.666 48 162.999 48c56 0 104 -7.5 144 -22.5s70 -34.5 90 -58.5c11.333 -14.667 18.333 -33.167 21 -55.5
s4 -54.166 4 -95.499h-26c-25.333 126 -93 189 -203 189c-70 0 -125.667 -24.667 -167 -74s-62 -130.333 -62 -243c0 -53.333 8 -102.333 24 -147s41.167 -80.834 75.5 -108.501s77.5 -41.5 129.5 -41.5c47.333 0 90 12.167 128 36.5s69.667 59.5 95 105.5l29 -22
c-31.333 -57.333 -69.5 -98.833 -114.5 -124.5s-100.833 -38.5 -167.5 -38.5c-66 0 -123.333 14.833 -172 44.5z" />
    <glyph glyph-name="D" unicode="D" horiz-adv-x="727" 
d="M100 534c0 34 -4.66797 59.167 -14.001 75.5s-28 24.5 -56 24.5h-15v26h268c132.667 0 233.334 -28.667 302.001 -86s103 -137.333 103 -240c0 -66 -14.5 -124.167 -43.5 -174.5s-72 -89.5 -129 -117.5s-125.833 -42 -206.5 -42h-209v534zM433.999 73.5
c38 23.667 67.667 57.667 89 102s32 95.833 32 154.5c0 58 -10.667 109 -32 153s-51 78.167 -89 102.5s-81.333 36.5 -130 36.5c-25.333 0 -55.333 -3.66699 -90 -11v-564c20 -4 36.167 -6.5 48.5 -7.5s26.833 -1.5 43.5 -1.5c47.333 0 90 11.833 128 35.5z" />
    <glyph glyph-name="E" unicode="E" horiz-adv-x="596" 
d="M100 534c0 34 -4.66602 59.167 -13.999 75.5s-28 24.5 -56 24.5h-15v26h435c56.667 0 85 -26.667 85 -80v-81h-26c0 78.667 -41.667 118 -125 118h-171v-254h264v-43h-264v-277h173c41.333 0 74.666 8.33301 99.999 25s46.333 45.667 63 87l24 -8l-32 -85
c-7.33301 -20.667 -17 -36.167 -29 -46.5s-29.667 -15.5 -53 -15.5h-359v534z" />
    <glyph glyph-name="F" unicode="F" horiz-adv-x="534" 
d="M100 534c0 34 -4.66699 59.167 -14 75.5s-28 24.5 -56 24.5h-15v26h411c56.667 0 85 -26.667 85 -80v-81h-26c0 40.667 -10.5 70.5 -31.5 89.5s-52.167 28.5 -93.5 28.5h-147v-259h223v-43h-223v-315h-113v534z" />
    <glyph glyph-name="G" unicode="G" horiz-adv-x="728" 
d="M210 28c-53.333 32 -95.1689 75.334 -125.502 130.001s-45.5 115.334 -45.5 182.001c0 63.333 13.333 121 40 173s64.334 92.833 113.001 122.5s104.667 44.5 168 44.5c58.667 0 108.667 -7.5 150 -22.5s72 -34.5 92 -58.5c10.667 -14 17.5 -32.167 20.5 -54.5
s4.5 -49.833 4.5 -82.5h-26c-12.667 60 -36.167 104.167 -70.5 132.5s-81.166 42.5 -140.499 42.5c-52 0 -95 -13.833 -129 -41.5s-59 -63.834 -75 -108.501s-24 -93.667 -24 -147c0 -113.333 20.667 -195 62 -245s96.666 -75 165.999 -75c30.667 0 57.334 2.5 80.001 7.5
s44 12.5 64 22.5v176c0 35.333 12.167 64.166 36.5 86.499s72.833 33.5 145.5 33.5v-23c-25.333 0 -43.166 -7.83301 -53.499 -23.5s-15.5 -39.5 -15.5 -71.5v-183c-37.333 -22.667 -76.833 -39.167 -118.5 -49.5s-87.834 -15.5 -138.501 -15.5
c-66.667 0 -126.667 16 -180 48z" />
    <glyph glyph-name="H" unicode="H" horiz-adv-x="709" 
d="M100 534c0 34 -4.66699 59.167 -14 75.5s-28 24.5 -56 24.5h-15v26h108c24 0 42.333 -3.66699 55 -11s21.667 -19.833 27 -37.5s8 -43.5 8 -77.5v-171h282v297h114v-534c0 -34 4.66699 -59.167 14 -75.5s28 -24.5 56 -24.5h14v-26h-108c-24 0 -42.333 3.5 -55 10.5
s-21.667 19.5 -27 37.5s-8 44 -8 78v194h-282v-320h-113v534z" />
    <glyph glyph-name="I" unicode="I" horiz-adv-x="296" 
d="M118 10.5c-12.667 7 -21.667 19.5 -27 37.5s-8 44 -8 78v534h114v-534c0 -34 4.66699 -59.167 14 -75.5s28 -24.5 56 -24.5h14v-26h-108c-24 0 -42.333 3.5 -55 10.5z" />
    <glyph glyph-name="J" unicode="J" horiz-adv-x="271" 
d="M-15 -111c32 2.66699 55.668 19 71.001 49s23 77.667 23 143v579h114v-579c0 -56 -5.83301 -99.5 -17.5 -130.5s-32.334 -53.333 -62.001 -67s-72.5 -20.5 -128.5 -20.5v26z" />
    <glyph glyph-name="K" unicode="K" horiz-adv-x="686" 
d="M697 0c-20 -6.66699 -43.334 -10 -70.001 -10c-37.333 0 -74.333 8.5 -111 25.5s-77 48.5 -121 94.5l-181 189v-299h-114v534c0 34 -4.66699 59.167 -14 75.5s-28 24.5 -56 24.5h-15v26h108c24 0 42.5 -3.66699 55.5 -11s22.167 -19.833 27.5 -37.5s8 -43.5 8 -77.5v-192
l188 213c28.667 34 56 60 82 78s56.667 27 92 27h62v-31c-36 0 -67.167 -5.16699 -93.5 -15.5s-51.166 -28.5 -74.499 -54.5l-167 -189l230 -240c26.667 -28.667 55.167 -53.167 85.5 -73.5s56.5 -31.833 78.5 -34.5v-22zM626.999 -10z" />
    <glyph glyph-name="L" unicode="L" horiz-adv-x="565" 
d="M100 534c0 34 -4.66699 59.167 -14 75.5s-28 24.5 -56 24.5h-15v26h108c24 0 42.333 -3.66699 55 -11s21.667 -19.833 27 -37.5s8 -43.5 8 -77.5v-491h349v-43h-462v534z" />
    <glyph glyph-name="M" unicode="M" horiz-adv-x="862" 
d="M693.5 5c-29.667 33.333 -44.5 88.334 -44.5 165.001v367l-232 -537h-27l-265 553v-553h-46v660h111l241 -503l217 503h115v-490c0 -62 6.33301 -108.833 19 -140.5s33.667 -48.834 63 -51.501v-23c-71.333 0 -121.833 16.667 -151.5 50z" />
    <glyph glyph-name="N" unicode="N" horiz-adv-x="689" 
d="M149 507v-507h-46v540c0 30 -6.83301 53.167 -20.5 69.5s-36.834 24.5 -69.501 24.5h-7v26h68c34.667 0 63.334 -5 86.001 -15s42 -25 58 -45l347 -414v474h46v-666h-36z" />
    <glyph glyph-name="O" unicode="O" horiz-adv-x="724" 
d="M194 26c-48.667 30.667 -86.334 72.667 -113.001 126s-40 112.666 -40 177.999s13.333 124.666 40 177.999s64.334 95.333 113.001 126s104.667 46 168 46c64 0 120.333 -15.333 169 -46s86.334 -72.667 113.001 -126s40 -112.666 40 -177.999
s-13.333 -124.666 -40 -177.999s-64.334 -95.333 -113.001 -126s-105 -46 -169 -46c-63.333 0 -119.333 15.333 -168 46zM508.5 104c35 54 52.5 129.333 52.5 226s-17.5 172 -52.5 226s-83.833 81 -146.5 81s-111.334 -27 -146.001 -81s-52 -129.333 -52 -226
s17.333 -172 52 -226s83.334 -81 146.001 -81s111.5 27 146.5 81z" />
    <glyph glyph-name="P" unicode="P" horiz-adv-x="567" 
d="M100 534c0 34 -4.66699 59.165 -14 75.498s-28 24.5 -56 24.5h-15v26h269c66.667 0 127 -13.667 181 -41s81 -80.666 81 -159.999c0 -52 -14 -92.167 -42 -120.5s-59.333 -47.166 -94 -56.499s-66.667 -14 -96 -14h-101v-268h-113v534zM279 305.998
c38 0 71.333 12.5 100 37.5s43 65.167 43 120.5s-14.167 95.5 -42.5 120.5s-60.833 37.5 -97.5 37.5c-17.333 0 -40.333 -2.66699 -69 -8v-308h66z" />
    <glyph glyph-name="Q" unicode="Q" horiz-adv-x="726" 
d="M265 -5c-68.667 20.667 -123.003 61.3311 -163.003 121.998s-60 131.667 -60 213c0 65.333 13.333 124.666 40 177.999s64.334 95.333 113.001 126s104.667 46 168 46c64 0 120.333 -15.333 169 -46s86.334 -72.667 113.001 -126s40 -112.666 40 -177.999
c0 -55.333 -9.33301 -106.166 -28 -152.499s-45.5 -85.666 -80.5 -117.999s-76.167 -54.833 -123.5 -67.5c10.667 -31.333 29.167 -60.333 55.5 -87s55.5 -47.667 87.5 -63s62 -23 90 -23v-24c-171.333 0 -311.666 66.667 -420.999 200zM509.497 103.997
c35 54 52.5 129.333 52.5 226s-17.5 172 -52.5 226s-83.833 81 -146.5 81s-111.334 -27 -146.001 -81s-52 -129.333 -52 -226s17.333 -172 52 -226s83.334 -81 146.001 -81s111.5 27 146.5 81z" />
    <glyph glyph-name="R" unicode="R" horiz-adv-x="607" 
d="M457 22.5c-28.667 21.667 -58.999 59.166 -90.999 112.499l-100 168h-52v-303h-114v534c0 34 -4.66699 59.167 -14 75.5s-28 24.5 -56 24.5h-15v26h270c66 0 126.167 -12.5 180.5 -37.5s81.5 -72.5 81.5 -142.5c0 -50 -15 -88 -45 -114s-69 -44.667 -117 -56l105 -175
c23.333 -39.333 45.333 -67.166 66 -83.499s41.667 -25.833 63 -28.5v-23c-6 -2.66699 -15.333 -5 -28 -7s-25.334 -3 -38.001 -3c-35.333 0 -67.333 10.833 -96 32.5zM279.001 340.999c22.667 0 45.002 4.66699 67.002 14s40.333 24.5 55 45.5s22 47.833 22 80.5
s-7.33301 59.5 -22 80.5s-32.834 36.333 -54.501 46s-43.834 14.5 -66.501 14.5c-16 0 -38 -2.66699 -66 -8v-273h65z" />
    <glyph glyph-name="S" unicode="S" horiz-adv-x="550" 
d="M168.5 -2c-35 10 -63.499 24.167 -85.499 42.5s-33 39.5 -33 63.5v113h24c10.667 -68 32 -116.833 64 -146.5s76.667 -44.5 134 -44.5c38 0 68.833 8.66699 92.5 26s35.5 41.666 35.5 72.999c0 27.333 -8.33301 50.666 -25 69.999s-43.334 40.333 -80.001 63l-123 73
c-44 26 -75.333 52.667 -94 80s-28 59.333 -28 96c0 52 19.333 93.5 58 124.5s90 46.5 154 46.5c36 0 71.167 -4.83301 105.5 -14.5s62.333 -23.667 84 -42s32.5 -39.5 32.5 -63.5v-113h-24c-11.333 67.333 -32.5 115.833 -63.5 145.5s-73.5 44.5 -127.5 44.5
c-34 0 -62 -9 -84 -27s-33 -42 -33 -72c0 -26 8.33301 -47.833 25 -65.5s44 -37.5 82 -59.5l123 -73c45.333 -26.667 78 -52.667 98 -78s30 -55.666 30 -90.999c0 -57.333 -20.667 -102.666 -62 -135.999s-98.333 -50 -171 -50c-37.333 0 -73.5 5 -108.5 15z" />
    <glyph glyph-name="T" unicode="T" horiz-adv-x="578" 
d="M242 617h-79c-38.667 0 -68.167 -9.33301 -88.5 -28s-30.5 -48.667 -30.5 -90h-26v81c0 53.333 28.333 80 85 80h468v-43h-216v-617h-113v617z" />
    <glyph glyph-name="U" unicode="U" horiz-adv-x="691" 
d="M158 63c-42 48.667 -62.999 123.33 -62.999 223.997v247c0 32.667 -4.5 57.334 -13.5 74.001s-26.167 25.334 -51.5 26.001h-13v26h101c24 0 42.333 -3.66699 55 -11s21.667 -19.833 27 -37.5s8 -43.5 8 -77.5l1 -277c1.33301 -149.333 56.666 -224 165.999 -224
c70.667 0 121.5 20.167 152.5 60.5s46.5 104.833 46.5 193.5v373h46v-373c0 -66.667 -8.16699 -121.667 -24.5 -165s-43.5 -76.166 -81.5 -98.499s-89.667 -33.5 -155 -33.5c-92 0 -159 24.333 -201 73z" />
    <glyph glyph-name="V" unicode="V" horiz-adv-x="637" 
d="M72 543c-16 37.333 -31.332 63.5 -45.999 78.5s-33.667 23.833 -57 26.5v20l38 2c40 0 76.167 -8.5 108.5 -25.5s59.166 -50.833 80.499 -101.5l163 -386l215 503h49l-287 -670h-31z" />
    <glyph glyph-name="W" unicode="W" horiz-adv-x="890" 
d="M68 543c-14 37.333 -28.667 63.5 -44 78.5s-35.333 23.833 -60 26.5v20l39 2c42 0 78.833 -8.16699 110.5 -24.5s57.167 -50.5 76.5 -102.5l135 -362l97 281l-31 81c-14 36.667 -29.167 62.667 -45.5 78s-36.833 24.333 -61.5 27v20l36 2c41.333 0 78 -8.33301 110 -25
s57.667 -50.667 77 -102l140 -373l171 490h46l-234 -669h-32l-151 403l-140 -403h-32z" />
    <glyph glyph-name="X" unicode="X" horiz-adv-x="655" 
d="M274 317l-141 213c-44.667 69.333 -92.667 106 -144 110v20h114c32 0 60.333 -10.333 85 -31s47.334 -47 68.001 -79l93 -141l196 251h58l-227 -291l158 -239c19.333 -29.333 41.166 -54.5 65.499 -75.5s48.833 -32.5 73.5 -34.5v-20h-108
c-56.667 0 -108 36.667 -154 110l-109 166l-216 -276h-59z" />
    <glyph glyph-name="Y" unicode="Y" horiz-adv-x="634" 
d="M284 268l-175 262c-22 32 -44 57.833 -66 77.5s-46 30.5 -72 32.5v20h102c60.667 0 113 -36.667 157 -110l140 -213l200 323h57l-230 -374v-286h-113v268z" />
    <glyph glyph-name="Z" unicode="Z" horiz-adv-x="596" 
d="M28 27l390 591h-227c-79.333 0 -119 -39.667 -119 -119h-26v81c0 53.333 28.333 80 85 80h447l-405 -617h396v-43h-541v27z" />
    <glyph glyph-name="bracketleft" unicode="[" horiz-adv-x="325" 
d="M70 680h232v-43h-129v-794h129v-43h-232v880z" />
    <glyph glyph-name="backslash" unicode="\" horiz-adv-x="461" 
d="M22 660h96l321 -660h-96z" />
    <glyph glyph-name="bracketright" unicode="]" horiz-adv-x="325" 
d="M22 -157h130v794h-130v43h233v-880h-233v43z" />
    <glyph glyph-name="asciicircum" unicode="^" horiz-adv-x="504" 
d="M235 680h34l215 -350h-85l-147 239l-147 -239h-85z" />
    <glyph glyph-name="underscore" unicode="_" horiz-adv-x="434" 
d="M11 0h412v-66h-412v66z" />
    <glyph glyph-name="grave" unicode="`" horiz-adv-x="216" 
d="M20 680h115l61 -202h-64z" />
    <glyph glyph-name="a" unicode="a" horiz-adv-x="490" 
d="M78 25.5c-30 23.667 -45 57.501 -45 101.501c0 50.667 21.167 87.667 63.5 111s109.166 35 200.499 35h21c0 60.667 -8.33301 103.167 -25 127.5s-41.334 36.5 -74.001 36.5c-27.333 0 -49.666 -6.33301 -66.999 -19s-29.666 -35.667 -36.999 -69h-51
c0 22.667 1.5 41.5 4.5 56.5s9.83301 28.167 20.5 39.5c11.333 12 30.5 20.833 57.5 26.5s57.833 8.5 92.5 8.5c61.333 0 108.833 -16.333 142.5 -49s50.5 -86.334 50.5 -161.001v-270h-71l-35 45h-5c-10.667 -15.333 -27 -28.333 -49 -39s-48.333 -16 -79 -16
c-46.667 0 -85 11.833 -115 35.5zM282 56.501c14.667 12.333 26.666 27.167 35.999 44.5v129h-21c-96.667 0 -145 -34.333 -145 -103c0 -28.667 7.16699 -50.667 21.5 -66s32.833 -23 55.5 -23c20.667 0 38.334 6.16699 53.001 18.5z" />
    <glyph glyph-name="b" unicode="b" horiz-adv-x="537" 
d="M223 6c-20.667 10.667 -36.335 23.667 -47.002 39h-5l-35 -45h-71v534c0 34 -4.66699 59.167 -14 75.5s-28 24.5 -56 24.5h-14v26h108c24 0 42.333 -3.66699 55 -11s21.667 -19.833 27 -37.5s8 -43.5 8 -77.5v-84c34.667 20 72.334 30 113.001 30
c66.667 0 117.334 -22.833 152.001 -68.5s52 -104.5 52 -176.5c0 -71.333 -17 -130 -51 -176s-82.667 -69 -146 -69c-30 0 -55.333 5.33301 -76 16zM352.499 88c17 36.667 25.5 85.668 25.5 147.001c0 62 -8.66699 111.167 -26 147.5s-45.333 54.5 -84 54.5
c-16 0 -31 -2.83301 -45 -8.5s-28.667 -12.834 -44 -21.501v-311c10 -18 23 -33 39 -45s35 -18 57 -18c34.667 0 60.5 18.333 77.5 55z" />
    <glyph glyph-name="c" unicode="c" horiz-adv-x="491" 
d="M144 22.5c-34.667 21.667 -60.666 51.001 -77.999 88.001s-26 78.5 -26 124.5s8.66699 87.5 26 124.5s43.333 66.333 78 88s77 32.5 127 32.5c77.333 0 127.666 -11.667 150.999 -35c11.333 -11.333 18.333 -25.833 21 -43.5s4 -48.5 4 -92.5h-26
c-2.66699 42 -15.667 73.833 -39 95.5s-54.333 32.5 -93 32.5c-41.333 0 -73.5 -17.833 -96.5 -53.5s-34.5 -85.167 -34.5 -148.5c0 -64 11.167 -113.667 33.5 -149s55.5 -53 99.5 -53c32.667 0 60 6.83301 82 20.5s42.667 34.167 62 61.5l27 -20
c-20 -32.667 -45.167 -58.334 -75.5 -77.001s-68.833 -28 -115.5 -28c-50 0 -92.333 10.833 -127 32.5z" />
    <glyph glyph-name="d" unicode="d" horiz-adv-x="538" 
d="M92.5 59c-34.333 46 -51.501 104.667 -51.501 176c0 72 17.5 130.833 52.5 176.5s85.833 68.5 152.5 68.5c39.333 0 77 -10 113 -30v84c0 34 -4.66699 59.167 -14 75.5s-28 24.5 -56 24.5h-14v26h108c24 0 42.333 -3.66699 55 -11s21.667 -19.833 27 -37.5
s8 -43.5 8 -77.5v-534h-71l-35 45h-5c-11.333 -15.333 -27 -28.333 -47 -39s-45.333 -16 -76 -16c-63.333 0 -112.166 23 -146.499 69zM319.499 50.5c14.333 11.667 27.501 26.833 39.501 45.5v311c-34 20 -63.667 30 -89 30c-38.667 0 -66.667 -18.167 -84 -54.5
s-26 -85.5 -26 -147.5c0 -61.333 8.33301 -110.333 25 -147s42.667 -55 78 -55c23.333 0 42.166 5.83301 56.499 17.5z" />
    <glyph glyph-name="e" unicode="e" horiz-adv-x="500" 
d="M143 22c-33.333 21.333 -58.8311 50.501 -76.498 87.501s-26.5 78.833 -26.5 125.5c0 49.333 9 92.5 27 129.5s43 65.5 75 85.5s68.667 30 110 30c64.667 0 116.167 -18.667 154.5 -56s57.5 -88 57.5 -152l-3 -54h-302c0 -60 10.667 -105.833 32 -137.5
s50.666 -47.5 87.999 -47.5c31.333 0 58 7 80 21s42.667 34.333 62 61l26 -20c-19.333 -32.667 -43.833 -58.334 -73.5 -77.001s-66.834 -28 -111.501 -28c-46 0 -85.667 10.667 -119 32zM345.002 261.001c0 61.333 -7.83301 106 -23.5 134s-38.834 42 -69.501 42
c-27.333 0 -49.666 -14.833 -66.999 -44.5s-26 -73.5 -26 -131.5h186z" />
    <glyph glyph-name="f" unicode="f" horiz-adv-x="340" 
d="M80 427l-64 0.00195312v43h64v28c0 114.667 62.333 172 187 172c18.667 0 36 -1.5 52 -4.5s28 -6.83301 36 -11.5c16 -10.667 28.333 -25.334 37 -44.001l-35 -31c-20.667 32 -50.667 48 -90 48c-24 0 -42.333 -9.83301 -55 -29.5s-19 -52.834 -19 -99.501v-28h134v-43
h-134v-427h-113v427z" />
    <glyph glyph-name="g" unicode="g" horiz-adv-x="510" 
d="M82 -163.5c-42 24.333 -63.002 63.8311 -63.002 118.498c0 32 12 59.167 36 81.5s53.667 38.5 89 48.5c-28.667 11.333 -43 30.333 -43 57c0 22 12.667 39.333 38 52c-26 10.667 -47.5 27.834 -64.5 51.501s-25.5 50.5 -25.5 80.5c0 54.667 18.5 94 55.5 118
s86.833 36 149.5 36h199v-26l-79 -11c24.667 -11.333 44.834 -27.666 60.501 -48.999s23.5 -44 23.5 -68c0 -54.667 -18 -93.667 -54 -117s-86 -35 -150 -35c-34 0 -59.5 -2.33301 -76.5 -7s-25.5 -13 -25.5 -25c0 -10.667 8.5 -18.334 25.5 -23.001s42.5 -7 76.5 -7
c68.667 -1.33301 124.834 -15.166 168.501 -41.499s65.5 -64.833 65.5 -115.5c0 -54.667 -21 -94.167 -63 -118.5s-99 -36.5 -171 -36.5c-72.667 0 -130 12.167 -172 36.5zM317.998 239.498c16 18.333 24 47.166 24 86.499c0 37.333 -8.16699 66 -24.5 86s-37.5 30 -63.5 30
c-27.333 0 -49 -9.5 -65 -28.5s-24 -48.167 -24 -87.5s8 -68.166 24 -86.499s37.667 -27.5 65 -27.5c26.667 0 48 9.16699 64 27.5zM340.498 -129.002c21 18.667 31.5 46.6689 31.5 84.002c0 31.333 -9.66699 56.666 -29 75.999s-46.333 31.666 -81 36.999l-50 5
c-51.333 -20.667 -77 -60 -77 -118c0 -38 10.5 -66.167 31.5 -84.5s50.167 -27.5 87.5 -27.5c36.667 0 65.5 9.33301 86.5 28z" />
    <glyph glyph-name="h" unicode="h" horiz-adv-x="538" 
d="M65 534c0 34 -4.66797 59.166 -14.001 75.499s-28 24.5 -56 24.5h-14v26h108c24 0 42.333 -3.66699 55 -11s21.667 -19.833 27 -37.5s8 -43.5 8 -77.5v-97c13.333 11.333 30.5 21.333 51.5 30s43.167 13 66.5 13c52 0 95.333 -13.667 130 -41s52 -74.333 52 -141v-298
h-114v295c0 47.333 -9.33301 82 -28 104s-42 33 -70 33c-16.667 0 -32.667 -4.16699 -48 -12.5s-28.666 -18.166 -39.999 -29.499v-390h-114v534z" />
    <glyph glyph-name="i" unicode="i" horiz-adv-x="258" 
d="M87 547c-12 14 -18.001 31.001 -18.001 51.001c0 15.333 4.83301 27.666 14.5 36.999s21.834 14 36.501 14c20.667 0 37.167 -6.83301 49.5 -20.5s18.5 -30.5 18.5 -50.5c0 -16 -4.83301 -28.667 -14.5 -38s-22.167 -14 -37.5 -14c-20.667 0 -37 7 -49 21z
M81.999 344.001c0 34 -4.66699 59.167 -14 75.5s-28 24.5 -56 24.5h-14v26h108c24 0 42.333 -3.66699 55 -11s21.667 -19.833 27 -37.5s8 -43.5 8 -77.5v-344h-114v344z" />
    <glyph glyph-name="j" unicode="j" horiz-adv-x="258" 
d="M87 547c-12 14 -18.001 31.001 -18.001 51.001c0 15.333 4.83301 27.666 14.5 36.999s21.834 14 36.501 14c20.667 0 37.167 -6.83301 49.5 -20.5s18.5 -30.5 18.5 -50.5c0 -16 -4.83301 -28.667 -14.5 -38s-22.167 -14 -37.5 -14c-20.667 0 -37 7 -49 21z
M-9.00098 -166.999c31.333 3.33301 54.334 20 69.001 50s22 77.333 22 142v319c0 34 -4.66699 59.167 -14 75.5s-28 24.5 -56 24.5h-14v26h108c24 0 42.333 -3.66699 55 -11s21.667 -19.833 27 -37.5s8 -43.5 8 -77.5v-319c0 -54 -6.16699 -96.5 -18.5 -127.5
s-33.333 -53.333 -63 -67s-70.834 -20.5 -123.501 -20.5v23z" />
    <glyph glyph-name="k" unicode="k" horiz-adv-x="497" 
d="M352.5 8.5c-24.333 12.333 -47.168 32.833 -68.501 61.5l-105 140v-210h-114v534c0 34 -4.66699 59.167 -14 75.5s-28 24.5 -56 24.5h-14v26h108c24 0 42.333 -3.66699 55 -11s21.667 -19.833 27 -37.5s8 -43.5 8 -77.5v-289l122 153
c20.667 25.333 40.834 43.666 60.501 54.999s45.5 17 77.5 17h25v-26c-40 0 -72.667 -16 -98 -48l-103 -127l130 -169c18 -24 35 -42.167 51 -54.5s32.333 -20.166 49 -23.499v-22c-6 -2.66699 -14.833 -5 -26.5 -7s-23.167 -3 -34.5 -3
c-28.667 0 -55.167 6.16699 -79.5 18.5z" />
    <glyph glyph-name="l" unicode="l" horiz-adv-x="251" 
d="M69 534c0 34 -4.66699 59.167 -14 75.5s-28 24.5 -56 24.5h-14v26h108c24 0 42.333 -3.66699 55 -11s21.667 -19.833 27 -37.5s8 -43.5 8 -77.5v-534h-114v534z" />
    <glyph glyph-name="m" unicode="m" horiz-adv-x="809" 
d="M83 344c0 34 -4.66699 59.166 -14 75.499s-28 24.5 -56 24.5h-14v26h96c22 0 40 -3.16699 54 -9.5s24.333 -16.166 31 -29.499h4c14 13.333 32 24.833 54 34.5s46.667 14.5 74 14.5c30.667 0 57.5 -5.83301 80.5 -17.5s39.5 -26.5 49.5 -44.5
c36.667 41.333 85.334 62 146.001 62c51.333 0 90.833 -14.167 118.5 -42.5s41.5 -74.833 41.5 -139.5v-298h-113v298c0 89.333 -26.667 134 -80 134c-18 0 -35.833 -4.83301 -53.5 -14.5s-31.167 -21.167 -40.5 -34.5c7.33301 -16.667 11 -45 11 -85v-298h-113v298
c0 89.333 -26.667 134 -80 134c-14.667 0 -29.334 -4 -44.001 -12s-27.667 -17.667 -39 -29v-391h-113v344z" />
    <glyph glyph-name="n" unicode="n" horiz-adv-x="562" 
d="M83 344c0 34 -4.66602 59.167 -13.999 75.5s-28 24.5 -56 24.5h-14v26h96c23.333 0 41.5 -3 54.5 -9s22.833 -15.667 29.5 -29c36.667 32 84 48 142 48c57.333 0 101.833 -14.167 133.5 -42.5s47.5 -74.833 47.5 -139.5v-298h-113v298c0 46 -9.33301 79.833 -28 101.5
s-43 32.5 -73 32.5c-34.667 0 -65.334 -12 -92.001 -36v-396h-113v344z" />
    <glyph glyph-name="o" unicode="o" horiz-adv-x="543" 
d="M148 22.5c-34.667 21.667 -61.334 51 -80.001 88s-28 78.5 -28 124.5s9.33301 87.5 28 124.5s45.334 66.333 80.001 88s75.667 32.5 123 32.5s88.5 -10.833 123.5 -32.5s61.833 -51 80.5 -88s28 -78.5 28 -124.5s-9.33301 -87.5 -28 -124.5s-45.5 -66.333 -80.5 -88
s-76.167 -32.5 -123.5 -32.5s-88.333 10.833 -123 32.5zM354.5 89.5c20.333 37.667 30.5 86.167 30.5 145.5s-10.167 107.833 -30.5 145.5s-48.166 56.5 -83.499 56.5s-63 -18.833 -83 -56.5s-30 -86.167 -30 -145.5s10 -107.833 30 -145.5s47.667 -56.5 83 -56.5
s63.166 18.833 83.499 56.5z" />
    <glyph glyph-name="p" unicode="p" horiz-adv-x="555" 
d="M83 344c0 34 -4.66602 59.167 -13.999 75.5s-28 24.5 -56 24.5h-14v26h96c23.333 0 41.5 -3.33301 54.5 -10s22.833 -17.667 29.5 -33c38.667 35.333 84.667 53 138 53c63.333 0 112 -23 146 -69s51 -104.667 51 -176c0 -72 -17.333 -130.833 -52 -176.5
s-85.334 -68.5 -152.001 -68.5c-42.667 0 -80.667 10 -114 30v-210h-113v534zM370.001 87.5c17.333 36.333 26 85.5 26 147.5c0 61.333 -8.5 110.333 -25.5 147s-42.833 55 -77.5 55c-38.667 0 -71 -15 -97 -45v-329c32.667 -20 62.667 -30 90 -30
c38.667 0 66.667 18.167 84 54.5z" />
    <glyph glyph-name="q" unicode="q" horiz-adv-x="538" 
d="M359 20c-13.333 -8.66699 -29.999 -15.833 -49.999 -21.5s-41 -8.5 -63 -8.5c-66.667 0 -117.5 22.833 -152.5 68.5s-52.5 104.5 -52.5 176.5c0 71.333 17.167 130 51.5 176s83.166 69 146.499 69c29.333 0 54.333 -5.5 75 -16.5s36.667 -23.833 48 -38.5h5l35 45h71
v-660h-114v210zM359.001 63.001v311c-26.667 42 -58.667 63 -96 63c-35.333 0 -61.333 -18.333 -78 -55s-25 -85.667 -25 -147c0 -62 8.66699 -111.167 26 -147.5s45.333 -54.5 84 -54.5c28 0 57.667 10 89 30z" />
    </font>
</defs>
</svg>
