<?xml version="1.0" standalone="no"?>
<!DOCTYPE svg PUBLIC "-//W3C//DTD SVG 1.1//EN" "http://www.w3.org/Graphics/SVG/1.1/DTD/svg11.dtd" >
<svg>
<metadata>
Created by FontForge 20090914 at Wed Oct 12 12:50:36 2016
 By www-data
Copyright 2015 The El Messiri Project Authors.
</metadata>
<defs>
<font id="ElMessiri-Medium" horiz-adv-x="0" >
  <font-face 
    font-family="El Messiri Medium"
    font-weight="500"
    font-stretch="normal"
    units-per-em="1000"
    panose-1="0 0 6 0 0 0 0 0 0 0"
    ascent="800"
    descent="-200"
    x-height="470"
    cap-height="660"
    bbox="-168.003 -463.998 1370 994.997"
    underline-thickness="50"
    underline-position="-50"
    unicode-range="U+0020-U+FEFC"
  />
<missing-glyph horiz-adv-x="255" 
 />
    <glyph glyph-name="uniFEF5" unicode="&#xfedf;&#xfe82;" horiz-adv-x="655" arabic-form="isolated" 
d="M59 11.5c-6 7.66699 -9.00195 17.1689 -9.00195 28.502c0 10.667 3 19.834 9 27.501s14.333 11.5 25 11.5h130v292c0 29.333 -5.33301 53.166 -16 71.499s-23 31.833 -37 40.5c3.33301 7.33301 11.5 15.166 24.5 23.499s27.833 12.5 44.5 12.5c24 0 44 -9.16699 60 -27.5
s24 -46.833 24 -85.5v-327h98c24.667 0 43.834 10.333 57.501 31s20.5 45.334 20.5 74.001v328c0 29.333 -5.33301 53.166 -16 71.499s-23 31.833 -37 40.5c3.33301 7.33301 11.5 15.166 24.5 23.499s27.833 12.5 44.5 12.5c24 0 44 -9.16699 60 -27.5s24 -46.833 24 -85.5
v-362c-0.666992 -59.333 -14.667 -105 -42 -137s-62.666 -48 -105.999 -48h-359c-10 -0 -18 3.83301 -24 11.5zM249.998 576.002c-12.667 4 -28.001 10 -46.001 18c-16 6.66699 -28.833 11.667 -38.5 15s-19.834 5 -30.501 5c-12 0 -22.333 -2.66699 -31 -8
s-14.667 -8 -18 -8s-5 2.66699 -5 8c0 7.33301 3 16 9 26s15.333 18.667 28 26s28.334 11 47.001 11c13.333 0 26.166 -1.66699 38.499 -5s26.5 -8.33301 42.5 -15c30.667 -12.667 55 -19 73 -19c9.33301 0 16.833 1 22.5 3s11.834 5 18.501 9s12.334 6 17.001 6
c4 -0.666992 4 -8 0 -22s-12.833 -26.833 -26.5 -38.5s-33.167 -17.5 -58.5 -17.5c-15.333 0 -29.333 2 -42 6z" />
    <glyph glyph-name="uniFEF6" unicode="&#xfee0;&#xfe82;" horiz-adv-x="702" arabic-form="final" 
d="M702 79l-0.00195312 -78.999h-83c-39.333 0 -70.666 8.66699 -93.999 26h1c-24.667 -17.333 -52.667 -26 -84 -26h-359c-10 0 -18 3.83301 -24 11.5s-9 17.167 -9 28.5c0 10.667 3 19.834 9 27.501s14.333 11.5 25 11.5h130v292c0 29.333 -5.33301 53.166 -16 71.499
s-23 31.833 -37 40.5c3.33301 7.33301 11.5 15.166 24.5 23.499s27.833 12.5 44.5 12.5c24 0 44 -9.16699 60 -27.5s24 -46.833 24 -85.5v-327h98c24.667 0 43.834 10.333 57.501 31s20.5 45.334 20.5 74.001v328c0 29.333 -5.33301 53.166 -16 71.499s-23 31.833 -37 40.5
c3.33301 7.33301 11.5 15.166 24.5 23.499s27.833 12.5 44.5 12.5c24 0 44 -9.16699 60 -27.5s24 -46.833 24 -85.5v-362c0 -41.333 -7.33301 -76.666 -22 -105.999h134zM250.998 576.001c-12.667 4 -28.001 10 -46.001 18c-16 6.66699 -28.833 11.667 -38.5 15
s-19.834 5 -30.501 5c-12 0 -22.333 -2.66699 -31 -8s-14.667 -8 -18 -8s-5 2.66699 -5 8c0 7.33301 3 16 9 26s15.333 18.667 28 26s28.334 11 47.001 11c13.333 0 26.166 -1.66699 38.499 -5s26.5 -8.33301 42.5 -15c30.667 -12.667 55 -19 73 -19
c9.33301 0 16.833 1 22.5 3s11.834 5 18.501 9s12.334 6 17.001 6c4 -0.666992 4 -8 0 -22s-12.833 -26.833 -26.5 -38.5s-33.167 -17.5 -58.5 -17.5c-15.333 0 -29.333 2 -42 6z" />
    <glyph glyph-name="uniFEF7" unicode="&#xfedf;&#xfe84;" horiz-adv-x="655" arabic-form="isolated" 
d="M59 11.5c-6 7.66699 -9.00195 17.1689 -9.00195 28.502c0 10.667 3 19.834 9 27.501s14.333 11.5 25 11.5h130v292c0 29.333 -5.33301 53.166 -16 71.499s-23 31.833 -37 40.5c3.33301 7.33301 11.5 15.166 24.5 23.499s27.833 12.5 44.5 12.5c24 0 44 -9.16699 60 -27.5
s24 -46.833 24 -85.5v-327h98c24.667 0 43.834 10.333 57.501 31s20.5 45.334 20.5 74.001v328c0 29.333 -5.33301 53.166 -16 71.499s-23 31.833 -37 40.5c3.33301 7.33301 11.5 15.166 24.5 23.499s27.833 12.5 44.5 12.5c24 0 44 -9.16699 60 -27.5s24 -46.833 24 -85.5
v-362c-0.666992 -59.333 -14.667 -105 -42 -137s-62.666 -48 -105.999 -48h-359c-10 -0 -18 3.83301 -24 11.5zM128.998 592.002c0 8 2.99902 14.8311 8.99902 20.498s14 8.5 24 8.5c5.33301 0 9.33301 -0.333008 12 -1c-8.66699 8 -16.667 19.167 -24 33.5
s-11 29.833 -11 46.5c0 26.667 9.5 49 28.5 67s45.167 27 78.5 27c42.667 0 64 -14 64 -42c0 -11.333 -3 -19.666 -9 -24.999s-13 -8 -21 -8c-6 0 -11.333 1.66699 -16 5c0.666992 10.667 -2.83301 19.834 -10.5 27.501s-16.5 12.167 -26.5 13.5
c-6.66699 -2.66699 -13 -9 -19 -19s-9 -22.667 -9 -38c0 -26.667 7.83301 -45.5 23.5 -56.5s33.834 -16.5 54.501 -16.5c7.33301 0 19 1.33301 35 4c7.33301 0 12.833 -2 16.5 -6s5.5 -9 5.5 -15c0 -5.33301 -1.16699 -10 -3.5 -14s-5.16602 -6 -8.49902 -6
c-116.667 -10 -177.334 -20 -182.001 -30c-7.33301 7.33301 -11 15.333 -11 24z" />
    <glyph glyph-name="uniFEF8" unicode="&#xfee0;&#xfe84;" horiz-adv-x="702" arabic-form="final" 
d="M702 79l-0.00195312 -78.999h-83c-39.333 0 -70.666 8.66699 -93.999 26h1c-24.667 -17.333 -52.667 -26 -84 -26h-359c-10 0 -18 3.83301 -24 11.5s-9 17.167 -9 28.5c0 10.667 3 19.834 9 27.501s14.333 11.5 25 11.5h130v292c0 29.333 -5.33301 53.166 -16 71.499
s-23 31.833 -37 40.5c3.33301 7.33301 11.5 15.166 24.5 23.499s27.833 12.5 44.5 12.5c24 0 44 -9.16699 60 -27.5s24 -46.833 24 -85.5v-327h98c24.667 0 43.834 10.333 57.501 31s20.5 45.334 20.5 74.001v328c0 29.333 -5.33301 53.166 -16 71.499s-23 31.833 -37 40.5
c3.33301 7.33301 11.5 15.166 24.5 23.499s27.833 12.5 44.5 12.5c24 0 44 -9.16699 60 -27.5s24 -46.833 24 -85.5v-362c0 -41.333 -7.33301 -76.666 -22 -105.999h134zM128.998 592.001c0 8 2.99902 14.8311 8.99902 20.498s14 8.5 24 8.5
c5.33301 0 9.33301 -0.333008 12 -1c-8.66699 8 -16.667 19.167 -24 33.5s-11 29.833 -11 46.5c0 26.667 9.5 49 28.5 67s45.167 27 78.5 27c42.667 0 64 -14 64 -42c0 -11.333 -3 -19.666 -9 -24.999s-13 -8 -21 -8c-6 0 -11.333 1.66699 -16 5
c0.666992 10.667 -2.83301 19.834 -10.5 27.501s-16.5 12.167 -26.5 13.5c-6.66699 -2.66699 -13 -9 -19 -19s-9 -22.667 -9 -38c0 -26.667 7.83301 -45.5 23.5 -56.5s33.834 -16.5 54.501 -16.5c7.33301 0 19 1.33301 35 4c7.33301 0 12.833 -2 16.5 -6s5.5 -9 5.5 -15
c0 -5.33301 -1.16699 -10 -3.5 -14s-5.16602 -6 -8.49902 -6c-116.667 -10 -177.334 -20 -182.001 -30c-7.33301 7.33301 -11 15.333 -11 24z" />
    <glyph glyph-name="uniFEF9" unicode="&#xfedf;&#xfe88;" horiz-adv-x="655" arabic-form="isolated" 
d="M59 11.5c-6 7.66699 -9.00195 17.1689 -9.00195 28.502c0 10.667 3 19.834 9 27.501s14.333 11.5 25 11.5h130v292c0 29.333 -5.33301 53.166 -16 71.499s-23 31.833 -37 40.5c3.33301 7.33301 11.5 15.166 24.5 23.499s27.833 12.5 44.5 12.5c24 0 44 -9.16699 60 -27.5
s24 -46.833 24 -85.5v-327h98c24.667 0 43.834 10.333 57.501 31s20.5 45.334 20.5 74.001v328c0 29.333 -5.33301 53.166 -16 71.499s-23 31.833 -37 40.5c3.33301 7.33301 11.5 15.166 24.5 23.499s27.833 12.5 44.5 12.5c24 0 44 -9.16699 60 -27.5s24 -46.833 24 -85.5
v-362c-0.666992 -59.333 -14.667 -105 -42 -137s-62.666 -48 -105.999 -48h-359c-10 -0 -18 3.83301 -24 11.5zM150.998 -250.998c0 7.33301 2.99902 13.667 8.99902 19s14 8 24 8c5.33301 0 9.33301 -0.333008 12 -1c-9.33301 8.66699 -17.5 20 -24.5 34
s-10.5 29.333 -10.5 46c0 26.667 9.5 49.167 28.5 67.5s45.5 27.5 79.5 27.5c24 0 40.667 -4.16699 50 -12.5s14 -18.5 14 -30.5c0 -11.333 -3 -19.5 -9 -24.5s-13.333 -7.5 -22 -7.5c-7.33301 0 -12.666 1.33301 -15.999 4c0.666992 11.333 -2.66602 20.833 -9.99902 28.5
s-16 12.167 -26 13.5c-7.33301 -2.66699 -13.833 -9 -19.5 -19s-8.5 -22.667 -8.5 -38c0 -26.667 7.66699 -45.5 23 -56.5s33.666 -16.5 54.999 -16.5c7.33301 0 19 1.33301 35 4c7.33301 0 12.833 -2 16.5 -6s5.5 -9 5.5 -15c0 -5.33301 -1.33301 -10 -4 -14
s-5.66699 -6 -9 -6c-116 -10 -176.333 -20 -181 -30c-8 8 -12 16.333 -12 25z" />
    <glyph glyph-name="uniFEFA" unicode="&#xfee0;&#xfe88;" horiz-adv-x="702" arabic-form="final" 
d="M702 79l-0.00195312 -78.999h-83c-39.333 0 -70.666 8.66699 -93.999 26h1c-24.667 -17.333 -52.667 -26 -84 -26h-359c-10 0 -18 3.83301 -24 11.5s-9 17.167 -9 28.5c0 10.667 3 19.834 9 27.501s14.333 11.5 25 11.5h130v292c0 29.333 -5.33301 53.166 -16 71.499
s-23 31.833 -37 40.5c3.33301 7.33301 11.5 15.166 24.5 23.499s27.833 12.5 44.5 12.5c24 0 44 -9.16699 60 -27.5s24 -46.833 24 -85.5v-327h98c24.667 0 43.834 10.333 57.501 31s20.5 45.334 20.5 74.001v328c0 29.333 -5.33301 53.166 -16 71.499s-23 31.833 -37 40.5
c3.33301 7.33301 11.5 15.166 24.5 23.499s27.833 12.5 44.5 12.5c24 0 44 -9.16699 60 -27.5s24 -46.833 24 -85.5v-362c0 -41.333 -7.33301 -76.666 -22 -105.999h134zM150.998 -250.999c0 7.33301 2.99902 13.667 8.99902 19s14 8 24 8
c5.33301 0 9.33301 -0.333008 12 -1c-9.33301 8.66699 -17.5 20 -24.5 34s-10.5 29.333 -10.5 46c0 26.667 9.5 49.167 28.5 67.5s45.5 27.5 79.5 27.5c24 0 40.667 -4.16699 50 -12.5s14 -18.5 14 -30.5c0 -11.333 -3 -19.5 -9 -24.5s-13.333 -7.5 -22 -7.5
c-7.33301 0 -12.666 1.33301 -15.999 4c0.666992 11.333 -2.66602 20.833 -9.99902 28.5s-16 12.167 -26 13.5c-7.33301 -2.66699 -13.833 -9 -19.5 -19s-8.5 -22.667 -8.5 -38c0 -26.667 7.66699 -45.5 23 -56.5s33.666 -16.5 54.999 -16.5c7.33301 0 19 1.33301 35 4
c7.33301 0 12.833 -2 16.5 -6s5.5 -9 5.5 -15c0 -5.33301 -1.33301 -10 -4 -14s-5.66699 -6 -9 -6c-116 -10 -176.333 -20 -181 -30c-8 8 -12 16.333 -12 25z" />
    <glyph glyph-name="uniFEFB" unicode="&#xfedf;&#xfe8e;" horiz-adv-x="655" arabic-form="isolated" 
d="M59 11.5c-6 7.66699 -9.00195 17.1689 -9.00195 28.502c0 10.667 3 19.834 9 27.501s14.333 11.5 25 11.5h130v292c0 29.333 -5.33301 53.166 -16 71.499s-23 31.833 -37 40.5c3.33301 7.33301 11.5 15.166 24.5 23.499s27.833 12.5 44.5 12.5c24 0 44 -9.16699 60 -27.5
s24 -46.833 24 -85.5v-327h98c24.667 0 43.834 10.333 57.501 31s20.5 45.334 20.5 74.001v328c0 29.333 -5.33301 53.166 -16 71.499s-23 31.833 -37 40.5c3.33301 7.33301 11.5 15.166 24.5 23.499s27.833 12.5 44.5 12.5c24 0 44 -9.16699 60 -27.5s24 -46.833 24 -85.5
v-362c-0.666992 -59.333 -14.667 -105 -42 -137s-62.666 -48 -105.999 -48h-359c-10 -0 -18 3.83301 -24 11.5z" />
    <glyph glyph-name="uniFEFC" unicode="&#xfee0;&#xfe8e;" horiz-adv-x="702" arabic-form="final" 
d="M702 79l-0.00195312 -78.999h-83c-39.333 0 -70.666 8.66699 -93.999 26h1c-24.667 -17.333 -52.667 -26 -84 -26h-359c-10 0 -18 3.83301 -24 11.5s-9 17.167 -9 28.5c0 10.667 3 19.834 9 27.501s14.333 11.5 25 11.5h130v292c0 29.333 -5.33301 53.166 -16 71.499
s-23 31.833 -37 40.5c3.33301 7.33301 11.5 15.166 24.5 23.499s27.833 12.5 44.5 12.5c24 0 44 -9.16699 60 -27.5s24 -46.833 24 -85.5v-327h98c24.667 0 43.834 10.333 57.501 31s20.5 45.334 20.5 74.001v328c0 29.333 -5.33301 53.166 -16 71.499s-23 31.833 -37 40.5
c3.33301 7.33301 11.5 15.166 24.5 23.499s27.833 12.5 44.5 12.5c24 0 44 -9.16699 60 -27.5s24 -46.833 24 -85.5v-362c0 -41.333 -7.33301 -76.666 -22 -105.999h134z" />
    <glyph glyph-name="uni06440671" unicode="&#xfedf;&#xfb51;" horiz-adv-x="655" 
d="M59 11.5c-6 7.66699 -9.00195 17.1689 -9.00195 28.502c0 10.667 3 19.834 9 27.501s14.333 11.5 25 11.5h130v292c0 29.333 -5.33301 53.166 -16 71.499s-23 31.833 -37 40.5c3.33301 7.33301 11.5 15.166 24.5 23.499s27.833 12.5 44.5 12.5c24 0 44 -9.16699 60 -27.5
s24 -46.833 24 -85.5v-327h98c24.667 0 43.834 10.333 57.501 31s20.5 45.334 20.5 74.001v328c0 29.333 -5.33301 53.166 -16 71.499s-23 31.833 -37 40.5c3.33301 7.33301 11.5 15.166 24.5 23.499s27.833 12.5 44.5 12.5c24 0 44 -9.16699 60 -27.5s24 -46.833 24 -85.5
v-362c-0.666992 -59.333 -14.667 -105 -42 -137s-62.666 -48 -105.999 -48h-359c-10 -0 -18 3.83301 -24 11.5zM121.998 587.002c0 13.333 2.66699 19.999 8 19.999h24c0 6 3.83301 17 11.5 33s19.5 31 35.5 45s36.667 21 62 21c24 0 42.833 -7.16699 56.5 -21.5
s20.5 -33.166 20.5 -56.499c0 -19.333 -4.66699 -34.333 -14 -45s-21.333 -16 -36 -16h-160c-5.33301 0 -8 6.66699 -8 20zM266.998 607.001c14 0 20.999 8.99902 20.999 26.999c0 10.667 -3.16699 19.334 -9.5 26.001s-15.833 10 -28.5 10
c-13.333 0 -25.666 -3.5 -36.999 -10.5s-20.333 -15.5 -27 -25.5s-10 -19 -10 -27h91z" />
    <glyph glyph-name="uni06440671.fina" unicode="&#xfee0;&#xfb51;" horiz-adv-x="702" 
d="M702 79l-0.00195312 -78.999h-83c-39.333 0 -70.666 8.66699 -93.999 26h1c-24.667 -17.333 -52.667 -26 -84 -26h-359c-10 0 -18 3.83301 -24 11.5s-9 17.167 -9 28.5c0 10.667 3 19.834 9 27.501s14.333 11.5 25 11.5h130v292c0 29.333 -5.33301 53.166 -16 71.499
s-23 31.833 -37 40.5c3.33301 7.33301 11.5 15.166 24.5 23.499s27.833 12.5 44.5 12.5c24 0 44 -9.16699 60 -27.5s24 -46.833 24 -85.5v-327h98c24.667 0 43.834 10.333 57.501 31s20.5 45.334 20.5 74.001v328c0 29.333 -5.33301 53.166 -16 71.499s-23 31.833 -37 40.5
c3.33301 7.33301 11.5 15.166 24.5 23.499s27.833 12.5 44.5 12.5c24 0 44 -9.16699 60 -27.5s24 -46.833 24 -85.5v-362c0 -41.333 -7.33301 -76.666 -22 -105.999h134zM121.998 587.001c0 13.333 2.66699 19.999 8 19.999h24c0 6 3.83301 17 11.5 33s19.5 31 35.5 45
s36.667 21 62 21c24 0 42.833 -7.16699 56.5 -21.5s20.5 -33.166 20.5 -56.499c0 -19.333 -4.66699 -34.333 -14 -45s-21.333 -16 -36 -16h-160c-5.33301 0 -8 6.66699 -8 20zM266.998 607c14 0 20.999 8.99902 20.999 26.999c0 10.667 -3.16699 19.334 -9.5 26.001
s-15.833 10 -28.5 10c-13.333 0 -25.666 -3.5 -36.999 -10.5s-20.333 -15.5 -27 -25.5s-10 -19 -10 -27h91z" />
    <glyph glyph-name="uni066E.init" unicode="&#x66e;" horiz-adv-x="338" 
d="M0 79h73.998c38.667 0 64.834 17.333 78.501 52s20.5 72.667 20.5 114c0 42 -5.66699 80 -17 114s-32.666 64 -63.999 90c14 20.667 34.667 31 62 31c40.667 0 70.667 -19.833 90 -59.5s29 -88.5 29 -146.5c0 -74.667 -16 -139 -48 -193s-84 -81 -156 -81h-69v79z" />
    <glyph glyph-name="uni066E.medi" unicode="&#x66e;" horiz-adv-x="338" 
d="M338 79v-79h-107c-38 -0 -69.667 9.33301 -95 28c-26 -16.667 -54.333 -26 -85 -28h-51v79h51c22.667 0.666992 44 6.33398 64 17.001v333c0 34 16.667 51 50 51c16 0 28.333 -4.33301 37 -13s13 -21.334 13 -38.001v-272c0 -52 10.333 -78 31 -78h92z" />
    <glyph glyph-name="uni066E.fina" unicode="&#x66e;" horiz-adv-x="815" 
d="M815 79l-0.000976562 -79h-119c-21.333 -0 -39.5 2.33301 -54.5 7s-28.833 11.667 -41.5 21c-29.333 -18.667 -64 -28 -104 -28h-301c-44.667 -0 -77.5 12.833 -98.5 38.5s-31.5 59.5 -31.5 101.5v240c0 15.333 4.5 27.333 13.5 36s21.167 13 36.5 13
c16 0 28.333 -4.33301 37 -13s13 -21.334 13 -38.001v-208c0 -33.333 5.33301 -56.833 16 -70.5s29.667 -20.5 57 -20.5h263c38.667 0 64.834 18.167 78.501 54.5s20.5 73.5 20.5 111.5c0 42.667 -5.5 80.834 -16.5 114.501s-32.167 63.5 -63.5 89.5
c4.66699 8 12 15.167 22 21.5s23.333 9.5 40 9.5c40.667 0 70.667 -19.833 90 -59.5s29 -88.5 29 -146.5c0 -36.667 -4 -72 -12 -106s-20.667 -63.667 -38 -89h164z" />
    <glyph glyph-name="uni066F.init" unicode="&#x66f;" horiz-adv-x="535" 
d="M386 464c27.333 -10.667 48.168 -31.332 62.501 -61.999s21.5 -74.667 21.5 -132v-130c0 -42 -10.5 -75.833 -31.5 -101.5s-53.833 -38.5 -98.5 -38.5h-340v79h123c-28 44.667 -42 101.667 -42 171c0 65.333 8.5 114.666 25.5 147.999s39.333 55.333 67 66
s62.167 16 103.5 16c45.333 0 81.666 -5.33301 108.999 -16zM370.002 304.002c0 65.333 -27.667 97.999 -83 97.999c-34 0 -60.167 -12.833 -78.5 -38.5s-27.5 -63.5 -27.5 -113.5c0 -39.333 6.66699 -77.666 20 -114.999s39 -56 77 -56h19c27.333 0 46.333 6.83301 57 20.5
s16 37.167 16 70.5v134z" />
    <glyph glyph-name="uni066F.medi" unicode="&#x66f;" horiz-adv-x="560" 
d="M560 79l0.00195312 -78.998h-100c-24.667 0 -45.667 3 -63 9c-16 -6 -35 -9 -57 -9h-340v79h123c-28 44.667 -42 101.667 -42 171c0 65.333 8.5 114.666 25.5 147.999s39.333 55.333 67 66s62.167 16 103.5 16c45.333 0 81.666 -5.33301 108.999 -16
s48.166 -31.334 62.499 -62.001s21.5 -74.667 21.5 -132v-130c0 -24.667 -3 -45 -9 -61h99zM354.002 99.502c10.667 13.667 16 37.166 16 70.499v134c0 65.333 -27.667 98 -83 98c-34 0 -60.167 -12.833 -78.5 -38.5s-27.5 -63.5 -27.5 -113.5
c0 -39.333 6.66699 -77.666 20 -114.999s39 -56 77 -56h19c27.333 0 46.333 6.83301 57 20.5z" />
    <glyph glyph-name="uni066F.fina" unicode="&#x66f;" horiz-adv-x="908" 
d="M908 0h-95.9971c-21.333 -157.333 -142.333 -236 -363 -236c-150 0 -251.5 29.833 -304.5 89.5s-79.5 129.5 -79.5 209.5c0 56.667 9.16699 103.334 27.5 140.001s45.5 55 81.5 55c14 0 25.667 -2.5 35 -7.5s15.666 -10.833 18.999 -17.5
c-18 -14.667 -32.833 -39.334 -44.5 -74.001s-17.5 -72.334 -17.5 -113.001c0 -62 21.167 -111.333 63.5 -148s115.5 -55 219.5 -55c90.667 0 155 14 193 42s60 66.333 66 115h-111c-60.667 0 -104.5 23.333 -131.5 70s-40.5 108.334 -40.5 185.001
c0 62 8.16699 109.333 24.5 142s39 54.667 68 66s65.833 17 110.5 17c43.333 0 78.166 -5.33301 104.499 -16s46.666 -31.667 60.999 -63s21.5 -77 21.5 -137v-185h93v-79zM549.503 133c15.667 -36 47.167 -54.001 94.5 -54.001h70v225c0 64.667 -27.667 97 -83 97
c-34 0 -60 -13.167 -78 -39.5s-27 -65.166 -27 -116.499c0 -38.667 7.83301 -76 23.5 -112z" />
    <glyph glyph-name="uni06A1.init" unicode="&#x6a1;" horiz-adv-x="535" 
d="M386 464c27.333 -10.667 48.168 -31.332 62.501 -61.999s21.5 -74.667 21.5 -132v-130c0 -42 -10.5 -75.833 -31.5 -101.5s-53.833 -38.5 -98.5 -38.5h-340v79h123c-28 44.667 -42 101.667 -42 171c0 65.333 8.5 114.666 25.5 147.999s39.333 55.333 67 66
s62.167 16 103.5 16c45.333 0 81.666 -5.33301 108.999 -16zM370.002 304.002c0 65.333 -27.667 97.999 -83 97.999c-34 0 -60.167 -12.833 -78.5 -38.5s-27.5 -63.5 -27.5 -113.5c0 -39.333 6.66699 -77.666 20 -114.999s39 -56 77 -56h19c27.333 0 46.333 6.83301 57 20.5
s16 37.167 16 70.5v134z" />
    <glyph glyph-name="uni06A1.medi" unicode="&#x6a1;" horiz-adv-x="560" 
d="M560 79l0.00195312 -78.998h-100c-24.667 0 -45.667 3 -63 9c-16 -6 -35 -9 -57 -9h-340v79h123c-28 44.667 -42 101.667 -42 171c0 65.333 8.5 114.666 25.5 147.999s39.333 55.333 67 66s62.167 16 103.5 16c45.333 0 81.666 -5.33301 108.999 -16
s48.166 -31.334 62.499 -62.001s21.5 -74.667 21.5 -132v-130c0 -24.667 -3 -45 -9 -61h99zM354.002 99.502c10.667 13.667 16 37.166 16 70.499v134c0 65.333 -27.667 98 -83 98c-34 0 -60.167 -12.833 -78.5 -38.5s-27.5 -63.5 -27.5 -113.5
c0 -39.333 6.66699 -77.666 20 -114.999s39 -56 77 -56h19c27.333 0 46.333 6.83301 57 20.5z" />
    <glyph glyph-name="uni06A1.fina" unicode="&#x6a1;" horiz-adv-x="989" 
d="M989 79l0.00292969 -79h-99c-26.667 -0 -48 3.33301 -64 10c-15.333 -6.66699 -34 -10 -56 -10h-509c-62.667 -0 -111 19.333 -145 58s-51 89.334 -51 152.001c0 50 10.167 91 30.5 123s46.166 48 77.499 48c22.667 0 41.334 -9.66699 56.001 -29
c-17.333 -11.333 -32.333 -30.5 -45 -57.5s-19 -59.833 -19 -98.5c0 -48 10.667 -79.5 32 -94.5s47.666 -22.5 78.999 -22.5h276c-28 44.667 -42 101.667 -42 171c0 65.333 8.5 114.666 25.5 147.999s39.5 55.333 67.5 66s62.667 16 104 16
c45.333 0 81.666 -5.33301 108.999 -16s48.166 -31.334 62.499 -62.001s21.5 -74.667 21.5 -132v-130c0 -21.333 -3 -41.666 -9 -60.999h98zM783.503 99.5c10.333 13.667 15.501 37.168 15.501 70.501v134c0 65.333 -27.333 98 -82 98
c-34.667 0 -61.167 -12.833 -79.5 -38.5s-27.5 -63.5 -27.5 -113.5c0 -36.667 6.83301 -74.334 20.5 -113.001s39.167 -58 76.5 -58h20c27.333 0 46.166 6.83301 56.499 20.5z" />
    <glyph glyph-name="uni06BA.init" unicode="&#x6ba;" horiz-adv-x="338" 
d="M0 79h73.998c38.667 0 64.834 17.333 78.501 52s20.5 72.667 20.5 114c0 42 -5.66699 80 -17 114s-32.666 64 -63.999 90c14 20.667 34.667 31 62 31c40.667 0 70.667 -19.833 90 -59.5s29 -88.5 29 -146.5c0 -74.667 -16 -139 -48 -193s-84 -81 -156 -81h-69v79z" />
    <glyph glyph-name="uni06BA.medi" unicode="&#x6ba;" horiz-adv-x="338" 
d="M338 79v-79h-107c-38 -0 -69.667 9.33301 -95 28c-26 -16.667 -54.333 -26 -85 -28h-51v79h51c22.667 0.666992 44 6.33398 64 17.001v333c0 34 16.667 51 50 51c16 0 28.333 -4.33301 37 -13s13 -21.334 13 -38.001v-272c0 -52 10.333 -78 31 -78h92z" />
    <glyph glyph-name="uni06C2.init" unicode="&#x6c2;" horiz-adv-x="338" 
d="M0 79h73.998c38.667 0 64.834 17.333 78.501 52s20.5 72.667 20.5 114c0 42 -5.66699 80 -17 114s-32.666 64 -63.999 90c14 20.667 34.667 31 62 31c40.667 0 70.667 -19.833 90 -59.5s29 -88.5 29 -146.5c0 -74.667 -16 -139 -48 -193s-84 -81 -156 -81h-69v79z
M100.498 -273.5c-11.667 13 -17.501 30.501 -17.501 52.501c0 41.333 9.16699 77.166 27.5 107.499s46.5 56.5 84.5 78.5l12 -17c-25.333 -18 -45.166 -37.5 -59.499 -58.5s-21.5 -45.5 -21.5 -73.5l26 8c16.667 0 30.334 -5.33301 41.001 -16s16 -24.334 16 -41.001
c0 -17.333 -5.5 -31.666 -16.5 -42.999s-25.5 -17 -43.5 -17c-20.667 0 -36.834 6.5 -48.501 19.5zM10.9971 580.001c0 8 2.99902 14.8311 8.99902 20.498s14 8.5 24 8.5c5.33301 0 9.33301 -0.333008 12 -1c-8.66699 8 -16.667 19.167 -24 33.5s-11 29.833 -11 46.5
c0 26.667 9.5 49 28.5 67s45.167 27 78.5 27c42.667 0 64 -14 64 -42c0 -11.333 -3 -19.666 -9 -24.999s-13 -8 -21 -8c-6 0 -11.333 1.66699 -16 5c0.666992 10.667 -2.83301 19.834 -10.5 27.501s-16.5 12.167 -26.5 13.5c-6.66699 -2.66699 -13 -9 -19 -19
s-9 -22.667 -9 -38c0 -26.667 7.83301 -45.5 23.5 -56.5s33.834 -16.5 54.501 -16.5c7.33301 0 19 1.33301 35 4c7.33301 0 12.833 -2 16.5 -6s5.5 -9 5.5 -15c0 -5.33301 -1.16699 -10 -3.5 -14s-5.16602 -6 -8.49902 -6c-116.667 -10 -177.334 -20 -182.001 -30
c-7.33301 7.33301 -11 15.333 -11 24z" />
    <glyph glyph-name="uni06C2.medi" unicode="&#x6c2;" horiz-adv-x="480" 
d="M480 0l-70.999 0.000976562v-222c0 -8 -2.83301 -14.667 -8.5 -20s-12.5 -8 -20.5 -8c-108 0 -189.833 21.333 -245.5 64s-83.5 104.667 -83.5 186h-51v79h114c8 0 14.667 -2.66699 20 -8s8 -12 8 -20c1.33301 -40.667 4.5 -74.834 9.5 -102.501s19.667 -53.667 44 -78
s62.166 -36.5 113.499 -36.5v217c0 8 2.83301 14.667 8.5 20s12.167 8 19.5 8h143v-79zM136.001 368.001c0 8 2.99902 14.8311 8.99902 20.498s14 8.5 24 8.5c5.33301 0 9.33301 -0.333008 12 -1c-8.66699 8 -16.667 19.167 -24 33.5s-11 29.833 -11 46.5
c0 26.667 9.5 49 28.5 67s45.167 27 78.5 27c42.667 0 64 -14 64 -42c0 -11.333 -3 -19.666 -9 -24.999s-13 -8 -21 -8c-6 0 -11.333 1.66699 -16 5c0.666992 10.667 -2.83301 19.834 -10.5 27.501s-16.5 12.167 -26.5 13.5c-6.66699 -2.66699 -13 -9 -19 -19
s-9 -22.667 -9 -38c0 -26.667 7.83301 -45.5 23.5 -56.5s33.834 -16.5 54.501 -16.5c7.33301 0 19 1.33301 35 4c7.33301 0 12.833 -2 16.5 -6s5.5 -9 5.5 -15c0 -5.33301 -1.16699 -10 -3.5 -14s-5.16602 -6 -8.49902 -6c-116.667 -10 -177.334 -20 -182.001 -30
c-7.33301 7.33301 -11 15.333 -11 24z" />
    <glyph glyph-name="uni06C2.fina" unicode="&#x6c2;" horiz-adv-x="517" 
d="M517 79v-79.001h-81c-33.333 0 -61.333 6.66699 -84 20c-28 -14.667 -62 -22 -102 -22c-65.333 0 -112.5 19.167 -141.5 57.5s-43.5 98.5 -43.5 180.5c0 66.667 8.5 117.834 25.5 153.501s39.833 59.667 68.5 72s64 18.5 106 18.5c61.333 0 107.833 -13 139.5 -39
s47.5 -73.667 47.5 -143v-219h65zM186 129.999c14 -34 44 -50.998 90 -50.998h75v223c0 35.333 -7.83301 60.666 -23.5 75.999s-36.167 23 -61.5 23c-34 0 -59.333 -13.333 -76 -40s-25 -67.334 -25 -122.001c0 -38.667 7 -75 21 -109zM157 567.001
c0 8 2.99902 14.8311 8.99902 20.498s14 8.5 24 8.5c5.33301 0 9.33301 -0.333008 12 -1c-8.66699 8 -16.667 19.167 -24 33.5s-11 29.833 -11 46.5c0 26.667 9.5 49 28.5 67s45.167 27 78.5 27c42.667 0 64 -14 64 -42c0 -11.333 -3 -19.666 -9 -24.999s-13 -8 -21 -8
c-6 0 -11.333 1.66699 -16 5c0.666992 10.667 -2.83301 19.834 -10.5 27.501s-16.5 12.167 -26.5 13.5c-6.66699 -2.66699 -13 -9 -19 -19s-9 -22.667 -9 -38c0 -26.667 7.83301 -45.5 23.5 -56.5s33.834 -16.5 54.501 -16.5c7.33301 0 19 1.33301 35 4
c7.33301 0 12.833 -2 16.5 -6s5.5 -9 5.5 -15c0 -5.33301 -1.16699 -10 -3.5 -14s-5.16602 -6 -8.49902 -6c-116.667 -10 -177.334 -20 -182.001 -30c-7.33301 7.33301 -11 15.333 -11 24z" />
    <glyph glyph-name="uni06C3.fina" unicode="&#x6c3;" horiz-adv-x="660" 
d="M660 79l-0.000976562 -78.999h-163c-9.33301 0 -17.333 3.16699 -24 9.5s-10 14.166 -10 23.499v367c-60 -4.66699 -112.667 -27.334 -158 -68.001s-80 -91.167 -104 -151.5s-36 -120.5 -36 -180.5h-100c0 91.333 18.833 173.333 56.5 246s91.167 129.834 160.5 171.501
s150 62.5 242 62.5c12.667 0 22.334 -3 29.001 -9s10 -14.333 10 -25v-367h97zM235.499 563.501c-11.667 11.667 -17.5 25.5 -17.5 41.5c0 16.667 5.83301 30.834 17.5 42.501s25.5 17.5 41.5 17.5c16.667 0 30.667 -5.83301 42 -17.5s17 -25.834 17 -42.501
c0 -16 -5.66699 -29.833 -17 -41.5s-25.333 -17.5 -42 -17.5c-16 0 -29.833 5.83301 -41.5 17.5zM385.499 563.501c-11.667 11.667 -17.5 25.5 -17.5 41.5c0 16.667 5.83301 30.834 17.5 42.501s25.5 17.5 41.5 17.5c16.667 0 30.667 -5.83301 42 -17.5
s17 -25.834 17 -42.501c0 -16 -5.66699 -29.833 -17 -41.5s-25.333 -17.5 -42 -17.5c-16 0 -29.833 5.83301 -41.5 17.5z" />
    <glyph glyph-name="uniFB51" unicode="&#x671;" horiz-adv-x="316" arabic-form="final" 
d="M144 48c-27.333 32 -41 78.002 -41 138.002v265c0 29.333 -5.33301 53.166 -16 71.499s-23 31.833 -37 40.5c3.33301 7.33301 11.5 15.166 24.5 23.499s28.167 12.5 45.5 12.5c24 0 43.833 -9.16699 59.5 -27.5s23.5 -46.833 23.5 -85.5v-303
c0 -28 6.66699 -52.333 20 -73s32.333 -31 57 -31h36v-79h-67c-42.667 0 -77.667 16 -105 48zM11 657.002c0 13.333 2.66699 19.999 8 19.999h24c0 6 3.83301 17 11.5 33s19.5 31 35.5 45s36.667 21 62 21c24 0 42.833 -7.16699 56.5 -21.5s20.5 -33.166 20.5 -56.499
c0 -19.333 -4.66699 -34.333 -14 -45s-21.333 -16 -36 -16h-160c-5.33301 0 -8 6.66699 -8 20zM156 677.001c14 0 20.999 8.99902 20.999 26.999c0 10.667 -3.16699 19.334 -9.5 26.001s-15.833 10 -28.5 10c-13.333 0 -25.666 -3.5 -36.999 -10.5s-20.333 -15.5 -27 -25.5
s-10 -19 -10 -27h91z" />
    <glyph glyph-name="uniFB57" unicode="&#x67e;" horiz-adv-x="815" arabic-form="final" 
d="M815 79l-0.000976562 -79h-119c-21.333 -0 -39.5 2.33301 -54.5 7s-28.833 11.667 -41.5 21c-29.333 -18.667 -64 -28 -104 -28h-301c-44.667 -0 -77.5 12.833 -98.5 38.5s-31.5 59.5 -31.5 101.5v240c0 15.333 4.5 27.333 13.5 36s21.167 13 36.5 13
c16 0 28.333 -4.33301 37 -13s13 -21.334 13 -38.001v-208c0 -33.333 5.33301 -56.833 16 -70.5s29.667 -20.5 57 -20.5h263c38.667 0 64.834 18.167 78.501 54.5s20.5 73.5 20.5 111.5c0 42.667 -5.5 80.834 -16.5 114.501s-32.167 63.5 -63.5 89.5
c4.66699 8 12 15.167 22 21.5s23.333 9.5 40 9.5c40.667 0 70.667 -19.833 90 -59.5s29 -88.5 29 -146.5c0 -36.667 -4 -72 -12 -106s-20.667 -63.667 -38 -89h164zM242.499 -181.5c-11.667 11.667 -17.5 25.5 -17.5 41.5c0 16.667 5.83301 30.834 17.5 42.501
s25.5 17.5 41.5 17.5c16.667 0 30.667 -5.83301 42 -17.5s17 -25.834 17 -42.501c0 -16 -5.66699 -29.833 -17 -41.5s-25.333 -17.5 -42 -17.5c-16 0 -29.833 5.83301 -41.5 17.5zM392.499 -181.5c-11.667 11.667 -17.5 25.5 -17.5 41.5
c0 16.667 5.83301 30.834 17.5 42.501s25.5 17.5 41.5 17.5c16.667 0 30.667 -5.83301 42 -17.5s17 -25.834 17 -42.501c0 -16 -5.66699 -29.833 -17 -41.5s-25.333 -17.5 -42 -17.5c-16 0 -29.833 5.83301 -41.5 17.5zM319.999 -307c-10.667 10.667 -16 23.667 -16 39
s5.33301 28.333 16 39s23.667 16 39 16s28.333 -5.5 39 -16.5s16 -23.833 16 -38.5c0 -15.333 -5.33301 -28.333 -16 -39s-23.667 -16 -39 -16s-28.333 5.33301 -39 16z" />
    <glyph glyph-name="uniFB58" unicode="&#x67e;" horiz-adv-x="338" arabic-form="initial" 
d="M0 79h73.998c38.667 0 64.834 17.333 78.501 52s20.5 72.667 20.5 114c0 42 -5.66699 80 -17 114s-32.666 64 -63.999 90c14 20.667 34.667 31 62 31c40.667 0 70.667 -19.833 90 -59.5s29 -88.5 29 -146.5c0 -74.667 -16 -139 -48 -193s-84 -81 -156 -81h-69v79z
M36.498 -181.5c-11.667 11.667 -17.5 25.5 -17.5 41.5c0 16.667 5.83301 30.834 17.5 42.501s25.5 17.5 41.5 17.5c16.667 0 30.667 -5.83301 42 -17.5s17 -25.834 17 -42.501c0 -16 -5.66699 -29.833 -17 -41.5s-25.333 -17.5 -42 -17.5c-16 0 -29.833 5.83301 -41.5 17.5z
M186.498 -181.5c-11.667 11.667 -17.5 25.5 -17.5 41.5c0 16.667 5.83301 30.834 17.5 42.501s25.5 17.5 41.5 17.5c16.667 0 30.667 -5.83301 42 -17.5s17 -25.834 17 -42.501c0 -16 -5.66699 -29.833 -17 -41.5s-25.333 -17.5 -42 -17.5c-16 0 -29.833 5.83301 -41.5 17.5
zM113.998 -307c-10.667 10.667 -16 23.667 -16 39s5.33301 28.333 16 39s23.667 16 39 16s28.333 -5.5 39 -16.5s16 -23.833 16 -38.5c0 -15.333 -5.33301 -28.333 -16 -39s-23.667 -16 -39 -16s-28.333 5.33301 -39 16z" />
    <glyph glyph-name="uniFB59" unicode="&#x67e;" horiz-adv-x="338" arabic-form="medial" 
d="M338 79v-79h-107c-38 -0 -69.667 9.33301 -95 28c-26 -16.667 -54.333 -26 -85 -28h-51v79h51c22.667 0.666992 44 6.33398 64 17.001v333c0 34 16.667 51 50 51c16 0 28.333 -4.33301 37 -13s13 -21.334 13 -38.001v-272c0 -52 10.333 -78 31 -78h92zM48.5 -181.5
c-11.667 11.667 -17.5 25.5 -17.5 41.5c0 16.667 5.83301 30.834 17.5 42.501s25.5 17.5 41.5 17.5c16.667 0 30.667 -5.83301 42 -17.5s17 -25.834 17 -42.501c0 -16 -5.66699 -29.833 -17 -41.5s-25.333 -17.5 -42 -17.5c-16 0 -29.833 5.83301 -41.5 17.5zM198.5 -181.5
c-11.667 11.667 -17.5 25.5 -17.5 41.5c0 16.667 5.83301 30.834 17.5 42.501s25.5 17.5 41.5 17.5c16.667 0 30.667 -5.83301 42 -17.5s17 -25.834 17 -42.501c0 -16 -5.66699 -29.833 -17 -41.5s-25.333 -17.5 -42 -17.5c-16 0 -29.833 5.83301 -41.5 17.5zM126 -307
c-10.667 10.667 -16 23.667 -16 39s5.33301 28.333 16 39s23.667 16 39 16s28.333 -5.5 39 -16.5s16 -23.833 16 -38.5c0 -15.333 -5.33301 -28.333 -16 -39s-23.667 -16 -39 -16s-28.333 5.33301 -39 16z" />
    <glyph glyph-name="uniFB67" unicode="&#x679;" horiz-adv-x="815" arabic-form="final" 
d="M815 79l-0.000976562 -79h-119c-21.333 -0 -39.5 2.33301 -54.5 7s-28.833 11.667 -41.5 21c-29.333 -18.667 -64 -28 -104 -28h-301c-44.667 -0 -77.5 12.833 -98.5 38.5s-31.5 59.5 -31.5 101.5v240c0 15.333 4.5 27.333 13.5 36s21.167 13 36.5 13
c16 0 28.333 -4.33301 37 -13s13 -21.334 13 -38.001v-208c0 -33.333 5.33301 -56.833 16 -70.5s29.667 -20.5 57 -20.5h263c38.667 0 64.834 18.167 78.501 54.5s20.5 73.5 20.5 111.5c0 42.667 -5.5 80.834 -16.5 114.501s-32.167 63.5 -63.5 89.5
c4.66699 8 12 15.167 22 21.5s23.333 9.5 40 9.5c40.667 0 70.667 -19.833 90 -59.5s29 -88.5 29 -146.5c0 -36.667 -4 -72 -12 -106s-20.667 -63.667 -38 -89h164zM251.999 520c0 12.667 2.66602 19 7.99902 19h15v127c0 6.66699 -1.66699 12.667 -5 18
s-6 8.66602 -8 9.99902c0.666992 2 2.83398 4 6.50098 6s7.5 3 11.5 3c7.33301 0 13.333 -2.5 18 -7.5s7 -12.5 7 -22.5v-83c21.333 32.667 49.333 49 84 49c24 0 43 -7.16699 57 -21.5s21 -33.166 21 -56.499c0 -19.333 -4.66699 -34.333 -14 -45s-21.333 -16 -36 -16h-157
c-5.33301 0 -8 6.66699 -8 20zM393.998 539c7.33301 0 12.833 2.66699 16.5 8s5.5 12 5.5 20c0 10 -3.33301 18.5 -10 25.5s-16.334 10.5 -29.001 10.5c-13.333 0 -25.666 -3.5 -36.999 -10.5s-20.333 -15.667 -27 -26s-10 -19.5 -10 -27.5h91z" />
    <glyph glyph-name="uniFB68" unicode="&#x679;" horiz-adv-x="338" arabic-form="initial" 
d="M0 79h73.998c38.667 0 64.834 17.333 78.501 52s20.5 72.667 20.5 114c0 42 -5.66699 80 -17 114s-32.666 64 -63.999 90c14 20.667 34.667 31 62 31c40.667 0 70.667 -19.833 90 -59.5s29 -88.5 29 -146.5c0 -74.667 -16 -139 -48 -193s-84 -81 -156 -81h-69v79z
M46.998 565c0 12.667 2.66602 19 7.99902 19h15v127c0 6.66699 -1.66699 12.667 -5 18s-6 8.66602 -8 9.99902c0.666992 2 2.83398 4 6.50098 6s7.5 3 11.5 3c7.33301 0 13.333 -2.5 18 -7.5s7 -12.5 7 -22.5v-83c21.333 32.667 49.333 49 84 49c24 0 43 -7.16699 57 -21.5
s21 -33.166 21 -56.499c0 -19.333 -4.66699 -34.333 -14 -45s-21.333 -16 -36 -16h-157c-5.33301 0 -8 6.66699 -8 20zM188.997 584c7.33301 0 12.833 2.66699 16.5 8s5.5 12 5.5 20c0 10 -3.33301 18.5 -10 25.5s-16.334 10.5 -29.001 10.5
c-13.333 0 -25.666 -3.5 -36.999 -10.5s-20.333 -15.667 -27 -26s-10 -19.5 -10 -27.5h91z" />
    <glyph glyph-name="uniFB69" unicode="&#x679;" horiz-adv-x="338" arabic-form="medial" 
d="M338 79v-79h-107c-38 -0 -69.667 9.33301 -95 28c-26 -16.667 -54.333 -26 -85 -28h-51v79h51c22.667 0.666992 44 6.33398 64 17.001v333c0 34 16.667 51 50 51c16 0 28.333 -4.33301 37 -13s13 -21.334 13 -38.001v-272c0 -52 10.333 -78 31 -78h92zM58 565
c0 12.667 2.66602 19 7.99902 19h15v127c0 6.66699 -1.66699 12.667 -5 18s-6 8.66602 -8 9.99902c0.666992 2 2.83398 4 6.50098 6s7.5 3 11.5 3c7.33301 0 13.333 -2.5 18 -7.5s7 -12.5 7 -22.5v-83c21.333 32.667 49.333 49 84 49c24 0 43 -7.16699 57 -21.5
s21 -33.166 21 -56.499c0 -19.333 -4.66699 -34.333 -14 -45s-21.333 -16 -36 -16h-157c-5.33301 0 -8 6.66699 -8 20zM199.999 584c7.33301 0 12.833 2.66699 16.5 8s5.5 12 5.5 20c0 10 -3.33301 18.5 -10 25.5s-16.334 10.5 -29.001 10.5
c-13.333 0 -25.666 -3.5 -36.999 -10.5s-20.333 -15.667 -27 -26s-10 -19.5 -10 -27.5h91z" />
    <glyph glyph-name="uniFB6B" unicode="&#x6a4;" horiz-adv-x="989" arabic-form="final" 
d="M989 79l0.00292969 -79h-99c-26.667 -0 -48 3.33301 -64 10c-15.333 -6.66699 -34 -10 -56 -10h-509c-62.667 -0 -111 19.333 -145 58s-51 89.334 -51 152.001c0 50 10.167 91 30.5 123s46.166 48 77.499 48c22.667 0 41.334 -9.66699 56.001 -29
c-17.333 -11.333 -32.333 -30.5 -45 -57.5s-19 -59.833 -19 -98.5c0 -48 10.667 -79.5 32 -94.5s47.666 -22.5 78.999 -22.5h276c-28 44.667 -42 101.667 -42 171c0 65.333 8.5 114.666 25.5 147.999s39.5 55.333 67.5 66s62.667 16 104 16
c45.333 0 81.666 -5.33301 108.999 -16s48.166 -31.334 62.499 -62.001s21.5 -74.667 21.5 -132v-130c0 -21.333 -3 -41.666 -9 -60.999h98zM783.503 99.5c10.333 13.667 15.501 37.168 15.501 70.501v134c0 65.333 -27.333 98 -82 98
c-34.667 0 -61.167 -12.833 -79.5 -38.5s-27.5 -63.5 -27.5 -113.5c0 -36.667 6.83301 -74.334 20.5 -113.001s39.167 -58 76.5 -58h20c27.333 0 46.166 6.83301 56.499 20.5zM761.004 772.001c10.667 -10.667 16 -23.667 16 -39c0 -14.667 -5.33301 -27.5 -16 -38.5
s-23.667 -16.5 -39 -16.5s-28.333 5.33301 -39 16s-16 23.667 -16 39s5.33301 28.333 16 39s23.667 16 39 16s28.333 -5.33301 39 -16zM689.004 646.501c11.333 -11.667 17 -25.5 17 -41.5c0 -16.667 -5.66699 -30.834 -17 -42.501s-25.333 -17.5 -42 -17.5
c-16 0 -29.833 5.83301 -41.5 17.5s-17.5 25.834 -17.5 42.501c0 16 5.83301 29.833 17.5 41.5s25.5 17.5 41.5 17.5c16.667 0 30.667 -5.83301 42 -17.5zM839.004 646.501c11.333 -11.667 17 -25.5 17 -41.5c0 -16.667 -5.66699 -30.834 -17 -42.501
s-25.333 -17.5 -42 -17.5c-16 0 -29.833 5.83301 -41.5 17.5s-17.5 25.834 -17.5 42.501c0 16 5.83301 29.833 17.5 41.5s25.5 17.5 41.5 17.5c16.667 0 30.667 -5.83301 42 -17.5z" />
    <glyph glyph-name="uniFB6C" unicode="&#x6a4;" horiz-adv-x="535" arabic-form="initial" 
d="M386 464c27.333 -10.667 48.168 -31.332 62.501 -61.999s21.5 -74.667 21.5 -132v-130c0 -42 -10.5 -75.833 -31.5 -101.5s-53.833 -38.5 -98.5 -38.5h-340v79h123c-28 44.667 -42 101.667 -42 171c0 65.333 8.5 114.666 25.5 147.999s39.333 55.333 67 66
s62.167 16 103.5 16c45.333 0 81.666 -5.33301 108.999 -16zM370.002 304.002c0 65.333 -27.667 97.999 -83 97.999c-34 0 -60.167 -12.833 -78.5 -38.5s-27.5 -63.5 -27.5 -113.5c0 -39.333 6.66699 -77.666 20 -114.999s39 -56 77 -56h19c27.333 0 46.333 6.83301 57 20.5
s16 37.167 16 70.5v134zM332.002 772.001c10.667 -10.667 16 -23.667 16 -39c0 -14.667 -5.33301 -27.5 -16 -38.5s-23.667 -16.5 -39 -16.5s-28.333 5.33301 -39 16s-16 23.667 -16 39s5.33301 28.333 16 39s23.667 16 39 16s28.333 -5.33301 39 -16zM260.002 646.501
c11.333 -11.667 17 -25.5 17 -41.5c0 -16.667 -5.66699 -30.834 -17 -42.501s-25.333 -17.5 -42 -17.5c-16 0 -29.833 5.83301 -41.5 17.5s-17.5 25.834 -17.5 42.501c0 16 5.83301 29.833 17.5 41.5s25.5 17.5 41.5 17.5c16.667 0 30.667 -5.83301 42 -17.5z
M410.002 646.501c11.333 -11.667 17 -25.5 17 -41.5c0 -16.667 -5.66699 -30.834 -17 -42.501s-25.333 -17.5 -42 -17.5c-16 0 -29.833 5.83301 -41.5 17.5s-17.5 25.834 -17.5 42.501c0 16 5.83301 29.833 17.5 41.5s25.5 17.5 41.5 17.5
c16.667 0 30.667 -5.83301 42 -17.5z" />
    <glyph glyph-name="uniFB6D" unicode="&#x6a4;" horiz-adv-x="560" arabic-form="medial" 
d="M560 79l0.00195312 -78.998h-100c-24.667 0 -45.667 3 -63 9c-16 -6 -35 -9 -57 -9h-340v79h123c-28 44.667 -42 101.667 -42 171c0 65.333 8.5 114.666 25.5 147.999s39.333 55.333 67 66s62.167 16 103.5 16c45.333 0 81.666 -5.33301 108.999 -16
s48.166 -31.334 62.499 -62.001s21.5 -74.667 21.5 -132v-130c0 -24.667 -3 -45 -9 -61h99zM354.002 99.502c10.667 13.667 16 37.166 16 70.499v134c0 65.333 -27.667 98 -83 98c-34 0 -60.167 -12.833 -78.5 -38.5s-27.5 -63.5 -27.5 -113.5
c0 -39.333 6.66699 -77.666 20 -114.999s39 -56 77 -56h19c27.333 0 46.333 6.83301 57 20.5zM333.002 772.001c10.667 -10.667 16 -23.667 16 -39c0 -14.667 -5.33301 -27.5 -16 -38.5s-23.667 -16.5 -39 -16.5s-28.333 5.33301 -39 16s-16 23.667 -16 39
s5.33301 28.333 16 39s23.667 16 39 16s28.333 -5.33301 39 -16zM261.002 646.501c11.333 -11.667 17 -25.5 17 -41.5c0 -16.667 -5.66699 -30.834 -17 -42.501s-25.333 -17.5 -42 -17.5c-16 0 -29.833 5.83301 -41.5 17.5s-17.5 25.834 -17.5 42.501
c0 16 5.83301 29.833 17.5 41.5s25.5 17.5 41.5 17.5c16.667 0 30.667 -5.83301 42 -17.5zM411.002 646.501c11.333 -11.667 17 -25.5 17 -41.5c0 -16.667 -5.66699 -30.834 -17 -42.501s-25.333 -17.5 -42 -17.5c-16 0 -29.833 5.83301 -41.5 17.5
s-17.5 25.834 -17.5 42.501c0 16 5.83301 29.833 17.5 41.5s25.5 17.5 41.5 17.5c16.667 0 30.667 -5.83301 42 -17.5z" />
    <glyph glyph-name="uniFB7B" unicode="&#x686;" horiz-adv-x="591" arabic-form="final" 
d="M591 79l0.000976562 -79.001h-34c-40 0 -72.333 9.33301 -97 28l1 1c-32 -19.333 -69 -29 -111 -29h-201c-0.666992 -56 5.83301 -104.833 19.5 -146.5s34.834 -73.834 63.501 -96.501c-4.66699 -5.33301 -12.834 -10.5 -24.501 -15.5s-23.834 -7.5 -36.501 -7.5
c-28.667 0 -51.834 11.833 -69.501 35.5s-30 51.167 -37 82.5s-10.5 60 -10.5 86c0 46 10 81 30 105s49.667 36 89 36h127c27.333 0 51.833 3.16699 73.5 9.5s40.667 20.833 57 43.5s24.5 56.334 24.5 101.001c0 56 -17 98 -51 126s-88 42 -162 42l-68 -1
c-21.333 0 -38.166 6.83301 -50.499 20.5s-20.166 28.834 -23.499 45.501c-1.33301 8 -2 13.667 -2 17c0 10.667 1.66699 17.667 5 21c6.66699 -7.33301 16.667 -13.833 30 -19.5s30 -8.5 50 -8.5l37 2c25.333 1.33301 45.666 2 60.999 2c88 0 155.667 -21.333 203 -64
s71 -103 71 -181c0 -62.667 -14 -114.667 -42 -156h78zM338.001 -159.001c-11.333 -11.333 -25.333 -17 -42 -17c-16 0 -29.833 5.66699 -41.5 17s-17.5 25.333 -17.5 42s5.83301 30.834 17.5 42.501s25.5 17.5 41.5 17.5c16.667 0 30.667 -5.83301 42 -17.5
s17 -25.834 17 -42.501s-5.66699 -30.667 -17 -42zM488.001 -74.501c11.333 -11.667 17 -25.834 17 -42.501s-5.66699 -30.667 -17 -42s-25.333 -17 -42 -17c-16 0 -29.833 5.66699 -41.5 17s-17.5 25.333 -17.5 42s5.83301 30.834 17.5 42.501s25.5 17.5 41.5 17.5
c16.667 0 30.667 -5.83301 42 -17.5zM410.001 -207.501c10.667 -11 16 -23.833 16 -38.5c0 -15.333 -5.33301 -28.333 -16 -39s-23.667 -16 -39 -16s-28.333 5.33301 -39 16s-16 23.667 -16 39s5.33301 28.333 16 39s23.667 16 39 16s28.333 -5.5 39 -16.5z" />
    <glyph glyph-name="uniFB7C" unicode="&#x686;" horiz-adv-x="545" arabic-form="initial" 
d="M0 79l236.002 -0.000976562c26.667 0 51 3 73 9s41.167 20.333 57.5 43s24.5 56.334 24.5 101.001c0 58 -16.833 100.667 -50.5 128s-87.834 41 -162.501 41l-69 -1c-43.333 0 -68 22.667 -74 68c-0.666992 3.33301 -1 8 -1 14c0 12 1.33301 19.333 4 22
c18.667 -18.667 45.667 -28 81 -28l37 2c25.333 1.33301 45.666 2 60.999 2c88 0 155.667 -21.333 203 -64s71 -103 71 -181c0 -67.333 -17 -123.333 -51 -168s-85.333 -67 -154 -67h-286v79zM154.502 -181.501c-11.667 11.667 -17.5 25.5 -17.5 41.5
c0 16.667 5.83301 30.834 17.5 42.501s25.5 17.5 41.5 17.5c16.667 0 30.667 -5.83301 42 -17.5s17 -25.834 17 -42.501c0 -16 -5.66699 -29.833 -17 -41.5s-25.333 -17.5 -42 -17.5c-16 0 -29.833 5.83301 -41.5 17.5zM304.502 -181.501
c-11.667 11.667 -17.5 25.5 -17.5 41.5c0 16.667 5.83301 30.834 17.5 42.501s25.5 17.5 41.5 17.5c16.667 0 30.667 -5.83301 42 -17.5s17 -25.834 17 -42.501c0 -16 -5.66699 -29.833 -17 -41.5s-25.333 -17.5 -42 -17.5c-16 0 -29.833 5.83301 -41.5 17.5z
M232.002 -307.001c-10.667 10.667 -16 23.667 -16 39s5.33301 28.333 16 39s23.667 16 39 16s28.333 -5.5 39 -16.5s16 -23.833 16 -38.5c0 -15.333 -5.33301 -28.333 -16 -39s-23.667 -16 -39 -16s-28.333 5.33301 -39 16z" />
    <glyph glyph-name="uniFB7D" unicode="&#x686;" horiz-adv-x="536" arabic-form="medial" 
d="M536 79l0.00195312 -79.001h-43c-40 0 -72.333 9.33301 -97 28v1c-31.333 -19.333 -68 -29 -110 -29h-286v79h236c26.667 0 51 3 73 9s41.167 20.333 57.5 43s24.5 56.334 24.5 101.001c0 58 -16.833 100.667 -50.5 128s-87.834 41 -162.501 41l-69 -1
c-43.333 0 -68 22.667 -74 68c-0.666992 3.33301 -1 8 -1 14c0 12 1.33301 19.333 4 22c18.667 -18.667 45.667 -28 81 -28l37 2c25.333 1.33301 45.666 2 60.999 2c88 0 155.667 -21.333 203 -64s71 -103 71 -181c0 -62.667 -14 -114.667 -42 -156h87zM154.502 -181.501
c-11.667 11.667 -17.5 25.5 -17.5 41.5c0 16.667 5.83301 30.834 17.5 42.501s25.5 17.5 41.5 17.5c16.667 0 30.667 -5.83301 42 -17.5s17 -25.834 17 -42.501c0 -16 -5.66699 -29.833 -17 -41.5s-25.333 -17.5 -42 -17.5c-16 0 -29.833 5.83301 -41.5 17.5z
M304.502 -181.501c-11.667 11.667 -17.5 25.5 -17.5 41.5c0 16.667 5.83301 30.834 17.5 42.501s25.5 17.5 41.5 17.5c16.667 0 30.667 -5.83301 42 -17.5s17 -25.834 17 -42.501c0 -16 -5.66699 -29.833 -17 -41.5s-25.333 -17.5 -42 -17.5
c-16 0 -29.833 5.83301 -41.5 17.5zM232.002 -307.001c-10.667 10.667 -16 23.667 -16 39s5.33301 28.333 16 39s23.667 16 39 16s28.333 -5.5 39 -16.5s16 -23.833 16 -38.5c0 -15.333 -5.33301 -28.333 -16 -39s-23.667 -16 -39 -16s-28.333 5.33301 -39 16z" />
    <glyph glyph-name="uniFB89" unicode="&#x688;" horiz-adv-x="539" arabic-form="final" 
d="M539 79l-0.000976562 -79.001h-114c-38 0 -69.667 9 -95 27c-28.667 -18 -61 -27 -97 -27h-148c-11.333 0 -19.333 4 -24 12s-7 16.667 -7 26c0 10.667 3 20.167 9 28.5s16 12.5 30 12.5h55c65.333 0 113.333 16.667 144 50s46 74.666 46 123.999
c0 43.333 -10.667 78.833 -32 106.5s-48.666 42.167 -81.999 43.5c-44 -14 -66 -46 -66 -96c-8 -1.33301 -15.667 -2 -23 -2c-10.667 0 -19.667 1.33301 -27 4c-12.667 2.66699 -23 9 -31 19s-12 23.333 -12 40c0 34 16.167 61.167 48.5 81.5s69.833 30.5 112.5 30.5
c42 0 79.167 -10.667 111.5 -32s57.333 -49.166 75 -83.499s26.5 -70.5 26.5 -108.5c0 -27.333 -4.5 -57.166 -13.5 -89.499s-22.833 -61.5 -41.5 -87.5h155zM252.999 408.999c-2 0 -3.66699 -0.333008 -5 -1zM138.999 564.999c0 12.667 2.66602 19 7.99902 19h15v127
c0 6.66699 -1.66699 12.667 -5 18s-6 8.66602 -8 9.99902c0.666992 2 2.83398 4 6.50098 6s7.5 3 11.5 3c7.33301 0 13.333 -2.5 18 -7.5s7 -12.5 7 -22.5v-83c21.333 32.667 49.333 49 84 49c24 0 43 -7.16699 57 -21.5s21 -33.166 21 -56.499
c0 -19.333 -4.66699 -34.333 -14 -45s-21.333 -16 -36 -16h-157c-5.33301 0 -8 6.66699 -8 20zM280.998 583.999c7.33301 0 12.833 2.66699 16.5 8s5.5 12 5.5 20c0 10 -3.33301 18.5 -10 25.5s-16.334 10.5 -29.001 10.5c-13.333 0 -25.666 -3.5 -36.999 -10.5
s-20.333 -15.667 -27 -26s-10 -19.5 -10 -27.5h91z" />
    <glyph glyph-name="uniFB8B" unicode="&#x698;" horiz-adv-x="333" arabic-form="final" 
d="M333 0l-98.9971 0.000976562v-67c0 -21.333 -4.33301 -44.333 -13 -69s-24.5 -46.334 -47.5 -65.001s-54.5 -28 -94.5 -28c-27.333 0 -50.333 4.5 -69 13.5s-32.334 19.333 -41.001 31s-13.334 21.5 -14.001 29.5c11.333 -4.66699 23.833 -8.5 37.5 -11.5
s26.167 -4.5 37.5 -4.5c33.333 0 59.166 9.16699 77.499 27.5s27.5 38.833 27.5 61.5l-1 515c0 16 4.66699 27.833 14 35.5s21.333 11.5 36 11.5s26.667 -4 36 -12s14 -19.667 14 -35v-354h99v-79zM224.003 772.001c10.667 -10.667 16 -23.667 16 -39
c0 -14.667 -5.33301 -27.5 -16 -38.5s-23.667 -16.5 -39 -16.5s-28.333 5.33301 -39 16s-16 23.667 -16 39s5.33301 28.333 16 39s23.667 16 39 16s28.333 -5.33301 39 -16zM152.003 646.501c11.333 -11.667 17 -25.5 17 -41.5c0 -16.667 -5.66699 -30.834 -17 -42.501
s-25.333 -17.5 -42 -17.5c-16 0 -29.833 5.83301 -41.5 17.5s-17.5 25.834 -17.5 42.501c0 16 5.83301 29.833 17.5 41.5s25.5 17.5 41.5 17.5c16.667 0 30.667 -5.83301 42 -17.5zM302.003 646.501c11.333 -11.667 17 -25.5 17 -41.5
c0 -16.667 -5.66699 -30.834 -17 -42.501s-25.333 -17.5 -42 -17.5c-16 0 -29.833 5.83301 -41.5 17.5s-17.5 25.834 -17.5 42.501c0 16 5.83301 29.833 17.5 41.5s25.5 17.5 41.5 17.5c16.667 0 30.667 -5.83301 42 -17.5z" />
    <glyph glyph-name="uniFB8D" unicode="&#x691;" horiz-adv-x="333" arabic-form="final" 
d="M333 0l-98.9971 0.000976562v-67c0 -21.333 -4.33301 -44.333 -13 -69s-24.5 -46.334 -47.5 -65.001s-54.5 -28 -94.5 -28c-27.333 0 -50.333 4.5 -69 13.5s-32.334 19.333 -41.001 31s-13.334 21.5 -14.001 29.5c11.333 -4.66699 23.833 -8.5 37.5 -11.5
s26.167 -4.5 37.5 -4.5c33.333 0 59.166 9.16699 77.499 27.5s27.5 38.833 27.5 61.5l-1 515c0 16 4.66699 27.833 14 35.5s21.333 11.5 36 11.5s26.667 -4 36 -12s14 -19.667 14 -35v-354h99v-79zM77.0029 565.001c0 12.667 2.66602 19 7.99902 19h15v127
c0 6.66699 -1.66699 12.667 -5 18s-6 8.66602 -8 9.99902c0.666992 2 2.83398 4 6.50098 6s7.5 3 11.5 3c7.33301 0 13.333 -2.5 18 -7.5s7 -12.5 7 -22.5v-83c21.333 32.667 49.333 49 84 49c24 0 43 -7.16699 57 -21.5s21 -33.166 21 -56.499
c0 -19.333 -4.66699 -34.333 -14 -45s-21.333 -16 -36 -16h-157c-5.33301 0 -8 6.66699 -8 20zM219.002 584.001c7.33301 0 12.833 2.66699 16.5 8s5.5 12 5.5 20c0 10 -3.33301 18.5 -10 25.5s-16.334 10.5 -29.001 10.5c-13.333 0 -25.666 -3.5 -36.999 -10.5
s-20.333 -15.667 -27 -26s-10 -19.5 -10 -27.5h91z" />
    <glyph glyph-name="uniFB8F" unicode="&#x6a9;" horiz-adv-x="919" arabic-form="final" 
d="M919 79l-0.000976562 -79h-133c-35.333 0 -64 7 -86 21c-21.333 -13.333 -47.666 -20 -78.999 -20h-426c-44 0 -76.667 13.667 -98 41s-32 62.333 -32 105v120c0 16 4.33301 28.167 13 36.5s21 12.5 37 12.5s28.333 -4.33301 37 -13s13 -21 13 -37v-95
c0 -33.333 5.33301 -56.666 16 -69.999s29.667 -20 57 -20h344c26.667 0 47.334 8.16699 62.001 24.5s22 37.166 22 62.499c0 28.667 -9.33301 51 -28 67s-47.667 24 -87 24h-100c-48.667 0 -85.834 14.5 -111.501 43.5s-38.5 69.167 -38.5 120.5c0 56 16.667 98.667 50 128
s86.333 44 159 44c23.333 0 49.5 -0.5 78.5 -1.5l70.5 -2.5c34.667 0 61.667 9.66699 81 29c3.33301 -6.66699 5 -14.667 5 -24c0 -20 -6.33301 -38.5 -19 -55.5s-31 -25.5 -55 -25.5l-146 2c-44 0 -75.667 -7.33301 -95 -22s-29 -37 -29 -67c0 -28 7.5 -50 22.5 -66
s36.833 -24 65.5 -24h78c132.667 0 199 -57.667 199 -173c0 -33.333 -5.33301 -62 -16 -86h169z" />
    <glyph glyph-name="uniFB90" unicode="&#x6a9;" horiz-adv-x="600" arabic-form="initial" 
d="M0 79l351 0.000976562c26.667 0 47.334 8.16699 62.001 24.5s22 37.166 22 62.499c0 28.667 -9.16699 51 -27.5 67s-47.166 24 -86.499 24h-101c-48.667 0 -85.834 14.5 -111.501 43.5s-38.5 69.167 -38.5 120.5c0 56 16.667 98.833 50 128.5s86.666 44.5 159.999 44.5
l90 -2l58 -2c35.333 0 62.333 9.33301 81 28c3.33301 -4.66699 5 -12 5 -22c0 -19.333 -6.33301 -37.833 -19 -55.5s-31 -26.5 -55 -26.5l-145 1c-44.667 0 -76.667 -7.33301 -96 -22s-29 -37 -29 -67c0 -28 7.5 -49.833 22.5 -65.5s36.833 -23.5 65.5 -23.5h78
c132.667 0 199 -57.667 199 -173c0 -50.667 -12.5 -90.667 -37.5 -120s-60.833 -44 -107.5 -44h-390v79z" />
    <glyph glyph-name="uniFB91" unicode="&#x6a9;" horiz-adv-x="761" arabic-form="medial" 
d="M761 79v-78.999h-230c-28.667 0 -53 4.66699 -73 14c-20 -9.33301 -42.667 -14 -68 -14h-390v79h351c26.667 0 47.334 8.16699 62.001 24.5s22 37.166 22 62.499c0 28.667 -9.16699 51 -27.5 67s-47.166 24 -86.499 24h-101c-48.667 0 -85.834 14.5 -111.501 43.5
s-38.5 69.167 -38.5 120.5c0 56 16.667 98.833 50 128.5s86.666 44.5 159.999 44.5l90 -2l58 -2c35.333 0 62.333 9.33301 81 28c3.33301 -4.66699 5 -12 5 -22c0 -19.333 -6.33301 -37.833 -19 -55.5s-31 -26.5 -55 -26.5l-145 1c-44.667 0 -76.667 -7.33301 -96 -22
s-29 -37 -29 -67c0 -28 7.5 -49.833 22.5 -65.5s36.833 -23.5 65.5 -23.5h78c132.667 0 199 -57.667 199 -173c0 -32.667 -5 -61 -15 -85h241z" />
    <glyph glyph-name="uniFB93" unicode="&#x6af;" horiz-adv-x="919" arabic-form="final" 
d="M919 79l-0.000976562 -79h-133c-35.333 0 -64 7 -86 21c-21.333 -13.333 -47.666 -20 -78.999 -20h-426c-44 0 -76.667 13.667 -98 41s-32 62.333 -32 105v120c0 16 4.33301 28.167 13 36.5s21 12.5 37 12.5s28.333 -4.33301 37 -13s13 -21 13 -37v-95
c0 -33.333 5.33301 -56.666 16 -69.999s29.667 -20 57 -20h344c26.667 0 47.334 8.16699 62.001 24.5s22 37.166 22 62.499c0 28.667 -9.33301 51 -28 67s-47.667 24 -87 24h-100c-48.667 0 -85.834 14.5 -111.501 43.5s-38.5 69.167 -38.5 120.5c0 56 16.667 98.667 50 128
s86.333 44 159 44c23.333 0 49.5 -0.5 78.5 -1.5l70.5 -2.5c34.667 0 61.667 9.66699 81 29c3.33301 -6.66699 5 -14.667 5 -24c0 -20 -6.33301 -38.5 -19 -55.5s-31 -25.5 -55 -25.5l-146 2c-44 0 -75.667 -7.33301 -95 -22s-29 -37 -29 -67c0 -28 7.5 -50 22.5 -66
s36.833 -24 65.5 -24h78c132.667 0 199 -57.667 199 -173c0 -33.333 -5.33301 -62 -16 -86h169zM365.999 643c0 20 6.16699 38.834 18.5 56.501s30.833 26.5 55.5 26.5l206 -1c35.333 0 62.333 9.33301 81 28c3.33301 -4.66699 5 -12 5 -22
c0 -20 -6.16699 -38.833 -18.5 -56.5s-30.833 -26.5 -55.5 -26.5l-207 1c-35.333 0 -62.333 -9.33301 -81 -28c-2.66699 5.33301 -4 12.666 -4 21.999z" />
    <glyph glyph-name="uniFB94" unicode="&#x6af;" horiz-adv-x="600" arabic-form="initial" 
d="M0 79l351 0.000976562c26.667 0 47.334 8.16699 62.001 24.5s22 37.166 22 62.499c0 28.667 -9.16699 51 -27.5 67s-47.166 24 -86.499 24h-101c-48.667 0 -85.834 14.5 -111.501 43.5s-38.5 69.167 -38.5 120.5c0 56 16.667 98.833 50 128.5s86.666 44.5 159.999 44.5
l90 -2l58 -2c35.333 0 62.333 9.33301 81 28c3.33301 -4.66699 5 -12 5 -22c0 -19.333 -6.33301 -37.833 -19 -55.5s-31 -26.5 -55 -26.5l-145 1c-44.667 0 -76.667 -7.33301 -96 -22s-29 -37 -29 -67c0 -28 7.5 -49.833 22.5 -65.5s36.833 -23.5 65.5 -23.5h78
c132.667 0 199 -57.667 199 -173c0 -50.667 -12.5 -90.667 -37.5 -120s-60.833 -44 -107.5 -44h-390v79zM87 643.001c0 20 6.16699 38.834 18.5 56.501s30.833 26.5 55.5 26.5l206 -1c35.333 0 62.333 9.33301 81 28c3.33301 -4.66699 5 -12 5 -22
c0 -20 -6.16699 -38.833 -18.5 -56.5s-30.833 -26.5 -55.5 -26.5l-207 1c-35.333 0 -62.333 -9.33301 -81 -28c-2.66699 5.33301 -4 12.666 -4 21.999z" />
    <glyph glyph-name="uniFB95" unicode="&#x6af;" horiz-adv-x="761" arabic-form="medial" 
d="M761 79v-78.999h-230c-28.667 0 -53 4.66699 -73 14c-20 -9.33301 -42.667 -14 -68 -14h-390v79h351c26.667 0 47.334 8.16699 62.001 24.5s22 37.166 22 62.499c0 28.667 -9.16699 51 -27.5 67s-47.166 24 -86.499 24h-101c-48.667 0 -85.834 14.5 -111.501 43.5
s-38.5 69.167 -38.5 120.5c0 56 16.667 98.833 50 128.5s86.666 44.5 159.999 44.5l90 -2l58 -2c35.333 0 62.333 9.33301 81 28c3.33301 -4.66699 5 -12 5 -22c0 -19.333 -6.33301 -37.833 -19 -55.5s-31 -26.5 -55 -26.5l-145 1c-44.667 0 -76.667 -7.33301 -96 -22
s-29 -37 -29 -67c0 -28 7.5 -49.833 22.5 -65.5s36.833 -23.5 65.5 -23.5h78c132.667 0 199 -57.667 199 -173c0 -32.667 -5 -61 -15 -85h241zM87 643.001c0 20 6.16699 38.834 18.5 56.501s30.833 26.5 55.5 26.5l206 -1c35.333 0 62.333 9.33301 81 28
c3.33301 -4.66699 5 -12 5 -22c0 -20 -6.16699 -38.833 -18.5 -56.5s-30.833 -26.5 -55.5 -26.5l-207 1c-35.333 0 -62.333 -9.33301 -81 -28c-2.66699 5.33301 -4 12.666 -4 21.999z" />
    <glyph glyph-name="uniFB9F" unicode="&#x6ba;" horiz-adv-x="709" arabic-form="final" 
d="M709 79l-0.00195312 -79h-13c-18 0 -32.333 1.5 -43 4.5s-21.334 8.16699 -32.001 15.5c-2 -80.667 -24.667 -143.5 -68 -188.5s-109.666 -67.5 -198.999 -67.5c-65.333 0 -119.666 12.167 -162.999 36.5s-75.166 56.666 -95.499 96.999s-30.5 84.833 -30.5 133.5
c0 32.667 4.66699 64.5 14 95.5s23.166 56.5 41.499 76.5s40.166 30 65.499 30c20.667 0 40 -6.33301 58 -19c-8 -6 -17.833 -17.333 -29.5 -34s-22.167 -38.5 -31.5 -65.5s-14 -57.167 -14 -90.5c0 -43.333 9.83301 -78.5 29.5 -105.5s44.167 -46.333 73.5 -58
s59.333 -17.5 90 -17.5c64.667 0 107.334 20.333 128.001 61s31 89.334 31 146.001v383c0 16 5.16699 27.833 15.5 35.5s21.833 11.5 34.5 11.5s24.334 -3.83301 35.001 -11.5s16 -19.5 16 -35.5v-354h87z" />
    <glyph glyph-name="uniFBA7" unicode="&#x6c1;" horiz-adv-x="660" arabic-form="final" 
d="M660 79l-0.000976562 -78.999h-163c-9.33301 0 -17.333 3.16699 -24 9.5s-10 14.166 -10 23.499v367c-60 -4.66699 -112.667 -27.334 -158 -68.001s-80 -91.167 -104 -151.5s-36 -120.5 -36 -180.5h-100c0 91.333 18.833 173.333 56.5 246s91.167 129.834 160.5 171.501
s150 62.5 242 62.5c12.667 0 22.334 -3 29.001 -9s10 -14.333 10 -25v-367h97z" />
    <glyph glyph-name="uniFBA8" unicode="&#x6c1;" horiz-adv-x="338" arabic-form="initial" 
d="M0 79h73.998c38.667 0 64.834 17.333 78.501 52s20.5 72.667 20.5 114c0 42 -5.66699 80 -17 114s-32.666 64 -63.999 90c14 20.667 34.667 31 62 31c40.667 0 70.667 -19.833 90 -59.5s29 -88.5 29 -146.5c0 -74.667 -16 -139 -48 -193s-84 -81 -156 -81h-69v79z
M100.498 -273.5c-11.667 13 -17.501 30.501 -17.501 52.501c0 41.333 9.16699 77.166 27.5 107.499s46.5 56.5 84.5 78.5l12 -17c-25.333 -18 -45.166 -37.5 -59.499 -58.5s-21.5 -45.5 -21.5 -73.5l26 8c16.667 0 30.334 -5.33301 41.001 -16s16 -24.334 16 -41.001
c0 -17.333 -5.5 -31.666 -16.5 -42.999s-25.5 -17 -43.5 -17c-20.667 0 -36.834 6.5 -48.501 19.5z" />
    <glyph glyph-name="uniFBA9" unicode="&#x6c1;" horiz-adv-x="480" arabic-form="medial" 
d="M480 0l-70.999 0.000976562v-222c0 -8 -2.83301 -14.667 -8.5 -20s-12.5 -8 -20.5 -8c-108 0 -189.833 21.333 -245.5 64s-83.5 104.667 -83.5 186h-51v79h114c8 0 14.667 -2.66699 20 -8s8 -12 8 -20c1.33301 -40.667 4.5 -74.834 9.5 -102.501s19.667 -53.667 44 -78
s62.166 -36.5 113.499 -36.5v217c0 8 2.83301 14.667 8.5 20s12.167 8 19.5 8h143v-79z" />
    <glyph glyph-name="uniFBAB" unicode="&#x6be;" horiz-adv-x="727" arabic-form="final" 
d="M727 79l-0.000976562 -79h-109c-37.333 0 -69 8.66699 -95 26l1 2c-35.333 -18.667 -75.666 -28 -120.999 -28c-25.333 -0 -53.666 2.33301 -84.999 7s-53 10.667 -65 18c-36 -16.667 -86 -25 -150 -25h-38v79h18c1.33301 -0.666992 6.66602 -2.5 15.999 -5.5
s22.333 -4.5 39 -4.5c10.667 0 22.667 1.33301 36 4c-17.333 18 -31.333 41.833 -42 71.5s-16 62.5 -16 98.5c0 52 11.333 95.167 34 129.5s56.334 51.5 101.001 51.5s78.5 -17.167 101.5 -51.5s34.5 -77.166 34.5 -128.499c0 -38 -6 -73.167 -18 -105.5
s-26.667 -55.166 -44 -68.499c12.667 -2.66699 27.667 -4 45 -4c58 0 103.833 19.167 137.5 57.5s50.5 89.833 50.5 154.5c0 55.333 -13 99.833 -39 133.5s-58 57.5 -96 71.5s-76.667 21 -116 21h-73c-62.667 0 -92.334 36 -89.001 108c18 -20 49.333 -30 94 -30l100 3
c48 1.33301 96.333 -6.83398 145 -24.501s89.834 -49 123.501 -94s50.5 -104.167 50.5 -177.5c0 -42.667 -5.83301 -81.834 -17.5 -117.501s-28.834 -66.5 -51.501 -92.5h138zM214.499 311.5c-8.33301 -22.333 -12.5 -47.498 -12.5 -75.498s4.5 -53.333 13.5 -76
s21.167 -41.334 36.5 -56.001c14.667 14 26.5 32.667 35.5 56s13.5 48.666 13.5 75.999c0 28 -4.33301 53.167 -13 75.5s-21 33.5 -37 33.5s-28.167 -11.167 -36.5 -33.5zM200.499 85.002c1 1.33301 1.16699 2.33301 0.5 3l-5 -6c2 0.666992 3.5 1.66699 4.5 3z" />
    <glyph glyph-name="uniFBAC" unicode="&#x6be;" horiz-adv-x="658" arabic-form="initial" 
d="M419 560.5c48.667 -17.667 89.833 -49.001 123.5 -94.001s50.5 -104.167 50.5 -177.5c0 -55.333 -9.83301 -104.833 -29.5 -148.5s-48.667 -78 -87 -103s-84.5 -37.5 -138.5 -37.5c-25.333 0 -53.666 2.33301 -84.999 7s-53 10.667 -65 18c-36 -16.667 -86 -25 -150 -25
h-38v79h18c1.33301 -0.666992 6.66602 -2.5 15.999 -5.5s22.333 -4.5 39 -4.5c10.667 0 22.667 1.33301 36 4c-17.333 18 -31.333 41.833 -42 71.5s-16 62.5 -16 98.5c0 52 11.333 95.167 34 129.5s56.334 51.5 101.001 51.5s78.5 -17.167 101.5 -51.5
s34.5 -77.166 34.5 -128.499c0 -38 -6 -73.167 -18 -105.5s-26.667 -55.166 -44 -68.499c12.667 -2.66699 27.667 -4 45 -4c58 0 103.833 19.167 137.5 57.5s50.5 89.833 50.5 154.5c0 55.333 -13 99.833 -39 133.5s-58 57.5 -96 71.5s-76.667 21 -116 21h-73
c-62.667 0 -92.334 36 -89.001 108c18 -20 49.333 -30 94 -30l100 3c48 1.33301 96.333 -6.83398 145 -24.501zM149.499 311.499c-8.33301 -22.333 -12.5 -47.498 -12.5 -75.498s4.5 -53.333 13.5 -76s21.167 -41.334 36.5 -56.001c14.667 14 26.5 32.667 35.5 56
s13.5 48.666 13.5 75.999c0 28 -4.33301 53.167 -13 75.5s-21 33.5 -37 33.5s-28.167 -11.167 -36.5 -33.5zM135.499 85.001c1 1.33301 1.16699 2.33301 0.5 3l-5 -6c2 0.666992 3.5 1.66699 4.5 3z" />
    <glyph glyph-name="uniFBAD" unicode="&#x6be;" horiz-adv-x="658" arabic-form="medial" 
d="M658 79l-0.000976562 -79h-105c-37.333 0 -69 8.66699 -95 26l1 2c-35.333 -18.667 -75.666 -28 -120.999 -28c-25.333 -0 -53.666 2.33301 -84.999 7s-53 10.667 -65 18c-36 -16.667 -86 -25 -150 -25h-38v79h18c1.33301 -0.666992 6.66602 -2.5 15.999 -5.5
s22.333 -4.5 39 -4.5c10.667 0 22.667 1.33301 36 4c-17.333 18 -31.333 41.833 -42 71.5s-16 62.5 -16 98.5c0 52 11.333 95.167 34 129.5s56.334 51.5 101.001 51.5s78.5 -17.167 101.5 -51.5s34.5 -77.166 34.5 -128.499c0 -38 -6 -73.167 -18 -105.5
s-26.667 -55.166 -44 -68.499c12.667 -2.66699 27.667 -4 45 -4c58 0 103.833 19.167 137.5 57.5s50.5 89.833 50.5 154.5c0 55.333 -13 99.833 -39 133.5s-58 57.5 -96 71.5s-76.667 21 -116 21h-73c-62.667 0 -92.334 36 -89.001 108c18 -20 49.333 -30 94 -30l100 3
c48 1.33301 96.333 -6.83398 145 -24.501s89.834 -49 123.501 -94s50.5 -104.167 50.5 -177.5c0 -42.667 -5.83301 -81.834 -17.5 -117.501s-28.834 -66.5 -51.501 -92.5h134zM149.499 311.5c-8.33301 -22.333 -12.5 -47.498 -12.5 -75.498s4.5 -53.333 13.5 -76
s21.167 -41.334 36.5 -56.001c14.667 14 26.5 32.667 35.5 56s13.5 48.666 13.5 75.999c0 28 -4.33301 53.167 -13 75.5s-21 33.5 -37 33.5s-28.167 -11.167 -36.5 -33.5zM135.499 85.002c1 1.33301 1.16699 2.33301 0.5 3l-5 -6c2 0.666992 3.5 1.66699 4.5 3z" />
    <glyph glyph-name="uniFBAF" unicode="&#x6d2;" horiz-adv-x="456" arabic-form="final" 
d="M188.5 -227c-33.667 6 -62.665 20.501 -86.998 43.501s-36.5 57.5 -36.5 103.5c0 49.333 13.333 85.666 40 108.999s54.667 37.5 84 42.5s59.666 7.5 90.999 7.5h176v-79h-164c-36.667 -0 -68 -4.66699 -94 -14s-39 -31.333 -39 -66c0 -29.333 12.167 -49.5 36.5 -60.5
s60.166 -16.5 107.499 -16.5h282v-79h-278c-45.333 0 -84.833 3 -118.5 9z" />
    <glyph glyph-name="uniFBB1" unicode="&#x6d3;" horiz-adv-x="456" arabic-form="final" 
d="M188.5 -227c-33.667 6 -62.665 20.501 -86.998 43.501s-36.5 57.5 -36.5 103.5c0 49.333 13.333 85.666 40 108.999s54.667 37.5 84 42.5s59.666 7.5 90.999 7.5h176v-79h-164c-36.667 -0 -68 -4.66699 -94 -14s-39 -31.333 -39 -66c0 -29.333 12.167 -49.5 36.5 -60.5
s60.166 -16.5 107.499 -16.5h282v-79h-278c-45.333 0 -84.833 3 -118.5 9zM84.002 169.001c0 8 2.99902 14.8311 8.99902 20.498s14 8.5 24 8.5c5.33301 0 9.33301 -0.333008 12 -1c-8.66699 8 -16.667 19.167 -24 33.5s-11 29.833 -11 46.5c0 26.667 9.5 49 28.5 67
s45.167 27 78.5 27c42.667 0 64 -14 64 -42c0 -11.333 -3 -19.666 -9 -24.999s-13 -8 -21 -8c-6 0 -11.333 1.66699 -16 5c0.666992 10.667 -2.83301 19.834 -10.5 27.501s-16.5 12.167 -26.5 13.5c-6.66699 -2.66699 -13 -9 -19 -19s-9 -22.667 -9 -38
c0 -26.667 7.83301 -45.5 23.5 -56.5s33.834 -16.5 54.501 -16.5c7.33301 0 19 1.33301 35 4c7.33301 0 12.833 -2 16.5 -6s5.5 -9 5.5 -15c0 -5.33301 -1.16699 -10 -3.5 -14s-5.16602 -6 -8.49902 -6c-116.667 -10 -177.334 -20 -182.001 -30
c-7.33301 7.33301 -11 15.333 -11 24z" />
    <glyph glyph-name="uniFBE8" unicode="&#x649;" horiz-adv-x="338" arabic-form="initial" 
d="M0 79h73.998c38.667 0 64.834 17.333 78.501 52s20.5 72.667 20.5 114c0 42 -5.66699 80 -17 114s-32.666 64 -63.999 90c14 20.667 34.667 31 62 31c40.667 0 70.667 -19.833 90 -59.5s29 -88.5 29 -146.5c0 -74.667 -16 -139 -48 -193s-84 -81 -156 -81h-69v79z" />
    <glyph glyph-name="uniFBE9" unicode="&#x649;" horiz-adv-x="338" arabic-form="medial" 
d="M338 79v-79h-107c-38 -0 -69.667 9.33301 -95 28c-26 -16.667 -54.333 -26 -85 -28h-51v79h51c22.667 0.666992 44 6.33398 64 17.001v333c0 34 16.667 51 50 51c16 0 28.333 -4.33301 37 -13s13 -21.334 13 -38.001v-272c0 -52 10.333 -78 31 -78h92z" />
    <glyph glyph-name="uniFBFD" unicode="&#x6cc;" horiz-adv-x="920" arabic-form="final" 
d="M138.5 -147.5c-47 59 -70.5039 122.167 -70.5039 189.5c0 34.667 5.16699 64.667 15.5 90s23.833 44.333 40.5 57s35 19 55 19c14 0 25.833 -3.16699 35.5 -9.5s15.834 -13.5 18.501 -21.5c-17.333 -14 -32.166 -36 -44.499 -66s-18.5 -61 -18.5 -93
c0 -50.667 19.333 -92.5 58 -125.5s105 -49.5 199 -49.5c55.333 0 101.833 6.83301 139.5 20.5s65.834 32.334 84.501 56.001s28 50.5 28 80.5h-27c-33.333 0 -57.666 7.16699 -72.999 21.5s-23 31.833 -23 52.5c0 11.333 2 22 6 32c8.66699 -6.66699 21 -12.834 37 -18.501
s33.333 -8.5 52 -8.5h269v-79h-142c0 -38 -11.5 -75 -34.5 -111s-60 -65.833 -111 -89.5s-115.833 -35.5 -194.5 -35.5h-22c-138 0 -230.5 29.5 -277.5 88.5z" />
    <glyph glyph-name="uniFBFE" unicode="&#x6cc;" horiz-adv-x="338" arabic-form="initial" 
d="M0 79h73.998c38.667 0 64.834 17.333 78.501 52s20.5 72.667 20.5 114c0 42 -5.66699 80 -17 114s-32.666 64 -63.999 90c14 20.667 34.667 31 62 31c40.667 0 70.667 -19.833 90 -59.5s29 -88.5 29 -146.5c0 -74.667 -16 -139 -48 -193s-84 -81 -156 -81h-69v79z
M36.498 -182.5c-11.667 11.667 -17.5 25.5 -17.5 41.5c0 16.667 5.83301 30.834 17.5 42.501s25.5 17.5 41.5 17.5c16.667 0 30.667 -5.83301 42 -17.5s17 -25.834 17 -42.501c0 -16 -5.66699 -29.833 -17 -41.5s-25.333 -17.5 -42 -17.5c-16 0 -29.833 5.83301 -41.5 17.5z
M186.498 -182.5c-11.667 11.667 -17.5 25.5 -17.5 41.5c0 16.667 5.83301 30.834 17.5 42.501s25.5 17.5 41.5 17.5c16.667 0 30.667 -5.83301 42 -17.5s17 -25.834 17 -42.501c0 -16 -5.66699 -29.833 -17 -41.5s-25.333 -17.5 -42 -17.5c-16 0 -29.833 5.83301 -41.5 17.5
z" />
    <glyph glyph-name="uniFBFF" unicode="&#x6cc;" horiz-adv-x="338" arabic-form="medial" 
d="M338 79v-79h-107c-38 -0 -69.667 9.33301 -95 28c-26 -16.667 -54.333 -26 -85 -28h-51v79h51c22.667 0.666992 44 6.33398 64 17.001v333c0 34 16.667 51 50 51c16 0 28.333 -4.33301 37 -13s13 -21.334 13 -38.001v-272c0 -52 10.333 -78 31 -78h92zM48.5 -182.5
c-11.667 11.667 -17.5 25.5 -17.5 41.5c0 16.667 5.83301 30.834 17.5 42.501s25.5 17.5 41.5 17.5c16.667 0 30.667 -5.83301 42 -17.5s17 -25.834 17 -42.501c0 -16 -5.66699 -29.833 -17 -41.5s-25.333 -17.5 -42 -17.5c-16 0 -29.833 5.83301 -41.5 17.5zM198.5 -182.5
c-11.667 11.667 -17.5 25.5 -17.5 41.5c0 16.667 5.83301 30.834 17.5 42.501s25.5 17.5 41.5 17.5c16.667 0 30.667 -5.83301 42 -17.5s17 -25.834 17 -42.501c0 -16 -5.66699 -29.833 -17 -41.5s-25.333 -17.5 -42 -17.5c-16 0 -29.833 5.83301 -41.5 17.5z" />
    <glyph glyph-name="uniFC64" unicode="&#xfc64;" horiz-adv-x="664" arabic-form="final" 
d="M664 79l0.000976562 -79h-70c-43.333 0 -78.666 16 -105.999 48s-41 78 -41 138v214c-50 0.666992 -91.333 -3.83301 -124 -13.5s-62.334 -22.167 -89.001 -37.5v-416c0 -21.333 -4.33301 -44.333 -13 -69s-24.5 -46.334 -47.5 -65.001s-54.5 -28 -94.5 -28
c-27.333 0 -50.333 4.5 -69 13.5s-32.334 19.333 -41.001 31s-13.334 21.5 -14.001 29.5c11.333 -4.66699 23.833 -8.5 37.5 -11.5s26.167 -4.5 37.5 -4.5c33.333 0 59 9.16699 77 27.5s27 38.833 27 61.5v438c10 20 27.833 39.333 53.5 58s58.834 34.334 99.501 47.001
s87 19 139 19c39.333 0 69.5 -6.66699 90.5 -20s31.5 -41.333 31.5 -84v-193c0 -28 6.66699 -52.333 20 -73s32.333 -31 57 -31h39zM395.001 567c0 8 2.99902 14.8311 8.99902 20.498s14 8.5 24 8.5c5.33301 0 9.33301 -0.333008 12 -1c-8.66699 8 -16.667 19.167 -24 33.5
s-11 29.833 -11 46.5c0 26.667 9.5 49 28.5 67s45.167 27 78.5 27c42.667 0 64 -14 64 -42c0 -11.333 -3 -19.666 -9 -24.999s-13 -8 -21 -8c-6 0 -11.333 1.66699 -16 5c0.666992 10.667 -2.83301 19.834 -10.5 27.501s-16.5 12.167 -26.5 13.5
c-6.66699 -2.66699 -13 -9 -19 -19s-9 -22.667 -9 -38c0 -26.667 7.83301 -45.5 23.5 -56.5s33.834 -16.5 54.501 -16.5c7.33301 0 19 1.33301 35 4c7.33301 0 12.833 -2 16.5 -6s5.5 -9 5.5 -15c0 -5.33301 -1.16699 -10 -3.5 -14s-5.16602 -6 -8.49902 -6
c-116.667 -10 -177.334 -20 -182.001 -30c-7.33301 7.33301 -11 15.333 -11 24z" />
    <glyph glyph-name="uniFC65" unicode="&#xfc65;" horiz-adv-x="664" arabic-form="final" 
d="M664 79l0.000976562 -79h-70c-43.333 0 -78.666 16 -105.999 48s-41 78 -41 138v214c-50 0.666992 -91.333 -3.83301 -124 -13.5s-62.334 -22.167 -89.001 -37.5v-416c0 -21.333 -4.33301 -44.333 -13 -69s-24.5 -46.334 -47.5 -65.001s-54.5 -28 -94.5 -28
c-27.333 0 -50.333 4.5 -69 13.5s-32.334 19.333 -41.001 31s-13.334 21.5 -14.001 29.5c11.333 -4.66699 23.833 -8.5 37.5 -11.5s26.167 -4.5 37.5 -4.5c33.333 0 59 9.16699 77 27.5s27 38.833 27 61.5v438c10 20 27.833 39.333 53.5 58s58.834 34.334 99.501 47.001
s87 19 139 19c39.333 0 69.5 -6.66699 90.5 -20s31.5 -41.333 31.5 -84v-193c0 -28 6.66699 -52.333 20 -73s32.333 -31 57 -31h39zM395.001 567c0 8 2.99902 14.8311 8.99902 20.498s14 8.5 24 8.5c5.33301 0 9.33301 -0.333008 12 -1c-8.66699 8 -16.667 19.167 -24 33.5
s-11 29.833 -11 46.5c0 26.667 9.5 49 28.5 67s45.167 27 78.5 27c42.667 0 64 -14 64 -42c0 -11.333 -3 -19.666 -9 -24.999s-13 -8 -21 -8c-6 0 -11.333 1.66699 -16 5c0.666992 10.667 -2.83301 19.834 -10.5 27.501s-16.5 12.167 -26.5 13.5
c-6.66699 -2.66699 -13 -9 -19 -19s-9 -22.667 -9 -38c0 -26.667 7.83301 -45.5 23.5 -56.5s33.834 -16.5 54.501 -16.5c7.33301 0 19 1.33301 35 4c7.33301 0 12.833 -2 16.5 -6s5.5 -9 5.5 -15c0 -5.33301 -1.16699 -10 -3.5 -14s-5.16602 -6 -8.49902 -6
c-116.667 -10 -177.334 -20 -182.001 -30c-7.33301 7.33301 -11 15.333 -11 24zM140.5 562.998c-12.333 12 -18.5 26.333 -18.5 43c0 17.333 6.16699 32 18.5 44s27.166 18 44.499 18c16.667 0 31 -6.16699 43 -18.5s18 -26.833 18 -43.5s-6 -31 -18 -43
s-26.333 -18 -43 -18c-17.333 0 -32.166 6 -44.499 18z" />
    <glyph glyph-name="uniFC6A" unicode="&#xfc6a;" horiz-adv-x="664" arabic-form="final" 
d="M664 79l0.000976562 -79h-70c-43.333 0 -78.666 16 -105.999 48s-41 78 -41 138v214c-50 0.666992 -91.333 -3.83301 -124 -13.5s-62.334 -22.167 -89.001 -37.5v-416c0 -21.333 -4.33301 -44.333 -13 -69s-24.5 -46.334 -47.5 -65.001s-54.5 -28 -94.5 -28
c-27.333 0 -50.333 4.5 -69 13.5s-32.334 19.333 -41.001 31s-13.334 21.5 -14.001 29.5c11.333 -4.66699 23.833 -8.5 37.5 -11.5s26.167 -4.5 37.5 -4.5c33.333 0 59 9.16699 77 27.5s27 38.833 27 61.5v438c10 20 27.833 39.333 53.5 58s58.834 34.334 99.501 47.001
s87 19 139 19c39.333 0 69.5 -6.66699 90.5 -20s31.5 -41.333 31.5 -84v-193c0 -28 6.66699 -52.333 20 -73s32.333 -31 57 -31h39zM453.501 -185c-12.333 12 -18.5 26.333 -18.5 43c0 17.333 6.16699 32 18.5 44s27.166 18 44.499 18c16.667 0 31 -6.16699 43 -18.5
s18 -26.833 18 -43.5s-6 -31 -18 -43s-26.333 -18 -43 -18c-17.333 0 -32.166 6 -44.499 18z" />
    <glyph glyph-name="uniFC6B" unicode="&#xfc6b;" horiz-adv-x="664" arabic-form="final" 
d="M664 79l0.000976562 -79h-70c-43.333 0 -78.666 16 -105.999 48s-41 78 -41 138v214c-50 0.666992 -91.333 -3.83301 -124 -13.5s-62.334 -22.167 -89.001 -37.5v-416c0 -21.333 -4.33301 -44.333 -13 -69s-24.5 -46.334 -47.5 -65.001s-54.5 -28 -94.5 -28
c-27.333 0 -50.333 4.5 -69 13.5s-32.334 19.333 -41.001 31s-13.334 21.5 -14.001 29.5c11.333 -4.66699 23.833 -8.5 37.5 -11.5s26.167 -4.5 37.5 -4.5c33.333 0 59 9.16699 77 27.5s27 38.833 27 61.5v438c10 20 27.833 39.333 53.5 58s58.834 34.334 99.501 47.001
s87 19 139 19c39.333 0 69.5 -6.66699 90.5 -20s31.5 -41.333 31.5 -84v-193c0 -28 6.66699 -52.333 20 -73s32.333 -31 57 -31h39zM453.501 -185c-12.333 12 -18.5 26.333 -18.5 43c0 17.333 6.16699 32 18.5 44s27.166 18 44.499 18c16.667 0 31 -6.16699 43 -18.5
s18 -26.833 18 -43.5s-6 -31 -18 -43s-26.333 -18 -43 -18c-17.333 0 -32.166 6 -44.499 18zM140.501 563c-12.333 12 -18.5 26.333 -18.5 43c0 17.333 6.16699 32 18.5 44s27.166 18 44.499 18c16.667 0 31 -6.16699 43 -18.5s18 -26.833 18 -43.5s-6 -31 -18 -43
s-26.333 -18 -43 -18c-17.333 0 -32.166 6 -44.499 18z" />
    <glyph glyph-name="uniFC70" unicode="&#xfc70;" horiz-adv-x="664" arabic-form="final" 
d="M664 79l0.000976562 -79h-70c-43.333 0 -78.666 16 -105.999 48s-41 78 -41 138v214c-50 0.666992 -91.333 -3.83301 -124 -13.5s-62.334 -22.167 -89.001 -37.5v-416c0 -21.333 -4.33301 -44.333 -13 -69s-24.5 -46.334 -47.5 -65.001s-54.5 -28 -94.5 -28
c-27.333 0 -50.333 4.5 -69 13.5s-32.334 19.333 -41.001 31s-13.334 21.5 -14.001 29.5c11.333 -4.66699 23.833 -8.5 37.5 -11.5s26.167 -4.5 37.5 -4.5c33.333 0 59 9.16699 77 27.5s27 38.833 27 61.5v438c10 20 27.833 39.333 53.5 58s58.834 34.334 99.501 47.001
s87 19 139 19c39.333 0 69.5 -6.66699 90.5 -20s31.5 -41.333 31.5 -84v-193c0 -28 6.66699 -52.333 20 -73s32.333 -31 57 -31h39zM381.501 563.5c-11.667 11.667 -17.5 25.5 -17.5 41.5c0 16.667 5.83301 30.834 17.5 42.501s25.5 17.5 41.5 17.5
c16.667 0 30.667 -5.83301 42 -17.5s17 -25.834 17 -42.501c0 -16 -5.66699 -29.833 -17 -41.5s-25.333 -17.5 -42 -17.5c-16 0 -29.833 5.83301 -41.5 17.5zM531.501 563.5c-11.667 11.667 -17.5 25.5 -17.5 41.5c0 16.667 5.83301 30.834 17.5 42.501s25.5 17.5 41.5 17.5
c16.667 0 30.667 -5.83301 42 -17.5s17 -25.834 17 -42.501c0 -16 -5.66699 -29.833 -17 -41.5s-25.333 -17.5 -42 -17.5c-16 0 -29.833 5.83301 -41.5 17.5z" />
    <glyph glyph-name="uniFC71" unicode="&#xfc71;" horiz-adv-x="664" arabic-form="final" 
d="M664 79l0.000976562 -79h-70c-43.333 0 -78.666 16 -105.999 48s-41 78 -41 138v214c-50 0.666992 -91.333 -3.83301 -124 -13.5s-62.334 -22.167 -89.001 -37.5v-416c0 -21.333 -4.33301 -44.333 -13 -69s-24.5 -46.334 -47.5 -65.001s-54.5 -28 -94.5 -28
c-27.333 0 -50.333 4.5 -69 13.5s-32.334 19.333 -41.001 31s-13.334 21.5 -14.001 29.5c11.333 -4.66699 23.833 -8.5 37.5 -11.5s26.167 -4.5 37.5 -4.5c33.333 0 59 9.16699 77 27.5s27 38.833 27 61.5v438c10 20 27.833 39.333 53.5 58s58.834 34.334 99.501 47.001
s87 19 139 19c39.333 0 69.5 -6.66699 90.5 -20s31.5 -41.333 31.5 -84v-193c0 -28 6.66699 -52.333 20 -73s32.333 -31 57 -31h39zM381.501 563.5c-11.667 11.667 -17.5 25.5 -17.5 41.5c0 16.667 5.83301 30.834 17.5 42.501s25.5 17.5 41.5 17.5
c16.667 0 30.667 -5.83301 42 -17.5s17 -25.834 17 -42.501c0 -16 -5.66699 -29.833 -17 -41.5s-25.333 -17.5 -42 -17.5c-16 0 -29.833 5.83301 -41.5 17.5zM531.501 563.5c-11.667 11.667 -17.5 25.5 -17.5 41.5c0 16.667 5.83301 30.834 17.5 42.501s25.5 17.5 41.5 17.5
c16.667 0 30.667 -5.83301 42 -17.5s17 -25.834 17 -42.501c0 -16 -5.66699 -29.833 -17 -41.5s-25.333 -17.5 -42 -17.5c-16 0 -29.833 5.83301 -41.5 17.5zM140.501 563c-12.333 12 -18.5 26.333 -18.5 43c0 17.333 6.16699 32 18.5 44s27.166 18 44.499 18
c16.667 0 31 -6.16699 43 -18.5s18 -26.833 18 -43.5s-6 -31 -18 -43s-26.333 -18 -43 -18c-17.333 0 -32.166 6 -44.499 18z" />
    <glyph glyph-name="uniFC76" unicode="&#xfc76;" horiz-adv-x="664" arabic-form="final" 
d="M664 79l0.000976562 -79h-70c-43.333 0 -78.666 16 -105.999 48s-41 78 -41 138v214c-50 0.666992 -91.333 -3.83301 -124 -13.5s-62.334 -22.167 -89.001 -37.5v-416c0 -21.333 -4.33301 -44.333 -13 -69s-24.5 -46.334 -47.5 -65.001s-54.5 -28 -94.5 -28
c-27.333 0 -50.333 4.5 -69 13.5s-32.334 19.333 -41.001 31s-13.334 21.5 -14.001 29.5c11.333 -4.66699 23.833 -8.5 37.5 -11.5s26.167 -4.5 37.5 -4.5c33.333 0 59 9.16699 77 27.5s27 38.833 27 61.5v438c10 20 27.833 39.333 53.5 58s58.834 34.334 99.501 47.001
s87 19 139 19c39.333 0 69.5 -6.66699 90.5 -20s31.5 -41.333 31.5 -84v-193c0 -28 6.66699 -52.333 20 -73s32.333 -31 57 -31h39zM536.001 772c10.667 -10.667 16 -23.667 16 -39c0 -14.667 -5.33301 -27.5 -16 -38.5s-23.667 -16.5 -39 -16.5s-28.333 5.33301 -39 16
s-16 23.667 -16 39s5.33301 28.333 16 39s23.667 16 39 16s28.333 -5.33301 39 -16zM464.001 646.5c11.333 -11.667 17 -25.5 17 -41.5c0 -16.667 -5.66699 -30.834 -17 -42.501s-25.333 -17.5 -42 -17.5c-16 0 -29.833 5.83301 -41.5 17.5s-17.5 25.834 -17.5 42.501
c0 16 5.83301 29.833 17.5 41.5s25.5 17.5 41.5 17.5c16.667 0 30.667 -5.83301 42 -17.5zM614.001 646.5c11.333 -11.667 17 -25.5 17 -41.5c0 -16.667 -5.66699 -30.834 -17 -42.501s-25.333 -17.5 -42 -17.5c-16 0 -29.833 5.83301 -41.5 17.5s-17.5 25.834 -17.5 42.501
c0 16 5.83301 29.833 17.5 41.5s25.5 17.5 41.5 17.5c16.667 0 30.667 -5.83301 42 -17.5z" />
    <glyph glyph-name="uniFC77" unicode="&#xfc77;" horiz-adv-x="664" arabic-form="final" 
d="M664 79l0.000976562 -79h-70c-43.333 0 -78.666 16 -105.999 48s-41 78 -41 138v214c-50 0.666992 -91.333 -3.83301 -124 -13.5s-62.334 -22.167 -89.001 -37.5v-416c0 -21.333 -4.33301 -44.333 -13 -69s-24.5 -46.334 -47.5 -65.001s-54.5 -28 -94.5 -28
c-27.333 0 -50.333 4.5 -69 13.5s-32.334 19.333 -41.001 31s-13.334 21.5 -14.001 29.5c11.333 -4.66699 23.833 -8.5 37.5 -11.5s26.167 -4.5 37.5 -4.5c33.333 0 59 9.16699 77 27.5s27 38.833 27 61.5v438c10 20 27.833 39.333 53.5 58s58.834 34.334 99.501 47.001
s87 19 139 19c39.333 0 69.5 -6.66699 90.5 -20s31.5 -41.333 31.5 -84v-193c0 -28 6.66699 -52.333 20 -73s32.333 -31 57 -31h39zM536.001 772c10.667 -10.667 16 -23.667 16 -39c0 -14.667 -5.33301 -27.5 -16 -38.5s-23.667 -16.5 -39 -16.5s-28.333 5.33301 -39 16
s-16 23.667 -16 39s5.33301 28.333 16 39s23.667 16 39 16s28.333 -5.33301 39 -16zM464.001 646.5c11.333 -11.667 17 -25.5 17 -41.5c0 -16.667 -5.66699 -30.834 -17 -42.501s-25.333 -17.5 -42 -17.5c-16 0 -29.833 5.83301 -41.5 17.5s-17.5 25.834 -17.5 42.501
c0 16 5.83301 29.833 17.5 41.5s25.5 17.5 41.5 17.5c16.667 0 30.667 -5.83301 42 -17.5zM614.001 646.5c11.333 -11.667 17 -25.5 17 -41.5c0 -16.667 -5.66699 -30.834 -17 -42.501s-25.333 -17.5 -42 -17.5c-16 0 -29.833 5.83301 -41.5 17.5s-17.5 25.834 -17.5 42.501
c0 16 5.83301 29.833 17.5 41.5s25.5 17.5 41.5 17.5c16.667 0 30.667 -5.83301 42 -17.5zM140.501 563c-12.333 12 -18.5 26.333 -18.5 43c0 17.333 6.16699 32 18.5 44s27.166 18 44.499 18c16.667 0 31 -6.16699 43 -18.5s18 -26.833 18 -43.5s-6 -31 -18 -43
s-26.333 -18 -43 -18c-17.333 0 -32.166 6 -44.499 18z" />
    <glyph glyph-name="uniFC8A" unicode="&#xfc8a;" horiz-adv-x="664" arabic-form="final" 
d="M664 79l0.000976562 -79h-70c-43.333 0 -78.666 16 -105.999 48s-41 78 -41 138v214c-50 0.666992 -91.333 -3.83301 -124 -13.5s-62.334 -22.167 -89.001 -37.5v-416c0 -21.333 -4.33301 -44.333 -13 -69s-24.5 -46.334 -47.5 -65.001s-54.5 -28 -94.5 -28
c-27.333 0 -50.333 4.5 -69 13.5s-32.334 19.333 -41.001 31s-13.334 21.5 -14.001 29.5c11.333 -4.66699 23.833 -8.5 37.5 -11.5s26.167 -4.5 37.5 -4.5c33.333 0 59 9.16699 77 27.5s27 38.833 27 61.5v438c10 20 27.833 39.333 53.5 58s58.834 34.334 99.501 47.001
s87 19 139 19c39.333 0 69.5 -6.66699 90.5 -20s31.5 -41.333 31.5 -84v-193c0 -28 6.66699 -52.333 20 -73s32.333 -31 57 -31h39zM453.501 563c-12.333 12 -18.5 26.333 -18.5 43c0 17.333 6.16699 32 18.5 44s27.166 18 44.499 18c16.667 0 31 -6.16699 43 -18.5
s18 -26.833 18 -43.5s-6 -31 -18 -43s-26.333 -18 -43 -18c-17.333 0 -32.166 6 -44.499 18z" />
    <glyph glyph-name="uniFC8B" unicode="&#xfc8b;" horiz-adv-x="664" arabic-form="final" 
d="M664 79l0.000976562 -79h-70c-43.333 0 -78.666 16 -105.999 48s-41 78 -41 138v214c-50 0.666992 -91.333 -3.83301 -124 -13.5s-62.334 -22.167 -89.001 -37.5v-416c0 -21.333 -4.33301 -44.333 -13 -69s-24.5 -46.334 -47.5 -65.001s-54.5 -28 -94.5 -28
c-27.333 0 -50.333 4.5 -69 13.5s-32.334 19.333 -41.001 31s-13.334 21.5 -14.001 29.5c11.333 -4.66699 23.833 -8.5 37.5 -11.5s26.167 -4.5 37.5 -4.5c33.333 0 59 9.16699 77 27.5s27 38.833 27 61.5v438c10 20 27.833 39.333 53.5 58s58.834 34.334 99.501 47.001
s87 19 139 19c39.333 0 69.5 -6.66699 90.5 -20s31.5 -41.333 31.5 -84v-193c0 -28 6.66699 -52.333 20 -73s32.333 -31 57 -31h39zM453.501 563c-12.333 12 -18.5 26.333 -18.5 43c0 17.333 6.16699 32 18.5 44s27.166 18 44.499 18c16.667 0 31 -6.16699 43 -18.5
s18 -26.833 18 -43.5s-6 -31 -18 -43s-26.333 -18 -43 -18c-17.333 0 -32.166 6 -44.499 18zM140.501 563c-12.333 12 -18.5 26.333 -18.5 43c0 17.333 6.16699 32 18.5 44s27.166 18 44.499 18c16.667 0 31 -6.16699 43 -18.5s18 -26.833 18 -43.5s-6 -31 -18 -43
s-26.333 -18 -43 -18c-17.333 0 -32.166 6 -44.499 18z" />
    <glyph glyph-name="uniFC91" unicode="&#xfc91;" horiz-adv-x="664" arabic-form="final" 
d="M664 79l0.000976562 -79h-70c-43.333 0 -78.666 16 -105.999 48s-41 78 -41 138v214c-50 0.666992 -91.333 -3.83301 -124 -13.5s-62.334 -22.167 -89.001 -37.5v-416c0 -21.333 -4.33301 -44.333 -13 -69s-24.5 -46.334 -47.5 -65.001s-54.5 -28 -94.5 -28
c-27.333 0 -50.333 4.5 -69 13.5s-32.334 19.333 -41.001 31s-13.334 21.5 -14.001 29.5c11.333 -4.66699 23.833 -8.5 37.5 -11.5s26.167 -4.5 37.5 -4.5c33.333 0 59 9.16699 77 27.5s27 38.833 27 61.5v438c10 20 27.833 39.333 53.5 58s58.834 34.334 99.501 47.001
s87 19 139 19c39.333 0 69.5 -6.66699 90.5 -20s31.5 -41.333 31.5 -84v-193c0 -28 6.66699 -52.333 20 -73s32.333 -31 57 -31h39zM380.501 -182.5c-11.667 11.667 -17.5 25.5 -17.5 41.5c0 16.667 5.83301 30.834 17.5 42.501s25.5 17.5 41.5 17.5
c16.667 0 30.667 -5.83301 42 -17.5s17 -25.834 17 -42.501c0 -16 -5.66699 -29.833 -17 -41.5s-25.333 -17.5 -42 -17.5c-16 0 -29.833 5.83301 -41.5 17.5zM530.501 -182.5c-11.667 11.667 -17.5 25.5 -17.5 41.5c0 16.667 5.83301 30.834 17.5 42.501
s25.5 17.5 41.5 17.5c16.667 0 30.667 -5.83301 42 -17.5s17 -25.834 17 -42.501c0 -16 -5.66699 -29.833 -17 -41.5s-25.333 -17.5 -42 -17.5c-16 0 -29.833 5.83301 -41.5 17.5z" />
    <glyph glyph-name="uniFC92" unicode="&#xfc92;" horiz-adv-x="664" arabic-form="final" 
d="M664 79l0.000976562 -79h-70c-43.333 0 -78.666 16 -105.999 48s-41 78 -41 138v214c-50 0.666992 -91.333 -3.83301 -124 -13.5s-62.334 -22.167 -89.001 -37.5v-416c0 -21.333 -4.33301 -44.333 -13 -69s-24.5 -46.334 -47.5 -65.001s-54.5 -28 -94.5 -28
c-27.333 0 -50.333 4.5 -69 13.5s-32.334 19.333 -41.001 31s-13.334 21.5 -14.001 29.5c11.333 -4.66699 23.833 -8.5 37.5 -11.5s26.167 -4.5 37.5 -4.5c33.333 0 59 9.16699 77 27.5s27 38.833 27 61.5v438c10 20 27.833 39.333 53.5 58s58.834 34.334 99.501 47.001
s87 19 139 19c39.333 0 69.5 -6.66699 90.5 -20s31.5 -41.333 31.5 -84v-193c0 -28 6.66699 -52.333 20 -73s32.333 -31 57 -31h39zM380.501 -182.5c-11.667 11.667 -17.5 25.5 -17.5 41.5c0 16.667 5.83301 30.834 17.5 42.501s25.5 17.5 41.5 17.5
c16.667 0 30.667 -5.83301 42 -17.5s17 -25.834 17 -42.501c0 -16 -5.66699 -29.833 -17 -41.5s-25.333 -17.5 -42 -17.5c-16 0 -29.833 5.83301 -41.5 17.5zM530.501 -182.5c-11.667 11.667 -17.5 25.5 -17.5 41.5c0 16.667 5.83301 30.834 17.5 42.501
s25.5 17.5 41.5 17.5c16.667 0 30.667 -5.83301 42 -17.5s17 -25.834 17 -42.501c0 -16 -5.66699 -29.833 -17 -41.5s-25.333 -17.5 -42 -17.5c-16 0 -29.833 5.83301 -41.5 17.5zM140.501 563c-12.333 12 -18.5 26.333 -18.5 43c0 17.333 6.16699 32 18.5 44
s27.166 18 44.499 18c16.667 0 31 -6.16699 43 -18.5s18 -26.833 18 -43.5s-6 -31 -18 -43s-26.333 -18 -43 -18c-17.333 0 -32.166 6 -44.499 18z" />
    <glyph glyph-name="uniFD0D" unicode="&#xfd0d;" horiz-adv-x="1252" arabic-form="isolated" 
d="M1157.5 420c19.667 -40 29.499 -90.668 29.499 -152.001c0 -70 -15.167 -132.167 -45.5 -186.5s-84.166 -81.5 -161.499 -81.5h-12c-35.333 0 -64.666 4.33301 -87.999 13s-45.333 23.667 -66 45c-11.333 -15.333 -26.333 -28.833 -45 -40.5s-38.667 -17.5 -60 -17.5h-36
h-79c-43.333 0 -78.666 16 -105.999 48s-41 78 -41 138v214c-50 0.666992 -91.333 -3.83301 -124 -13.5s-62.334 -22.167 -89.001 -37.5v-416c0 -21.333 -4.33301 -44.333 -13 -69s-24.5 -46.334 -47.5 -65.001s-54.5 -28 -94.5 -28c-27.333 0 -50.333 4.5 -69 13.5
s-32.334 19.333 -41.001 31s-13.334 21.5 -14.001 29.5c11.333 -4.66699 23.833 -8.5 37.5 -11.5s26.167 -4.5 37.5 -4.5c33.333 0 59 9.16699 77 27.5s27 38.833 27 61.5v438c10 20 27.833 39.333 53.5 58s58.834 34.334 99.501 47.001s87 19 139 19
c39.333 0 69.5 -6.66699 90.5 -20s31.5 -41.333 31.5 -84v-193c0 -28 6.66699 -52.333 20 -73s32.333 -31 57 -31h48c30 0 50.667 7 62 21s17 32.333 17 55v240c0 18 4.83301 31.5 14.5 40.5s22.5 13.5 38.5 13.5c32 0 48 -18 48 -54v-198c0 -30.667 4.33301 -58 13 -82
s25.334 -36 50.001 -36h71c38.667 0 65 18 79 54s21 72 21 108c0 96.667 -27.667 166.334 -83 209.001c11.333 20 31.666 30 60.999 30c42 0 72.833 -20 92.5 -60zM843.999 771.999c10.667 -10.667 16 -23.667 16 -39c0 -14.667 -5.33301 -27.5 -16 -38.5
s-23.667 -16.5 -39 -16.5s-28.333 5.33301 -39 16s-16 23.667 -16 39s5.33301 28.333 16 39s23.667 16 39 16s28.333 -5.33301 39 -16zM771.999 646.499c11.333 -11.667 17 -25.5 17 -41.5c0 -16.667 -5.66699 -30.834 -17 -42.501s-25.333 -17.5 -42 -17.5
c-16 0 -29.833 5.83301 -41.5 17.5s-17.5 25.834 -17.5 42.501c0 16 5.83301 29.833 17.5 41.5s25.5 17.5 41.5 17.5c16.667 0 30.667 -5.83301 42 -17.5zM921.999 646.499c11.333 -11.667 17 -25.5 17 -41.5c0 -16.667 -5.66699 -30.834 -17 -42.501
s-25.333 -17.5 -42 -17.5c-16 0 -29.833 5.83301 -41.5 17.5s-17.5 25.834 -17.5 42.501c0 16 5.83301 29.833 17.5 41.5s25.5 17.5 41.5 17.5c16.667 0 30.667 -5.83301 42 -17.5z" />
    <glyph glyph-name="uniFD0E" unicode="&#xfd0e;" horiz-adv-x="1252" arabic-form="isolated" 
d="M1157.5 420c19.667 -40 29.499 -90.668 29.499 -152.001c0 -70 -15.167 -132.167 -45.5 -186.5s-84.166 -81.5 -161.499 -81.5h-12c-35.333 0 -64.666 4.33301 -87.999 13s-45.333 23.667 -66 45c-11.333 -15.333 -26.333 -28.833 -45 -40.5s-38.667 -17.5 -60 -17.5h-36
h-79c-43.333 0 -78.666 16 -105.999 48s-41 78 -41 138v214c-50 0.666992 -91.333 -3.83301 -124 -13.5s-62.334 -22.167 -89.001 -37.5v-416c0 -21.333 -4.33301 -44.333 -13 -69s-24.5 -46.334 -47.5 -65.001s-54.5 -28 -94.5 -28c-27.333 0 -50.333 4.5 -69 13.5
s-32.334 19.333 -41.001 31s-13.334 21.5 -14.001 29.5c11.333 -4.66699 23.833 -8.5 37.5 -11.5s26.167 -4.5 37.5 -4.5c33.333 0 59 9.16699 77 27.5s27 38.833 27 61.5v438c10 20 27.833 39.333 53.5 58s58.834 34.334 99.501 47.001s87 19 139 19
c39.333 0 69.5 -6.66699 90.5 -20s31.5 -41.333 31.5 -84v-193c0 -28 6.66699 -52.333 20 -73s32.333 -31 57 -31h48c30 0 50.667 7 62 21s17 32.333 17 55v240c0 18 4.83301 31.5 14.5 40.5s22.5 13.5 38.5 13.5c32 0 48 -18 48 -54v-198c0 -30.667 4.33301 -58 13 -82
s25.334 -36 50.001 -36h71c38.667 0 65 18 79 54s21 72 21 108c0 96.667 -27.667 166.334 -83 209.001c11.333 20 31.666 30 60.999 30c42 0 72.833 -20 92.5 -60z" />
    <glyph glyph-name="uniFD0F" unicode="&#xfd0f;" horiz-adv-x="1087" arabic-form="isolated" 
d="M878.5 457c41 -15.333 75.1689 -41.334 102.502 -78.001s41 -84.667 41 -144c0 -56 -14.167 -109.167 -42.5 -159.5s-82.5 -75.5 -162.5 -75.5h-370v79v321c-50 0.666992 -91.333 -3.83301 -124 -13.5s-62.334 -22.167 -89.001 -37.5v-416
c0 -21.333 -4.33301 -44.333 -13 -69s-24.5 -46.334 -47.5 -65.001s-54.5 -28 -94.5 -28c-27.333 0 -50.333 4.5 -69 13.5s-32.334 19.333 -41.001 31s-13.334 21.5 -14.001 29.5c11.333 -4.66699 23.833 -8.5 37.5 -11.5s26.167 -4.5 37.5 -4.5
c33.333 0 59 9.16699 77 27.5s27 38.833 27 61.5v438c10 20 27.833 39.333 53.5 58s58.834 34.334 99.501 47.001s87 19 139 19c34 0 61 -4.66699 81 -14s32.667 -28.666 38 -57.999c22 20 51 37 87 51s76 21 120 21c43.333 0 85.5 -7.66699 126.5 -23zM891.502 128.499
c19.667 33 29.499 67.5 29.499 103.5c0 40 -9.66699 72.667 -29 98s-43.333 43.5 -72 54.5s-58 16.5 -88 16.5c-39.333 0 -76.5 -8.5 -111.5 -25.5s-59.167 -36.167 -72.5 -57.5v-239h241c48.667 0 82.834 16.5 102.501 49.5z" />
    <glyph glyph-name="uniFD10" unicode="&#xfd10;" horiz-adv-x="1087" arabic-form="isolated" 
d="M878.5 457c41 -15.333 75.1689 -41.334 102.502 -78.001s41 -84.667 41 -144c0 -56 -14.167 -109.167 -42.5 -159.5s-82.5 -75.5 -162.5 -75.5h-370v79v321c-50 0.666992 -91.333 -3.83301 -124 -13.5s-62.334 -22.167 -89.001 -37.5v-416
c0 -21.333 -4.33301 -44.333 -13 -69s-24.5 -46.334 -47.5 -65.001s-54.5 -28 -94.5 -28c-27.333 0 -50.333 4.5 -69 13.5s-32.334 19.333 -41.001 31s-13.334 21.5 -14.001 29.5c11.333 -4.66699 23.833 -8.5 37.5 -11.5s26.167 -4.5 37.5 -4.5
c33.333 0 59 9.16699 77 27.5s27 38.833 27 61.5v438c10 20 27.833 39.333 53.5 58s58.834 34.334 99.501 47.001s87 19 139 19c34 0 61 -4.66699 81 -14s32.667 -28.666 38 -57.999c22 20 51 37 87 51s76 21 120 21c43.333 0 85.5 -7.66699 126.5 -23zM891.502 128.499
c19.667 33 29.499 67.5 29.499 103.5c0 40 -9.66699 72.667 -29 98s-43.333 43.5 -72 54.5s-58 16.5 -88 16.5c-39.333 0 -76.5 -8.5 -111.5 -25.5s-59.167 -36.167 -72.5 -57.5v-239h241c48.667 0 82.834 16.5 102.501 49.5zM708.501 562.999
c-12.333 12 -18.5 26.333 -18.5 43c0 17.333 6.16699 32 18.5 44s27.166 18 44.499 18c16.667 0 31 -6.16699 43 -18.5s18 -26.833 18 -43.5s-6 -31 -18 -43s-26.333 -18 -43 -18c-17.333 0 -32.166 6 -44.499 18z" />
    <glyph glyph-name="uniFD29" unicode="&#xfd29;" horiz-adv-x="1291" arabic-form="final" 
d="M1291 79l-0.000976562 -79.002h-121c-38 0 -68 8 -90 24c-28.667 -16 -62 -24 -100 -24h-12c-35.333 0 -64.666 4.33301 -87.999 13s-45.333 23.667 -66 45c-11.333 -15.333 -26.333 -28.833 -45 -40.5s-38.667 -17.5 -60 -17.5h-36h-79
c-43.333 0 -78.666 16 -105.999 48s-41 78 -41 138v214c-50 0.666992 -91.333 -3.83301 -124 -13.5s-62.334 -22.167 -89.001 -37.5v-416c0 -21.333 -4.33301 -44.333 -13 -69s-24.5 -46.334 -47.5 -65.001s-54.5 -28 -94.5 -28c-27.333 0 -50.333 4.5 -69 13.5
s-32.334 19.333 -41.001 31s-13.334 21.5 -14.001 29.5c11.333 -4.66699 23.833 -8.5 37.5 -11.5s26.167 -4.5 37.5 -4.5c33.333 0 59 9.16699 77 27.5s27 38.833 27 61.5v438c10 20 27.833 39.333 53.5 58s58.834 34.334 99.501 47.001s87 19 139 19
c39.333 0 69.5 -6.66699 90.5 -20s31.5 -41.333 31.5 -84v-193c0 -28 6.66699 -52.333 20 -73s32.333 -31 57 -31h48c30 0 50.667 7 62 21s17 32.333 17 55v240c0 18 4.83301 31.5 14.5 40.5s22.5 13.5 38.5 13.5c32 0 48 -18 48 -54v-198c0 -30.667 4.33301 -58 13 -82
s25.334 -36 50.001 -36h71c38.667 0 65 18 79 54s21 72 21 108c0 96.667 -27.667 166.334 -83 209.001c11.333 20 31.666 30 60.999 30c42 0 72.833 -20 92.5 -60s29.5 -90.667 29.5 -152c0 -34 -3.66699 -67.667 -11 -101s-19.666 -62.666 -36.999 -87.999h152z
M843.999 771.998c10.667 -10.667 16 -23.667 16 -39c0 -14.667 -5.33301 -27.5 -16 -38.5s-23.667 -16.5 -39 -16.5s-28.333 5.33301 -39 16s-16 23.667 -16 39s5.33301 28.333 16 39s23.667 16 39 16s28.333 -5.33301 39 -16zM771.999 646.498
c11.333 -11.667 17 -25.5 17 -41.5c0 -16.667 -5.66699 -30.834 -17 -42.501s-25.333 -17.5 -42 -17.5c-16 0 -29.833 5.83301 -41.5 17.5s-17.5 25.834 -17.5 42.501c0 16 5.83301 29.833 17.5 41.5s25.5 17.5 41.5 17.5c16.667 0 30.667 -5.83301 42 -17.5z
M921.999 646.498c11.333 -11.667 17 -25.5 17 -41.5c0 -16.667 -5.66699 -30.834 -17 -42.501s-25.333 -17.5 -42 -17.5c-16 0 -29.833 5.83301 -41.5 17.5s-17.5 25.834 -17.5 42.501c0 16 5.83301 29.833 17.5 41.5s25.5 17.5 41.5 17.5
c16.667 0 30.667 -5.83301 42 -17.5z" />
    <glyph glyph-name="uniFD2A" unicode="&#xfd2a;" horiz-adv-x="1291" arabic-form="final" 
d="M1291 79l-0.000976562 -79.002h-121c-38 0 -68 8 -90 24c-28.667 -16 -62 -24 -100 -24h-12c-35.333 0 -64.666 4.33301 -87.999 13s-45.333 23.667 -66 45c-11.333 -15.333 -26.333 -28.833 -45 -40.5s-38.667 -17.5 -60 -17.5h-36h-79
c-43.333 0 -78.666 16 -105.999 48s-41 78 -41 138v214c-50 0.666992 -91.333 -3.83301 -124 -13.5s-62.334 -22.167 -89.001 -37.5v-416c0 -21.333 -4.33301 -44.333 -13 -69s-24.5 -46.334 -47.5 -65.001s-54.5 -28 -94.5 -28c-27.333 0 -50.333 4.5 -69 13.5
s-32.334 19.333 -41.001 31s-13.334 21.5 -14.001 29.5c11.333 -4.66699 23.833 -8.5 37.5 -11.5s26.167 -4.5 37.5 -4.5c33.333 0 59 9.16699 77 27.5s27 38.833 27 61.5v438c10 20 27.833 39.333 53.5 58s58.834 34.334 99.501 47.001s87 19 139 19
c39.333 0 69.5 -6.66699 90.5 -20s31.5 -41.333 31.5 -84v-193c0 -28 6.66699 -52.333 20 -73s32.333 -31 57 -31h48c30 0 50.667 7 62 21s17 32.333 17 55v240c0 18 4.83301 31.5 14.5 40.5s22.5 13.5 38.5 13.5c32 0 48 -18 48 -54v-198c0 -30.667 4.33301 -58 13 -82
s25.334 -36 50.001 -36h71c38.667 0 65 18 79 54s21 72 21 108c0 96.667 -27.667 166.334 -83 209.001c11.333 20 31.666 30 60.999 30c42 0 72.833 -20 92.5 -60s29.5 -90.667 29.5 -152c0 -34 -3.66699 -67.667 -11 -101s-19.666 -62.666 -36.999 -87.999h152z" />
    <glyph glyph-name="uniFD2B" unicode="&#xfd2b;" horiz-adv-x="1095" arabic-form="final" 
d="M1095 79l0.000976562 -79.001h-85c-37.333 0 -67.666 7.66699 -90.999 23c-28.667 -15.333 -62.667 -23 -102 -23h-370v79v321c-50 0.666992 -91.333 -3.83301 -124 -13.5s-62.334 -22.167 -89.001 -37.5v-416c0 -21.333 -4.33301 -44.333 -13 -69
s-24.5 -46.334 -47.5 -65.001s-54.5 -28 -94.5 -28c-27.333 0 -50.333 4.5 -69 13.5s-32.334 19.333 -41.001 31s-13.334 21.5 -14.001 29.5c11.333 -4.66699 23.833 -8.5 37.5 -11.5s26.167 -4.5 37.5 -4.5c33.333 0 59 9.16699 77 27.5s27 38.833 27 61.5v438
c10 20 27.833 39.333 53.5 58s58.834 34.334 99.501 47.001s87 19 139 19c34 0 61 -4.66699 81 -14s32.667 -28.666 38 -57.999c22 20 51 37 87 51s76 21 120 21c43.333 0 85.5 -7.66699 126.5 -23s75.167 -41.333 102.5 -78s41 -84.667 41 -144c0 -24.667 -3 -51 -9 -79
s-16.667 -53.667 -32 -77h114zM891.501 128.499c19.667 33 29.499 67.5 29.499 103.5c0 40 -9.66699 72.667 -29 98s-43.333 43.5 -72 54.5s-58 16.5 -88 16.5c-39.333 0 -76.5 -8.5 -111.5 -25.5s-59.167 -36.167 -72.5 -57.5v-239h241c48.667 0 82.834 16.5 102.501 49.5z
" />
    <glyph glyph-name="uniFD2C" unicode="&#xfd2c;" horiz-adv-x="1095" arabic-form="final" 
d="M1095 79l0.000976562 -79.001h-85c-37.333 0 -67.666 7.66699 -90.999 23c-28.667 -15.333 -62.667 -23 -102 -23h-370v79v321c-50 0.666992 -91.333 -3.83301 -124 -13.5s-62.334 -22.167 -89.001 -37.5v-416c0 -21.333 -4.33301 -44.333 -13 -69
s-24.5 -46.334 -47.5 -65.001s-54.5 -28 -94.5 -28c-27.333 0 -50.333 4.5 -69 13.5s-32.334 19.333 -41.001 31s-13.334 21.5 -14.001 29.5c11.333 -4.66699 23.833 -8.5 37.5 -11.5s26.167 -4.5 37.5 -4.5c33.333 0 59 9.16699 77 27.5s27 38.833 27 61.5v438
c10 20 27.833 39.333 53.5 58s58.834 34.334 99.501 47.001s87 19 139 19c34 0 61 -4.66699 81 -14s32.667 -28.666 38 -57.999c22 20 51 37 87 51s76 21 120 21c43.333 0 85.5 -7.66699 126.5 -23s75.167 -41.333 102.5 -78s41 -84.667 41 -144c0 -24.667 -3 -51 -9 -79
s-16.667 -53.667 -32 -77h114zM891.501 128.499c19.667 33 29.499 67.5 29.499 103.5c0 40 -9.66699 72.667 -29 98s-43.333 43.5 -72 54.5s-58 16.5 -88 16.5c-39.333 0 -76.5 -8.5 -111.5 -25.5s-59.167 -36.167 -72.5 -57.5v-239h241c48.667 0 82.834 16.5 102.501 49.5z
M708.5 562.999c-12.333 12 -18.5 26.333 -18.5 43c0 17.333 6.16699 32 18.5 44s27.166 18 44.499 18c16.667 0 31 -6.16699 43 -18.5s18 -26.833 18 -43.5s-6 -31 -18 -43s-26.333 -18 -43 -18c-17.333 0 -32.166 6 -44.499 18z" />
    <glyph glyph-name="uniFE82" unicode="&#x622;" horiz-adv-x="316" arabic-form="final" 
d="M144 48c-27.333 32 -41 78.002 -41 138.002v265c0 29.333 -5.33301 53.166 -16 71.499s-23 31.833 -37 40.5c3.33301 7.33301 11.5 15.166 24.5 23.499s28.167 12.5 45.5 12.5c24 0 43.833 -9.16699 59.5 -27.5s23.5 -46.833 23.5 -85.5v-303
c0 -28 6.66699 -52.333 20 -73s32.333 -31 57 -31h36v-79h-67c-42.667 0 -77.667 16 -105 48zM139 646.002c-12.667 4 -28.001 10 -46.001 18c-16 6.66699 -28.833 11.667 -38.5 15s-19.834 5 -30.501 5c-12 0 -22.333 -2.66699 -31 -8s-14.667 -8 -18 -8s-5 2.66699 -5 8
c0 7.33301 3 16 9 26s15.333 18.667 28 26s28.334 11 47.001 11c13.333 0 26.166 -1.66699 38.499 -5s26.5 -8.33301 42.5 -15c30.667 -12.667 55 -19 73 -19c9.33301 0 16.833 1 22.5 3s11.834 5 18.501 9s12.334 6 17.001 6c4 -0.666992 4 -8 0 -22
s-12.833 -26.833 -26.5 -38.5s-33.167 -17.5 -58.5 -17.5c-15.333 0 -29.333 2 -42 6z" />
    <glyph glyph-name="uniFE84" unicode="&#x623;" horiz-adv-x="316" arabic-form="final" 
d="M144 48c-27.333 32 -41 78.002 -41 138.002v265c0 29.333 -5.33301 53.166 -16 71.499s-23 31.833 -37 40.5c3.33301 7.33301 11.5 15.166 24.5 23.499s28.167 12.5 45.5 12.5c24 0 43.833 -9.16699 59.5 -27.5s23.5 -46.833 23.5 -85.5v-303
c0 -28 6.66699 -52.333 20 -73s32.333 -31 57 -31h36v-79h-67c-42.667 0 -77.667 16 -105 48zM18 662.002c0 8 2.99902 14.8311 8.99902 20.498s14 8.5 24 8.5c5.33301 0 9.33301 -0.333008 12 -1c-8.66699 8 -16.667 19.167 -24 33.5s-11 29.833 -11 46.5
c0 26.667 9.5 49 28.5 67s45.167 27 78.5 27c42.667 0 64 -14 64 -42c0 -11.333 -3 -19.666 -9 -24.999s-13 -8 -21 -8c-6 0 -11.333 1.66699 -16 5c0.666992 10.667 -2.83301 19.834 -10.5 27.501s-16.5 12.167 -26.5 13.5c-6.66699 -2.66699 -13 -9 -19 -19
s-9 -22.667 -9 -38c0 -26.667 7.83301 -45.5 23.5 -56.5s33.834 -16.5 54.501 -16.5c7.33301 0 19 1.33301 35 4c7.33301 0 12.833 -2 16.5 -6s5.5 -9 5.5 -15c0 -5.33301 -1.16699 -10 -3.5 -14s-5.16602 -6 -8.49902 -6c-116.667 -10 -177.334 -20 -182.001 -30
c-7.33301 7.33301 -11 15.333 -11 24z" />
    <glyph glyph-name="uniFE86" unicode="&#x624;" horiz-adv-x="540" arabic-form="final" 
d="M540 0h-88v-63c0 -23.333 -4.33301 -47.5 -13 -72.5s-24.667 -46.833 -48 -65.5s-55.333 -28 -96 -28c-36 0 -65 7.66699 -87 23s-35.667 32.666 -41 51.999c8.66699 -4 20 -7.66699 34 -11s27.333 -5 40 -5c32 0 58.333 8.5 79 25.5s31 39.5 31 67.5l1 77l-102 -2
c-65.333 0 -112.5 19.167 -141.5 57.5s-43.5 98.5 -43.5 180.5c0 66.667 8.5 117.834 25.5 153.501s39.833 59.667 68.5 72s64 18.5 106 18.5c61.333 0 107.833 -13 139.5 -39s47.5 -73.667 47.5 -143v-219h88v-79zM186 129.5c14 -33.667 44 -50.498 90 -50.498h75v223
c0 35.333 -7.83301 60.666 -23.5 75.999s-36.167 23 -61.5 23c-34 0 -59.333 -13.333 -76 -40s-25 -67.334 -25 -122.001c0 -39.333 7 -75.833 21 -109.5zM159 567.002c0 8 2.99902 14.8311 8.99902 20.498s14 8.5 24 8.5c5.33301 0 9.33301 -0.333008 12 -1
c-8.66699 8 -16.667 19.167 -24 33.5s-11 29.833 -11 46.5c0 26.667 9.5 49 28.5 67s45.167 27 78.5 27c42.667 0 64 -14 64 -42c0 -11.333 -3 -19.666 -9 -24.999s-13 -8 -21 -8c-6 0 -11.333 1.66699 -16 5c0.666992 10.667 -2.83301 19.834 -10.5 27.501
s-16.5 12.167 -26.5 13.5c-6.66699 -2.66699 -13 -9 -19 -19s-9 -22.667 -9 -38c0 -26.667 7.83301 -45.5 23.5 -56.5s33.834 -16.5 54.501 -16.5c7.33301 0 19 1.33301 35 4c7.33301 0 12.833 -2 16.5 -6s5.5 -9 5.5 -15c0 -5.33301 -1.16699 -10 -3.5 -14
s-5.16602 -6 -8.49902 -6c-116.667 -10 -177.334 -20 -182.001 -30c-7.33301 7.33301 -11 15.333 -11 24z" />
    <glyph glyph-name="uniFE88" unicode="&#x625;" horiz-adv-x="316" arabic-form="final" 
d="M144.5 48c-27 32 -40.833 77.6689 -41.5 137.002v327c0 29.333 -5.33301 53.166 -16 71.499s-23 31.833 -37 40.5c3.33301 7.33301 11.5 15.166 24.5 23.499s28.167 12.5 45.5 12.5c24 0 43.833 -9.16699 59.5 -27.5s23.5 -46.833 23.5 -85.5v-364
c0 -28 6.66699 -52.333 20 -73s32.333 -31 57 -31h36v-79h-66c-43.333 0 -78.5 16 -105.5 48zM56 -250.998c0 7.33301 2.99902 13.667 8.99902 19s14 8 24 8c5.33301 0 9.33301 -0.333008 12 -1c-9.33301 8.66699 -17.5 20 -24.5 34s-10.5 29.333 -10.5 46
c0 26.667 9.5 49.167 28.5 67.5s45.5 27.5 79.5 27.5c24 0 40.667 -4.16699 50 -12.5s14 -18.5 14 -30.5c0 -11.333 -3 -19.5 -9 -24.5s-13.333 -7.5 -22 -7.5c-7.33301 0 -12.666 1.33301 -15.999 4c0.666992 11.333 -2.66602 20.833 -9.99902 28.5s-16 12.167 -26 13.5
c-7.33301 -2.66699 -13.833 -9 -19.5 -19s-8.5 -22.667 -8.5 -38c0 -26.667 7.66699 -45.5 23 -56.5s33.666 -16.5 54.999 -16.5c7.33301 0 19 1.33301 35 4c7.33301 0 12.833 -2 16.5 -6s5.5 -9 5.5 -15c0 -5.33301 -1.33301 -10 -4 -14s-5.66699 -6 -9 -6
c-116 -10 -176.333 -20 -181 -30c-8 8 -12 16.333 -12 25z" />
    <glyph glyph-name="uniFE8A" unicode="&#x626;" horiz-adv-x="920" arabic-form="final" 
d="M138.5 -147.5c-47 59 -70.5039 122.167 -70.5039 189.5c0 34.667 5.16699 64.667 15.5 90s23.833 44.333 40.5 57s35 19 55 19c14 0 25.833 -3.16699 35.5 -9.5s15.834 -13.5 18.501 -21.5c-17.333 -14 -32.166 -36 -44.499 -66s-18.5 -61 -18.5 -93
c0 -50.667 19.333 -92.5 58 -125.5s105 -49.5 199 -49.5c55.333 0 101.833 6.83301 139.5 20.5s65.834 32.334 84.501 56.001s28 50.5 28 80.5h-27c-33.333 0 -57.666 7.16699 -72.999 21.5s-23 31.833 -23 52.5c0 11.333 2 22 6 32c8.66699 -6.66699 21 -12.834 37 -18.501
s33.333 -8.5 52 -8.5h269v-79h-142c0 -38 -11.5 -75 -34.5 -111s-60 -65.833 -111 -89.5s-115.833 -35.5 -194.5 -35.5h-22c-138 0 -230.5 29.5 -277.5 88.5zM89.9961 300c0 8 2.99902 14.8311 8.99902 20.498s14 8.5 24 8.5c5.33301 0 9.33301 -0.333008 12 -1
c-8.66699 8 -16.667 19.167 -24 33.5s-11 29.833 -11 46.5c0 26.667 9.5 49 28.5 67s45.167 27 78.5 27c42.667 0 64 -14 64 -42c0 -11.333 -3 -19.666 -9 -24.999s-13 -8 -21 -8c-6 0 -11.333 1.66699 -16 5c0.666992 10.667 -2.83301 19.834 -10.5 27.501
s-16.5 12.167 -26.5 13.5c-6.66699 -2.66699 -13 -9 -19 -19s-9 -22.667 -9 -38c0 -26.667 7.83301 -45.5 23.5 -56.5s33.834 -16.5 54.501 -16.5c7.33301 0 19 1.33301 35 4c7.33301 0 12.833 -2 16.5 -6s5.5 -9 5.5 -15c0 -5.33301 -1.16699 -10 -3.5 -14
s-5.16602 -6 -8.49902 -6c-116.667 -10 -177.334 -20 -182.001 -30c-7.33301 7.33301 -11 15.333 -11 24z" />
    <glyph glyph-name="uniFE8B" unicode="&#x626;" horiz-adv-x="338" arabic-form="initial" 
d="M0 79h73.998c38.667 0 64.834 17.333 78.501 52s20.5 72.667 20.5 114c0 42 -5.66699 80 -17 114s-32.666 64 -63.999 90c14 20.667 34.667 31 62 31c40.667 0 70.667 -19.833 90 -59.5s29 -88.5 29 -146.5c0 -74.667 -16 -139 -48 -193s-84 -81 -156 -81h-69v79z
M51.998 567c0 8 2.99902 14.8311 8.99902 20.498s14 8.5 24 8.5c5.33301 0 9.33301 -0.333008 12 -1c-8.66699 8 -16.667 19.167 -24 33.5s-11 29.833 -11 46.5c0 26.667 9.5 49 28.5 67s45.167 27 78.5 27c42.667 0 64 -14 64 -42c0 -11.333 -3 -19.666 -9 -24.999
s-13 -8 -21 -8c-6 0 -11.333 1.66699 -16 5c0.666992 10.667 -2.83301 19.834 -10.5 27.501s-16.5 12.167 -26.5 13.5c-6.66699 -2.66699 -13 -9 -19 -19s-9 -22.667 -9 -38c0 -26.667 7.83301 -45.5 23.5 -56.5s33.834 -16.5 54.501 -16.5c7.33301 0 19 1.33301 35 4
c7.33301 0 12.833 -2 16.5 -6s5.5 -9 5.5 -15c0 -5.33301 -1.16699 -10 -3.5 -14s-5.16602 -6 -8.49902 -6c-116.667 -10 -177.334 -20 -182.001 -30c-7.33301 7.33301 -11 15.333 -11 24z" />
    <glyph glyph-name="uniFE8C" unicode="&#x626;" horiz-adv-x="338" arabic-form="medial" 
d="M338 79v-79h-107c-38 -0 -69.667 9.33301 -95 28c-26 -16.667 -54.333 -26 -85 -28h-51v79h51c22.667 0.666992 44 6.33398 64 17.001v333c0 34 16.667 51 50 51c16 0 28.333 -4.33301 37 -13s13 -21.334 13 -38.001v-272c0 -52 10.333 -78 31 -78h92zM63 567
c0 8 2.99902 14.8311 8.99902 20.498s14 8.5 24 8.5c5.33301 0 9.33301 -0.333008 12 -1c-8.66699 8 -16.667 19.167 -24 33.5s-11 29.833 -11 46.5c0 26.667 9.5 49 28.5 67s45.167 27 78.5 27c42.667 0 64 -14 64 -42c0 -11.333 -3 -19.666 -9 -24.999s-13 -8 -21 -8
c-6 0 -11.333 1.66699 -16 5c0.666992 10.667 -2.83301 19.834 -10.5 27.501s-16.5 12.167 -26.5 13.5c-6.66699 -2.66699 -13 -9 -19 -19s-9 -22.667 -9 -38c0 -26.667 7.83301 -45.5 23.5 -56.5s33.834 -16.5 54.501 -16.5c7.33301 0 19 1.33301 35 4
c7.33301 0 12.833 -2 16.5 -6s5.5 -9 5.5 -15c0 -5.33301 -1.16699 -10 -3.5 -14s-5.16602 -6 -8.49902 -6c-116.667 -10 -177.334 -20 -182.001 -30c-7.33301 7.33301 -11 15.333 -11 24z" />
    <glyph glyph-name="uniFE8E" unicode="&#x627;" horiz-adv-x="316" arabic-form="final" 
d="M144.5 48c-27 32 -40.833 77.6689 -41.5 137.002v327c0 29.333 -5.33301 53.166 -16 71.499s-23 31.833 -37 40.5c3.33301 7.33301 11.5 15.166 24.5 23.499s28.167 12.5 45.5 12.5c24 0 43.833 -9.16699 59.5 -27.5s23.5 -46.833 23.5 -85.5v-364
c0 -28 6.66699 -52.333 20 -73s32.333 -31 57 -31h36v-79h-66c-43.333 0 -78.5 16 -105.5 48z" />
    <glyph glyph-name="uniFE90" unicode="&#x628;" horiz-adv-x="815" arabic-form="final" 
d="M815 79l-0.000976562 -79h-119c-21.333 -0 -39.5 2.33301 -54.5 7s-28.833 11.667 -41.5 21c-29.333 -18.667 -64 -28 -104 -28h-301c-44.667 -0 -77.5 12.833 -98.5 38.5s-31.5 59.5 -31.5 101.5v240c0 15.333 4.5 27.333 13.5 36s21.167 13 36.5 13
c16 0 28.333 -4.33301 37 -13s13 -21.334 13 -38.001v-208c0 -33.333 5.33301 -56.833 16 -70.5s29.667 -20.5 57 -20.5h263c38.667 0 64.834 18.167 78.501 54.5s20.5 73.5 20.5 111.5c0 42.667 -5.5 80.834 -16.5 114.501s-32.167 63.5 -63.5 89.5
c4.66699 8 12 15.167 22 21.5s23.333 9.5 40 9.5c40.667 0 70.667 -19.833 90 -59.5s29 -88.5 29 -146.5c0 -36.667 -4 -72 -12 -106s-20.667 -63.667 -38 -89h164zM316.499 -185c-12.333 12 -18.5 26.333 -18.5 43c0 17.333 6.16699 32 18.5 44s27.166 18 44.499 18
c16.667 0 31 -6.16699 43 -18.5s18 -26.833 18 -43.5s-6 -31 -18 -43s-26.333 -18 -43 -18c-17.333 0 -32.166 6 -44.499 18z" />
    <glyph glyph-name="uniFE91" unicode="&#x628;" horiz-adv-x="338" arabic-form="initial" 
d="M0 79h73.998c38.667 0 64.834 17.333 78.501 52s20.5 72.667 20.5 114c0 42 -5.66699 80 -17 114s-32.666 64 -63.999 90c14 20.667 34.667 31 62 31c40.667 0 70.667 -19.833 90 -59.5s29 -88.5 29 -146.5c0 -74.667 -16 -139 -48 -193s-84 -81 -156 -81h-69v79z
M109.498 -185c-12.333 12 -18.5 26.333 -18.5 43c0 17.333 6.16699 32 18.5 44s27.166 18 44.499 18c16.667 0 31 -6.16699 43 -18.5s18 -26.833 18 -43.5s-6 -31 -18 -43s-26.333 -18 -43 -18c-17.333 0 -32.166 6 -44.499 18z" />
    <glyph glyph-name="uniFE92" unicode="&#x628;" horiz-adv-x="338" arabic-form="medial" 
d="M338 79v-79h-107c-38 -0 -69.667 9.33301 -95 28c-26 -16.667 -54.333 -26 -85 -28h-51v79h51c22.667 0.666992 44 6.33398 64 17.001v333c0 34 16.667 51 50 51c16 0 28.333 -4.33301 37 -13s13 -21.334 13 -38.001v-272c0 -52 10.333 -78 31 -78h92zM121.5 -185
c-12.333 12 -18.5 26.333 -18.5 43c0 17.333 6.16699 32 18.5 44s27.166 18 44.499 18c16.667 0 31 -6.16699 43 -18.5s18 -26.833 18 -43.5s-6 -31 -18 -43s-26.333 -18 -43 -18c-17.333 0 -32.166 6 -44.499 18z" />
    <glyph glyph-name="uniFE94" unicode="&#x629;" horiz-adv-x="517" arabic-form="final" 
d="M517 79v-79.001h-81c-33.333 0 -61.333 6.66699 -84 20c-28 -14.667 -62 -22 -102 -22c-65.333 0 -112.5 19.167 -141.5 57.5s-43.5 98.5 -43.5 180.5c0 66.667 8.5 117.834 25.5 153.501s39.833 59.667 68.5 72s64 18.5 106 18.5c61.333 0 107.833 -13 139.5 -39
s47.5 -73.667 47.5 -143v-219h65zM186 129.999c14 -34 44 -50.998 90 -50.998h75v223c0 35.333 -7.83301 60.666 -23.5 75.999s-36.167 23 -61.5 23c-34 0 -59.333 -13.333 -76 -40s-25 -67.334 -25 -122.001c0 -38.667 7 -75 21 -109zM143.5 563.501
c-11.667 11.667 -17.5 25.5 -17.5 41.5c0 16.667 5.83301 30.834 17.5 42.501s25.5 17.5 41.5 17.5c16.667 0 30.667 -5.83301 42 -17.5s17 -25.834 17 -42.501c0 -16 -5.66699 -29.833 -17 -41.5s-25.333 -17.5 -42 -17.5c-16 0 -29.833 5.83301 -41.5 17.5zM293.5 563.501
c-11.667 11.667 -17.5 25.5 -17.5 41.5c0 16.667 5.83301 30.834 17.5 42.501s25.5 17.5 41.5 17.5c16.667 0 30.667 -5.83301 42 -17.5s17 -25.834 17 -42.501c0 -16 -5.66699 -29.833 -17 -41.5s-25.333 -17.5 -42 -17.5c-16 0 -29.833 5.83301 -41.5 17.5z" />
    <glyph glyph-name="uniFE96" unicode="&#x62a;" horiz-adv-x="815" arabic-form="final" 
d="M815 79l-0.000976562 -79h-119c-21.333 -0 -39.5 2.33301 -54.5 7s-28.833 11.667 -41.5 21c-29.333 -18.667 -64 -28 -104 -28h-301c-44.667 -0 -77.5 12.833 -98.5 38.5s-31.5 59.5 -31.5 101.5v240c0 15.333 4.5 27.333 13.5 36s21.167 13 36.5 13
c16 0 28.333 -4.33301 37 -13s13 -21.334 13 -38.001v-208c0 -33.333 5.33301 -56.833 16 -70.5s29.667 -20.5 57 -20.5h263c38.667 0 64.834 18.167 78.501 54.5s20.5 73.5 20.5 111.5c0 42.667 -5.5 80.834 -16.5 114.501s-32.167 63.5 -63.5 89.5
c4.66699 8 12 15.167 22 21.5s23.333 9.5 40 9.5c40.667 0 70.667 -19.833 90 -59.5s29 -88.5 29 -146.5c0 -36.667 -4 -72 -12 -106s-20.667 -63.667 -38 -89h164zM243.499 518.5c-11.667 11.667 -17.5 25.5 -17.5 41.5c0 16.667 5.83301 30.834 17.5 42.501
s25.5 17.5 41.5 17.5c16.667 0 30.667 -5.83301 42 -17.5s17 -25.834 17 -42.501c0 -16 -5.66699 -29.833 -17 -41.5s-25.333 -17.5 -42 -17.5c-16 0 -29.833 5.83301 -41.5 17.5zM393.499 518.5c-11.667 11.667 -17.5 25.5 -17.5 41.5c0 16.667 5.83301 30.834 17.5 42.501
s25.5 17.5 41.5 17.5c16.667 0 30.667 -5.83301 42 -17.5s17 -25.834 17 -42.501c0 -16 -5.66699 -29.833 -17 -41.5s-25.333 -17.5 -42 -17.5c-16 0 -29.833 5.83301 -41.5 17.5z" />
    <glyph glyph-name="uniFE97" unicode="&#x62a;" horiz-adv-x="338" arabic-form="initial" 
d="M0 79h73.998c38.667 0 64.834 17.333 78.501 52s20.5 72.667 20.5 114c0 42 -5.66699 80 -17 114s-32.666 64 -63.999 90c14 20.667 34.667 31 62 31c40.667 0 70.667 -19.833 90 -59.5s29 -88.5 29 -146.5c0 -74.667 -16 -139 -48 -193s-84 -81 -156 -81h-69v79z
M38.498 563.5c-11.667 11.667 -17.5 25.5 -17.5 41.5c0 16.667 5.83301 30.834 17.5 42.501s25.5 17.5 41.5 17.5c16.667 0 30.667 -5.83301 42 -17.5s17 -25.834 17 -42.501c0 -16 -5.66699 -29.833 -17 -41.5s-25.333 -17.5 -42 -17.5c-16 0 -29.833 5.83301 -41.5 17.5z
M188.498 563.5c-11.667 11.667 -17.5 25.5 -17.5 41.5c0 16.667 5.83301 30.834 17.5 42.501s25.5 17.5 41.5 17.5c16.667 0 30.667 -5.83301 42 -17.5s17 -25.834 17 -42.501c0 -16 -5.66699 -29.833 -17 -41.5s-25.333 -17.5 -42 -17.5c-16 0 -29.833 5.83301 -41.5 17.5z
" />
    <glyph glyph-name="uniFE98" unicode="&#x62a;" horiz-adv-x="338" arabic-form="medial" 
d="M338 79v-79h-107c-38 -0 -69.667 9.33301 -95 28c-26 -16.667 -54.333 -26 -85 -28h-51v79h51c22.667 0.666992 44 6.33398 64 17.001v333c0 34 16.667 51 50 51c16 0 28.333 -4.33301 37 -13s13 -21.334 13 -38.001v-272c0 -52 10.333 -78 31 -78h92zM49.5 563.5
c-11.667 11.667 -17.5 25.5 -17.5 41.5c0 16.667 5.83301 30.834 17.5 42.501s25.5 17.5 41.5 17.5c16.667 0 30.667 -5.83301 42 -17.5s17 -25.834 17 -42.501c0 -16 -5.66699 -29.833 -17 -41.5s-25.333 -17.5 -42 -17.5c-16 0 -29.833 5.83301 -41.5 17.5zM199.5 563.5
c-11.667 11.667 -17.5 25.5 -17.5 41.5c0 16.667 5.83301 30.834 17.5 42.501s25.5 17.5 41.5 17.5c16.667 0 30.667 -5.83301 42 -17.5s17 -25.834 17 -42.501c0 -16 -5.66699 -29.833 -17 -41.5s-25.333 -17.5 -42 -17.5c-16 0 -29.833 5.83301 -41.5 17.5z" />
    <glyph glyph-name="uniFE9A" unicode="&#x62b;" horiz-adv-x="815" arabic-form="final" 
d="M815 79l-0.000976562 -79h-119c-21.333 -0 -39.5 2.33301 -54.5 7s-28.833 11.667 -41.5 21c-29.333 -18.667 -64 -28 -104 -28h-301c-44.667 -0 -77.5 12.833 -98.5 38.5s-31.5 59.5 -31.5 101.5v240c0 15.333 4.5 27.333 13.5 36s21.167 13 36.5 13
c16 0 28.333 -4.33301 37 -13s13 -21.334 13 -38.001v-208c0 -33.333 5.33301 -56.833 16 -70.5s29.667 -20.5 57 -20.5h263c38.667 0 64.834 18.167 78.501 54.5s20.5 73.5 20.5 111.5c0 42.667 -5.5 80.834 -16.5 114.501s-32.167 63.5 -63.5 89.5
c4.66699 8 12 15.167 22 21.5s23.333 9.5 40 9.5c40.667 0 70.667 -19.833 90 -59.5s29 -88.5 29 -146.5c0 -36.667 -4 -72 -12 -106s-20.667 -63.667 -38 -89h164zM397.999 727c10.667 -10.667 16 -23.667 16 -39c0 -14.667 -5.33301 -27.5 -16 -38.5
s-23.667 -16.5 -39 -16.5s-28.333 5.33301 -39 16s-16 23.667 -16 39s5.33301 28.333 16 39s23.667 16 39 16s28.333 -5.33301 39 -16zM325.999 601.5c11.333 -11.667 17 -25.5 17 -41.5c0 -16.667 -5.66699 -30.834 -17 -42.501s-25.333 -17.5 -42 -17.5
c-16 0 -29.833 5.83301 -41.5 17.5s-17.5 25.834 -17.5 42.501c0 16 5.83301 29.833 17.5 41.5s25.5 17.5 41.5 17.5c16.667 0 30.667 -5.83301 42 -17.5zM475.999 601.5c11.333 -11.667 17 -25.5 17 -41.5c0 -16.667 -5.66699 -30.834 -17 -42.501s-25.333 -17.5 -42 -17.5
c-16 0 -29.833 5.83301 -41.5 17.5s-17.5 25.834 -17.5 42.501c0 16 5.83301 29.833 17.5 41.5s25.5 17.5 41.5 17.5c16.667 0 30.667 -5.83301 42 -17.5z" />
    <glyph glyph-name="uniFE9B" unicode="&#x62b;" horiz-adv-x="338" arabic-form="initial" 
d="M0 79h73.998c38.667 0 64.834 17.333 78.501 52s20.5 72.667 20.5 114c0 42 -5.66699 80 -17 114s-32.666 64 -63.999 90c14 20.667 34.667 31 62 31c40.667 0 70.667 -19.833 90 -59.5s29 -88.5 29 -146.5c0 -74.667 -16 -139 -48 -193s-84 -81 -156 -81h-69v79z
M192.998 772c10.667 -10.667 16 -23.667 16 -39c0 -14.667 -5.33301 -27.5 -16 -38.5s-23.667 -16.5 -39 -16.5s-28.333 5.33301 -39 16s-16 23.667 -16 39s5.33301 28.333 16 39s23.667 16 39 16s28.333 -5.33301 39 -16zM120.998 646.5c11.333 -11.667 17 -25.5 17 -41.5
c0 -16.667 -5.66699 -30.834 -17 -42.501s-25.333 -17.5 -42 -17.5c-16 0 -29.833 5.83301 -41.5 17.5s-17.5 25.834 -17.5 42.501c0 16 5.83301 29.833 17.5 41.5s25.5 17.5 41.5 17.5c16.667 0 30.667 -5.83301 42 -17.5zM270.998 646.5c11.333 -11.667 17 -25.5 17 -41.5
c0 -16.667 -5.66699 -30.834 -17 -42.501s-25.333 -17.5 -42 -17.5c-16 0 -29.833 5.83301 -41.5 17.5s-17.5 25.834 -17.5 42.501c0 16 5.83301 29.833 17.5 41.5s25.5 17.5 41.5 17.5c16.667 0 30.667 -5.83301 42 -17.5z" />
    <glyph glyph-name="uniFE9C" unicode="&#x62b;" horiz-adv-x="338" arabic-form="medial" 
d="M338 79v-79h-107c-38 -0 -69.667 9.33301 -95 28c-26 -16.667 -54.333 -26 -85 -28h-51v79h51c22.667 0.666992 44 6.33398 64 17.001v333c0 34 16.667 51 50 51c16 0 28.333 -4.33301 37 -13s13 -21.334 13 -38.001v-272c0 -52 10.333 -78 31 -78h92zM204 772
c10.667 -10.667 16 -23.667 16 -39c0 -14.667 -5.33301 -27.5 -16 -38.5s-23.667 -16.5 -39 -16.5s-28.333 5.33301 -39 16s-16 23.667 -16 39s5.33301 28.333 16 39s23.667 16 39 16s28.333 -5.33301 39 -16zM132 646.5c11.333 -11.667 17 -25.5 17 -41.5
c0 -16.667 -5.66699 -30.834 -17 -42.501s-25.333 -17.5 -42 -17.5c-16 0 -29.833 5.83301 -41.5 17.5s-17.5 25.834 -17.5 42.501c0 16 5.83301 29.833 17.5 41.5s25.5 17.5 41.5 17.5c16.667 0 30.667 -5.83301 42 -17.5zM282 646.5c11.333 -11.667 17 -25.5 17 -41.5
c0 -16.667 -5.66699 -30.834 -17 -42.501s-25.333 -17.5 -42 -17.5c-16 0 -29.833 5.83301 -41.5 17.5s-17.5 25.834 -17.5 42.501c0 16 5.83301 29.833 17.5 41.5s25.5 17.5 41.5 17.5c16.667 0 30.667 -5.83301 42 -17.5z" />
    <glyph glyph-name="uniFE9E" unicode="&#x62c;" horiz-adv-x="591" arabic-form="final" 
d="M591 79l0.000976562 -79.001h-34c-40 0 -72.333 9.33301 -97 28l1 1c-32 -19.333 -69 -29 -111 -29h-201c-0.666992 -56 5.83301 -104.833 19.5 -146.5s34.834 -73.834 63.501 -96.501c-4.66699 -5.33301 -12.834 -10.5 -24.501 -15.5s-23.834 -7.5 -36.501 -7.5
c-28.667 0 -51.834 11.833 -69.501 35.5s-30 51.167 -37 82.5s-10.5 60 -10.5 86c0 46 10 81 30 105s49.667 36 89 36h127c27.333 0 51.833 3.16699 73.5 9.5s40.667 20.833 57 43.5s24.5 56.334 24.5 101.001c0 56 -17 98 -51 126s-88 42 -162 42l-68 -1
c-21.333 0 -38.166 6.83301 -50.499 20.5s-20.166 28.834 -23.499 45.501c-1.33301 8 -2 13.667 -2 17c0 10.667 1.66699 17.667 5 21c6.66699 -7.33301 16.667 -13.833 30 -19.5s30 -8.5 50 -8.5l37 2c25.333 1.33301 45.666 2 60.999 2c88 0 155.667 -21.333 203 -64
s71 -103 71 -181c0 -62.667 -14 -114.667 -42 -156h78zM360.001 -69.501c12 -12.333 18 -26.833 18 -43.5s-6 -31 -18 -43s-26.333 -18 -43 -18c-17.333 0 -32.166 6 -44.499 18s-18.5 26.333 -18.5 43c0 17.333 6.16699 32 18.5 44s27.166 18 44.499 18
c16.667 0 31 -6.16699 43 -18.5z" />
    <glyph glyph-name="uniFE9F" unicode="&#x62c;" horiz-adv-x="545" arabic-form="initial" 
d="M0 79l236.002 -0.000976562c26.667 0 51 3 73 9s41.167 20.333 57.5 43s24.5 56.334 24.5 101.001c0 58 -16.833 100.667 -50.5 128s-87.834 41 -162.501 41l-69 -1c-43.333 0 -68 22.667 -74 68c-0.666992 3.33301 -1 8 -1 14c0 12 1.33301 19.333 4 22
c18.667 -18.667 45.667 -28 81 -28l37 2c25.333 1.33301 45.666 2 60.999 2c88 0 155.667 -21.333 203 -64s71 -103 71 -181c0 -67.333 -17 -123.333 -51 -168s-85.333 -67 -154 -67h-286v79zM227.502 -185.001c-12.333 12 -18.5 26.333 -18.5 43
c0 17.333 6.16699 32 18.5 44s27.166 18 44.499 18c16.667 0 31 -6.16699 43 -18.5s18 -26.833 18 -43.5s-6 -31 -18 -43s-26.333 -18 -43 -18c-17.333 0 -32.166 6 -44.499 18z" />
    <glyph glyph-name="uniFEA0" unicode="&#x62c;" horiz-adv-x="536" arabic-form="medial" 
d="M536 79l0.00195312 -79.001h-43c-40 0 -72.333 9.33301 -97 28v1c-31.333 -19.333 -68 -29 -110 -29h-286v79h236c26.667 0 51 3 73 9s41.167 20.333 57.5 43s24.5 56.334 24.5 101.001c0 58 -16.833 100.667 -50.5 128s-87.834 41 -162.501 41l-69 -1
c-43.333 0 -68 22.667 -74 68c-0.666992 3.33301 -1 8 -1 14c0 12 1.33301 19.333 4 22c18.667 -18.667 45.667 -28 81 -28l37 2c25.333 1.33301 45.666 2 60.999 2c88 0 155.667 -21.333 203 -64s71 -103 71 -181c0 -62.667 -14 -114.667 -42 -156h87zM227.502 -185.001
c-12.333 12 -18.5 26.333 -18.5 43c0 17.333 6.16699 32 18.5 44s27.166 18 44.499 18c16.667 0 31 -6.16699 43 -18.5s18 -26.833 18 -43.5s-6 -31 -18 -43s-26.333 -18 -43 -18c-17.333 0 -32.166 6 -44.499 18z" />
    <glyph glyph-name="uniFEA2" unicode="&#x62d;" horiz-adv-x="591" arabic-form="final" 
d="M591 79l0.000976562 -79.001h-34c-40 0 -72.333 9.33301 -97 28l1 1c-32 -19.333 -69 -29 -111 -29h-201c-0.666992 -56 5.83301 -104.833 19.5 -146.5s34.834 -73.834 63.501 -96.501c-4.66699 -5.33301 -12.834 -10.5 -24.501 -15.5s-23.834 -7.5 -36.501 -7.5
c-28.667 0 -51.834 11.833 -69.501 35.5s-30 51.167 -37 82.5s-10.5 60 -10.5 86c0 46 10 81 30 105s49.667 36 89 36h127c27.333 0 51.833 3.16699 73.5 9.5s40.667 20.833 57 43.5s24.5 56.334 24.5 101.001c0 56 -17 98 -51 126s-88 42 -162 42l-68 -1
c-21.333 0 -38.166 6.83301 -50.499 20.5s-20.166 28.834 -23.499 45.501c-1.33301 8 -2 13.667 -2 17c0 10.667 1.66699 17.667 5 21c6.66699 -7.33301 16.667 -13.833 30 -19.5s30 -8.5 50 -8.5l37 2c25.333 1.33301 45.666 2 60.999 2c88 0 155.667 -21.333 203 -64
s71 -103 71 -181c0 -62.667 -14 -114.667 -42 -156h78z" />
    <glyph glyph-name="uniFEA3" unicode="&#x62d;" horiz-adv-x="545" arabic-form="initial" 
d="M0 79l236.002 -0.000976562c26.667 0 51 3 73 9s41.167 20.333 57.5 43s24.5 56.334 24.5 101.001c0 58 -16.833 100.667 -50.5 128s-87.834 41 -162.501 41l-69 -1c-43.333 0 -68 22.667 -74 68c-0.666992 3.33301 -1 8 -1 14c0 12 1.33301 19.333 4 22
c18.667 -18.667 45.667 -28 81 -28l37 2c25.333 1.33301 45.666 2 60.999 2c88 0 155.667 -21.333 203 -64s71 -103 71 -181c0 -67.333 -17 -123.333 -51 -168s-85.333 -67 -154 -67h-286v79z" />
    <glyph glyph-name="uniFEA4" unicode="&#x62d;" horiz-adv-x="536" arabic-form="medial" 
d="M536 79l0.00195312 -79.001h-43c-40 0 -72.333 9.33301 -97 28v1c-31.333 -19.333 -68 -29 -110 -29h-286v79h236c26.667 0 51 3 73 9s41.167 20.333 57.5 43s24.5 56.334 24.5 101.001c0 58 -16.833 100.667 -50.5 128s-87.834 41 -162.501 41l-69 -1
c-43.333 0 -68 22.667 -74 68c-0.666992 3.33301 -1 8 -1 14c0 12 1.33301 19.333 4 22c18.667 -18.667 45.667 -28 81 -28l37 2c25.333 1.33301 45.666 2 60.999 2c88 0 155.667 -21.333 203 -64s71 -103 71 -181c0 -62.667 -14 -114.667 -42 -156h87z" />
    <glyph glyph-name="uniFEA6" unicode="&#x62e;" horiz-adv-x="591" arabic-form="final" 
d="M591 79l0.000976562 -79.001h-34c-40 0 -72.333 9.33301 -97 28l1 1c-32 -19.333 -69 -29 -111 -29h-201c-0.666992 -56 5.83301 -104.833 19.5 -146.5s34.834 -73.834 63.501 -96.501c-4.66699 -5.33301 -12.834 -10.5 -24.501 -15.5s-23.834 -7.5 -36.501 -7.5
c-28.667 0 -51.834 11.833 -69.501 35.5s-30 51.167 -37 82.5s-10.5 60 -10.5 86c0 46 10 81 30 105s49.667 36 89 36h127c27.333 0 51.833 3.16699 73.5 9.5s40.667 20.833 57 43.5s24.5 56.334 24.5 101.001c0 56 -17 98 -51 126s-88 42 -162 42l-68 -1
c-21.333 0 -38.166 6.83301 -50.499 20.5s-20.166 28.834 -23.499 45.501c-1.33301 8 -2 13.667 -2 17c0 10.667 1.66699 17.667 5 21c6.66699 -7.33301 16.667 -13.833 30 -19.5s30 -8.5 50 -8.5l37 2c25.333 1.33301 45.666 2 60.999 2c88 0 155.667 -21.333 203 -64
s71 -103 71 -181c0 -62.667 -14 -114.667 -42 -156h78zM261.501 562.999c-12.333 12 -18.5 26.333 -18.5 43c0 17.333 6.16699 32 18.5 44s27.166 18 44.499 18c16.667 0 31 -6.16699 43 -18.5s18 -26.833 18 -43.5s-6 -31 -18 -43s-26.333 -18 -43 -18
c-17.333 0 -32.166 6 -44.499 18z" />
    <glyph glyph-name="uniFEA7" unicode="&#x62e;" horiz-adv-x="545" arabic-form="initial" 
d="M0 79l236.002 -0.000976562c26.667 0 51 3 73 9s41.167 20.333 57.5 43s24.5 56.334 24.5 101.001c0 58 -16.833 100.667 -50.5 128s-87.834 41 -162.501 41l-69 -1c-43.333 0 -68 22.667 -74 68c-0.666992 3.33301 -1 8 -1 14c0 12 1.33301 19.333 4 22
c18.667 -18.667 45.667 -28 81 -28l37 2c25.333 1.33301 45.666 2 60.999 2c88 0 155.667 -21.333 203 -64s71 -103 71 -181c0 -67.333 -17 -123.333 -51 -168s-85.333 -67 -154 -67h-286v79zM227.502 562.999c-12.333 12 -18.5 26.333 -18.5 43
c0 17.333 6.16699 32 18.5 44s27.166 18 44.499 18c16.667 0 31 -6.16699 43 -18.5s18 -26.833 18 -43.5s-6 -31 -18 -43s-26.333 -18 -43 -18c-17.333 0 -32.166 6 -44.499 18z" />
    <glyph glyph-name="uniFEA8" unicode="&#x62e;" horiz-adv-x="536" arabic-form="medial" 
d="M536 79l0.00195312 -79.001h-43c-40 0 -72.333 9.33301 -97 28v1c-31.333 -19.333 -68 -29 -110 -29h-286v79h236c26.667 0 51 3 73 9s41.167 20.333 57.5 43s24.5 56.334 24.5 101.001c0 58 -16.833 100.667 -50.5 128s-87.834 41 -162.501 41l-69 -1
c-43.333 0 -68 22.667 -74 68c-0.666992 3.33301 -1 8 -1 14c0 12 1.33301 19.333 4 22c18.667 -18.667 45.667 -28 81 -28l37 2c25.333 1.33301 45.666 2 60.999 2c88 0 155.667 -21.333 203 -64s71 -103 71 -181c0 -62.667 -14 -114.667 -42 -156h87zM227.502 562.999
c-12.333 12 -18.5 26.333 -18.5 43c0 17.333 6.16699 32 18.5 44s27.166 18 44.499 18c16.667 0 31 -6.16699 43 -18.5s18 -26.833 18 -43.5s-6 -31 -18 -43s-26.333 -18 -43 -18c-17.333 0 -32.166 6 -44.499 18z" />
    <glyph glyph-name="uniFEAA" unicode="&#x62f;" horiz-adv-x="539" arabic-form="final" 
d="M539 79l-0.000976562 -79.001h-114c-38 0 -69.667 9 -95 27c-28.667 -18 -61 -27 -97 -27h-148c-11.333 0 -19.333 4 -24 12s-7 16.667 -7 26c0 10.667 3 20.167 9 28.5s16 12.5 30 12.5h55c65.333 0 113.333 16.667 144 50s46 74.666 46 123.999
c0 43.333 -10.667 78.833 -32 106.5s-48.666 42.167 -81.999 43.5c-44 -14 -66 -46 -66 -96c-8 -1.33301 -15.667 -2 -23 -2c-10.667 0 -19.667 1.33301 -27 4c-12.667 2.66699 -23 9 -31 19s-12 23.333 -12 40c0 34 16.167 61.167 48.5 81.5s69.833 30.5 112.5 30.5
c42 0 79.167 -10.667 111.5 -32s57.333 -49.166 75 -83.499s26.5 -70.5 26.5 -108.5c0 -27.333 -4.5 -57.166 -13.5 -89.499s-22.833 -61.5 -41.5 -87.5h155zM252.999 408.999c-2 0 -3.66699 -0.333008 -5 -1z" />
    <glyph glyph-name="uniFEAC" unicode="&#x630;" horiz-adv-x="539" arabic-form="final" 
d="M539 79l-0.000976562 -79.001h-114c-38 0 -69.667 9 -95 27c-28.667 -18 -61 -27 -97 -27h-148c-11.333 0 -19.333 4 -24 12s-7 16.667 -7 26c0 10.667 3 20.167 9 28.5s16 12.5 30 12.5h55c65.333 0 113.333 16.667 144 50s46 74.666 46 123.999
c0 43.333 -10.667 78.833 -32 106.5s-48.666 42.167 -81.999 43.5c-44 -14 -66 -46 -66 -96c-8 -1.33301 -15.667 -2 -23 -2c-10.667 0 -19.667 1.33301 -27 4c-12.667 2.66699 -23 9 -31 19s-12 23.333 -12 40c0 34 16.167 61.167 48.5 81.5s69.833 30.5 112.5 30.5
c42 0 79.167 -10.667 111.5 -32s57.333 -49.166 75 -83.499s26.5 -70.5 26.5 -108.5c0 -27.333 -4.5 -57.166 -13.5 -89.499s-22.833 -61.5 -41.5 -87.5h155zM252.999 408.999c-2 0 -3.66699 -0.333008 -5 -1zM203.499 562.999c-12.333 12 -18.5 26.333 -18.5 43
c0 17.333 6.16699 32 18.5 44s27.166 18 44.499 18c16.667 0 31 -6.16699 43 -18.5s18 -26.833 18 -43.5s-6 -31 -18 -43s-26.333 -18 -43 -18c-17.333 0 -32.166 6 -44.499 18z" />
    <glyph glyph-name="uniFEAE" unicode="&#x631;" horiz-adv-x="333" arabic-form="final" 
d="M333 0l-98.9971 0.000976562v-67c0 -21.333 -4.33301 -44.333 -13 -69s-24.5 -46.334 -47.5 -65.001s-54.5 -28 -94.5 -28c-27.333 0 -50.333 4.5 -69 13.5s-32.334 19.333 -41.001 31s-13.334 21.5 -14.001 29.5c11.333 -4.66699 23.833 -8.5 37.5 -11.5
s26.167 -4.5 37.5 -4.5c33.333 0 59.166 9.16699 77.499 27.5s27.5 38.833 27.5 61.5l-1 515c0 16 4.66699 27.833 14 35.5s21.333 11.5 36 11.5s26.667 -4 36 -12s14 -19.667 14 -35v-354h99v-79z" />
    <glyph glyph-name="uniFEB0" unicode="&#x632;" horiz-adv-x="333" arabic-form="final" 
d="M333 0l-98.9971 0.000976562v-67c0 -21.333 -4.33301 -44.333 -13 -69s-24.5 -46.334 -47.5 -65.001s-54.5 -28 -94.5 -28c-27.333 0 -50.333 4.5 -69 13.5s-32.334 19.333 -41.001 31s-13.334 21.5 -14.001 29.5c11.333 -4.66699 23.833 -8.5 37.5 -11.5
s26.167 -4.5 37.5 -4.5c33.333 0 59.166 9.16699 77.499 27.5s27.5 38.833 27.5 61.5l-1 515c0 16 4.66699 27.833 14 35.5s21.333 11.5 36 11.5s26.667 -4 36 -12s14 -19.667 14 -35v-354h99v-79zM141.503 563.001c-12.333 12 -18.5 26.333 -18.5 43
c0 17.333 6.16699 32 18.5 44s27.166 18 44.499 18c16.667 0 31 -6.16699 43 -18.5s18 -26.833 18 -43.5s-6 -31 -18 -43s-26.333 -18 -43 -18c-17.333 0 -32.166 6 -44.499 18z" />
    <glyph glyph-name="uniFEB2" unicode="&#x633;" horiz-adv-x="1370" arabic-form="final" 
d="M1370 79v-79.001h-146c-38.667 0 -70.667 9 -96 27c-28.667 -18 -63.667 -27 -105 -27h-13c-35.333 0 -64.666 4.33301 -87.999 13s-45.333 23.667 -66 45c-11.333 -15.333 -26.333 -28.833 -45 -40.5s-38.667 -17.5 -60 -17.5h-83c-27.333 0 -53.333 7.66699 -78 23
c-1.33301 -69.333 -11.833 -124.166 -31.5 -164.499s-48 -69.166 -85 -86.499s-83.833 -26 -140.5 -26c-80 0 -144.667 21 -194 63s-74 117.667 -74 227c0 62 7.33301 110.333 22 145s31.667 57.834 51 69.501s38 17.5 56 17.5c13.333 0 25.5 -2.83301 36.5 -8.5
s19.167 -11.834 24.5 -18.501c-23.333 -18.667 -44.5 -49.5 -63.5 -92.5s-28.5 -91.5 -28.5 -145.5c0 -70.667 15.5 -119.5 46.5 -146.5s72.167 -40.833 123.5 -41.5c43.333 0 76.5 9.33301 99.5 28s38.333 44 46 76s11.5 72 11.5 120v333c0 35.333 16.667 53 50 53
c17.333 0 30 -4.33301 38 -13s12 -22 12 -40v-196c0 -32.667 2.66699 -56.834 8 -72.501s16.666 -23.834 33.999 -24.501h84c30 0 50.667 7 62 21s17 32.333 17 55v240c0 18 4.33301 31.5 13 40.5s20.667 13.5 36 13.5c16 0 28.5 -4.5 37.5 -13.5s13.5 -22.5 13.5 -40.5
v-198c0 -30.667 4.5 -58 13.5 -82s25.5 -36 49.5 -36h72c38 0 64 18.5 78 55.5s21 74.167 21 111.5c0 40.667 -6.33301 79 -19 115s-33.667 65.667 -63 89c11.333 20 31.666 30 60.999 30c41.333 0 72 -20.167 92 -60.5s30 -90.833 30 -151.5
c0 -34 -3.66699 -67.667 -11 -101s-19.666 -62.666 -36.999 -87.999h188z" />
    <glyph glyph-name="uniFEB3" unicode="&#x633;" horiz-adv-x="926" arabic-form="initial" 
d="M831 419.5c20 -40.333 30 -90.834 30 -151.501c0 -70 -15.167 -132.167 -45.5 -186.5s-84.166 -81.5 -161.499 -81.5h-12c-35.333 0 -64.666 4.33301 -87.999 13s-45.333 23.667 -66 45c-11.333 -15.333 -26.333 -28.833 -45 -40.5s-38.667 -17.5 -60 -17.5h-109
c-40.667 0 -76 12 -106 36c-14.667 -12 -29.667 -21 -45 -27s-32.333 -9 -51 -9h-72v79h43c31.333 0 52.166 7.16699 62.499 21.5s15.5 34.166 15.5 59.499v212c0 35.333 16.667 53 50 53c18 0 31 -4.33301 39 -13s12 -22 12 -40v-196c0 -33.333 2.66699 -57.666 8 -72.999
s16.666 -23.333 33.999 -24h83c30 0 50.667 7 62 21s17 32.333 17 55v240c0 18 4.83301 31.5 14.5 40.5s22.5 13.5 38.5 13.5c32 0 48 -18 48 -54v-198c0 -30.667 4.33301 -58 13 -82s25 -36 49 -36h72c38.667 0 64.834 18 78.501 54s20.5 72 20.5 108
c0 96.667 -27.333 166.334 -82 209.001c11.333 20 31.666 30 60.999 30c41.333 0 72 -20.167 92 -60.5z" />
    <glyph glyph-name="uniFEB4" unicode="&#x633;" horiz-adv-x="1006" arabic-form="medial" 
d="M1006 79l-0.000976562 -79.002h-150c-38.667 0 -70.667 9 -96 27c-29.333 -18 -64.666 -27 -105.999 -27h-12c-35.333 0 -64.666 4.33301 -87.999 13s-45.333 23.667 -66 45c-11.333 -15.333 -26.333 -28.833 -45 -40.5s-38.667 -17.5 -60 -17.5h-109
c-40.667 0 -76 12 -106 36c-14.667 -12 -29.667 -21 -45 -27s-32.333 -9 -51 -9h-72v79h43c31.333 0 52.166 7.16699 62.499 21.5s15.5 34.166 15.5 59.499v212c0 35.333 16.667 53 50 53c18 0 31 -4.33301 39 -13s12 -22 12 -40v-196c0 -33.333 2.66699 -57.666 8 -72.999
s16.666 -23.333 33.999 -24h83c30 0 50.667 7 62 21s17 32.333 17 55v240c0 18 4.83301 31.5 14.5 40.5s22.5 13.5 38.5 13.5c32 0 48 -18 48 -54v-198c0 -30.667 4.33301 -58 13 -82s25 -36 49 -36h72c38.667 0 64.834 18 78.501 54s20.5 72 20.5 108
c0 96.667 -27.333 166.334 -82 209.001c11.333 20 31.666 30 60.999 30c41.333 0 72 -20.167 92 -60.5s30 -90.833 30 -151.5c0 -34 -3.66699 -67.667 -11 -101s-19.666 -62.666 -36.999 -87.999h193z" />
    <glyph glyph-name="uniFEB6" unicode="&#x634;" horiz-adv-x="1370" arabic-form="final" 
d="M1370 79v-79.001h-146c-38.667 0 -70.667 9 -96 27c-28.667 -18 -63.667 -27 -105 -27h-13c-35.333 0 -64.666 4.33301 -87.999 13s-45.333 23.667 -66 45c-11.333 -15.333 -26.333 -28.833 -45 -40.5s-38.667 -17.5 -60 -17.5h-83c-27.333 0 -53.333 7.66699 -78 23
c-1.33301 -69.333 -11.833 -124.166 -31.5 -164.499s-48 -69.166 -85 -86.499s-83.833 -26 -140.5 -26c-80 0 -144.667 21 -194 63s-74 117.667 -74 227c0 62 7.33301 110.333 22 145s31.667 57.834 51 69.501s38 17.5 56 17.5c13.333 0 25.5 -2.83301 36.5 -8.5
s19.167 -11.834 24.5 -18.501c-23.333 -18.667 -44.5 -49.5 -63.5 -92.5s-28.5 -91.5 -28.5 -145.5c0 -70.667 15.5 -119.5 46.5 -146.5s72.167 -40.833 123.5 -41.5c43.333 0 76.5 9.33301 99.5 28s38.333 44 46 76s11.5 72 11.5 120v333c0 35.333 16.667 53 50 53
c17.333 0 30 -4.33301 38 -13s12 -22 12 -40v-196c0 -32.667 2.66699 -56.834 8 -72.501s16.666 -23.834 33.999 -24.501h84c30 0 50.667 7 62 21s17 32.333 17 55v240c0 18 4.33301 31.5 13 40.5s20.667 13.5 36 13.5c16 0 28.5 -4.5 37.5 -13.5s13.5 -22.5 13.5 -40.5
v-198c0 -30.667 4.5 -58 13.5 -82s25.5 -36 49.5 -36h72c38 0 64 18.5 78 55.5s21 74.167 21 111.5c0 40.667 -6.33301 79 -19 115s-33.667 65.667 -63 89c11.333 20 31.666 30 60.999 30c41.333 0 72 -20.167 92 -60.5s30 -90.833 30 -151.5
c0 -34 -3.66699 -67.667 -11 -101s-19.666 -62.666 -36.999 -87.999h188zM882 771.999c10.667 -10.667 16 -23.667 16 -39c0 -14.667 -5.33301 -27.5 -16 -38.5s-23.667 -16.5 -39 -16.5s-28.333 5.33301 -39 16s-16 23.667 -16 39s5.33301 28.333 16 39s23.667 16 39 16
s28.333 -5.33301 39 -16zM810 646.499c11.333 -11.667 17 -25.5 17 -41.5c0 -16.667 -5.66699 -30.834 -17 -42.501s-25.333 -17.5 -42 -17.5c-16 0 -29.833 5.83301 -41.5 17.5s-17.5 25.834 -17.5 42.501c0 16 5.83301 29.833 17.5 41.5s25.5 17.5 41.5 17.5
c16.667 0 30.667 -5.83301 42 -17.5zM960 646.499c11.333 -11.667 17 -25.5 17 -41.5c0 -16.667 -5.66699 -30.834 -17 -42.501s-25.333 -17.5 -42 -17.5c-16 0 -29.833 5.83301 -41.5 17.5s-17.5 25.834 -17.5 42.501c0 16 5.83301 29.833 17.5 41.5s25.5 17.5 41.5 17.5
c16.667 0 30.667 -5.83301 42 -17.5z" />
    <glyph glyph-name="uniFEB7" unicode="&#x634;" horiz-adv-x="926" arabic-form="initial" 
d="M831 419.5c20 -40.333 30 -90.834 30 -151.501c0 -70 -15.167 -132.167 -45.5 -186.5s-84.166 -81.5 -161.499 -81.5h-12c-35.333 0 -64.666 4.33301 -87.999 13s-45.333 23.667 -66 45c-11.333 -15.333 -26.333 -28.833 -45 -40.5s-38.667 -17.5 -60 -17.5h-109
c-40.667 0 -76 12 -106 36c-14.667 -12 -29.667 -21 -45 -27s-32.333 -9 -51 -9h-72v79h43c31.333 0 52.166 7.16699 62.499 21.5s15.5 34.166 15.5 59.499v212c0 35.333 16.667 53 50 53c18 0 31 -4.33301 39 -13s12 -22 12 -40v-196c0 -33.333 2.66699 -57.666 8 -72.999
s16.666 -23.333 33.999 -24h83c30 0 50.667 7 62 21s17 32.333 17 55v240c0 18 4.83301 31.5 14.5 40.5s22.5 13.5 38.5 13.5c32 0 48 -18 48 -54v-198c0 -30.667 4.33301 -58 13 -82s25 -36 49 -36h72c38.667 0 64.834 18 78.501 54s20.5 72 20.5 108
c0 96.667 -27.333 166.334 -82 209.001c11.333 20 31.666 30 60.999 30c41.333 0 72 -20.167 92 -60.5zM518 771.999c10.667 -10.667 16 -23.667 16 -39c0 -14.667 -5.33301 -27.5 -16 -38.5s-23.667 -16.5 -39 -16.5s-28.333 5.33301 -39 16s-16 23.667 -16 39
s5.33301 28.333 16 39s23.667 16 39 16s28.333 -5.33301 39 -16zM446 646.499c11.333 -11.667 17 -25.5 17 -41.5c0 -16.667 -5.66699 -30.834 -17 -42.501s-25.333 -17.5 -42 -17.5c-16 0 -29.833 5.83301 -41.5 17.5s-17.5 25.834 -17.5 42.501
c0 16 5.83301 29.833 17.5 41.5s25.5 17.5 41.5 17.5c16.667 0 30.667 -5.83301 42 -17.5zM596 646.499c11.333 -11.667 17 -25.5 17 -41.5c0 -16.667 -5.66699 -30.834 -17 -42.501s-25.333 -17.5 -42 -17.5c-16 0 -29.833 5.83301 -41.5 17.5s-17.5 25.834 -17.5 42.501
c0 16 5.83301 29.833 17.5 41.5s25.5 17.5 41.5 17.5c16.667 0 30.667 -5.83301 42 -17.5z" />
    <glyph glyph-name="uniFEB8" unicode="&#x634;" horiz-adv-x="1006" arabic-form="medial" 
d="M1006 79l-0.000976562 -79.002h-150c-38.667 0 -70.667 9 -96 27c-29.333 -18 -64.666 -27 -105.999 -27h-12c-35.333 0 -64.666 4.33301 -87.999 13s-45.333 23.667 -66 45c-11.333 -15.333 -26.333 -28.833 -45 -40.5s-38.667 -17.5 -60 -17.5h-109
c-40.667 0 -76 12 -106 36c-14.667 -12 -29.667 -21 -45 -27s-32.333 -9 -51 -9h-72v79h43c31.333 0 52.166 7.16699 62.499 21.5s15.5 34.166 15.5 59.499v212c0 35.333 16.667 53 50 53c18 0 31 -4.33301 39 -13s12 -22 12 -40v-196c0 -33.333 2.66699 -57.666 8 -72.999
s16.666 -23.333 33.999 -24h83c30 0 50.667 7 62 21s17 32.333 17 55v240c0 18 4.83301 31.5 14.5 40.5s22.5 13.5 38.5 13.5c32 0 48 -18 48 -54v-198c0 -30.667 4.33301 -58 13 -82s25 -36 49 -36h72c38.667 0 64.834 18 78.501 54s20.5 72 20.5 108
c0 96.667 -27.333 166.334 -82 209.001c11.333 20 31.666 30 60.999 30c41.333 0 72 -20.167 92 -60.5s30 -90.833 30 -151.5c0 -34 -3.66699 -67.667 -11 -101s-19.666 -62.666 -36.999 -87.999h193zM515.999 771.998c10.667 -10.667 16 -23.667 16 -39
c0 -14.667 -5.33301 -27.5 -16 -38.5s-23.667 -16.5 -39 -16.5s-28.333 5.33301 -39 16s-16 23.667 -16 39s5.33301 28.333 16 39s23.667 16 39 16s28.333 -5.33301 39 -16zM443.999 646.498c11.333 -11.667 17 -25.5 17 -41.5c0 -16.667 -5.66699 -30.834 -17 -42.501
s-25.333 -17.5 -42 -17.5c-16 0 -29.833 5.83301 -41.5 17.5s-17.5 25.834 -17.5 42.501c0 16 5.83301 29.833 17.5 41.5s25.5 17.5 41.5 17.5c16.667 0 30.667 -5.83301 42 -17.5zM593.999 646.498c11.333 -11.667 17 -25.5 17 -41.5
c0 -16.667 -5.66699 -30.834 -17 -42.501s-25.333 -17.5 -42 -17.5c-16 0 -29.833 5.83301 -41.5 17.5s-17.5 25.834 -17.5 42.501c0 16 5.83301 29.833 17.5 41.5s25.5 17.5 41.5 17.5c16.667 0 30.667 -5.83301 42 -17.5z" />
    <glyph glyph-name="uniFEBA" unicode="&#x635;" horiz-adv-x="1135" arabic-form="final" 
d="M1135 79v-79.001h-85c-36 0 -65.667 7.33301 -89 22c-28 -14.667 -62 -22 -102 -22h-270c-4.66699 -92.667 -28 -158.167 -70 -196.5s-104 -57.5 -186 -57.5c-80 0 -144.667 21 -194 63s-74 117.667 -74 227c0 62 7.33301 110.333 22 145s31.667 57.834 51 69.501
s38 17.5 56 17.5c13.333 0 25.5 -2.83301 36.5 -8.5s19.167 -11.834 24.5 -18.501c-23.333 -18.667 -44.5 -49.5 -63.5 -92.5s-28.5 -91.5 -28.5 -145.5c0 -70.667 15.5 -119.5 46.5 -146.5s72.167 -40.833 123.5 -41.5c43.333 0 76.5 9.33301 99.5 28s38.333 44 46 76
s11.5 72 11.5 120v273c0 17.333 -5 34 -15 50s-21 28 -33 36c5.33301 8 14 15.167 26 21.5s25.333 9.5 40 9.5c28.667 0 50.334 -12 65.001 -36c19.333 22.667 48.666 42.834 87.999 60.501s84 26.5 134 26.5c43.333 0 85.333 -7.66699 126 -23s74.667 -41.333 102 -78
s41 -84.667 41 -144c0 -63.333 -13.333 -115.333 -40 -156h111zM934.5 128.499c19.667 33 29.499 67.5 29.499 103.5c0 40 -9.66699 72.667 -29 98s-43.333 43.5 -72 54.5s-58 16.5 -88 16.5c-40 0 -77.5 -8.5 -112.5 -25.5s-59.167 -36.167 -72.5 -57.5v-239h242
c48.667 0 82.834 16.5 102.501 49.5z" />
    <glyph glyph-name="uniFEBB" unicode="&#x635;" horiz-adv-x="738" arabic-form="initial" 
d="M530 457c40.667 -15.333 74.667 -41.334 102 -78.001s41 -84.667 41 -144c0 -56 -14.167 -109.167 -42.5 -159.5s-82.5 -75.5 -162.5 -75.5h-468v79h99v233c0 17.333 -5 34 -15 50s-21 28 -33 36c5.33301 8 14 15.167 26 21.5s25.333 9.5 40 9.5
c28.667 0 50.334 -12 65.001 -36c19.333 22.667 48.666 42.834 87.999 60.501s84 26.5 134 26.5c43.333 0 85.333 -7.66699 126 -23zM543.5 128.499c19.667 33 29.499 67.5 29.499 103.5c0 40 -9.66699 72.667 -29 98s-43.333 43.5 -72 54.5s-58 16.5 -88 16.5
c-40 0 -77.667 -8.5 -113 -25.5s-59.333 -36.167 -72 -57.5v-239h242c48.667 0 82.834 16.5 102.501 49.5z" />
    <glyph glyph-name="uniFEBC" unicode="&#x635;" horiz-adv-x="780" arabic-form="medial" 
d="M780 79l0.000976562 -79.001h-109c-38.667 0 -70.334 8.66699 -95.001 26c-29.333 -17.333 -65.333 -26 -108 -26h-468v79h99v233c0 17.333 -5 34 -15 50s-21 28 -33 36c5.33301 8 14 15.167 26 21.5s25.333 9.5 40 9.5c28.667 0 50.334 -12 65.001 -36
c19.333 22.667 48.666 42.834 87.999 60.501s84 26.5 134 26.5c43.333 0 85.333 -7.66699 126 -23s74.667 -41.333 102 -78s41 -84.667 41 -144c0 -63.333 -13.333 -115.333 -40 -156h147zM543.501 128.499c19.667 33 29.499 67.5 29.499 103.5c0 40 -9.66699 72.667 -29 98
s-43.333 43.5 -72 54.5s-58 16.5 -88 16.5c-40 0 -77.667 -8.5 -113 -25.5s-59.333 -36.167 -72 -57.5v-239h242c48.667 0 82.834 16.5 102.501 49.5z" />
    <glyph glyph-name="uniFEBE" unicode="&#x636;" horiz-adv-x="1135" arabic-form="final" 
d="M1135 79v-79.001h-85c-36 0 -65.667 7.33301 -89 22c-28 -14.667 -62 -22 -102 -22h-270c-4.66699 -92.667 -28 -158.167 -70 -196.5s-104 -57.5 -186 -57.5c-80 0 -144.667 21 -194 63s-74 117.667 -74 227c0 62 7.33301 110.333 22 145s31.667 57.834 51 69.501
s38 17.5 56 17.5c13.333 0 25.5 -2.83301 36.5 -8.5s19.167 -11.834 24.5 -18.501c-23.333 -18.667 -44.5 -49.5 -63.5 -92.5s-28.5 -91.5 -28.5 -145.5c0 -70.667 15.5 -119.5 46.5 -146.5s72.167 -40.833 123.5 -41.5c43.333 0 76.5 9.33301 99.5 28s38.333 44 46 76
s11.5 72 11.5 120v273c0 17.333 -5 34 -15 50s-21 28 -33 36c5.33301 8 14 15.167 26 21.5s25.333 9.5 40 9.5c28.667 0 50.334 -12 65.001 -36c19.333 22.667 48.666 42.834 87.999 60.501s84 26.5 134 26.5c43.333 0 85.333 -7.66699 126 -23s74.667 -41.333 102 -78
s41 -84.667 41 -144c0 -63.333 -13.333 -115.333 -40 -156h111zM934.5 128.499c19.667 33 29.499 67.5 29.499 103.5c0 40 -9.66699 72.667 -29 98s-43.333 43.5 -72 54.5s-58 16.5 -88 16.5c-40 0 -77.5 -8.5 -112.5 -25.5s-59.167 -36.167 -72.5 -57.5v-239h242
c48.667 0 82.834 16.5 102.501 49.5zM716.499 562.999c-12.333 12 -18.5 26.333 -18.5 43c0 17.333 6.16699 32 18.5 44s27.166 18 44.499 18c16.667 0 31 -6.16699 43 -18.5s18 -26.833 18 -43.5s-6 -31 -18 -43s-26.333 -18 -43 -18c-17.333 0 -32.166 6 -44.499 18z" />
    <glyph glyph-name="uniFEBF" unicode="&#x636;" horiz-adv-x="738" arabic-form="initial" 
d="M530 457c40.667 -15.333 74.667 -41.334 102 -78.001s41 -84.667 41 -144c0 -56 -14.167 -109.167 -42.5 -159.5s-82.5 -75.5 -162.5 -75.5h-468v79h99v233c0 17.333 -5 34 -15 50s-21 28 -33 36c5.33301 8 14 15.167 26 21.5s25.333 9.5 40 9.5
c28.667 0 50.334 -12 65.001 -36c19.333 22.667 48.666 42.834 87.999 60.501s84 26.5 134 26.5c43.333 0 85.333 -7.66699 126 -23zM543.5 128.499c19.667 33 29.499 67.5 29.499 103.5c0 40 -9.66699 72.667 -29 98s-43.333 43.5 -72 54.5s-58 16.5 -88 16.5
c-40 0 -77.667 -8.5 -113 -25.5s-59.333 -36.167 -72 -57.5v-239h242c48.667 0 82.834 16.5 102.501 49.5zM358.499 562.999c-12.333 12 -18.5 26.333 -18.5 43c0 17.333 6.16699 32 18.5 44s27.166 18 44.499 18c16.667 0 31 -6.16699 43 -18.5s18 -26.833 18 -43.5
s-6 -31 -18 -43s-26.333 -18 -43 -18c-17.333 0 -32.166 6 -44.499 18z" />
    <glyph glyph-name="uniFEC0" unicode="&#x636;" horiz-adv-x="780" arabic-form="medial" 
d="M780 79l0.000976562 -79.001h-109c-38.667 0 -70.334 8.66699 -95.001 26c-29.333 -17.333 -65.333 -26 -108 -26h-468v79h99v233c0 17.333 -5 34 -15 50s-21 28 -33 36c5.33301 8 14 15.167 26 21.5s25.333 9.5 40 9.5c28.667 0 50.334 -12 65.001 -36
c19.333 22.667 48.666 42.834 87.999 60.501s84 26.5 134 26.5c43.333 0 85.333 -7.66699 126 -23s74.667 -41.333 102 -78s41 -84.667 41 -144c0 -63.333 -13.333 -115.333 -40 -156h147zM543.501 128.499c19.667 33 29.499 67.5 29.499 103.5c0 40 -9.66699 72.667 -29 98
s-43.333 43.5 -72 54.5s-58 16.5 -88 16.5c-40 0 -77.667 -8.5 -113 -25.5s-59.333 -36.167 -72 -57.5v-239h242c48.667 0 82.834 16.5 102.501 49.5zM358.5 562.999c-12.333 12 -18.5 26.333 -18.5 43c0 17.333 6.16699 32 18.5 44s27.166 18 44.499 18
c16.667 0 31 -6.16699 43 -18.5s18 -26.833 18 -43.5s-6 -31 -18 -43s-26.333 -18 -43 -18c-17.333 0 -32.166 6 -44.499 18z" />
    <glyph glyph-name="uniFEC2" unicode="&#x637;" horiz-adv-x="872" arabic-form="final" 
d="M872 79l-0.000976562 -78.9971h-121c-38 0 -69.333 8.66699 -94 26c-29.333 -17.333 -67.333 -26 -114 -26h-495c-9.33301 0 -16.333 4.33301 -21 13s-7 17.667 -7 27s2.33301 18.166 7 26.499s11.667 12.5 21 12.5h68v433c0 29.333 -5.33301 53.166 -16 71.499
s-23 31.833 -37 40.5c3.33301 7.33301 11.5 15.166 24.5 23.499s28.167 12.5 45.5 12.5c24 0 43.833 -9.16699 59.5 -27.5s23.5 -46.833 23.5 -85.5v-249c12.667 28.667 31.667 57 57 85s56.333 51.167 93 69.5s77.334 27.5 122.001 27.5c44 0 86.167 -9.5 126.5 -28.5
s73.5 -48.167 99.5 -87.5s39 -87.666 39 -144.999c0 -56.667 -12.333 -103.334 -37 -140.001h156zM616.499 121.503c24.333 28.333 36.4971 62.833 36.4971 103.5c0 38 -9.16699 70.333 -27.5 97s-42.166 46.5 -71.499 59.5s-59.666 19.5 -90.999 19.5
c-58.667 0 -109.167 -20.5 -151.5 -61.5s-74.166 -85.167 -95.499 -132.5v-128h288c50.667 0 88.167 14.167 112.5 42.5z" />
    <glyph glyph-name="uniFEC3" unicode="&#x637;" horiz-adv-x="816" arabic-form="initial" 
d="M612 451.5c40.667 -19 74.001 -47.998 100.001 -86.998s39 -87.5 39 -145.5c0 -62 -16.333 -114 -49 -156s-86.334 -63 -161.001 -63h-541v79h114v433c0 29.333 -5.33301 53.166 -16 71.499s-23 31.833 -37 40.5c3.33301 7.33301 11.5 15.166 24.5 23.499
s27.833 12.5 44.5 12.5c24 0 44 -9.16699 60 -27.5s24 -46.833 24 -85.5v-249c12.667 28.667 31.5 57 56.5 85s56 51.167 93 69.5s77.5 27.5 121.5 27.5s86.333 -9.5 127 -28.5zM614.501 121.502c24.333 28.333 36.4971 62.833 36.4971 103.5c0 38 -9.16699 70.333 -27.5 97
s-42.166 46.5 -71.499 59.5s-59.666 19.5 -90.999 19.5c-58.667 0 -109.167 -20.5 -151.5 -61.5s-74.166 -85.167 -95.499 -132.5v-128h288c50.667 0 88.167 14.167 112.5 42.5z" />
    <glyph glyph-name="uniFEC4" unicode="&#x637;" horiz-adv-x="875" arabic-form="medial" 
d="M875 79v-78.9971h-122c-38 0 -69.667 9 -95 27c-32 -18 -71 -27 -117 -27h-541v79h114v433c0 29.333 -5.33301 53.166 -16 71.499s-23 31.833 -37 40.5c3.33301 7.33301 11.5 15.166 24.5 23.499s27.833 12.5 44.5 12.5c24 0 44 -9.16699 60 -27.5s24 -46.833 24 -85.5
v-249c12.667 28.667 31.5 57 56.5 85s56 51.167 93 69.5s77.5 27.5 121.5 27.5s86.333 -9.5 127 -28.5s74 -48 100 -87s39 -87.5 39 -145.5c0 -56.667 -12.333 -103.334 -37 -140.001h161zM614.5 121.503c24.333 28.333 36.4971 62.833 36.4971 103.5
c0 38 -9.16699 70.333 -27.5 97s-42.166 46.5 -71.499 59.5s-59.666 19.5 -90.999 19.5c-58.667 0 -109.167 -20.5 -151.5 -61.5s-74.166 -85.167 -95.499 -132.5v-128h288c50.667 0 88.167 14.167 112.5 42.5z" />
    <glyph glyph-name="uniFEC6" unicode="&#x638;" horiz-adv-x="872" arabic-form="final" 
d="M872 79l-0.000976562 -78.9971h-121c-38 0 -69.333 8.66699 -94 26c-29.333 -17.333 -67.333 -26 -114 -26h-495c-9.33301 0 -16.333 4.33301 -21 13s-7 17.667 -7 27s2.33301 18.166 7 26.499s11.667 12.5 21 12.5h68v433c0 29.333 -5.33301 53.166 -16 71.499
s-23 31.833 -37 40.5c3.33301 7.33301 11.5 15.166 24.5 23.499s28.167 12.5 45.5 12.5c24 0 43.833 -9.16699 59.5 -27.5s23.5 -46.833 23.5 -85.5v-249c12.667 28.667 31.667 57 57 85s56.333 51.167 93 69.5s77.334 27.5 122.001 27.5c44 0 86.167 -9.5 126.5 -28.5
s73.5 -48.167 99.5 -87.5s39 -87.666 39 -144.999c0 -56.667 -12.333 -103.334 -37 -140.001h156zM616.499 121.503c24.333 28.333 36.4971 62.833 36.4971 103.5c0 38 -9.16699 70.333 -27.5 97s-42.166 46.5 -71.499 59.5s-59.666 19.5 -90.999 19.5
c-58.667 0 -109.167 -20.5 -151.5 -61.5s-74.166 -85.167 -95.499 -132.5v-128h288c50.667 0 88.167 14.167 112.5 42.5zM372.496 563.003c-12.333 12 -18.5 26.333 -18.5 43c0 17.333 6.16699 32 18.5 44s27.166 18 44.499 18c16.667 0 31 -6.16699 43 -18.5
s18 -26.833 18 -43.5s-6 -31 -18 -43s-26.333 -18 -43 -18c-17.333 0 -32.166 6 -44.499 18z" />
    <glyph glyph-name="uniFEC7" unicode="&#x638;" horiz-adv-x="816" arabic-form="initial" 
d="M612 451.5c40.667 -19 74.001 -47.998 100.001 -86.998s39 -87.5 39 -145.5c0 -62 -16.333 -114 -49 -156s-86.334 -63 -161.001 -63h-541v79h114v433c0 29.333 -5.33301 53.166 -16 71.499s-23 31.833 -37 40.5c3.33301 7.33301 11.5 15.166 24.5 23.499
s27.833 12.5 44.5 12.5c24 0 44 -9.16699 60 -27.5s24 -46.833 24 -85.5v-249c12.667 28.667 31.5 57 56.5 85s56 51.167 93 69.5s77.5 27.5 121.5 27.5s86.333 -9.5 127 -28.5zM614.501 121.502c24.333 28.333 36.4971 62.833 36.4971 103.5c0 38 -9.16699 70.333 -27.5 97
s-42.166 46.5 -71.499 59.5s-59.666 19.5 -90.999 19.5c-58.667 0 -109.167 -20.5 -151.5 -61.5s-74.166 -85.167 -95.499 -132.5v-128h288c50.667 0 88.167 14.167 112.5 42.5zM353.498 563.002c-12.333 12 -18.5 26.333 -18.5 43c0 17.333 6.16699 32 18.5 44
s27.166 18 44.499 18c16.667 0 31 -6.16699 43 -18.5s18 -26.833 18 -43.5s-6 -31 -18 -43s-26.333 -18 -43 -18c-17.333 0 -32.166 6 -44.499 18z" />
    <glyph glyph-name="uniFEC8" unicode="&#x638;" horiz-adv-x="875" arabic-form="medial" 
d="M875 79v-78.9971h-122c-38 0 -69.667 9 -95 27c-32 -18 -71 -27 -117 -27h-541v79h114v433c0 29.333 -5.33301 53.166 -16 71.499s-23 31.833 -37 40.5c3.33301 7.33301 11.5 15.166 24.5 23.499s27.833 12.5 44.5 12.5c24 0 44 -9.16699 60 -27.5s24 -46.833 24 -85.5
v-249c12.667 28.667 31.5 57 56.5 85s56 51.167 93 69.5s77.5 27.5 121.5 27.5s86.333 -9.5 127 -28.5s74 -48 100 -87s39 -87.5 39 -145.5c0 -56.667 -12.333 -103.334 -37 -140.001h161zM614.5 121.503c24.333 28.333 36.4971 62.833 36.4971 103.5
c0 38 -9.16699 70.333 -27.5 97s-42.166 46.5 -71.499 59.5s-59.666 19.5 -90.999 19.5c-58.667 0 -109.167 -20.5 -151.5 -61.5s-74.166 -85.167 -95.499 -132.5v-128h288c50.667 0 88.167 14.167 112.5 42.5zM353.497 563.003c-12.333 12 -18.5 26.333 -18.5 43
c0 17.333 6.16699 32 18.5 44s27.166 18 44.499 18c16.667 0 31 -6.16699 43 -18.5s18 -26.833 18 -43.5s-6 -31 -18 -43s-26.333 -18 -43 -18c-17.333 0 -32.166 6 -44.499 18z" />
    <glyph glyph-name="uniFECA" unicode="&#x639;" horiz-adv-x="614" arabic-form="final" 
d="M614 79l0.00390625 -78.998h-117c-24.667 0 -45 3.33301 -61 10c-20 -6.66699 -40.333 -10 -61 -10h-101h-69c0 -56 6.83301 -104.833 20.5 -146.5s34.5 -73.834 62.5 -96.501c-4.66699 -5.33301 -12.834 -10.5 -24.501 -15.5s-23.834 -7.5 -36.501 -7.5
c-28.667 0 -51.834 11.833 -69.501 35.5s-30 51.334 -37 83.001s-10.5 61.167 -10.5 88.5c0 44.667 10.333 78.834 31 102.501s51.334 35.5 92.001 35.5h50l-213 289c6 17.333 18.167 34.666 36.5 51.999s43.333 31.666 75 42.999s68.5 17 110.5 17
c53.333 0 100.666 -8.83301 141.999 -26.5s73.666 -43.5 96.999 -77.5s35 -75 35 -123c0 -26.667 -3.5 -55.834 -10.5 -87.501s-18.833 -60.5 -35.5 -86.5h94zM180.004 361.002l201 -273.002c31.333 12.667 53.333 34.834 66 66.501s19 62.834 19 93.501
c0 48.667 -15.5 86.167 -46.5 112.5s-72.833 39.5 -125.5 39.5c-50 0 -88 -13 -114 -39z" />
    <glyph glyph-name="uniFECB" unicode="&#x639;" horiz-adv-x="510" arabic-form="initial" 
d="M438 66.5c4.66699 -8.33301 6.99805 -17.167 6.99805 -26.5c0 -10 -2.33301 -19.167 -7 -27.5s-12.667 -12.5 -24 -12.5h-144c-40 0 -71.667 9 -95 27c-25.333 -16 -54.666 -25 -87.999 -27h-87v80h123c-41.333 50.667 -62 107.334 -62 170.001
c0 42.667 8.83301 81.5 26.5 116.5s43 62.667 76 83s71.833 30.5 116.5 30.5c41.333 0 77.333 -8.5 108 -25.5s46 -44.167 46 -81.5c0 -22 -5.5 -38.167 -16.5 -48.5s-24.5 -15.5 -40.5 -15.5c-12 0 -24.333 2.33301 -37 7c0 28.667 -6.16699 49.167 -18.5 61.5
s-30.166 21.166 -53.499 26.499c-30 -3.33301 -55.5 -18.5 -76.5 -45.5s-31.5 -61.5 -31.5 -103.5c0 -52.667 15.5 -95.167 46.5 -127.5s79.167 -48.5 144.5 -48.5h63c11.333 0 19.333 -4.16699 24 -12.5zM294.998 402.999c-2.66699 0.666992 -6.66699 1 -12 1z" />
    <glyph glyph-name="uniFECC" unicode="&#x639;" horiz-adv-x="570" arabic-form="medial" 
d="M570 79v-78.999h-116c-25.333 0 -46 3.33301 -62 10c-20 -6.66699 -40.333 -10 -61 -10h-331v79h239l-212 289c5.33301 17.333 17.166 34.666 35.499 51.999s43.333 31.666 75 42.999s68.834 17 111.501 17c53.333 0 100.5 -8.83301 141.5 -26.5s73.167 -43.5 96.5 -77.5
s35 -75 35 -123c0 -25.333 -3.66699 -54.166 -11 -86.499s-19.333 -61.5 -36 -87.5h95zM136 361.001l201 -272.001c31.333 12.667 53.5 35.334 66.5 68.001s19.5 64 19.5 94c0 47.333 -15.833 84 -47.5 110s-73.5 39 -125.5 39c-50 0 -88 -13 -114 -39z" />
    <glyph glyph-name="uniFECE" unicode="&#x63a;" horiz-adv-x="614" arabic-form="final" 
d="M614 79l0.00390625 -78.998h-117c-24.667 0 -45 3.33301 -61 10c-20 -6.66699 -40.333 -10 -61 -10h-101h-69c0 -56 6.83301 -104.833 20.5 -146.5s34.5 -73.834 62.5 -96.501c-4.66699 -5.33301 -12.834 -10.5 -24.501 -15.5s-23.834 -7.5 -36.501 -7.5
c-28.667 0 -51.834 11.833 -69.501 35.5s-30 51.334 -37 83.001s-10.5 61.167 -10.5 88.5c0 44.667 10.333 78.834 31 102.501s51.334 35.5 92.001 35.5h50l-213 289c6 17.333 18.167 34.666 36.5 51.999s43.333 31.666 75 42.999s68.5 17 110.5 17
c53.333 0 100.666 -8.83301 141.999 -26.5s73.666 -43.5 96.999 -77.5s35 -75 35 -123c0 -26.667 -3.5 -55.834 -10.5 -87.501s-18.833 -60.5 -35.5 -86.5h94zM180.004 361.002l201 -273.002c31.333 12.667 53.333 34.834 66 66.501s19 62.834 19 93.501
c0 48.667 -15.5 86.167 -46.5 112.5s-72.833 39.5 -125.5 39.5c-50 0 -88 -13 -114 -39zM282.504 563c-12.333 12 -18.5 26.333 -18.5 43c0 17.333 6.16699 32 18.5 44s27.166 18 44.499 18c16.667 0 31 -6.16699 43 -18.5s18 -26.833 18 -43.5s-6 -31 -18 -43
s-26.333 -18 -43 -18c-17.333 0 -32.166 6 -44.499 18z" />
    <glyph glyph-name="uniFECF" unicode="&#x63a;" horiz-adv-x="510" arabic-form="initial" 
d="M438 66.5c4.66699 -8.33301 6.99805 -17.167 6.99805 -26.5c0 -10 -2.33301 -19.167 -7 -27.5s-12.667 -12.5 -24 -12.5h-144c-40 0 -71.667 9 -95 27c-25.333 -16 -54.666 -25 -87.999 -27h-87v80h123c-41.333 50.667 -62 107.334 -62 170.001
c0 42.667 8.83301 81.5 26.5 116.5s43 62.667 76 83s71.833 30.5 116.5 30.5c41.333 0 77.333 -8.5 108 -25.5s46 -44.167 46 -81.5c0 -22 -5.5 -38.167 -16.5 -48.5s-24.5 -15.5 -40.5 -15.5c-12 0 -24.333 2.33301 -37 7c0 28.667 -6.16699 49.167 -18.5 61.5
s-30.166 21.166 -53.499 26.499c-30 -3.33301 -55.5 -18.5 -76.5 -45.5s-31.5 -61.5 -31.5 -103.5c0 -52.667 15.5 -95.167 46.5 -127.5s79.167 -48.5 144.5 -48.5h63c11.333 0 19.333 -4.16699 24 -12.5zM294.998 402.999c-2.66699 0.666992 -6.66699 1 -12 1z
M211.498 562.999c-12.333 12 -18.5 26.333 -18.5 43c0 17.333 6.16699 32 18.5 44s27.166 18 44.499 18c16.667 0 31 -6.16699 43 -18.5s18 -26.833 18 -43.5s-6 -31 -18 -43s-26.333 -18 -43 -18c-17.333 0 -32.166 6 -44.499 18z" />
    <glyph glyph-name="uniFED0" unicode="&#x63a;" horiz-adv-x="570" arabic-form="medial" 
d="M570 79v-78.999h-116c-25.333 0 -46 3.33301 -62 10c-20 -6.66699 -40.333 -10 -61 -10h-331v79h239l-212 289c5.33301 17.333 17.166 34.666 35.499 51.999s43.333 31.666 75 42.999s68.834 17 111.501 17c53.333 0 100.5 -8.83301 141.5 -26.5s73.167 -43.5 96.5 -77.5
s35 -75 35 -123c0 -25.333 -3.66699 -54.166 -11 -86.499s-19.333 -61.5 -36 -87.5h95zM136 361.001l201 -272.001c31.333 12.667 53.5 35.334 66.5 68.001s19.5 64 19.5 94c0 47.333 -15.833 84 -47.5 110s-73.5 39 -125.5 39c-50 0 -88 -13 -114 -39zM241.5 563
c-12.333 12 -18.5 26.333 -18.5 43c0 17.333 6.16699 32 18.5 44s27.166 18 44.499 18c16.667 0 31 -6.16699 43 -18.5s18 -26.833 18 -43.5s-6 -31 -18 -43s-26.333 -18 -43 -18c-17.333 0 -32.166 6 -44.499 18z" />
    <glyph glyph-name="uniFED2" unicode="&#x641;" horiz-adv-x="989" arabic-form="final" 
d="M989 79l0.00292969 -79h-99c-26.667 -0 -48 3.33301 -64 10c-15.333 -6.66699 -34 -10 -56 -10h-509c-62.667 -0 -111 19.333 -145 58s-51 89.334 -51 152.001c0 50 10.167 91 30.5 123s46.166 48 77.499 48c22.667 0 41.334 -9.66699 56.001 -29
c-17.333 -11.333 -32.333 -30.5 -45 -57.5s-19 -59.833 -19 -98.5c0 -48 10.667 -79.5 32 -94.5s47.666 -22.5 78.999 -22.5h276c-28 44.667 -42 101.667 -42 171c0 65.333 8.5 114.666 25.5 147.999s39.5 55.333 67.5 66s62.667 16 104 16
c45.333 0 81.666 -5.33301 108.999 -16s48.166 -31.334 62.499 -62.001s21.5 -74.667 21.5 -132v-130c0 -21.333 -3 -41.666 -9 -60.999h98zM783.503 99.5c10.333 13.667 15.501 37.168 15.501 70.501v134c0 65.333 -27.333 98 -82 98
c-34.667 0 -61.167 -12.833 -79.5 -38.5s-27.5 -63.5 -27.5 -113.5c0 -36.667 6.83301 -74.334 20.5 -113.001s39.167 -58 76.5 -58h20c27.333 0 46.166 6.83301 56.499 20.5zM679.504 563.001c-12.333 12 -18.5 26.333 -18.5 43c0 17.333 6.16699 32 18.5 44
s27.166 18 44.499 18c16.667 0 31 -6.16699 43 -18.5s18 -26.833 18 -43.5s-6 -31 -18 -43s-26.333 -18 -43 -18c-17.333 0 -32.166 6 -44.499 18z" />
    <glyph glyph-name="uniFED3" unicode="&#x641;" horiz-adv-x="535" arabic-form="initial" 
d="M386 464c27.333 -10.667 48.168 -31.332 62.501 -61.999s21.5 -74.667 21.5 -132v-130c0 -42 -10.5 -75.833 -31.5 -101.5s-53.833 -38.5 -98.5 -38.5h-340v79h123c-28 44.667 -42 101.667 -42 171c0 65.333 8.5 114.666 25.5 147.999s39.333 55.333 67 66
s62.167 16 103.5 16c45.333 0 81.666 -5.33301 108.999 -16zM370.002 304.002c0 65.333 -27.667 97.999 -83 97.999c-34 0 -60.167 -12.833 -78.5 -38.5s-27.5 -63.5 -27.5 -113.5c0 -39.333 6.66699 -77.666 20 -114.999s39 -56 77 -56h19c27.333 0 46.333 6.83301 57 20.5
s16 37.167 16 70.5v134zM249.502 563.001c-12.333 12 -18.5 26.333 -18.5 43c0 17.333 6.16699 32 18.5 44s27.166 18 44.499 18c16.667 0 31 -6.16699 43 -18.5s18 -26.833 18 -43.5s-6 -31 -18 -43s-26.333 -18 -43 -18c-17.333 0 -32.166 6 -44.499 18z" />
    <glyph glyph-name="uniFED4" unicode="&#x641;" horiz-adv-x="560" arabic-form="medial" 
d="M560 79l0.00195312 -78.998h-100c-24.667 0 -45.667 3 -63 9c-16 -6 -35 -9 -57 -9h-340v79h123c-28 44.667 -42 101.667 -42 171c0 65.333 8.5 114.666 25.5 147.999s39.333 55.333 67 66s62.167 16 103.5 16c45.333 0 81.666 -5.33301 108.999 -16
s48.166 -31.334 62.499 -62.001s21.5 -74.667 21.5 -132v-130c0 -24.667 -3 -45 -9 -61h99zM354.002 99.502c10.667 13.667 16 37.166 16 70.499v134c0 65.333 -27.667 98 -83 98c-34 0 -60.167 -12.833 -78.5 -38.5s-27.5 -63.5 -27.5 -113.5
c0 -39.333 6.66699 -77.666 20 -114.999s39 -56 77 -56h19c27.333 0 46.333 6.83301 57 20.5zM250.502 563.001c-12.333 12 -18.5 26.333 -18.5 43c0 17.333 6.16699 32 18.5 44s27.166 18 44.499 18c16.667 0 31 -6.16699 43 -18.5s18 -26.833 18 -43.5s-6 -31 -18 -43
s-26.333 -18 -43 -18c-17.333 0 -32.166 6 -44.499 18z" />
    <glyph glyph-name="uniFED6" unicode="&#x642;" horiz-adv-x="908" arabic-form="final" 
d="M908 0h-95.9971c-21.333 -157.333 -142.333 -236 -363 -236c-150 0 -251.5 29.833 -304.5 89.5s-79.5 129.5 -79.5 209.5c0 56.667 9.16699 103.334 27.5 140.001s45.5 55 81.5 55c14 0 25.667 -2.5 35 -7.5s15.666 -10.833 18.999 -17.5
c-18 -14.667 -32.833 -39.334 -44.5 -74.001s-17.5 -72.334 -17.5 -113.001c0 -62 21.167 -111.333 63.5 -148s115.5 -55 219.5 -55c90.667 0 155 14 193 42s60 66.333 66 115h-111c-60.667 0 -104.5 23.333 -131.5 70s-40.5 108.334 -40.5 185.001
c0 62 8.16699 109.333 24.5 142s39 54.667 68 66s65.833 17 110.5 17c43.333 0 78.166 -5.33301 104.499 -16s46.666 -31.667 60.999 -63s21.5 -77 21.5 -137v-185h93v-79zM549.503 133c15.667 -36 47.167 -54.001 94.5 -54.001h70v225c0 64.667 -27.667 97 -83 97
c-34 0 -60 -13.167 -78 -39.5s-27 -65.166 -27 -116.499c0 -38.667 7.83301 -76 23.5 -112zM519.503 563.499c-11.667 11.667 -17.5 25.5 -17.5 41.5c0 16.667 5.83301 30.834 17.5 42.501s25.5 17.5 41.5 17.5c16.667 0 30.667 -5.83301 42 -17.5s17 -25.834 17 -42.501
c0 -16 -5.66699 -29.833 -17 -41.5s-25.333 -17.5 -42 -17.5c-16 0 -29.833 5.83301 -41.5 17.5zM669.503 563.499c-11.667 11.667 -17.5 25.5 -17.5 41.5c0 16.667 5.83301 30.834 17.5 42.501s25.5 17.5 41.5 17.5c16.667 0 30.667 -5.83301 42 -17.5
s17 -25.834 17 -42.501c0 -16 -5.66699 -29.833 -17 -41.5s-25.333 -17.5 -42 -17.5c-16 0 -29.833 5.83301 -41.5 17.5z" />
    <glyph glyph-name="uniFED7" unicode="&#x642;" horiz-adv-x="535" arabic-form="initial" 
d="M386 464c27.333 -10.667 48.168 -31.332 62.501 -61.999s21.5 -74.667 21.5 -132v-130c0 -42 -10.5 -75.833 -31.5 -101.5s-53.833 -38.5 -98.5 -38.5h-340v79h123c-28 44.667 -42 101.667 -42 171c0 65.333 8.5 114.666 25.5 147.999s39.333 55.333 67 66
s62.167 16 103.5 16c45.333 0 81.666 -5.33301 108.999 -16zM370.002 304.002c0 65.333 -27.667 97.999 -83 97.999c-34 0 -60.167 -12.833 -78.5 -38.5s-27.5 -63.5 -27.5 -113.5c0 -39.333 6.66699 -77.666 20 -114.999s39 -56 77 -56h19c27.333 0 46.333 6.83301 57 20.5
s16 37.167 16 70.5v134zM176.502 563.501c-11.667 11.667 -17.5 25.5 -17.5 41.5c0 16.667 5.83301 30.834 17.5 42.501s25.5 17.5 41.5 17.5c16.667 0 30.667 -5.83301 42 -17.5s17 -25.834 17 -42.501c0 -16 -5.66699 -29.833 -17 -41.5s-25.333 -17.5 -42 -17.5
c-16 0 -29.833 5.83301 -41.5 17.5zM326.502 563.501c-11.667 11.667 -17.5 25.5 -17.5 41.5c0 16.667 5.83301 30.834 17.5 42.501s25.5 17.5 41.5 17.5c16.667 0 30.667 -5.83301 42 -17.5s17 -25.834 17 -42.501c0 -16 -5.66699 -29.833 -17 -41.5
s-25.333 -17.5 -42 -17.5c-16 0 -29.833 5.83301 -41.5 17.5z" />
    <glyph glyph-name="uniFED8" unicode="&#x642;" horiz-adv-x="560" arabic-form="medial" 
d="M560 79l0.00195312 -78.998h-100c-24.667 0 -45.667 3 -63 9c-16 -6 -35 -9 -57 -9h-340v79h123c-28 44.667 -42 101.667 -42 171c0 65.333 8.5 114.666 25.5 147.999s39.333 55.333 67 66s62.167 16 103.5 16c45.333 0 81.666 -5.33301 108.999 -16
s48.166 -31.334 62.499 -62.001s21.5 -74.667 21.5 -132v-130c0 -24.667 -3 -45 -9 -61h99zM354.002 99.502c10.667 13.667 16 37.166 16 70.499v134c0 65.333 -27.667 98 -83 98c-34 0 -60.167 -12.833 -78.5 -38.5s-27.5 -63.5 -27.5 -113.5
c0 -39.333 6.66699 -77.666 20 -114.999s39 -56 77 -56h19c27.333 0 46.333 6.83301 57 20.5zM177.502 563.501c-11.667 11.667 -17.5 25.5 -17.5 41.5c0 16.667 5.83301 30.834 17.5 42.501s25.5 17.5 41.5 17.5c16.667 0 30.667 -5.83301 42 -17.5s17 -25.834 17 -42.501
c0 -16 -5.66699 -29.833 -17 -41.5s-25.333 -17.5 -42 -17.5c-16 0 -29.833 5.83301 -41.5 17.5zM327.502 563.501c-11.667 11.667 -17.5 25.5 -17.5 41.5c0 16.667 5.83301 30.834 17.5 42.501s25.5 17.5 41.5 17.5c16.667 0 30.667 -5.83301 42 -17.5
s17 -25.834 17 -42.501c0 -16 -5.66699 -29.833 -17 -41.5s-25.333 -17.5 -42 -17.5c-16 0 -29.833 5.83301 -41.5 17.5z" />
    <glyph glyph-name="uniFEDA" unicode="&#x643;" horiz-adv-x="880" arabic-form="final" 
d="M880 79v-78.9971h-105c-33.333 0 -61 6.33301 -83 19c-20.667 -12.667 -44.667 -19 -72 -19h-425c-44 0 -76.667 13.667 -98 41s-32 62.333 -32 105v120c0 15.333 4.5 27.333 13.5 36s21.167 13 36.5 13c16 0 28.333 -4.33301 37 -13s13 -21.334 13 -38.001v-94
c0 -33.333 5.33301 -56.833 16 -70.5s29.667 -20.5 57 -20.5h351c24.667 0 43.667 10.333 57 31s20 45 20 73v329c0 29.333 -5.33301 53.166 -16 71.499s-23 31.833 -37 40.5c3.33301 7.33301 11.5 15.166 24.5 23.499s28.167 12.5 45.5 12.5
c24 0 43.833 -9.16699 59.5 -27.5s23.5 -46.833 23.5 -85.5v-361c0 -42 -7 -77.667 -21 -107h135zM316 342.003c0 8 2.99902 14.8311 8.99902 20.498s14 8.5 24 8.5c5.33301 0 9.33301 -0.333008 12 -1c-8.66699 8 -16.667 19.167 -24 33.5s-11 29.833 -11 46.5
c0 26.667 9.5 49 28.5 67s45.167 27 78.5 27c42.667 0 64 -14 64 -42c0 -11.333 -3 -19.666 -9 -24.999s-13 -8 -21 -8c-6 0 -11.333 1.66699 -16 5c0.666992 10.667 -2.83301 19.834 -10.5 27.501s-16.5 12.167 -26.5 13.5c-6.66699 -2.66699 -13 -9 -19 -19
s-9 -22.667 -9 -38c0 -26.667 7.83301 -45.5 23.5 -56.5s33.834 -16.5 54.501 -16.5c7.33301 0 19 1.33301 35 4c7.33301 0 12.833 -2 16.5 -6s5.5 -9 5.5 -15c0 -5.33301 -1.16699 -10 -3.5 -14s-5.16602 -6 -8.49902 -6c-116.667 -10 -177.334 -20 -182.001 -30
c-7.33301 7.33301 -11 15.333 -11 24z" />
    <glyph glyph-name="uniFEDB" unicode="&#x643;" horiz-adv-x="600" arabic-form="initial" 
d="M0 79l351 0.000976562c26.667 0 47.334 8.16699 62.001 24.5s22 37.166 22 62.499c0 28.667 -9.16699 51 -27.5 67s-47.166 24 -86.499 24h-101c-48.667 0 -85.834 14.5 -111.501 43.5s-38.5 69.167 -38.5 120.5c0 56 16.667 98.833 50 128.5s86.666 44.5 159.999 44.5
l90 -2l58 -2c35.333 0 62.333 9.33301 81 28c3.33301 -4.66699 5 -12 5 -22c0 -19.333 -6.33301 -37.833 -19 -55.5s-31 -26.5 -55 -26.5l-145 1c-44.667 0 -76.667 -7.33301 -96 -22s-29 -37 -29 -67c0 -28 7.5 -49.833 22.5 -65.5s36.833 -23.5 65.5 -23.5h78
c132.667 0 199 -57.667 199 -173c0 -50.667 -12.5 -90.667 -37.5 -120s-60.833 -44 -107.5 -44h-390v79z" />
    <glyph glyph-name="uniFEDC" unicode="&#x643;" horiz-adv-x="761" arabic-form="medial" 
d="M761 79v-78.999h-230c-28.667 0 -53 4.66699 -73 14c-20 -9.33301 -42.667 -14 -68 -14h-390v79h351c26.667 0 47.334 8.16699 62.001 24.5s22 37.166 22 62.499c0 28.667 -9.16699 51 -27.5 67s-47.166 24 -86.499 24h-101c-48.667 0 -85.834 14.5 -111.501 43.5
s-38.5 69.167 -38.5 120.5c0 56 16.667 98.833 50 128.5s86.666 44.5 159.999 44.5l90 -2l58 -2c35.333 0 62.333 9.33301 81 28c3.33301 -4.66699 5 -12 5 -22c0 -19.333 -6.33301 -37.833 -19 -55.5s-31 -26.5 -55 -26.5l-145 1c-44.667 0 -76.667 -7.33301 -96 -22
s-29 -37 -29 -67c0 -28 7.5 -49.833 22.5 -65.5s36.833 -23.5 65.5 -23.5h78c132.667 0 199 -57.667 199 -173c0 -32.667 -5 -61 -15 -85h241z" />
    <glyph glyph-name="uniFEDE" unicode="&#x644;" horiz-adv-x="720" arabic-form="final" 
d="M720 79l-0.00195312 -78.999h-16c-32.667 0 -60.334 6.66699 -83.001 20c-2 -80.667 -24.667 -143.5 -68 -188.5s-109.666 -67.5 -198.999 -67.5c-65.333 0 -119.666 12.167 -162.999 36.5s-75.166 56.666 -95.499 96.999s-30.5 84.833 -30.5 133.5
c0 32.667 4.66699 64.5 14 95.5s23.166 56.5 41.499 76.5s40.166 30 65.499 30c20.667 0 40 -6.33301 58 -19c-8 -6 -17.833 -17.333 -29.5 -34s-22.167 -38.5 -31.5 -65.5s-14 -57.167 -14 -90.5c0 -43.333 9.83301 -78.5 29.5 -105.5s44.167 -46.333 73.5 -58
s59.333 -17.5 90 -17.5c64.667 0 107.334 20.333 128.001 61s31 89.334 31 146.001v462c0 29.333 -5.33301 53.166 -16 71.499s-23 31.833 -37 40.5c4 8 12.333 16 25 24s27.334 12 44.001 12c24 0 44.167 -9.16699 60.5 -27.5s24.5 -46.833 24.5 -85.5v-468h98z" />
    <glyph glyph-name="uniFEDF" unicode="&#x644;" horiz-adv-x="283" arabic-form="initial" 
d="M0 79h66.001c21.333 0 35.166 9.16699 41.499 27.5s9.5 44.166 9.5 77.499v328c0 28.667 -5.33301 52.334 -16 71.001s-22.667 32.334 -36 41.001c3.33301 7.33301 11.5 15.166 24.5 23.499s27.833 12.5 44.5 12.5c24 0 44 -9.16699 60 -27.5s24 -46.833 24 -85.5v-362
c-0.666992 -59.333 -14.5 -105 -41.5 -137s-62.167 -48 -105.5 -48h-71v79z" />
    <glyph glyph-name="uniFEE0" unicode="&#x644;" horiz-adv-x="330" arabic-form="medial" 
d="M330 79v-79.001h-84c-38.667 0 -69.667 8.66699 -93 26c-23.333 -17.333 -50.666 -26 -81.999 -26h-71v79h66c21.333 0 35.166 9.16699 41.499 27.5s9.5 44.166 9.5 77.499v328c0 28.667 -5.33301 52.334 -16 71.001s-22.667 32.334 -36 41.001
c3.33301 7.33301 11.5 15.166 24.5 23.499s27.833 12.5 44.5 12.5c24 0 44 -9.16699 60 -27.5s24 -46.833 24 -85.5v-362c0 -41.333 -7.33301 -76.666 -22 -105.999h134z" />
    <glyph glyph-name="uniFEE2" unicode="&#x645;" horiz-adv-x="684" arabic-form="final" 
d="M684 79l-0.000976562 -78.998h-108c-38 0 -69.667 9 -95 27c-28 -18 -64.667 -27 -110 -27h-72c-36.667 0 -63.5 -8.83301 -80.5 -26.5s-25.5 -39.5 -25.5 -65.5v-73c0 -38.667 -7.83301 -67.167 -23.5 -85.5s-35.5 -27.5 -59.5 -27.5
c-17.333 0 -32.5 4.16699 -45.5 12.5s-21.167 16.166 -24.5 23.499c14 8.66699 26.333 22.167 37 40.5s16 42.166 16 71.499v44c0 26 5.83301 53.667 17.5 83s31.834 51.333 60.501 66v236c0 69.333 15.833 116.833 47.5 142.5s78.167 38.5 139.5 38.5
c42 0 77.333 -6 106 -18s51.5 -35.833 68.5 -71.5s25.5 -87.167 25.5 -154.5c0 -68 -9.66699 -120.333 -29 -157h155zM436.999 130.502c14 34.333 21 70.833 21 109.5c0 54 -8.16699 94.333 -24.5 121s-41.833 40 -76.5 40c-25.333 0 -45.833 -7.66699 -61.5 -23
s-23.5 -40.333 -23.5 -75v-224h75c46 0 76 17.167 90 51.5z" />
    <glyph glyph-name="uniFEE3" unicode="&#x645;" horiz-adv-x="517" arabic-form="initial" 
d="M358 461.5c28.667 -12.333 51.5 -36.332 68.5 -71.999s25.5 -86.834 25.5 -153.501c0 -82 -14.333 -142.167 -43 -180.5s-75.667 -57.5 -141 -57.5c-39.333 0 -73.666 7.33301 -102.999 22c-22.667 -13.333 -50.334 -20 -83.001 -20h-82v79h65v219
c0 69.333 15.833 117 47.5 143s78.167 39 139.5 39c42 0 77.333 -6.16699 106 -18.5zM331 130.001c14 34 21 70.3311 21 108.998c0 54.667 -8.33301 95.334 -25 122.001s-42 40 -76 40c-25.333 0 -45.833 -7.66699 -61.5 -23s-23.5 -40.666 -23.5 -75.999v-223h75
c46 0 76 17 90 51z" />
    <glyph glyph-name="uniFEE4" unicode="&#x645;" horiz-adv-x="528" arabic-form="medial" 
d="M528 79v-78.999h-56c-37.333 0 -69 8.66699 -95 26c-26.667 -18.667 -63 -28 -109 -28c-39.333 0 -73.666 7.33301 -102.999 22c-22.667 -13.333 -50.334 -20 -83.001 -20h-82v79h65v219c0 69.333 15.833 117 47.5 143s78.167 39 139.5 39
c42 0 77.333 -6.16699 106 -18.5s51.5 -36.333 68.5 -72s25.5 -86.834 25.5 -153.501s-9.33301 -119 -28 -157h104zM331 130.001c14 34 21 70.3311 21 108.998c0 54.667 -8.33301 95.334 -25 122.001s-42 40 -76 40c-25.333 0 -45.833 -7.66699 -61.5 -23
s-23.5 -40.666 -23.5 -75.999v-223h75c46 0 76 17 90 51z" />
    <glyph glyph-name="uniFEE6" unicode="&#x646;" horiz-adv-x="709" arabic-form="final" 
d="M709 79l-0.00195312 -79h-13c-18 0 -32.333 1.5 -43 4.5s-21.334 8.16699 -32.001 15.5c-2 -80.667 -24.667 -143.5 -68 -188.5s-109.666 -67.5 -198.999 -67.5c-65.333 0 -119.666 12.167 -162.999 36.5s-75.166 56.666 -95.499 96.999s-30.5 84.833 -30.5 133.5
c0 32.667 4.66699 64.5 14 95.5s23.166 56.5 41.499 76.5s40.166 30 65.499 30c20.667 0 40 -6.33301 58 -19c-8 -6 -17.833 -17.333 -29.5 -34s-22.167 -38.5 -31.5 -65.5s-14 -57.167 -14 -90.5c0 -43.333 9.83301 -78.5 29.5 -105.5s44.167 -46.333 73.5 -58
s59.333 -17.5 90 -17.5c64.667 0 107.334 20.333 128.001 61s31 89.334 31 146.001v383c0 16 5.16699 27.833 15.5 35.5s21.833 11.5 34.5 11.5s24.334 -3.83301 35.001 -11.5s16 -19.5 16 -35.5v-354h87zM300.498 498c-12.333 12 -18.5 26.333 -18.5 43
c0 17.333 6.16699 32 18.5 44s27.166 18 44.499 18c16.667 0 31 -6.16699 43 -18.5s18 -26.833 18 -43.5s-6 -31 -18 -43s-26.333 -18 -43 -18c-17.333 0 -32.166 6 -44.499 18z" />
    <glyph glyph-name="uniFEE7" unicode="&#x646;" horiz-adv-x="338" arabic-form="initial" 
d="M0 79h73.998c38.667 0 64.834 17.333 78.501 52s20.5 72.667 20.5 114c0 42 -5.66699 80 -17 114s-32.666 64 -63.999 90c14 20.667 34.667 31 62 31c40.667 0 70.667 -19.833 90 -59.5s29 -88.5 29 -146.5c0 -74.667 -16 -139 -48 -193s-84 -81 -156 -81h-69v79z
M110.498 563c-12.333 12 -18.5 26.333 -18.5 43c0 17.333 6.16699 32 18.5 44s27.166 18 44.499 18c16.667 0 31 -6.16699 43 -18.5s18 -26.833 18 -43.5s-6 -31 -18 -43s-26.333 -18 -43 -18c-17.333 0 -32.166 6 -44.499 18z" />
    <glyph glyph-name="uniFEE8" unicode="&#x646;" horiz-adv-x="338" arabic-form="medial" 
d="M338 79v-79h-107c-38 -0 -69.667 9.33301 -95 28c-26 -16.667 -54.333 -26 -85 -28h-51v79h51c22.667 0.666992 44 6.33398 64 17.001v333c0 34 16.667 51 50 51c16 0 28.333 -4.33301 37 -13s13 -21.334 13 -38.001v-272c0 -52 10.333 -78 31 -78h92zM121.5 563
c-12.333 12 -18.5 26.333 -18.5 43c0 17.333 6.16699 32 18.5 44s27.166 18 44.499 18c16.667 0 31 -6.16699 43 -18.5s18 -26.833 18 -43.5s-6 -31 -18 -43s-26.333 -18 -43 -18c-17.333 0 -32.166 6 -44.499 18z" />
    <glyph glyph-name="uniFEEA" unicode="&#x647;" horiz-adv-x="517" arabic-form="final" 
d="M517 79v-79.001h-81c-33.333 0 -61.333 6.66699 -84 20c-28 -14.667 -62 -22 -102 -22c-65.333 0 -112.5 19.167 -141.5 57.5s-43.5 98.5 -43.5 180.5c0 66.667 8.5 117.834 25.5 153.501s39.833 59.667 68.5 72s64 18.5 106 18.5c61.333 0 107.833 -13 139.5 -39
s47.5 -73.667 47.5 -143v-219h65zM186 129.999c14 -34 44 -50.998 90 -50.998h75v223c0 35.333 -7.83301 60.666 -23.5 75.999s-36.167 23 -61.5 23c-34 0 -59.333 -13.333 -76 -40s-25 -67.334 -25 -122.001c0 -38.667 7 -75 21 -109z" />
    <glyph glyph-name="uniFEEB" unicode="&#x647;" horiz-adv-x="658" arabic-form="initial" 
d="M419 560.5c48.667 -17.667 89.833 -49.001 123.5 -94.001s50.5 -104.167 50.5 -177.5c0 -55.333 -9.83301 -104.833 -29.5 -148.5s-48.667 -78 -87 -103s-84.5 -37.5 -138.5 -37.5c-25.333 0 -53.666 2.33301 -84.999 7s-53 10.667 -65 18c-36 -16.667 -86 -25 -150 -25
h-38v79h18c1.33301 -0.666992 6.66602 -2.5 15.999 -5.5s22.333 -4.5 39 -4.5c10.667 0 22.667 1.33301 36 4c-17.333 18 -31.333 41.833 -42 71.5s-16 62.5 -16 98.5c0 52 11.333 95.167 34 129.5s56.334 51.5 101.001 51.5s78.5 -17.167 101.5 -51.5
s34.5 -77.166 34.5 -128.499c0 -38 -6 -73.167 -18 -105.5s-26.667 -55.166 -44 -68.499c12.667 -2.66699 27.667 -4 45 -4c58 0 103.833 19.167 137.5 57.5s50.5 89.833 50.5 154.5c0 55.333 -13 99.833 -39 133.5s-58 57.5 -96 71.5s-76.667 21 -116 21h-73
c-62.667 0 -92.334 36 -89.001 108c18 -20 49.333 -30 94 -30l100 3c48 1.33301 96.333 -6.83398 145 -24.501zM149.499 311.499c-8.33301 -22.333 -12.5 -47.498 -12.5 -75.498s4.5 -53.333 13.5 -76s21.167 -41.334 36.5 -56.001c14.667 14 26.5 32.667 35.5 56
s13.5 48.666 13.5 75.999c0 28 -4.33301 53.167 -13 75.5s-21 33.5 -37 33.5s-28.167 -11.167 -36.5 -33.5zM135.499 85.001c1 1.33301 1.16699 2.33301 0.5 3l-5 -6c2 0.666992 3.5 1.66699 4.5 3z" />
    <glyph glyph-name="uniFEEC" unicode="&#x647;" horiz-adv-x="506" arabic-form="medial" 
d="M506 0l-87.002 -0.00292969c-2 -27.333 -9.33301 -55.666 -22 -84.999s-31.5 -54.166 -56.5 -74.499s-55.5 -30.5 -91.5 -30.5c-43.333 0 -81.666 15.833 -114.999 47.5s-53.666 79.167 -60.999 142.5h-73v79h71v121c0 78.667 9.33301 138.834 28 180.501
s39.167 68.667 61.5 81s42.5 18.5 60.5 18.5c19.333 0 40.166 -7 62.499 -21s41.5 -38.167 57.5 -72.5s24 -79.5 24 -135.5c0 -90 -19.667 -153.333 -59 -190s-83.333 -56.667 -132 -60c4.66699 -34 14 -61.167 28 -81.5s30 -30.5 48 -30.5
c18.667 0 35.334 10.5 50.001 31.5s26 46.333 34 76s12 57.167 12 82.5h160v-79zM185.998 324.997c-10 -40.667 -15 -94.333 -15 -161v-83c36 4.66699 60.667 17.834 74 39.501s20 56.5 20 104.5c0 45.333 -4.66699 83.166 -14 113.499s-20 49.833 -32 58.5
c-12 -7.33301 -23 -31.333 -33 -72z" />
    <glyph glyph-name="uniFEEE" unicode="&#x648;" horiz-adv-x="540" arabic-form="final" 
d="M540 0h-88v-63c0 -23.333 -4.33301 -47.5 -13 -72.5s-24.667 -46.833 -48 -65.5s-55.333 -28 -96 -28c-36 0 -65 7.66699 -87 23s-35.667 32.666 -41 51.999c8.66699 -4 20 -7.66699 34 -11s27.333 -5 40 -5c32 0 58.333 8.5 79 25.5s31 39.5 31 67.5l1 77l-102 -2
c-65.333 0 -112.5 19.167 -141.5 57.5s-43.5 98.5 -43.5 180.5c0 66.667 8.5 117.834 25.5 153.501s39.833 59.667 68.5 72s64 18.5 106 18.5c61.333 0 107.833 -13 139.5 -39s47.5 -73.667 47.5 -143v-219h88v-79zM186 129.5c14 -33.667 44 -50.498 90 -50.498h75v223
c0 35.333 -7.83301 60.666 -23.5 75.999s-36.167 23 -61.5 23c-34 0 -59.333 -13.333 -76 -40s-25 -67.334 -25 -122.001c0 -39.333 7 -75.833 21 -109.5z" />
    <glyph glyph-name="uniFEF0" unicode="&#x649;" horiz-adv-x="920" arabic-form="final" 
d="M138.5 -147.5c-47 59 -70.5039 122.167 -70.5039 189.5c0 34.667 5.16699 64.667 15.5 90s23.833 44.333 40.5 57s35 19 55 19c14 0 25.833 -3.16699 35.5 -9.5s15.834 -13.5 18.501 -21.5c-17.333 -14 -32.166 -36 -44.499 -66s-18.5 -61 -18.5 -93
c0 -50.667 19.333 -92.5 58 -125.5s105 -49.5 199 -49.5c55.333 0 101.833 6.83301 139.5 20.5s65.834 32.334 84.501 56.001s28 50.5 28 80.5h-27c-33.333 0 -57.666 7.16699 -72.999 21.5s-23 31.833 -23 52.5c0 11.333 2 22 6 32c8.66699 -6.66699 21 -12.834 37 -18.501
s33.333 -8.5 52 -8.5h269v-79h-142c0 -38 -11.5 -75 -34.5 -111s-60 -65.833 -111 -89.5s-115.833 -35.5 -194.5 -35.5h-22c-138 0 -230.5 29.5 -277.5 88.5z" />
    <glyph glyph-name="uniFEF2" unicode="&#x64a;" horiz-adv-x="920" arabic-form="final" 
d="M138.5 -147.5c-47 59 -70.5039 122.167 -70.5039 189.5c0 34.667 5.16699 64.667 15.5 90s23.833 44.333 40.5 57s35 19 55 19c14 0 25.833 -3.16699 35.5 -9.5s15.834 -13.5 18.501 -21.5c-17.333 -14 -32.166 -36 -44.499 -66s-18.5 -61 -18.5 -93
c0 -50.667 19.333 -92.5 58 -125.5s105 -49.5 199 -49.5c55.333 0 101.833 6.83301 139.5 20.5s65.834 32.334 84.501 56.001s28 50.5 28 80.5h-27c-33.333 0 -57.666 7.16699 -72.999 21.5s-23 31.833 -23 52.5c0 11.333 2 22 6 32c8.66699 -6.66699 21 -12.834 37 -18.501
s33.333 -8.5 52 -8.5h269v-79h-142c0 -38 -11.5 -75 -34.5 -111s-60 -65.833 -111 -89.5s-115.833 -35.5 -194.5 -35.5h-22c-138 0 -230.5 29.5 -277.5 88.5zM307.496 -398.5c-11.667 11.667 -17.5 25.5 -17.5 41.5c0 16.667 5.83301 30.834 17.5 42.501
s25.5 17.5 41.5 17.5c16.667 0 30.667 -5.83301 42 -17.5s17 -25.834 17 -42.501c0 -16 -5.66699 -29.833 -17 -41.5s-25.333 -17.5 -42 -17.5c-16 0 -29.833 5.83301 -41.5 17.5zM457.496 -398.5c-11.667 11.667 -17.5 25.5 -17.5 41.5
c0 16.667 5.83301 30.834 17.5 42.501s25.5 17.5 41.5 17.5c16.667 0 30.667 -5.83301 42 -17.5s17 -25.834 17 -42.501c0 -16 -5.66699 -29.833 -17 -41.5s-25.333 -17.5 -42 -17.5c-16 0 -29.833 5.83301 -41.5 17.5z" />
    <glyph glyph-name="uniFEF3" unicode="&#x64a;" horiz-adv-x="338" arabic-form="initial" 
d="M0 79h73.998c38.667 0 64.834 17.333 78.501 52s20.5 72.667 20.5 114c0 42 -5.66699 80 -17 114s-32.666 64 -63.999 90c14 20.667 34.667 31 62 31c40.667 0 70.667 -19.833 90 -59.5s29 -88.5 29 -146.5c0 -74.667 -16 -139 -48 -193s-84 -81 -156 -81h-69v79z
M36.498 -182.5c-11.667 11.667 -17.5 25.5 -17.5 41.5c0 16.667 5.83301 30.834 17.5 42.501s25.5 17.5 41.5 17.5c16.667 0 30.667 -5.83301 42 -17.5s17 -25.834 17 -42.501c0 -16 -5.66699 -29.833 -17 -41.5s-25.333 -17.5 -42 -17.5c-16 0 -29.833 5.83301 -41.5 17.5z
M186.498 -182.5c-11.667 11.667 -17.5 25.5 -17.5 41.5c0 16.667 5.83301 30.834 17.5 42.501s25.5 17.5 41.5 17.5c16.667 0 30.667 -5.83301 42 -17.5s17 -25.834 17 -42.501c0 -16 -5.66699 -29.833 -17 -41.5s-25.333 -17.5 -42 -17.5c-16 0 -29.833 5.83301 -41.5 17.5
z" />
    <glyph glyph-name="uniFEF4" unicode="&#x64a;" horiz-adv-x="338" arabic-form="medial" 
d="M338 79v-79h-107c-38 -0 -69.667 9.33301 -95 28c-26 -16.667 -54.333 -26 -85 -28h-51v79h51c22.667 0.666992 44 6.33398 64 17.001v333c0 34 16.667 51 50 51c16 0 28.333 -4.33301 37 -13s13 -21.334 13 -38.001v-272c0 -52 10.333 -78 31 -78h92zM48.5 -182.5
c-11.667 11.667 -17.5 25.5 -17.5 41.5c0 16.667 5.83301 30.834 17.5 42.501s25.5 17.5 41.5 17.5c16.667 0 30.667 -5.83301 42 -17.5s17 -25.834 17 -42.501c0 -16 -5.66699 -29.833 -17 -41.5s-25.333 -17.5 -42 -17.5c-16 0 -29.833 5.83301 -41.5 17.5zM198.5 -182.5
c-11.667 11.667 -17.5 25.5 -17.5 41.5c0 16.667 5.83301 30.834 17.5 42.501s25.5 17.5 41.5 17.5c16.667 0 30.667 -5.83301 42 -17.5s17 -25.834 17 -42.501c0 -16 -5.66699 -29.833 -17 -41.5s-25.333 -17.5 -42 -17.5c-16 0 -29.833 5.83301 -41.5 17.5z" />
    <glyph glyph-name=".notdef" horiz-adv-x="255" 
 />
    <glyph glyph-name="space" unicode=" " horiz-adv-x="250" 
 />
    <glyph glyph-name="exclam" unicode="!" horiz-adv-x="237" 
d="M66 660h105l-19 -505h-67zM78.5 2.5c-11 11 -16.5 24.501 -16.5 40.501c0 15.333 5.5 28.333 16.5 39s24.167 16 39.5 16c16 0 29.333 -5.33301 40 -16s16 -23.667 16 -39c0 -16.667 -5.33301 -30.334 -16 -41.001s-24 -16 -40 -16c-15.333 0 -28.5 5.5 -39.5 16.5z" />
    <glyph glyph-name="quotedbl" unicode="&#x22;" horiz-adv-x="372" 
d="M51 660h108l-30 -270h-48zM214 660h107l-30 -270h-47z" />
    <glyph glyph-name="numbersign" unicode="#" horiz-adv-x="676" 
d="M159 174h-129v62h142l37 178h-119v62h132l42 199h74l-42 -199h140l42 199h74l-42 -199h135v-62h-148l-37 -178h125v-62h-138l-36 -174h-73l35 174h-140l-36 -174h-74zM387 236l36 178h-140l-37 -178h141z" />
    <glyph glyph-name="dollar" unicode="$" horiz-adv-x="532" 
d="M236 -15c-52 5.33301 -96.4971 18.498 -133.497 39.498s-55.5 47.5 -55.5 79.5v110h21c10 -60 28.667 -105.167 56 -135.5s64.666 -48.166 111.999 -53.499v267l-70 42c-43.333 25.333 -74 51.333 -92 78s-27 58.667 -27 96c0 49.333 17.167 89.333 51.5 120
s80.166 47.334 137.499 50.001v57h48v-59c48.667 -4 91.5 -16.833 128.5 -38.5s55.5 -48.167 55.5 -79.5v-110h-21c-10 60 -28.167 104.833 -54.5 134.5s-62.5 47.167 -108.5 52.5v-250l84 -50c45.333 -26.667 77.666 -52.167 96.999 -76.5s29 -54.5 29 -90.5
c0 -56 -18.5 -100.5 -55.5 -133.5s-88.5 -50.167 -154.5 -51.5v-63h-48v65zM236.003 634.998c-28.667 -2.66699 -52.5 -12.834 -71.5 -30.501s-28.5 -40.167 -28.5 -67.5c0 -26 7.66699 -47.667 23 -65s41 -36.666 77 -57.999v221zM365.003 54.998
c21.333 17.333 32 40.667 32 70c0 28 -8.5 51.833 -25.5 71.5s-46.167 42.167 -87.5 67.5v-239c32.667 2.66699 59.667 12.667 81 30z" />
    <glyph glyph-name="percent" unicode="%" horiz-adv-x="695" 
d="M70.5 429c-26.333 24 -39.5 57.333 -39.5 100s13.167 76 39.5 100s62.833 36 109.5 36s83.167 -12 109.5 -36s39.5 -57.333 39.5 -100s-13.167 -76 -39.5 -100s-62.833 -36 -109.5 -36s-83.167 12 -109.5 36zM537 660h83l-462 -660h-83zM264 529
c0 66.667 -28 100 -84 100c-55.333 0 -83 -33.333 -83 -100c0 -66 27.667 -99 83 -99c56 0 84 33 84 99zM406 31c-26 24 -39 57.333 -39 100s13 76 39 100s62.333 36 109 36s83.167 -12 109.5 -36s39.5 -57.333 39.5 -100s-13.167 -76 -39.5 -100s-62.833 -36 -109.5 -36
s-83 12 -109 36zM599 131c0 66 -28 99 -84 99c-55.333 0 -83 -33 -83 -99c0 -66.667 27.667 -100 83 -100c56 0 84 33.333 84 100z" />
    <glyph glyph-name="ampersand" unicode="&#x26;" horiz-adv-x="621" 
d="M94.5 24c-37 29.333 -55.501 67.668 -55.501 115.001c0 26.667 6.5 50.667 19.5 72s29.333 40.166 49 56.499s45.834 35.833 78.501 58.5c-28 25.333 -52.5 54.833 -73.5 88.5s-31.5 70.167 -31.5 109.5c0 48.667 16.5 86.834 49.5 114.501s78.167 41.5 135.5 41.5
c54 0 96 -13 126 -39s45 -59.667 45 -101c0 -40.667 -12.667 -75.834 -38 -105.501s-62.333 -61.167 -111 -94.5l197 -215c23.333 26 45 54 65 84c10 16 18 29.333 24 40l24 -17c-6 -14.667 -13.333 -29 -22 -43c-20 -34 -42 -64 -66 -90l91 -99h-117l-40 42
c-22 -16.667 -48.833 -31.167 -80.5 -43.5s-66.5 -18.5 -104.5 -18.5c-72.667 0 -127.5 14.667 -164.5 44zM320.499 448.502c15 23.667 22.499 50.832 22.499 81.499c0 38.667 -7.83301 67.334 -23.5 86.001s-33.5 28 -53.5 28c-23.333 0 -42.666 -9.5 -57.999 -28.5
s-23 -49.5 -23 -91.5c0 -32.667 8.5 -62.5 25.5 -89.5s32.167 -46.167 45.5 -57.5c28 24 49.5 47.833 64.5 71.5zM420.998 68l-202.001 220c-24 -21.333 -42.5 -43 -55.5 -65s-19.5 -46.667 -19.5 -74c0 -43.333 11 -76.333 33 -99s54.667 -34 98 -34
c54.667 0 103.334 17.333 146.001 52z" />
    <glyph glyph-name="quotesingle" unicode="'" horiz-adv-x="210" 
d="M51 660h108l-30 -270h-48z" />
    <glyph glyph-name="parenleft" unicode="(" horiz-adv-x="312" 
d="M94.5 -11c-42.333 71.333 -63.5 155 -63.5 251s21.167 179.667 63.5 251s106.5 138.666 192.5 201.999l11 -17c-110.667 -97.333 -166 -242.666 -166 -435.999s55.333 -338.666 166 -435.999l-11 -17c-86 63.333 -150.167 130.666 -192.5 201.999z" />
    <glyph glyph-name="parenright" unicode=")" horiz-adv-x="312" 
d="M14 -196c110.667 97.333 166 242.666 166 435.999s-55.333 338.666 -166 435.999l11 17c86 -63.333 150.167 -130.666 192.5 -201.999s63.5 -155 63.5 -251s-21.167 -179.667 -63.5 -251s-106.5 -138.666 -192.5 -201.999z" />
    <glyph glyph-name="asterisk" unicode="*" horiz-adv-x="427" 
d="M198 471l-111 -101l-42 74l144 50l-144 50l42 74l111 -100l-29 142h88l-28 -142l111 100l42 -74l-145 -50l145 -50l-42 -74l-111 101l28 -143h-88z" />
    <glyph glyph-name="plus" unicode="+" horiz-adv-x="534" 
d="M233 299h-199v62h199v199h68v-199h199v-62h-199v-199h-68v199z" />
    <glyph glyph-name="comma" unicode="," horiz-adv-x="235" 
d="M57 -139c25.333 17.333 45 36.667 59 58s21 46 21 74c-8.66699 -5.33301 -17.334 -8 -26.001 -8c-16 0 -29.333 5.5 -40 16.5s-16 24.5 -16 40.5c0 17.333 5.5 31.666 16.5 42.999s25.5 17 43.5 17c20.667 0 36.667 -6.5 48 -19.5s17 -30.5 17 -52.5
c0 -41.333 -9.16699 -77.166 -27.5 -107.499s-46.166 -56.5 -83.499 -78.5z" />
    <glyph glyph-name="hyphen" unicode="-" horiz-adv-x="389" 
d="M64 303h261v-76h-261v76z" />
    <glyph glyph-name="period" unicode="." horiz-adv-x="221" 
d="M71 2c-10.667 10.667 -16 24.334 -16 41.001c0 15.333 5.33301 28.333 16 39s24 16 40 16s29.167 -5.33301 39.5 -16s15.5 -23.667 15.5 -39c0 -16.667 -5.33301 -30.334 -16 -41.001s-23.667 -16 -39 -16c-16 0 -29.333 5.33301 -40 16z" />
    <glyph glyph-name="slash" unicode="/" horiz-adv-x="449" 
d="M343 660h84l-321 -660h-84z" />
    <glyph glyph-name="zero" unicode="0" horiz-adv-x="590" 
d="M50 330c0 233.333 81.667 350 245 350s245 -116.667 245 -350s-81.667 -350 -245 -350s-245 116.667 -245 350zM375.5 54c19.667 22 33.667 55.502 42 100.502s12.5 103.5 12.5 175.5s-4.16699 130.5 -12.5 175.5s-22.333 78.5 -42 100.5s-46.5 33 -80.5 33
s-60.833 -11 -80.5 -33s-33.667 -55.333 -42 -100s-12.5 -103.334 -12.5 -176.001s4.16699 -131.334 12.5 -176.001s22.333 -78 42 -100s46.5 -33 80.5 -33s60.833 11 80.5 33z" />
    <glyph glyph-name="one" unicode="1" horiz-adv-x="310" 
d="M126 555l-94 -61l-20 25l155 141h60v-660h-101v555z" />
    <glyph glyph-name="two" unicode="2" horiz-adv-x="532" 
d="M41 54l70.999 68.0029c61.333 58 108.166 104.5 140.499 139.5s58.666 71.5 78.999 109.5s30.5 77.333 30.5 118c0 48 -12 85 -36 111s-53.667 39 -89 39c-41.333 0 -76.666 -14.667 -105.999 -44s-49 -72 -59 -128h-24c0 34 1.33301 61.167 4 81.5
s9.33398 37.5 20.001 51.5c18.667 22.667 45.5 41.667 80.5 57s72.167 23 111.5 23c55.333 0 103.833 -13.833 145.5 -41.5s62.5 -77.5 62.5 -149.5c0 -42.667 -11.167 -83.334 -33.5 -122.001s-49.666 -74.334 -81.999 -107.001s-76.833 -73.334 -133.5 -122.001l-108 -97
h221c40.667 0 71.667 9 93 27s32 44.667 32 80h22v-68c0 -53.333 -28.333 -80 -85 -80h-357v54z" />
    <glyph glyph-name="three" unicode="3" horiz-adv-x="533" 
d="M137 7.5c-36.667 18.333 -70.0029 44.835 -100.003 79.502l19 21c52 -58 113 -87 183 -87c42.667 0 77.834 13.833 105.501 41.5s41.5 68.5 41.5 122.5c0 33.333 -6.16699 61.666 -18.5 84.999s-28.333 40.833 -48 52.5s-40.5 17.5 -62.5 17.5
c-25.333 0 -44.666 -1 -57.999 -3s-33 -6.33301 -59 -13l-25 41l272 254h-184c-40.667 0 -71.667 -9 -93 -27s-32 -44.667 -32 -80h-23v68c0 53.333 28.333 80 85 80h324v-41l-263 -246c20 5.33301 47.667 8 83 8c28 0 58.333 -5.83301 91 -17.5s61 -32.167 85 -61.5
s36 -68.333 36 -117c0 -52.667 -12.667 -94.334 -38 -125.001s-55.166 -51.667 -89.499 -63s-67.5 -17 -99.5 -17c-51.333 0 -95.333 9.16699 -132 27.5z" />
    <glyph glyph-name="four" unicode="4" horiz-adv-x="553" 
d="M336 170h-320v40l334 450h86v-449h90v-41h-90v-170h-100v170zM336 211v348l-258 -348h258z" />
    <glyph glyph-name="five" unicode="5" horiz-adv-x="534" 
d="M135.5 6.5c-33.667 17.667 -65.168 44.166 -94.501 79.499l21 19c49.333 -56 109.333 -84 180 -84c42.667 0 77.834 13.833 105.501 41.5s41.5 68.834 41.5 123.501c0 51.333 -13.833 90 -41.5 116s-67.167 39 -118.5 39c-26 0 -67.667 -4.33301 -125 -13l-40 39l11 293
h378v-41h-287l-9 -241l31 2c36 2 58.333 3 67 3c64 0 120.667 -14.833 170 -44.5s74 -80.5 74 -152.5c0 -52 -13 -93.333 -39 -124s-57.167 -52 -93.5 -64s-72.166 -18 -107.499 -18c-48.667 0 -89.834 8.83301 -123.501 26.5z" />
    <glyph glyph-name="six" unicode="6" horiz-adv-x="543" 
d="M107.5 67.5c-38.333 58.333 -57.498 145.833 -57.498 262.5c0 117.333 21.167 205 63.5 263s107.166 87 194.499 87c51.333 0 103.333 -10.333 156 -31l-5 -22c-49.333 8 -93 12 -131 12c-56.667 0 -99.667 -22.167 -129 -66.5s-44 -106.833 -44 -187.5
c43.333 30.667 92.666 46 147.999 46c69.333 0 120.333 -19.833 153 -59.5s49 -95.167 49 -166.5c0 -40 -8.33301 -77.167 -25 -111.5s-41.5 -61.833 -74.5 -82.5s-73.167 -31 -120.5 -31c-80 0 -139.167 29.167 -177.5 87.5zM369.002 75c20.667 36 31 79.332 31 129.999
c0 122.667 -42.333 184 -127 184c-42.667 0 -82 -16.667 -118 -50c0 -109.333 11.5 -189.666 34.5 -240.999s54.833 -77 95.5 -77c35.333 0 63.333 18 84 54z" />
    <glyph glyph-name="seven" unicode="7" horiz-adv-x="474" 
d="M365 619h-193c-40.667 0 -71.667 -9 -93 -27s-32 -44.667 -32 -80h-22v68c0 53.333 28.333 80 85 80h353v-41l-250 -619h-98z" />
    <glyph glyph-name="eight" unicode="8" horiz-adv-x="560" 
d="M111 22.5c-44 28.333 -66.002 71.1699 -66.002 128.503c0 44.667 14.5 81.167 43.5 109.5s68.5 53.166 118.5 74.499c-44.667 26 -78.667 51.667 -102 77s-35 57.666 -35 96.999c0 61.333 19.333 105.166 58 131.499s89.334 39.5 152.001 39.5
s113.334 -12.667 152.001 -38s58 -66.333 58 -123c0 -36.667 -11.667 -68.5 -35 -95.5s-54 -49.5 -92 -67.5c32 -18.667 58.5 -36.167 79.5 -52.5s38.333 -36.333 52 -60s20.5 -51.167 20.5 -82.5c0 -62 -21.833 -107.667 -65.5 -137s-100.167 -44 -169.5 -44
c-68.667 0 -125 14.167 -169 42.5zM367.498 437.004c11.667 20.667 17.501 48 17.501 82c0 43.333 -10.333 74.166 -31 92.499s-45.334 27.5 -74.001 27.5c-28 0 -52.5 -8.66699 -73.5 -26s-31.5 -45.333 -31.5 -84c0 -30 13.167 -57.333 39.5 -82
s60.166 -46.667 101.499 -66c22.667 16.667 39.834 35.334 51.501 56.001zM372.499 52.5039c25 21 37.499 50.499 37.499 88.499s-13.167 69.5 -39.5 94.5s-65.166 51.167 -116.499 78.5c-33.333 -16.667 -59 -37.167 -77 -61.5s-27 -58.166 -27 -101.499
s12.333 -75.833 37 -97.5s55.667 -32.5 93 -32.5c36.667 0 67.5 10.5 92.5 31.5z" />
    <glyph glyph-name="nine" unicode="9" horiz-adv-x="542" 
d="M78 11l5 22c50 -8 94 -12 132 -12c56 0 98.667 22.167 128 66.5s44 106.833 44 187.5c-42 -30.667 -91 -46 -147 -46c-70 0 -121.333 19.833 -154 59.5s-49 95.167 -49 166.5c0 40 8.33301 77.167 25 111.5s41.667 61.833 75 82.5s73.333 31 120 31
c80 0 139.167 -29.167 177.5 -87.5s57.5 -145.833 57.5 -262.5c0 -118 -21.167 -205.833 -63.5 -263.5s-106.833 -86.5 -193.5 -86.5c-54 0 -106.333 10.333 -157 31zM387 321c0 109.333 -11.5 189.667 -34.5 241s-54.833 77 -95.5 77c-35.333 0 -63.333 -18 -84 -54
s-31 -79.333 -31 -130c0 -122.667 42.667 -184 128 -184c42 0 81 16.667 117 50z" />
    <glyph glyph-name="colon" unicode=":" horiz-adv-x="240" 
d="M81 365c-10.667 10.667 -16 24 -16 40c0 15.333 5.33301 28.5 16 39.5s23.667 16.5 39 16.5c16.667 0 30.167 -5.33301 40.5 -16s15.5 -24 15.5 -40s-5.16699 -29.333 -15.5 -40s-23.833 -16 -40.5 -16c-15.333 0 -28.333 5.33301 -39 16zM80 2
c-10.667 10.667 -16 24.334 -16 41.001c0 15.333 5.33301 28.333 16 39s24 16 40 16s29.333 -5.33301 40 -16s16 -23.667 16 -39c0 -16.667 -5.16699 -30.334 -15.5 -41.001s-23.833 -16 -40.5 -16c-16 0 -29.333 5.33301 -40 16z" />
    <glyph glyph-name="semicolon" unicode=";" horiz-adv-x="256" 
d="M90 366c-10.667 10.667 -16 24.334 -16 41.001c0 15.333 5.33301 28.333 16 39s24 16 40 16s29.167 -5.33301 39.5 -16s15.5 -23.667 15.5 -39c0 -16.667 -5.33301 -30.334 -16 -41.001s-23.667 -16 -39 -16c-16 0 -29.333 5.33301 -40 16zM67 -139
c25.333 17.333 45 36.667 59 58s21 46 21 74c-8.66699 -5.33301 -17.334 -8 -26.001 -8c-16 0 -29.333 5.5 -40 16.5s-16 24.5 -16 40.5c0 17.333 5.5 31.666 16.5 42.999s25.5 17 43.5 17c20.667 0 36.667 -6.5 48 -19.5s17 -30.5 17 -52.5
c0 -41.333 -9.16699 -77.166 -27.5 -107.499s-46.166 -56.5 -83.499 -78.5z" />
    <glyph glyph-name="less" unicode="&#x3c;" horiz-adv-x="616" 
d="M30 315v40l520 225v-68l-411 -177l411 -177v-68z" />
    <glyph glyph-name="equal" unicode="=" horiz-adv-x="659" 
d="M64 451h531v-62h-531v62zM64 271h531v-62h-531v62z" />
    <glyph glyph-name="greater" unicode="&#x3e;" horiz-adv-x="616" 
d="M66 158l411 177l-411 177v68l520 -225v-40l-520 -225v68z" />
    <glyph glyph-name="question" unicode="?" horiz-adv-x="483" 
d="M224.5 246.5c11.667 24.333 28.834 51.499 51.501 81.499c22 29.333 38.5 55.333 49.5 78s16.5 50.334 16.5 83.001c0 49.333 -11.667 86.666 -35 111.999s-53 38 -89 38c-40.667 0 -75.834 -15 -105.501 -45s-49.834 -73.333 -60.501 -130h-22
c0 36 1.33301 64.167 4 84.5s9.66699 37.5 21 51.5c18.667 22.667 45.834 41.667 81.501 57s72.834 23 111.501 23c55.333 0 103.166 -14.667 143.499 -44s60.5 -78.333 60.5 -147c0 -27.333 -5 -52.166 -15 -74.499s-22 -41.5 -36 -57.5s-32.667 -34.667 -56 -56
c-30.667 -28 -53.5 -52.167 -68.5 -72.5s-23.167 -44.5 -24.5 -72.5h-47c1.33301 36 7.83301 66.167 19.5 90.5zM189 2.99902c-10.667 10.667 -16 24 -16 40s5.16699 29.333 15.5 40s23.833 16 40.5 16s30.167 -5.33301 40.5 -16s15.5 -24 15.5 -40
c0 -15.333 -5.5 -28.5 -16.5 -39.5s-24.167 -16.5 -39.5 -16.5c-16 0 -29.333 5.33301 -40 16z" />
    <glyph glyph-name="at" unicode="@" horiz-adv-x="861" 
d="M226 -130.5c-59.333 33 -105.501 81.667 -138.501 146s-49.5 142.5 -49.5 234.5s16.5 170.167 49.5 234.5s79.167 113 138.5 146s128.333 49.5 207 49.5c77.333 0 145.833 -16.167 205.5 -48.5s106 -79.333 139 -141s49.5 -135.167 49.5 -220.5
c0 -84.667 -16.5 -150 -49.5 -196s-82.833 -69 -149.5 -69c-57.333 0 -94.333 18.333 -111 55h-5c-11.333 -15.333 -28.166 -28.333 -50.499 -39s-49.833 -16 -82.5 -16c-40.667 0 -76.167 11.5 -106.5 34.5s-45.5 57.833 -45.5 104.5c0 94.667 86.333 142 259 142h26
c0 64 -8.66699 108 -26 132s-42.333 36 -75 36c-28 0 -51 -6.66699 -69 -20s-30.667 -35.666 -38 -66.999h-48c0 22 1.83301 40.5 5.5 55.5s11.167 27.833 22.5 38.5c11.333 11.333 30.5 19.833 57.5 25.5s56.833 8.5 89.5 8.5c56.667 0 101.167 -15.333 133.5 -46
s48.5 -85.334 48.5 -164.001v-181c0 -16 4 -29.5 12 -40.5s19.667 -16.5 35 -16.5c22 0 42 8.5 60 25.5s32.333 42.333 43 76s16 74.167 16 121.5c0 78 -14.167 144.667 -42.5 200s-68.5 97.333 -120.5 126s-113 43 -183 43c-70.667 0 -132 -14.667 -184 -44
s-92.167 -73 -120.5 -131s-42.5 -129.333 -42.5 -214s14.167 -156 42.5 -214s68.5 -101.667 120.5 -131s113.333 -44 184 -44c64 0 121.333 7.33301 172 22s97 36.667 139 66l22 -33c-92.667 -64 -203.667 -96 -333 -96c-78.667 0 -147.667 16.5 -207 49.5zM511.999 113
l-0.000976562 131h-26c-50 0 -88.167 -8.83301 -114.5 -26.5s-39.5 -42.167 -39.5 -73.5c0 -30 8.16699 -53 24.5 -69s37.5 -24 63.5 -24c38.667 0 69.334 20.667 92.001 62z" />
    <glyph glyph-name="A" unicode="A" horiz-adv-x="638" 
d="M447 125l-25 63h-276l-81 -188h-47l284 660h34l221 -535c15.333 -36 30.833 -61.5 46.5 -76.5s36.5 -23.833 62.5 -26.5v-22c-12 -3.33301 -26 -5 -42 -5c-84.667 0 -143.667 43.333 -177 130zM402 229l-117 283l-123 -283h240z" />
    <glyph glyph-name="B" unicode="B" horiz-adv-x="628" 
d="M103 537c0 34 -4.66699 59.167 -14 75.5s-28 24.5 -56 24.5h-17v23h262c184.667 0 277 -58.333 277 -175c0 -31.333 -11 -59.833 -33 -85.5s-55 -45.5 -99 -59.5c61.333 -8.66699 104.333 -26.5 129 -53.5s37 -62.167 37 -105.5c0 -68 -26.833 -115.167 -80.5 -141.5
s-120.5 -39.5 -200.5 -39.5h-205v537zM293 357c43.333 0 80.001 11.5 110.001 34.5s45 55.833 45 98.5c0 44.667 -17.5 78.167 -52.5 100.5s-75.167 33.5 -120.5 33.5c-22.667 0 -46.334 -3.33301 -71.001 -10v-257h89zM430.001 72c32 24 48 58.667 48 104
s-15.667 79.833 -47 103.5s-77.333 35.5 -138 35.5h-89v-266c32 -8.66699 61.667 -13 89 -13c59.333 0 105 12 137 36z" />
    <glyph glyph-name="C" unicode="C" horiz-adv-x="669" 
d="M190.5 25c-47.667 30 -84.3291 70.833 -109.996 122.5s-38.5 109.167 -38.5 172.5c0 66 14 126.5 42 181.5s66.167 98.5 114.5 130.5s101.166 48 158.499 48c54.667 0 102.167 -7.5 142.5 -22.5s70.166 -34.167 89.499 -57.5c11.333 -14 18.333 -32.333 21 -55
s4 -54.667 4 -96h-22c-24.667 126.667 -93 190 -205 190c-70.667 0 -127.334 -25 -170.001 -75s-64 -131.333 -64 -244c0 -52.667 8.16699 -101.667 24.5 -147s42.166 -82 77.499 -110s79.333 -42 132 -42c94 0 169 47 225 141l24 -18
c-31.333 -58.667 -69.5 -100.667 -114.5 -126s-99.833 -38 -164.5 -38c-63.333 0 -118.833 15 -166.5 45z" />
    <glyph glyph-name="D" unicode="D" horiz-adv-x="720" 
d="M103 537c0 34 -4.66797 59.167 -14.001 75.5s-28 24.5 -56 24.5h-17v23h264c130.667 0 229.834 -28.667 297.501 -86s101.5 -137.333 101.5 -240c0 -66 -14.167 -124.167 -42.5 -174.5s-70.5 -89.5 -126.5 -117.5s-124 -42 -204 -42h-203v537zM434.499 72
c39 24 69.502 58.168 91.502 102.501s33 96.166 33 155.499c0 58 -11 109.333 -33 154s-52.5 79.167 -91.5 103.5s-83.5 36.5 -133.5 36.5c-28.667 0 -60.334 -4.66699 -95.001 -14v-562c35.333 -8 67.666 -12 96.999 -12c48.667 0 92.5 12 131.5 36z" />
    <glyph glyph-name="E" unicode="E" horiz-adv-x="593" 
d="M103 537c0 34 -4.66699 59.167 -14 75.5s-28 24.5 -56 24.5h-17v23h430c56.667 0 85 -26.667 85 -80v-78h-23c0 78 -41.667 117 -125 117h-179v-258h267v-41h-267v-279h174c43.333 0 77.833 8.5 103.5 25.5s46.5 45.5 62.5 85.5l22 -6l-33 -91
c-6.66699 -18 -16 -31.667 -28 -41s-28.667 -14 -50 -14h-352v537z" />
    <glyph glyph-name="F" unicode="F" horiz-adv-x="530" 
d="M103 537c0 34 -4.66699 59.167 -14 75.5s-28 24.5 -56 24.5h-17v23h404c56.667 0 85 -26.667 85 -80v-78h-23c0 78 -41.667 117 -125 117h-153v-263h224v-41h-224v-315h-101v537z" />
    <glyph glyph-name="G" unicode="G" horiz-adv-x="724" 
d="M209.5 28c-52.333 32 -93.334 75.3311 -123.001 129.998s-44.5 115.334 -44.5 182.001c0 63.333 13 120.833 39 172.5s62.833 92.5 110.5 122.5s102.834 45 165.501 45c58 0 107.667 -7.5 149 -22.5s71.666 -34.167 90.999 -57.5c11.333 -14 18.5 -32 21.5 -54
s4.5 -49.333 4.5 -82h-23c-12.667 59.333 -36.334 103.333 -71.001 132s-82 43 -142 43c-53.333 0 -97.666 -14 -132.999 -42s-61.166 -64.667 -77.499 -110s-24.5 -94.333 -24.5 -147c0 -113.333 21.333 -195 64 -245s99.667 -75 171 -75c32.667 0 60.667 2.83301 84 8.5
s45.333 13.834 66 24.501v175c0 35.333 11.333 63.833 34 85.5s68.667 32.5 138 32.5v-21c-28 0 -47 -7.66699 -57 -23s-15 -39.333 -15 -72v-186c-36 -22 -74.333 -38.167 -115 -48.5s-85.667 -15.5 -135 -15.5c-66 0 -125.167 16 -177.5 48z" />
    <glyph glyph-name="H" unicode="H" horiz-adv-x="700" 
d="M103 537c0 34 -4.66699 59.167 -14 75.5s-28 24.5 -56 24.5h-17v23h98c24 0 42.333 -3.33301 55 -10s21.667 -18.667 27 -36s8 -43 8 -77v-176h292v299h100v-537c0 -34 4.66699 -59.167 14 -75.5s28 -24.5 56 -24.5h18v-23h-98c-24 -0 -42.333 3.33301 -55 10
s-21.667 18.667 -27 36s-8 43 -8 77v197h-292v-320h-101v537z" />
    <glyph glyph-name="I" unicode="I" horiz-adv-x="290" 
d="M121 10c-12.667 6.66699 -21.667 18.667 -27 36s-8 43 -8 77v537h101v-537c0 -34 4.66699 -59.167 14 -75.5s28 -24.5 56 -24.5h17v-23h-98c-24 -0 -42.333 3.33301 -55 10z" />
    <glyph glyph-name="J" unicode="J" horiz-adv-x="265" 
d="M-12 -114c63.333 2 95 66.333 95 193v581h100v-581c0 -54 -5.66699 -96.333 -17 -127s-31 -53.167 -59 -67.5s-67.667 -21.5 -119 -21.5v23z" />
    <glyph glyph-name="K" unicode="K" horiz-adv-x="681" 
d="M519.5 15.5c-35 17 -74.501 48.498 -118.501 94.498l-197 206v-316h-101v537c0 34 -4.66699 59.167 -14 75.5s-28 24.5 -56 24.5h-17v23h98c24 0 42.333 -3.33301 55 -10s21.667 -18.667 27 -36s8 -43 8 -77v-193l200 211c24 26 42.667 45.167 56 57.5
s29.833 23.333 49.5 33s41.834 14.5 66.501 14.5h55v-28c-31.333 0 -58.666 -5 -81.999 -15s-47.666 -28.333 -72.999 -55l-183 -192l231 -240c27.333 -29.333 56.166 -54.166 86.499 -74.499s57.166 -32.166 80.499 -35.499v-20c-20 -6.66699 -42.333 -10 -67 -10
c-34.667 0 -69.5 8.5 -104.5 25.5z" />
    <glyph glyph-name="L" unicode="L" horiz-adv-x="561" 
d="M103 537c0 34 -4.66699 59.167 -14 75.5s-28 24.5 -56 24.5h-17v23h98c24 0 42.333 -3.33301 55 -10s21.667 -18.667 27 -36s8 -43 8 -77v-496h352v-41h-453v537z" />
    <glyph glyph-name="M" unicode="M" horiz-adv-x="858" 
d="M729.5 -22.5c-27.667 15 -47.333 38.001 -59 69.001s-17.5 72.167 -17.5 123.5v377l-242 -547h-23l-263 560v-560h-42v660h102l240 -512l228 512h100v-490c0 -126.667 30 -191.334 90 -194.001v-21c-48 0 -85.833 7.5 -113.5 22.5z" />
    <glyph glyph-name="N" unicode="N" horiz-adv-x="687" 
d="M149 517l0.000976562 -517h-42v540c0 31.333 -6.83301 55.333 -20.5 72s-36.834 25 -69.501 25h-9v23h66c32.667 0 60.167 -5 82.5 -15s41.5 -25 57.5 -45l348 -426v486h43v-668h-27z" />
    <glyph glyph-name="O" unicode="O" horiz-adv-x="717" 
d="M193.5 26c-47.667 30.667 -84.5 72.667 -110.5 126s-39 112.666 -39 177.999s13 124.666 39 177.999s62.833 95.333 110.5 126s102.834 46 165.501 46s117.834 -15.333 165.501 -46s84.5 -72.667 110.5 -126s39 -112.666 39 -177.999s-13 -124.666 -39 -177.999
s-62.833 -95.333 -110.5 -126s-102.834 -46 -165.501 -46s-117.834 15.333 -165.501 46zM509.5 103.5c36.333 55 54.5 130.5 54.5 226.5s-18.167 171.5 -54.5 226.5s-86.5 82.5 -150.5 82.5s-114.167 -27.5 -150.5 -82.5s-54.5 -130.5 -54.5 -226.5
s18.167 -171.5 54.5 -226.5s86.5 -82.5 150.5 -82.5s114.167 27.5 150.5 82.5z" />
    <glyph glyph-name="P" unicode="P" horiz-adv-x="559" 
d="M103 537c0 34 -4.66602 59.166 -13.999 75.499s-28 24.5 -56 24.5h-17v23h264c65.333 0 124.166 -13.5 176.499 -40.5s78.5 -80.167 78.5 -159.5c0 -52 -13.5 -92.167 -40.5 -120.5s-57.5 -47.166 -91.5 -56.499s-65 -14 -93 -14h-106v-269h-101v537zM275.001 305.999
c22 0 44.501 5.16699 67.501 15.5s42.333 27.5 58 51.5s23.5 54.667 23.5 92s-7.83301 68 -23.5 92s-34.834 41.167 -57.501 51.5s-45 15.5 -67 15.5c-23.333 0 -47.333 -3.33301 -72 -10v-308h71z" />
    <glyph glyph-name="Q" unicode="Q" horiz-adv-x="719" 
d="M457 -159.5c-69.333 30.333 -133.003 81.5 -191.003 153.5c-68 20.667 -121.833 61.5 -161.5 122.5s-59.5 132.167 -59.5 213.5c0 65.333 13 124.666 39 177.999s62.833 95.333 110.5 126s102.834 46 165.501 46s117.834 -15.333 165.501 -46s84.5 -72.667 110.5 -126
s39 -112.666 39 -177.999c0 -84 -20.667 -156.667 -62 -218s-97.333 -101.333 -168 -120c10.667 -32 29.167 -61.5 55.5 -88.5s55.833 -48.167 88.5 -63.5s63.334 -23 92.001 -23v-22c-80 0 -154.667 15.167 -224 45.5zM510.497 103.5c36.333 55 54.5 130.5 54.5 226.5
s-18.167 171.5 -54.5 226.5s-86.5 82.5 -150.5 82.5s-114.167 -27.5 -150.5 -82.5s-54.5 -130.5 -54.5 -226.5s18.167 -171.5 54.5 -226.5s86.5 -82.5 150.5 -82.5s114.167 27.5 150.5 82.5z" />
    <glyph glyph-name="R" unicode="R" horiz-adv-x="600" 
d="M455 22c-27.333 21.333 -57.001 59.001 -89.001 113.001l-100 169h-62v-304h-101v537c0 34 -4.66699 59.167 -14 75.5s-28 24.5 -56 24.5h-17v23h264c64 0 122.5 -12.5 175.5 -37.5s79.5 -72.5 79.5 -142.5c0 -50.667 -15 -88.834 -45 -114.501
s-68.333 -44.167 -115 -55.5l105 -175c24.667 -40.667 46.834 -69.167 66.501 -85.5s41.5 -25.833 65.5 -28.5v-21c-6 -2.66699 -14.833 -5 -26.5 -7s-23.834 -3 -36.501 -3c-35.333 0 -66.666 10.667 -93.999 32zM272.999 341.001c22.667 0 45.667 4.83301 69 14.5
s43 25.167 59 46.5s24 48 24 80s-8 58.667 -24 80s-35.833 37 -59.5 47s-46.5 15 -68.5 15c-20.667 0 -43.667 -3.33301 -69 -10v-273h69z" />
    <glyph glyph-name="S" unicode="S" horiz-adv-x="540" 
d="M171.5 -2c-35 10 -63.6699 24.167 -86.0029 42.5s-33.5 39.5 -33.5 63.5v110h21c10.667 -66.667 32.334 -115 65.001 -145s77.667 -45 135 -45c36.667 0 67.334 8.83301 92.001 26.5s37 42.5 37 74.5c0 28 -8.5 52.167 -25.5 72.5s-44.5 41.5 -82.5 63.5l-123 73
c-43.333 25.333 -74 51.333 -92 78s-27 58.667 -27 96c0 51.333 18.5 92.5 55.5 123.5s85.833 46.5 146.5 46.5c35.333 0 69.833 -4.83301 103.5 -14.5s61.334 -23.667 83.001 -42s32.5 -39.5 32.5 -63.5v-110h-21c-11.333 66.667 -32.666 114.834 -63.999 144.501
s-75 44.5 -131 44.5c-32 0 -59.333 -9.33301 -82 -28s-34 -42.667 -34 -72c0 -26.667 8.33301 -48.834 25 -66.501s44.667 -38.5 84 -62.5l123 -73c45.333 -26.667 77.666 -52.167 96.999 -76.5s29 -54.5 29 -90.5c0 -56.667 -19.5 -101.667 -58.5 -135
s-92.5 -50 -160.5 -50c-37.333 0 -73.5 5 -108.5 15z" />
    <glyph glyph-name="T" unicode="T" horiz-adv-x="581" 
d="M250 619h-85c-82 0 -123 -39 -123 -117h-22v78c0 53.333 28.333 80 85 80h466v-41h-221v-619h-100v619z" />
    <glyph glyph-name="U" unicode="U" horiz-adv-x="689" 
d="M156.5 62c-39.667 48 -59.499 122.667 -59.499 224v251c0 33.333 -4.5 58.166 -13.5 74.499s-26.833 24.833 -53.5 25.5h-18v23h96c24 0 42.333 -3.33301 55 -10s21.667 -18.667 27 -36s8 -43 8 -77v-281c0 -73.333 13.667 -129.166 41 -167.499s71 -57.5 131 -57.5
c73.333 0 125.166 20 155.499 60s45.5 105 45.5 195v374h43v-374c0 -68 -7.66699 -123.333 -23 -166s-41.833 -75 -79.5 -97s-89.5 -33 -155.5 -33c-93.333 0 -159.833 24 -199.5 72z" />
    <glyph glyph-name="V" unicode="V" horiz-adv-x="639" 
d="M77 543c-16 38 -31.499 64.332 -46.499 78.999s-35.167 23.334 -60.5 26.001v20l36 2c36 0 69.667 -8.5 101 -25.5s57.666 -50.833 78.999 -101.5l168 -395l218 512h48l-287 -670h-24z" />
    <glyph glyph-name="W" unicode="W" horiz-adv-x="876" 
d="M74 543c-14 38 -28.6738 64.3311 -44.0068 78.998s-36.666 23.334 -63.999 26.001v20l37 2c38.667 0 73.334 -8.33301 104.001 -25s55.334 -50.667 74.001 -102l134 -375l102 301l-26 74c-14.667 38 -29.667 64.333 -45 79s-36.666 23.334 -63.999 26.001v20
c3.33301 0 8.33301 0.333008 15 1s13.334 1 20.001 1c38.667 0 73.334 -8.33301 104.001 -25s55.334 -50.667 74.001 -102l136 -380l171 497h45l-232 -670h-25l-149 414l-142 -414h-26z" />
    <glyph glyph-name="X" unicode="X" horiz-adv-x="662" 
d="M284 321l-140.999 209c-22 32.667 -44.333 58.667 -67 78s-51.334 30 -86.001 32v20h117c30.667 0 57.167 -10 79.5 -30s44.5 -46.667 66.5 -80l97 -146l198 256h54l-226 -293l159 -237c46 -69.333 93.333 -106 142 -110v-20h-106c-30 -0 -56.833 10.333 -80.5 31
s-45.5 47 -65.5 79l-115 174l-221 -284h-54z" />
    <glyph glyph-name="Y" unicode="Y" horiz-adv-x="631" 
d="M287 271l-172 259c-24 34.667 -46.333 61.167 -67 79.5s-45.667 28.5 -75 30.5v20h95c34 0 62.833 -10 86.5 -30s46.167 -46.667 67.5 -80l142 -220l206 330h50l-232 -377v-283h-101v271z" />
    <glyph glyph-name="Z" unicode="Z" horiz-adv-x="593" 
d="M26 23l404 596h-234c-82 0 -123 -39 -123 -117h-22v78c0 53.333 28.333 80 85 80h440l-417 -619h404v-41h-537v23z" />
    <glyph glyph-name="bracketleft" unicode="[" horiz-adv-x="320" 
d="M73 680h222v-41h-132v-798h132v-41h-222v880z" />
    <glyph glyph-name="backslash" unicode="\" horiz-adv-x="449" 
d="M22 660h84l321 -660h-84z" />
    <glyph glyph-name="bracketright" unicode="]" horiz-adv-x="320" 
d="M24 -159h133v798h-133v41h223v-880h-223v41z" />
    <glyph glyph-name="asciicircum" unicode="^" horiz-adv-x="496" 
d="M235 680h26l215 -350h-75l-153 249l-153 -249h-75z" />
    <glyph glyph-name="underscore" unicode="_" horiz-adv-x="433" 
d="M14 0h405v-63h-405v63z" />
    <glyph glyph-name="grave" unicode="`" horiz-adv-x="207" 
d="M20 680h107l60 -201h-56z" />
    <glyph glyph-name="a" unicode="a" horiz-adv-x="485" 
d="M81.5 24.5c-30.333 23 -45.498 57.835 -45.498 104.502c0 50 22.667 86.167 68 108.5s109 33.5 191 33.5h26c0 63.333 -8.66699 107.166 -26 131.499s-42.666 36.5 -75.999 36.5c-28.667 0 -51.834 -6.5 -69.501 -19.5s-30.167 -35.5 -37.5 -67.5h-48
c0 22.667 1.33301 41 4 55s9.66699 26.667 21 38c12 12 31.5 20.833 58.5 26.5s57.5 8.5 91.5 8.5c57.333 0 102.166 -15.333 134.499 -46s48.5 -85.334 48.5 -164.001v-270h-59l-35 45h-5c-12 -15.333 -29.333 -28.333 -52 -39s-50.334 -16 -83.001 -16
c-40.667 0 -76.167 11.5 -106.5 34.5zM321.002 98.002l-0.000976562 132h-26c-49.333 0 -87.166 -8.83301 -113.499 -26.5s-39.5 -42.5 -39.5 -74.5c0 -30 8.16699 -53 24.5 -69s37.166 -24 62.499 -24c38.667 0 69.334 20.667 92.001 62z" />
    <glyph glyph-name="b" unicode="b" horiz-adv-x="529" 
d="M217 6c-21.333 10.667 -37.667 23.667 -49 39h-5l-35 -45h-59v537c0 34 -4.66699 59.167 -14 75.5s-28 24.5 -56 24.5h-18v23h98c24 0 42.333 -3.33301 55 -10s21.667 -18.667 27 -36s8 -43 8 -77v-87c38.667 20 78.667 30 120 30c64 0 112.833 -22.833 146.5 -68.5
s50.5 -104.5 50.5 -176.5c0 -71.333 -16.333 -130 -49 -176s-79 -69 -139 -69c-32.667 0 -59.667 5.33301 -81 16zM352.999 87c18 37.333 26.999 86.666 26.999 147.999c0 62 -9.5 111.5 -28.5 148.5s-48.833 55.5 -89.5 55.5c-14.667 0 -29 -2.66699 -43 -8
s-30.667 -12.666 -50 -21.999v-316c24.667 -41.333 58.334 -62 101.001 -62c37.333 0 65 18.667 83 56z" />
    <glyph glyph-name="c" unicode="c" horiz-adv-x="486" 
d="M144 22.5c-34 21.667 -59.333 51.0029 -76 88.0029s-25 78.5 -25 124.5s8.33301 87.5 25 124.5s42 66.333 76 88s75.333 32.5 124 32.5c74.667 0 123.667 -11.667 147 -35c11.333 -11.333 18.333 -25.5 21 -42.5s4 -47.167 4 -90.5h-22
c-2.66699 41.333 -15.667 72.833 -39 94.5s-54 32.5 -92 32.5c-45.333 0 -79.833 -18.5 -103.5 -55.5s-35.5 -86.5 -35.5 -148.5c0 -62.667 11.667 -112.334 35 -149.001s58.333 -55 105 -55c33.333 0 61 6.66699 83 20s42.333 33.666 61 60.999l23 -17
c-21.333 -34.667 -47 -60.834 -77 -78.501s-66.667 -26.5 -110 -26.5c-48.667 0 -90 10.833 -124 32.5z" />
    <glyph glyph-name="d" unicode="d" horiz-adv-x="530" 
d="M92.5 59c-32.333 46 -48.5 104.667 -48.5 176c0 72 16.833 130.833 50.5 176.5s82.5 68.5 146.5 68.5c41.333 0 81.333 -10 120 -30v87c0 34 -4.66699 59.167 -14 75.5s-28 24.5 -56 24.5h-18v23h98c24 0 42.333 -3.33301 55 -10s21.667 -18.667 27 -36s8 -43 8 -77v-537
h-59l-35 45h-5c-13.333 -16 -29.833 -29.167 -49.5 -39.5s-46.5 -15.5 -80.5 -15.5c-60.667 0 -107.167 23 -139.5 69zM319.5 47c14.333 10.667 28.168 25.999 41.501 45.999v316c-19.333 10 -36 17.5 -50 22.5s-28.333 7.5 -43 7.5c-40.667 0 -70.5 -18.5 -89.5 -55.5
s-28.5 -86.5 -28.5 -148.5c0 -61.333 9 -110.666 27 -147.999s45.667 -56 83 -56c25.333 0 45.166 5.33301 59.499 16z" />
    <glyph glyph-name="e" unicode="e" horiz-adv-x="493" 
d="M141.5 22.5c-32.333 21.667 -56.833 51 -73.5 88s-25 78.5 -25 124.5c0 47.333 8.5 89.5 25.5 126.5s41 66 72 87s66.833 31.5 107.5 31.5c66 0 116.667 -18.667 152 -56s53 -90.333 53 -159l-2 -46h-303c0 -58 11.5 -103.833 34.5 -137.5s54.5 -50.5 94.5 -50.5
c31.333 0 58 6.83301 80 20.5s42.333 33.834 61 60.501l22 -17c-20.667 -34.667 -45.834 -60.834 -75.501 -78.501s-65.167 -26.5 -106.5 -26.5c-45.333 0 -84.166 10.833 -116.499 32.5zM348 261c0 118.667 -33.333 178 -100 178c-28.667 0 -52.5 -16.167 -71.5 -48.5
s-28.5 -75.5 -28.5 -129.5h200z" />
    <glyph glyph-name="f" unicode="f" horiz-adv-x="338" 
d="M86 429h-67v41h67v29c0 114 60 171 180 171c42.667 0 71.667 -5.33301 87 -16c12.667 -8 24.667 -22.667 36 -44l-33 -28c-20 31.333 -50.667 47 -92 47c-52 0 -78 -43.333 -78 -130v-29h138v-41h-138v-429h-100v429z" />
    <glyph glyph-name="g" unicode="g" horiz-adv-x="500" 
d="M84 -163.5c-40.667 24.333 -61 63.833 -61 118.5c0 31.333 11 58.166 33 80.499s49.667 38.833 83 49.5c-27.333 13.333 -41 33 -41 59c0 13.333 3.16699 23.833 9.5 31.5s15.166 14.834 26.499 21.501c-23.333 10.667 -42.666 27.5 -57.999 50.5s-23 49.833 -23 80.5
c0 101.333 65.333 152 196 152h192v-26l-72 -10c22 -12 40.333 -28.333 55 -49s22 -43 22 -67c0 -100.667 -65.667 -151 -197 -151c-34.667 0 -60.5 -2.5 -77.5 -7.5s-25.5 -13.5 -25.5 -25.5c0 -22 34.333 -33 103 -33c66.667 -0.666992 121.167 -14 163.5 -40
s63.5 -64.667 63.5 -116c0 -54.667 -20.333 -94.167 -61 -118.5s-96 -36.5 -166 -36.5c-69.333 0 -124.333 12.167 -165 36.5zM318 241.5c17.333 18.333 26 47.167 26 86.5c0 38 -8.66699 66.833 -26 86.5s-40.333 29.5 -69 29.5s-51.5 -9.33301 -68.5 -28
s-25.5 -48 -25.5 -88s8.5 -69 25.5 -87s39.833 -27 68.5 -27s51.667 9.16699 69 27.5zM340.5 -130.499c22.333 19 33.5 47.5 33.5 85.5c0 32.667 -9.83301 58.5 -29.5 77.5s-48.167 31.167 -85.5 36.5l-53 5c-26 -10.667 -46 -25.5 -60 -44.5s-21 -43.833 -21 -74.5
c0 -38 11.167 -66.5 33.5 -85.5s52.5 -28.5 90.5 -28.5c38.667 0 69.167 9.5 91.5 28.5z" />
    <glyph glyph-name="h" unicode="h" horiz-adv-x="533" 
d="M69 537c0 34 -4.66699 59.167 -14 75.5s-28 24.5 -56 24.5h-18v23h98c24 0 42.333 -3.33301 55 -10s21.667 -18.667 27 -36s8 -43 8 -77v-104c14.667 13.333 32.667 24.5 54 33.5s45 13.5 71 13.5c51.333 0 93.333 -13.5 126 -40.5s49 -73.833 49 -140.5v-299h-100v298
c0 46.667 -10 81 -30 103s-45 33 -75 33c-18 0 -35.167 -4.66699 -51.5 -14s-30.833 -21 -43.5 -35v-385h-100v537z" />
    <glyph glyph-name="i" unicode="i" horiz-adv-x="251" 
d="M86 548c-11.333 13.333 -16.999 29.334 -16.999 48.001c0 14 4.5 25.333 13.5 34s20.5 13 34.5 13c18 0 32.667 -6.5 44 -19.5s17 -28.833 17 -47.5c0 -14.667 -4.33301 -26.334 -13 -35.001s-20.334 -13 -35.001 -13c-18 0 -32.667 6.66699 -44 20zM85.001 347.001
c0 34 -4.66699 59.167 -14 75.5s-28 24.5 -56 24.5h-17v23h97c24 0 42.333 -3.33301 55 -10s21.667 -18.667 27 -36s8 -43 8 -77v-347h-100v347z" />
    <glyph glyph-name="j" unicode="j" horiz-adv-x="251" 
d="M86 548c-11.333 13.333 -16.999 29.334 -16.999 48.001c0 14 4.5 25.333 13.5 34s20.5 13 34.5 13c18 0 32.667 -6.5 44 -19.5s17 -28.833 17 -47.5c0 -14.667 -4.33301 -26.334 -13 -35.001s-20.334 -13 -35.001 -13c-18 0 -32.667 6.66699 -44 20zM-7.99902 -168.999
c62 2.66699 93.001 67.333 93.001 194v322c0 34 -4.66699 59.167 -14 75.5s-28 24.5 -56 24.5h-17v23h97c24 0 42.333 -3.33301 55 -10s21.667 -18.667 27 -36s8 -43 8 -77v-322c0 -53.333 -5.83301 -95.333 -17.5 -126s-31.334 -53.167 -59.001 -67.5
s-66.5 -21.5 -116.5 -21.5v21z" />
    <glyph glyph-name="k" unicode="k" horiz-adv-x="490" 
d="M351.5 8.5c-24.333 12.333 -47.168 32.834 -68.501 61.501l-114 151v-221h-100v537c0 34 -4.66699 59.167 -14 75.5s-28 24.5 -56 24.5h-18v23h98c24 0 42.333 -3.33301 55 -10s21.667 -18.667 27 -36s8 -43 8 -77v-292l124 157c19.333 23.333 38.666 40.5 57.999 51.5
s44.666 16.5 75.999 16.5h27v-25c-38.667 0 -70.667 -15.667 -96 -47l-107 -134l127 -164c18.667 -24.667 36.334 -43.334 53.001 -56.001s34.334 -20.667 53.001 -24v-20c-6 -2.66699 -14.167 -5 -24.5 -7s-20.5 -3 -30.5 -3c-27.333 0 -53.166 6.16699 -77.499 18.5z" />
    <glyph glyph-name="l" unicode="l" horiz-adv-x="246" 
d="M73 537c0 34 -4.66699 59.167 -14 75.5s-28 24.5 -56 24.5h-18v23h98c24 0 42.333 -3.33301 55 -10s21.667 -18.667 27 -36s8 -43 8 -77v-537h-100v537z" />
    <glyph glyph-name="m" unicode="m" horiz-adv-x="796" 
d="M85 347c0 34 -4.66895 59.168 -14.002 75.501s-28 24.5 -56 24.5h-17v23h92c24 0 42.667 -3.16699 56 -9.5s23 -16.166 29 -29.499h5c14.667 14 33 25.667 55 35s46.667 14 74 14c61.333 0 103 -22.333 125 -67c16.667 20.667 37.834 37 63.501 49s53.834 18 84.501 18
c46.667 0 83.167 -13.667 109.5 -41s39.5 -74 39.5 -140v-299h-101v299c0 48 -6.83301 82.5 -20.5 103.5s-33.5 31.5 -59.5 31.5c-18 0 -36.5 -6 -55.5 -18s-33.833 -25.333 -44.5 -40c5.33301 -12.667 8 -38.334 8 -77.001v-299h-100v299
c0 47.333 -6.83301 81.666 -20.5 102.999s-33.5 32 -59.5 32c-17.333 0 -34 -4.5 -50 -13.5s-30 -20.5 -42 -34.5v-386h-101v347z" />
    <glyph glyph-name="n" unicode="n" horiz-adv-x="552" 
d="M85 347c0 34 -4.66699 59.166 -14 75.499s-28 24.5 -56 24.5h-17v23h92c24 0 42.667 -3.16699 56 -9.5s23 -16.166 29 -29.499c38.667 32.667 84.667 49 138 49c116.667 0 175 -60.333 175 -181v-299h-100v299c0 46 -10 80 -30 102s-45.333 33 -76 33
c-34.667 0 -66.667 -15.333 -96 -46v-388h-101v347z" />
    <glyph glyph-name="o" unicode="o" horiz-adv-x="536" 
d="M148 22.5c-34 21.667 -60 51 -78 88s-27 78.5 -27 124.5s9 87.5 27 124.5s44 66.333 78 88s74 32.5 120 32.5s86 -10.833 120 -32.5s60 -51 78 -88s27 -78.5 27 -124.5s-9 -87.5 -27 -124.5s-44 -66.333 -78 -88s-74 -32.5 -120 -32.5s-86 10.833 -120 32.5zM355 89
c22 38.667 33 87.334 33 146.001s-11 107.334 -33 146.001s-51 58 -87 58s-65 -19.333 -87 -58s-33 -87.334 -33 -146.001s11 -107.334 33 -146.001s51 -58 87 -58s65 19.333 87 58z" />
    <glyph glyph-name="p" unicode="p" horiz-adv-x="546" 
d="M85 347c0 34 -4.66602 59.167 -13.999 75.5s-28 24.5 -56 24.5h-17v23h92c24.667 0 43.5 -3.33301 56.5 -10s22.5 -18 28.5 -34c39.333 36 85.666 54 138.999 54c60 0 106.333 -23 139 -69s49 -104.667 49 -176c0 -72 -16.833 -130.833 -50.5 -176.5
s-82.5 -68.5 -146.5 -68.5c-42 0 -81.667 10 -119 30v-210h-101v537zM367.501 86.5c19 37 28.5 86.5 28.5 148.5c0 61.333 -9 110.666 -27 147.999s-45.333 56 -82 56c-43.333 0 -77 -18 -101 -54v-324c18 -9.33301 34.333 -16.666 49 -21.999s29 -8 43 -8
c40.667 0 70.5 18.5 89.5 55.5z" />
    <glyph glyph-name="q" unicode="q" horiz-adv-x="530" 
d="M361 20c-37.333 -20 -77.333 -30 -120 -30c-64 0 -112.833 22.833 -146.5 68.5s-50.5 104.5 -50.5 176.5c0 71.333 16.167 130 48.5 176s78.833 69 139.5 69c32 0 58.833 -5.33301 80.5 -16s38.167 -23.667 49.5 -39h5l35 45h59v-660h-100v210zM361 61v315.999
c-13.333 19.333 -27.5 34.5 -42.5 45.5s-34.5 16.5 -58.5 16.5c-37.333 0 -65 -18.667 -83 -56s-27 -86.666 -27 -147.999c0 -62 9.5 -111.5 28.5 -148.5s48.833 -55.5 89.5 -55.5c23.333 0 54.333 10 93 30z" />
    <glyph glyph-name="r" unicode="r" horiz-adv-x="402" 
d="M80 347c0 34 -4.66602 59.168 -13.999 75.501s-28 24.5 -56 24.5h-10v23h85c24.667 0 43.5 -3.33301 56.5 -10s22.5 -17.667 28.5 -33c14 14 31.833 26.333 53.5 37s45.5 16 71.5 16c26.667 0 47.667 -5.33301 63 -16c7.33301 -6 13.5 -12.333 18.5 -19
s10.5 -15.334 16.5 -26.001l-43 -33c-7.33301 10 -17.833 18 -31.5 24s-28.834 9 -45.501 9c-20 0 -38.167 -4 -54.5 -12s-29.5 -19 -39.5 -33c0.666992 -8 1 -19.667 1 -35v-339h-100v347z" />
    <glyph glyph-name="s" unicode="s" horiz-adv-x="452" 
d="M72 30c-10.667 11.333 -17.3311 24.668 -19.998 40.001s-4 38.333 -4 69h24c6 -34 20.167 -60.5 42.5 -79.5s53.833 -28.5 94.5 -28.5c36 0 62.833 6.33301 80.5 19s26.5 29.667 26.5 51c0 19.333 -7.33301 35.5 -22 48.5s-37.334 25.833 -68.001 38.5l-58 25
c-40.667 16.667 -71.167 35.667 -91.5 57s-30.5 47.666 -30.5 78.999c0 41.333 15.833 73.5 47.5 96.5s73.167 34.5 124.5 34.5c74 0 125 -13.333 153 -40c11.333 -11.333 18.333 -24.5 21 -39.5s4 -38.167 4 -69.5h-24c-6 34 -20.167 60.5 -42.5 79.5
s-52.833 28.5 -91.5 28.5c-30.667 0 -54.334 -6.5 -71.001 -19.5s-25 -29.833 -25 -50.5c0 -32.667 25.667 -60 77 -82l60 -25c46 -19.333 79.667 -39.5 101 -60.5s32 -47.833 32 -80.5c0 -41.333 -17 -73.5 -51 -96.5s-78 -34.5 -132 -34.5c-76.667 0 -129 13.333 -157 40z
" />
    <glyph glyph-name="t" unicode="t" horiz-adv-x="342" 
d="M122 23.5c-22.667 22.333 -34 55.833 -34 100.5v305h-67v41h67v90l50 60h51v-150h117v-41h-117v-306c0 -31.333 5.33301 -54.5 16 -69.5s27 -22.5 49 -22.5c16 0 29.667 2 41 6s23 9.33301 35 16l11 -22c-33.333 -27.333 -75.333 -41 -126 -41
c-39.333 0 -70.333 11.167 -93 33.5z" />
    <glyph glyph-name="u" unicode="u" horiz-adv-x="543" 
d="M72 171l-0.000976562 176.001c0 34 -4.66699 59.167 -14 75.5s-28 24.5 -56 24.5h-10v23h91c24 0 42.333 -3.33301 55 -10s21.667 -18.667 27 -36s8 -43 8 -77v-176c0 -47.333 9.5 -81.833 28.5 -103.5s43.833 -32.5 74.5 -32.5c34.667 0 67.334 18.667 98.001 56v379
h100v-470h-59l-35 41h-5c-14.667 -14.667 -33 -26.834 -55 -36.501s-46.667 -14.5 -74 -14.5c-116 0 -174 60.333 -174 181z" />
    <glyph glyph-name="v" unicode="v" horiz-adv-x="498" 
d="M93 355c-16 37.333 -31.168 63.5 -45.501 78.5s-32.5 23.167 -54.5 24.5v20c3.33301 0 8.33301 0.333008 15 1s13.334 1 20.001 1c38 0 71.5 -8.83301 100.5 -26.5s54.167 -50.5 75.5 -98.5l89 -209l139 324h51l-207 -480h-24z" />
    <glyph glyph-name="w" unicode="w" horiz-adv-x="756" 
d="M95 355c-16 37.333 -31.3301 63.502 -45.9971 78.502s-33.334 23.167 -56.001 24.5v20l38 2c38 0 70.833 -9.16699 98.5 -27.5s51.167 -50.833 70.5 -97.5l85 -205l81 201c-17.333 39.333 -33.333 66.666 -48 81.999s-32.334 23.666 -53.001 24.999v20l36 2
c38.667 0 72.167 -9.16699 100.5 -27.5s52.166 -50.833 71.499 -97.5l87 -208l128 323h51l-193 -480h-26l-127 302l-122 -302h-27z" />
    <glyph glyph-name="x" unicode="x" horiz-adv-x="490" 
d="M196 221l-89 149c-28 48 -61.333 74.667 -100 80v20h87c46.667 0 85.667 -26.667 117 -80l59 -99l130 179h54l-162 -221l90 -149c27.333 -48 62 -74.667 104 -80v-20h-92c-46.667 0 -85.667 26.667 -117 80l-58 99l-130 -179h-55z" />
    </font>
</defs>
</svg>
