<?xml version="1.0" encoding="UTF-8" standalone="no"?>
<svg width="227px" height="108px" viewBox="0 0 227 108" version="1.1" xmlns="http://www.w3.org/2000/svg" xmlns:xlink="http://www.w3.org/1999/xlink">
    <!-- Generator: Sketch 41.2 (35397) - http://www.bohemiancoding.com/sketch -->
    <title>DEANDUBLINlogo_big</title>
    <desc>Created with Sketch.</desc>
    <defs></defs>
    <g id="COLLECTIONS" stroke="none" stroke-width="1" fill="none" fill-rule="evenodd">
        <g id="Medium-Device-Desktops" transform="translate(-671.000000, -2110.000000)" fill="#000000">
            <g id="HOTEL_Partner" transform="translate(588.000000, 1862.000000)">
                <g id="DEANDUBLINlogo_big" transform="translate(83.000000, 248.000000)">
                    <g id="Layer_1">
                        <g id="Group">
                            <path d="M80.079,107.699 L80.428,106.864 L80.428,98.879 L80.079,98.044 L80.079,98.015 L86.726,98.015 L88.329,99.661 L88.329,106.028 L86.767,107.729 L80.079,107.729 L80.079,107.699 Z M82.63,100.022 L82.63,105.72 L85.681,105.72 L86.127,105.233 L86.127,100.508 L85.654,100.022 L82.63,100.022 Z" id="Shape"></path>
                            <polygon id="Shape" points="99.822 107.727 95.056 107.727 93.481 106.068 93.481 98.879 93.133 98.044 93.133 98.014 96.06 98.014 96.06 98.044 95.711 98.879 95.711 105.274 96.143 105.72 98.708 105.72 99.152 105.233 99.152 98.879 98.804 98.044 98.804 98.014 101.73 98.014 101.73 98.044 101.382 98.879 101.382 106.027"></polygon>
                            <path d="M106.465,107.699 L106.813,106.864 L106.813,98.879 L106.465,98.044 L106.465,98.015 L112.819,98.015 L114.394,99.338 L114.394,101.959 L113.043,102.809 L114.562,103.604 L114.562,106.406 L113.029,107.728 L106.466,107.728 L106.466,107.699 L106.465,107.699 Z M111.552,99.882 L109.016,99.882 L109.016,101.791 L111.593,101.791 L112.194,101.374 L112.194,100.314 L111.552,99.882 Z M111.664,103.757 L109.016,103.757 L109.016,105.86 L111.706,105.86 L112.36,105.374 L112.36,104.259 L111.664,103.757 Z" id="Shape"></path>
                            <polygon id="Shape" points="119.645 106.613 119.645 99.129 119.296 98.014 122.195 98.014 121.846 99.129 121.846 105.72 125.175 105.72 126.167 105.498 125.72 107.727 119.296 107.727"></polygon>
                            <polygon id="Shape" points="133.173 107.727 130.273 107.727 130.273 107.699 130.622 106.864 130.622 98.879 130.273 98.044 130.273 98.014 133.173 98.014 133.173 98.044 132.825 98.879 132.825 106.864 133.173 107.699"></polygon>
                            <polygon id="Shape" points="140.639 107.727 137.908 107.727 137.908 107.699 138.256 106.864 138.256 98.879 137.908 98.044 137.908 98.014 140.556 98.014 143.915 103.673 143.915 98.879 143.565 98.044 143.565 98.014 146.297 98.014 146.297 98.044 145.948 98.879 145.948 106.864 146.297 107.699 146.297 107.727 144.054 107.727 140.292 101.416 140.292 106.864 140.639 107.699"></polygon>
                            <path d="M72.939,63.435 L79.228,57.123 L79.228,27.397 L73.034,21.202 L55.797,21.202 L55.797,22.275 C57.095,23.909 57.153,25.767 57.153,29.536 L57.153,55.098 C57.153,58.88 57.095,60.729 55.797,62.369 L55.797,63.435 L72.939,63.435 Z M105.657,63.435 L107.335,55.894 L106.28,55.894 C104.688,57.195 102.824,57.245 99.11,57.245 L92.515,57.245 L92.515,43.954 L93.871,43.954 C97.649,43.954 99.505,44.011 101.147,45.308 L101.979,45.308 L101.979,36.408 L101.147,36.408 C99.505,37.708 97.649,37.758 93.871,37.758 L92.515,37.758 L92.515,27.398 L97.534,27.398 C101.248,27.398 103.106,27.456 104.688,28.75 L105.756,28.75 L104,21.202 L84.413,21.202 L84.413,22.275 C85.71,23.909 85.761,25.767 85.761,29.536 L85.761,55.098 C85.761,58.88 85.71,60.729 84.413,62.369 L84.413,63.435 L105.657,63.435 Z M119.722,63.435 L119.722,62.426 C118.993,61.468 118.591,59.78 119.272,56.568 L121.07,49.355 L129.906,49.355 L131.605,56.123 C132.392,59.665 131.985,61.469 131.26,62.427 L131.26,63.436 L141.677,63.436 L141.677,62.427 C140.207,60.903 139.247,59.493 138.143,55.5 L131.201,27.734 C130.701,24.868 131.425,23.343 132.492,22.218 L132.492,21.203 L118.592,21.203 L118.592,22.218 C119.723,23.466 120.564,24.868 120.061,27.792 L113.076,55.5 C111.994,59.493 111.103,60.838 109.586,62.427 L109.586,63.436 L119.722,63.436 L119.722,63.435 Z M144.838,63.435 L154.296,63.435 L154.296,62.369 C152.997,60.729 152.935,58.881 152.935,55.098 L152.935,39.561 L162.455,55.606 L162.455,63.435 L170.58,63.435 L170.58,62.369 C169.267,60.729 169.203,58.881 169.203,55.098 L169.203,29.537 C169.203,25.767 169.266,23.91 170.58,22.276 L170.58,21.203 L161.107,21.203 L161.107,21.828 C162.398,23.465 162.455,25.32 162.455,29.086 L162.455,42.774 L152.935,26.556 L152.935,21.203 L144.838,21.203 L144.838,22.276 C146.128,23.91 146.18,25.768 146.18,29.537 L146.18,55.099 C146.18,58.881 146.128,60.73 144.838,62.37 L144.838,63.435 Z M128.513,43.168 L122.478,43.168 L125.516,30.782 L128.513,43.168 Z M69.664,27.397 L72.473,30.208 L72.473,54.428 L69.664,57.245 L63.907,57.245 L63.907,27.397 L69.664,27.397 Z" id="Shape"></path>
                            <path d="M226.376,0 L226.376,0 L0,0 L0,84.64 L226.377,84.642 L226.377,0 L226.376,0 Z M5.562,5.545 L220.814,5.545 L220.814,79.094 L5.562,79.094 L5.562,5.545 Z" id="Shape"></path>
                        </g>
                    </g>
                </g>
            </g>
        </g>
    </g>
</svg>