<?xml version="1.0" encoding="utf-8"?>
<!-- Generator: Adobe Illustrator 16.0.0, SVG Export Plug-In . SVG Version: 6.00 Build 0)  -->
<!DOCTYPE svg PUBLIC "-//W3C//DTD SVG 1.1//EN" "http://www.w3.org/Graphics/SVG/1.1/DTD/svg11.dtd">
<svg version="1.1" id="Layer_1" xmlns="http://www.w3.org/2000/svg" xmlns:xlink="http://www.w3.org/1999/xlink" x="0px" y="0px"
	 width="70.536px" height="19.962px" viewBox="0 0 70.536 19.962" enable-background="new 0 0 70.536 19.962" xml:space="preserve">
<g>
	<path fill-rule="evenodd" clip-rule="evenodd" fill="#FFFFFF" d="M26.402,0c0,6.604,0,13.207,0,19.944c-1.003,0-1.845,0-3.072,0
		c0-3.015,0.045-9.299,0.003-9.653c-0.94,2.311-4.396,9.611-4.562,9.604c-0.417-0.018-0.312,0.021-1.229,0.021
		c-1.167,0-0.782-0.011-1.604-0.021c-0.192-0.002-3-7.232-4.372-9.627c0,3.144,0,6.286,0,9.62c-1.13,0-2.092,0-3.405,0
		c0-6.687,0-13.287,0-19.888c1.12,0,2.24,0,3.36,0c1.894,4.69,3.788,9.379,5.954,14.744C19.496,9.391,21.269,4.695,23.042,0
		C24.162,0,25.282,0,26.402,0z"/>
	<path fill-rule="evenodd" clip-rule="evenodd" fill="#FFFFFF" d="M49.924,0c0,6.616,0,13.231,0,19.962c-1.182,0-2.105,0-3.235,0
		c0-3.118,0-6.206,0-9.295c-0.194-0.055-0.389-0.109-0.583-0.164c-0.987,2.505-3.583,9.351-3.667,9.35
		c-0.687-0.008-1.062,0.062-1.708,0.042c-0.521-0.017-0.812-0.021-1.521-0.042c-0.14-0.004-2.745-6.797-4.163-9.232
		c0,3.073,0,6.145,0,9.333c-1.282,0-2.195,0-3.364,0c0-6.72,0-13.337,0-19.954c1.12,0,2.24,0,3.361,0
		c1.808,4.651,3.922,9.973,5.729,14.625C41.917,11.853,44.745,4.623,46.564,0C47.684,0,48.804,0,49.924,0z"/>
	<path fill-rule="evenodd" clip-rule="evenodd" fill="#FFFFFF" d="M67.067,19.911c-0.734-1.641-0.797-1.984-1.812-4.516
		c-2.084,0-4.44,0.065-6.273,0.045c-0.602,1.439-1.148,2.674-1.992,4.439c-0.376,0-2.641,0.016-3.339,0.017
		c1.901-5.726,3.769-11.313,5.604-16.911C59.573,2.012,59.758,0.996,60.005,0c1.12,0,2.24,0,3.36,0
		c0.339,0.97,0.679,1.94,1.019,2.911c1.9,5.431,4.25,11.538,6.151,16.969C69.989,19.879,68.661,19.895,67.067,19.911z
		 M59.685,12.375c1.545,0,2.831,0,4.358,0c-0.742-2.142-1.401-4.04-2.263-6.525C60.951,8.434,60.332,10.361,59.685,12.375z"/>
	<path fill-rule="evenodd" clip-rule="evenodd" fill="#FFFFFF" d="M3.36,0c0,6.6,0,13.161,0,19.894c-1.59,0-2.319,0.021-3.36,0
		C0,13.173,0,6.721,0,0C1.12,0,2.24,0,3.36,0z"/>
</g>
</svg>
