<?xml version="1.0" encoding="UTF-8" standalone="no"?>
<svg width="104px" height="59px" viewBox="0 0 104 59" version="1.1" xmlns="http://www.w3.org/2000/svg" xmlns:xlink="http://www.w3.org/1999/xlink">
    <!-- Generator: Sketch 41.1 (35376) - http://www.bohemiancoding.com/sketch -->
    <title>Soundcloud-color</title>
    <desc>Created with Sketch.</desc>
    <defs></defs>
    <g id="HOME" stroke="none" stroke-width="1" fill="none" fill-rule="evenodd">
        <g id="Medium-Device-Desktops" transform="translate(-731.000000, -1282.000000)" fill="#FF4300">
            <g id="SOCIALSECTION" transform="translate(-2.000000, 1192.000000)">
                <path d="M733,137.997318 C733,139.306106 733.467881,140.295691 734.403443,140.966477 C735.339105,141.637163 736.339228,141.874302 737.403909,141.678094 C738.404031,141.481786 739.105753,141.121854 739.509173,140.5984 C739.912395,140.074945 740.114106,139.207851 740.114106,137.997318 L740.114106,123.764985 C740.114106,122.750659 739.767311,121.891812 739.073622,121.188441 C738.380032,120.484971 737.533126,120.133286 736.532905,120.133286 C735.565013,120.133286 734.734272,120.484971 734.040583,121.188441 C733.346894,121.891812 733,122.750659 733,123.764985 L733,137.997318 L733,137.997318 Z M744.130758,144.082868 C744.130758,145.031824 744.461488,145.74334 745.122848,146.217818 C745.784307,146.692297 746.631212,146.929435 747.663564,146.929435 C748.728246,146.929435 749.591217,146.692196 750.252676,146.217818 C750.914036,145.743441 751.244765,145.031824 751.244765,144.082868 L751.244765,110.906807 C751.244765,109.925267 750.897871,109.082711 750.204281,108.379341 C749.510592,107.675971 748.663687,107.324185 747.663564,107.324185 C746.695672,107.324185 745.864832,107.675971 745.171242,108.379341 C744.477553,109.082812 744.130758,109.925267 744.130758,110.906807 L744.130758,144.082868 L744.130758,144.082868 Z M755.213122,145.653332 C755.213122,146.602188 755.551885,147.313805 756.229409,147.788283 C756.906933,148.26266 757.778036,148.499899 758.842817,148.499899 C759.875169,148.499899 760.722074,148.26266 761.383434,147.788283 C762.044893,147.313805 762.375623,146.602188 762.375623,145.653332 L762.375623,115.372815 C762.375623,114.358591 762.028729,113.491496 761.335139,112.771734 C760.64145,112.051971 759.810709,111.69214 758.842817,111.69214 C757.842595,111.69214 756.987657,112.051971 756.277903,112.771734 C755.568148,113.491496 755.213222,114.358591 755.213222,115.372815 L755.213222,145.653332 L755.213122,145.653332 Z M766.343881,145.800563 C766.343881,147.600121 767.537581,148.499899 769.925081,148.499899 C772.312482,148.499899 773.506183,147.600121 773.506183,145.800563 L773.506183,96.7235507 C773.506183,93.975238 772.683475,92.4211661 771.038058,92.0612345 C769.973377,91.7994569 768.924761,92.1103115 767.892409,92.9936978 C766.859958,93.877084 766.343782,95.1203013 766.343782,96.7235507 L766.343782,145.800563 L766.343881,145.800563 Z M777.668317,147.223797 L777.668317,93.828007 C777.668317,92.1267041 778.168328,91.1124793 779.16855,90.7852322 C781.330142,90.2617776 783.475669,90 785.605032,90 C790.541182,90 795.138768,91.1778483 799.397394,93.5335449 C803.656119,95.8892415 807.100268,99.1037858 809.729642,103.177178 C812.359115,107.25067 813.883545,111.741117 814.302932,116.648918 C816.270946,115.798217 818.367979,115.372916 820.594131,115.372916 C825.110993,115.372916 828.974529,116.992457 832.184638,120.23154 C835.394846,123.470724 837,127.3641 837,131.91197 C837,136.492524 835.394846,140.402293 832.184638,143.641376 C828.974529,146.880459 825.127158,148.5 820.642525,148.5 L778.539221,148.450923 C778.248755,148.352769 778.030979,148.172753 777.885795,147.911076 C777.740611,147.649399 777.668317,147.420105 777.668317,147.223797 L777.668317,147.223797 L777.668317,147.223797 Z" id="Soundcloud"></path>
            </g>
        </g>
    </g>
</svg>