<?xml version="1.0" encoding="UTF-8" standalone="no"?>
<svg width="58px" height="58px" viewBox="0 0 58 58" version="1.1" xmlns="http://www.w3.org/2000/svg" xmlns:xlink="http://www.w3.org/1999/xlink">
    <!-- Generator: Sketch 41.1 (35376) - http://www.bohemiancoding.com/sketch -->
    <title>Wordpress-color</title>
    <desc>Created with Sketch.</desc>
    <defs></defs>
    <g id="HOME" stroke="none" stroke-width="1" fill="none" fill-rule="evenodd">
        <g id="Medium-Device-Desktops" transform="translate(-654.000000, -1283.000000)" fill="#00759D">
            <g id="SOCIALSECTION" transform="translate(-2.000000, 1192.000000)">
                <path d="M656,119.999 C656,131.477884 662.670187,141.397975 672.34377,146.097919 L658.510383,108.197482 C656.90265,111.802645 656,115.793882 656,119.999 Z M704.576723,118.536271 C704.576723,114.951046 703.288,112.469664 702.185969,110.539297 C700.71599,108.148543 699.336639,106.125736 699.336639,103.736794 C699.336639,101.070532 701.357633,98.5891501 704.206963,98.5891501 C704.335654,98.5891501 704.457095,98.6054631 704.582161,98.6127133 C699.423642,93.8855808 692.548636,91 684.999362,91 C674.867204,91 665.954891,96.1983956 660.769184,104.070304 C661.450703,104.092054 662.092346,104.104742 662.636111,104.104742 C665.668508,104.104742 670.364827,103.736794 670.364827,103.736794 C671.927246,103.644354 672.112126,105.942669 670.549708,106.125736 C670.549708,106.125736 668.978226,106.310616 667.230927,106.403057 L677.790848,137.814562 L684.138401,118.780966 L679.621524,106.403057 C678.059106,106.310616 676.578252,106.125736 676.578252,106.125736 C675.015833,106.033296 675.1989,103.644354 676.763132,103.736794 C676.763132,103.736794 681.551891,104.104742 684.401221,104.104742 C687.433618,104.104742 692.129937,103.736794 692.129937,103.736794 C693.694169,103.644354 693.877236,105.942669 692.314817,106.125736 C692.314817,106.125736 690.741523,106.310616 688.996037,106.403057 L699.476206,137.575305 L702.370849,127.910784 C703.621509,123.897797 704.576723,121.017654 704.576723,118.536271 Z M710.447213,106.086404 C710.572279,107.010805 710.642968,108.000458 710.642968,109.06805 C710.642968,112.00982 710.091953,115.317725 708.437094,119.455779 L699.579158,145.065309 C708.201463,140.039105 713.999812,130.697218 713.999812,119.999544 C713.999812,114.957027 712.711089,110.217207 710.447213,106.086404 Z M685.508689,122.535846 L676.806633,147.819117 C679.405831,148.584013 682.153658,149.0009 684.999362,149.0009 C688.376145,149.0009 691.615173,148.417259 694.629445,147.356916 C694.553318,147.23185 694.480816,147.101347 694.422814,146.958155 L685.508689,122.535846 Z" id="Wordpress"></path>
            </g>
        </g>
    </g>
</svg>